<svg width="20" height="21" viewBox="0 0 20 21" fill="none" xmlns="http://www.w3.org/2000/svg">
<path d="M16.8749 14.1004V6.42289C17.3014 6.3136 17.6914 6.0934 18.0053 5.78464C18.3191 5.47588 18.5457 5.08956 18.662 4.66492C18.7783 4.24027 18.7801 3.79242 18.6673 3.36683C18.5545 2.94124 18.3311 2.55308 18.0198 2.24175C17.7085 1.93043 17.3203 1.70703 16.8947 1.59424C16.4692 1.48146 16.0213 1.48329 15.5967 1.59957C15.172 1.71585 14.7857 1.94242 14.4769 2.25629C14.1682 2.57016 13.948 2.96014 13.8387 3.38664H6.16117C6.05188 2.96014 5.83168 2.57016 5.52292 2.25629C5.21416 1.94242 4.82784 1.71585 4.4032 1.59957C3.97855 1.48329 3.5307 1.48146 3.10511 1.59424C2.67952 1.70703 2.29136 1.93043 1.98004 2.24175C1.66871 2.55308 1.44531 2.94124 1.33253 3.36683C1.21974 3.79242 1.22157 4.24027 1.33785 4.66492C1.45413 5.08956 1.68071 5.47588 1.99457 5.78464C2.30844 6.0934 2.69843 6.3136 3.12492 6.42289V14.1004C2.69843 14.2097 2.30844 14.4299 1.99457 14.7386C1.68071 15.0474 1.45413 15.4337 1.33785 15.8584C1.22157 16.283 1.21974 16.7309 1.33253 17.1565C1.44531 17.582 1.66871 17.9702 1.98004 18.2815C2.29136 18.5929 2.67952 18.8163 3.10511 18.929C3.5307 19.0418 3.97855 19.04 4.4032 18.9237C4.82784 18.8074 5.21416 18.5809 5.52292 18.267C5.83168 17.9531 6.05188 17.5631 6.16117 17.1366H13.8387C13.948 17.5631 14.1682 17.9531 14.4769 18.267C14.7857 18.5809 15.172 18.8074 15.5967 18.9237C16.0213 19.04 16.4692 19.0418 16.8947 18.929C17.3203 18.8163 17.7085 18.5929 18.0198 18.2815C18.3311 17.9702 18.5545 17.582 18.6673 17.1565C18.7801 16.7309 18.7783 16.283 18.662 15.8584C18.5457 15.4337 18.3191 15.0474 18.0053 14.7386C17.6914 14.4299 17.3014 14.2097 16.8749 14.1004ZM16.2499 2.76164C16.4972 2.76164 16.7388 2.83495 16.9444 2.97231C17.1499 3.10966 17.3102 3.30488 17.4048 3.53329C17.4994 3.7617 17.5241 4.01303 17.4759 4.25551C17.4277 4.49798 17.3086 4.72071 17.1338 4.89553C16.959 5.07034 16.7363 5.18939 16.4938 5.23762C16.2513 5.28586 16 5.2611 15.7716 5.16649C15.5432 5.07188 15.3479 4.91167 15.2106 4.70611C15.0732 4.50054 14.9999 4.25887 14.9999 4.01164C15.0003 3.68022 15.1321 3.36247 15.3664 3.12813C15.6008 2.89378 15.9185 2.76197 16.2499 2.76164ZM2.49992 4.01164C2.49992 3.76442 2.57324 3.52274 2.71059 3.31718C2.84794 3.11162 3.04316 2.9514 3.27157 2.85679C3.49998 2.76218 3.75131 2.73743 3.99379 2.78566C4.23626 2.83389 4.45899 2.95294 4.63381 3.12776C4.80862 3.30258 4.92767 3.5253 4.97591 3.76778C5.02414 4.01026 4.99938 4.26159 4.90477 4.49C4.81016 4.71841 4.64995 4.91363 4.44439 5.05098C4.23883 5.18833 3.99715 5.26164 3.74992 5.26164C3.41851 5.26131 3.10076 5.12951 2.86641 4.89516C2.63206 4.66081 2.50026 4.34306 2.49992 4.01164ZM3.74992 17.7616C3.5027 17.7616 3.26102 17.6883 3.05546 17.551C2.8499 17.4136 2.68968 17.2184 2.59507 16.99C2.50047 16.7616 2.47571 16.5103 2.52394 16.2678C2.57217 16.0253 2.69123 15.8026 2.86604 15.6278C3.04086 15.4529 3.26359 15.3339 3.50606 15.2857C3.74854 15.2374 3.99987 15.2622 4.22828 15.3568C4.45669 15.4514 4.65191 15.6116 4.78926 15.8172C4.92661 16.0227 4.99992 16.2644 4.99992 16.5116C4.99959 16.8431 4.86779 17.1608 4.63344 17.3952C4.39909 17.6295 4.08134 17.7613 3.74992 17.7616ZM13.8387 15.8866H6.16117C6.04922 15.4569 5.82467 15.0649 5.51068 14.7509C5.19669 14.4369 4.80463 14.2123 4.37492 14.1004V6.42289C4.8046 6.31088 5.19663 6.08631 5.51061 5.77233C5.82459 5.45835 6.04916 5.06632 6.16117 4.63664H13.8387C13.9506 5.06635 14.1752 5.45841 14.4892 5.7724C14.8032 6.08639 15.1952 6.31094 15.6249 6.42289V14.1004C15.1952 14.2123 14.8031 14.4368 14.4891 14.7508C14.1751 15.0648 13.9506 15.4569 13.8387 15.8866ZM16.2499 17.7616C16.0027 17.7616 15.761 17.6883 15.5555 17.551C15.3499 17.4136 15.1897 17.2184 15.0951 16.99C15.0005 16.7616 14.9757 16.5103 15.0239 16.2678C15.0722 16.0253 15.1912 15.8026 15.366 15.6278C15.5409 15.4529 15.7636 15.3339 16.0061 15.2857C16.2485 15.2374 16.4999 15.2622 16.7283 15.3568C16.9567 15.4514 17.1519 15.6116 17.2893 15.8172C17.4266 16.0227 17.4999 16.2644 17.4999 16.5116C17.4994 16.843 17.3676 17.1607 17.1333 17.395C16.8989 17.6293 16.5813 17.7611 16.2499 17.7616Z" fill="#0E1418"/>
<circle cx="4" cy="4.2616" r="2" fill="#0E1418"/>
<circle cx="16" cy="4.2616" r="2" fill="#0E1418"/>
<circle cx="16" cy="16.2617" r="2" fill="#0E1418"/>
<circle cx="4" cy="16.2617" r="2" fill="#0E1418"/>
</svg>
