<svg width="60" height="60" viewBox="0 0 60 60" fill="none" xmlns="http://www.w3.org/2000/svg">
<path d="M42.6787 39.2446C42.5518 39.3126 42.4342 39.3891 42.3251 39.4763C42.1507 39.6152 41.9969 39.781 41.8588 39.9759L40.5095 41.8843C40.1417 42.3889 39.6803 42.7766 39.1382 43.0366C38.589 43.2939 37.9923 43.4087 37.3665 43.3725L35.0832 43.2414C34.8394 43.228 34.6126 43.2443 34.3986 43.2925C34.186 43.3421 33.9741 43.4257 33.7587 43.5448L31.7617 44.651C31.5399 44.7743 31.3131 44.8728 31.0821 44.9479L37.397 55.8841L39.2402 47.5579C39.3267 47.2397 39.6555 47.0527 39.9737 47.1391L48.6046 49.5082L42.6787 39.2446ZM28.9164 44.9479C28.6861 44.8728 28.4586 44.7736 28.2375 44.651L26.2376 43.5412C26.0271 43.425 25.8167 43.3421 25.5906 43.2896C25.3723 43.2429 25.1519 43.228 24.9152 43.2407L22.6326 43.3725C21.9941 43.4094 21.3868 43.2889 20.8461 43.0288C20.3046 42.7688 19.832 42.3669 19.4606 41.8425L18.1276 39.9596C17.9909 39.7704 17.8413 39.6088 17.6663 39.4692C17.5543 39.3813 17.4423 39.3083 17.3205 39.2431L11.3932 49.5089L20.0538 47.1334C20.3755 47.0626 20.6951 47.266 20.766 47.5877L22.6021 55.8841L28.9164 44.9479ZM30.5321 15.427L33.1592 20.5478L38.8405 21.4641C39.1665 21.5151 39.3883 21.822 39.3373 22.148C39.3168 22.2769 39.2565 22.3896 39.1708 22.4754L35.1122 26.5594L35.996 32.2465C36.0463 32.5725 35.823 32.8779 35.497 32.9282C35.3688 32.9481 35.2441 32.9254 35.137 32.8715L29.9999 30.2721L24.8635 32.8722C24.5687 33.0203 24.208 32.902 24.0599 32.6072C23.9968 32.4825 23.9819 32.3457 24.0081 32.2181L24.8876 26.5594L20.8284 22.4761C20.5959 22.2422 20.5973 21.8624 20.8312 21.6299C20.9283 21.5336 21.0502 21.4776 21.1756 21.4613L26.8407 20.5478L29.4677 15.427C29.6179 15.1336 29.9787 15.0167 30.272 15.1669C30.3883 15.2264 30.4769 15.3185 30.5321 15.427ZM32.2329 21.3621L29.9999 17.0087L27.7669 21.3621C27.6826 21.5265 27.5245 21.6498 27.3282 21.6802L22.4987 22.4591L25.9492 25.9294C26.0774 26.0605 26.1448 26.2476 26.115 26.4425L25.3638 31.2777L29.7306 29.0674C29.8943 28.9852 30.0935 28.9788 30.2692 29.0674L34.636 31.2777L33.8891 26.4701C33.8508 26.2809 33.9047 26.0761 34.0507 25.9294L37.5012 22.4591L32.6716 21.6802C32.4895 21.6512 32.3229 21.5385 32.2329 21.3621ZM29.9999 10.6477C26.3071 10.6477 22.9629 12.1444 20.5435 14.5624C19.2381 15.8685 18.202 17.4438 17.4962 19.2694C16.9342 20.7469 16.6288 22.3471 16.6288 24.0188C16.6288 25.6899 16.9342 27.2886 17.5245 28.8406C18.2027 30.5953 19.2388 32.1699 20.5435 33.4753C22.9629 35.8933 26.3071 37.39 29.9999 37.39C33.6928 37.39 37.0363 35.8933 39.4557 33.4753C40.761 32.1692 41.7978 30.5932 42.4916 28.7974C43.0642 27.2936 43.3703 25.6927 43.3703 24.0188C43.3703 22.3471 43.0635 20.7462 42.4753 19.1985C41.7978 17.4431 40.761 15.8685 39.4557 14.5624C37.0363 12.1444 33.6928 10.6477 29.9999 10.6477ZM19.6973 13.7162C22.335 11.0793 25.9789 9.44724 29.9999 9.44724C34.0209 9.44724 37.6642 11.0793 40.3004 13.7148C41.6376 15.0528 42.7162 16.648 43.4547 18.4197H48.7527L47.307 16.8039C47.0675 16.5367 46.8768 16.2568 46.7337 15.9599C46.5884 15.6552 46.4878 15.3327 46.4297 14.9833L46.0484 12.7277C45.9761 12.3003 45.8082 11.9191 45.5594 11.608C45.3107 11.2969 44.9769 11.0474 44.5772 10.883L42.4632 10.0106C42.1408 9.87669 41.8531 9.71228 41.588 9.50393C41.3251 9.29346 41.1005 9.05322 40.8985 8.77188L39.5613 6.88186C39.3132 6.52895 38.9957 6.25965 38.6343 6.08532C38.2757 5.91241 37.8661 5.83374 37.4317 5.85855L35.1505 5.99036C34.7969 6.00949 34.4617 5.98327 34.1357 5.90957C33.8083 5.83587 33.4922 5.71256 33.1804 5.53965L31.1806 4.43058C30.8035 4.22082 30.401 4.11594 29.9992 4.11594C29.5981 4.11594 29.1956 4.22082 28.8186 4.43058L26.8187 5.53894C26.5062 5.71185 26.1915 5.83516 25.8663 5.90957C25.541 5.98256 25.2093 6.00879 24.8607 5.99107L22.5674 5.85855C22.1436 5.83445 21.7432 5.90816 21.3776 6.07894C21.0147 6.25398 20.705 6.51265 20.4591 6.84926L19.1183 8.7492C18.915 9.03479 18.6903 9.27787 18.4288 9.49047C18.1595 9.70519 17.8668 9.87386 17.5359 10.0106L15.4226 10.883C15.0222 11.0481 14.6885 11.2962 14.4397 11.6087C14.191 11.9198 14.0223 12.301 13.9507 12.7291L13.5709 14.9833C13.5135 15.3207 13.4178 15.6332 13.274 15.9429C13.1216 16.2611 12.931 16.541 12.6929 16.806L11.2465 18.4197H16.5445C17.2829 16.648 18.3608 15.0528 19.6973 13.7162ZM43.894 19.6202C44.3334 21.0084 44.5708 22.486 44.5708 24.0188C44.5708 25.551 44.3334 27.0286 43.894 28.4168H52.5532C52.8884 28.4168 53.1946 28.2786 53.4157 28.0575C53.6368 27.8364 53.775 27.5303 53.775 27.1951V20.8419C53.775 20.5067 53.6368 20.2006 53.4157 19.9794C53.1946 19.7583 52.8884 19.6202 52.5532 19.6202H43.894ZM43.4554 29.6173C42.7169 31.389 41.6391 32.9842 40.3032 34.32C37.6642 36.9584 34.0209 38.5905 29.9999 38.5905C25.9789 38.5905 22.335 36.9584 19.6987 34.3229C18.3615 32.9849 17.2829 31.3897 16.5445 29.6173H11.2472L12.695 31.2324C12.9303 31.496 13.1202 31.7752 13.2655 32.0771C13.41 32.3783 13.5107 32.7007 13.5695 33.0529L13.9507 35.3079C14.023 35.7352 14.191 36.1165 14.4397 36.4276C14.6878 36.7387 15.0215 36.9882 15.4219 37.1533L17.5359 38.0257C17.859 38.1589 18.1475 38.3247 18.4118 38.5331C18.6733 38.7414 18.8979 38.9816 19.1006 39.263L20.4379 41.1537C20.6866 41.508 21.0027 41.7773 21.362 41.9502C21.7213 42.1232 22.1316 42.2025 22.5674 42.1777L24.85 42.0459C25.1952 42.0268 25.5233 42.0509 25.8542 42.1232C26.1915 42.2004 26.5062 42.3237 26.8187 42.4966L28.8186 43.6064C29.1956 43.8155 29.5981 43.9211 29.9992 43.9211C30.401 43.9211 30.8035 43.8155 31.1806 43.6064L33.1818 42.4945C33.4901 42.3244 33.8048 42.2018 34.1322 42.1267C34.4596 42.053 34.7955 42.0268 35.1484 42.0466L37.4317 42.1777C37.8555 42.2018 38.2559 42.1281 38.6216 41.9573C38.9844 41.7823 39.2941 41.5236 39.54 41.187L40.8808 39.2878C41.0913 38.9937 41.3216 38.7449 41.5795 38.5394C41.8396 38.3318 42.1323 38.1631 42.4632 38.0264L44.5772 37.154C44.9776 36.9889 45.3114 36.7394 45.5594 36.4283C45.8074 36.1165 45.9761 35.7352 46.0484 35.3079L46.4282 33.0536C46.4878 32.7021 46.5884 32.379 46.733 32.0778C46.8768 31.7795 47.0675 31.4995 47.3063 31.2331L48.7541 29.6173H43.4554ZM16.1051 28.4168C15.665 27.0286 15.4283 25.551 15.4283 24.0188C15.4283 22.486 15.665 21.0084 16.1051 19.6202H7.44659C7.1114 19.6202 6.80525 19.7583 6.58415 19.9794C6.36304 20.2006 6.22485 20.5067 6.22485 20.8419V27.1951C6.22485 27.5303 6.36304 27.8364 6.58415 28.0575C6.80525 28.2786 7.1114 28.4168 7.44659 28.4168H16.1051Z" fill="#0E1418"/>
</svg>
