<svg width="150" height="38" viewBox="0 0 150 38" fill="none" xmlns="http://www.w3.org/2000/svg">
<g clip-path="url(#clip0_28_114)">
<path d="M40.7733 27.3199C39.5041 27.3199 38.3709 27.0117 37.3736 26.3952C36.3763 25.7787 35.5876 24.9356 35.0074 23.8658C34.4272 22.796 34.1371 21.5812 34.1371 20.2213C34.1371 18.8614 34.4272 17.6556 35.0074 16.604C35.5876 15.5342 36.3763 14.7001 37.3736 14.1018C38.3709 13.4853 39.5041 13.1771 40.7733 13.1771C41.7887 13.1771 42.6771 13.3675 43.4388 13.7482C44.2 14.129 44.8169 14.6639 45.2881 15.3529V8.36182H48.7693V26.9935H45.6689L45.2881 25.0625C44.8528 25.6609 44.2727 26.1866 43.5477 26.6399C42.8405 27.0932 41.9156 27.3199 40.7733 27.3199ZM41.5076 24.2738C42.6319 24.2738 43.5477 23.902 44.2545 23.1586C44.9799 22.3971 45.3426 21.4271 45.3426 20.2485C45.3426 19.0699 44.9799 18.1089 44.2545 17.3655C43.5477 16.604 42.6319 16.2232 41.5076 16.2232C40.4016 16.2232 39.486 16.5949 38.7607 17.3383C38.0354 18.0817 37.6728 19.0427 37.6728 20.2213C37.6728 21.3999 38.0354 22.3699 38.7607 23.1314C39.486 23.893 40.4016 24.2738 41.5076 24.2738Z" fill="#051226"/>
<path d="M57.7833 27.3198C56.4234 27.3198 55.2179 27.0297 54.1662 26.4495C53.1144 25.8693 52.2894 25.0534 51.6911 24.0017C51.0928 22.9501 50.7935 21.7352 50.7935 20.3572C50.7935 18.9611 51.0839 17.7191 51.6641 16.6311C52.2624 15.5432 53.0781 14.7001 54.1117 14.1018C55.1635 13.4853 56.3963 13.177 57.8108 13.177C59.1345 13.177 60.3036 13.4671 61.319 14.0473C62.3345 14.6275 63.1232 15.4254 63.6852 16.4407C64.2657 17.438 64.5558 18.5531 64.5558 19.7861C64.5558 19.9855 64.5465 20.194 64.5283 20.4116C64.5283 20.6292 64.5195 20.8558 64.5013 21.0916H54.2477C54.3203 22.1432 54.683 22.9682 55.3357 23.5665C56.0066 24.1649 56.8135 24.4641 57.7563 24.4641C58.4635 24.4641 59.0525 24.3099 59.5242 24.0017C60.0135 23.6753 60.3762 23.2583 60.6122 22.7506H64.1479C63.8937 23.6028 63.4677 24.3825 62.8694 25.0896C62.2893 25.7786 61.5639 26.3226 60.6937 26.7215C59.8413 27.1204 58.8714 27.3198 57.7833 27.3198ZM57.8108 16.0056C56.9583 16.0056 56.2059 16.2504 55.5532 16.7399C54.9004 17.2113 54.4837 17.9366 54.3021 18.9158H61.0201C60.9656 18.0273 60.6393 17.3201 60.041 16.7943C59.4427 16.2685 58.6991 16.0056 57.8108 16.0056Z" fill="#051226"/>
<path d="M66.3979 26.9935V13.5034H69.4713L69.7432 15.788C70.1604 14.9902 70.7587 14.3556 71.5385 13.8842C72.3361 13.4127 73.27 13.177 74.3399 13.177C76.0077 13.177 77.3044 13.7028 78.229 14.7545C79.1537 15.8061 79.616 17.3473 79.616 19.3781V26.9935H76.1348V19.7045C76.1348 18.544 75.8992 17.6556 75.4276 17.0391C74.9564 16.4226 74.2217 16.1144 73.2244 16.1144C72.2453 16.1144 71.4384 16.4589 70.8038 17.1479C70.1874 17.8369 69.8792 18.7979 69.8792 20.0309V26.9935H66.3979Z" fill="#051226"/>
<path d="M82.9453 26.9935V13.5034H86.0187L86.3176 15.3256C86.7529 14.6729 87.3238 14.1561 88.031 13.7754C88.7564 13.3765 89.5902 13.177 90.5335 13.177C92.6184 13.177 94.0962 13.9839 94.9664 15.5976C95.4562 14.8542 96.1089 14.2649 96.9247 13.8298C97.759 13.3946 98.6655 13.177 99.6446 13.177C101.403 13.177 102.754 13.7028 103.697 14.7545C104.64 15.8061 105.111 17.3473 105.111 19.3781V26.9935H101.63V19.7045C101.63 18.544 101.403 17.6556 100.95 17.0391C100.515 16.4226 99.835 16.1144 98.9104 16.1144C97.9671 16.1144 97.2059 16.4589 96.6257 17.1479C96.0633 17.8369 95.7826 18.7979 95.7826 20.0309V26.9935H92.3013V19.7045C92.3013 18.544 92.0746 17.6556 91.6211 17.0391C91.1681 16.4226 90.4697 16.1144 89.5269 16.1144C88.6022 16.1144 87.8498 16.4589 87.2697 17.1479C86.7073 17.8369 86.4265 18.7979 86.4265 20.0309V26.9935H82.9453Z" fill="#051226"/>
<path d="M111.981 27.3198C110.821 27.3198 109.869 27.1385 109.126 26.7759C108.382 26.3951 107.829 25.8965 107.467 25.28C107.104 24.6636 106.923 23.9836 106.923 23.2402C106.923 21.9891 107.412 20.9737 108.391 20.194C109.37 19.4144 110.839 19.0245 112.797 19.0245H116.224V18.6981C116.224 17.7734 115.961 17.0935 115.436 16.6584C114.91 16.2232 114.257 16.0056 113.477 16.0056C112.77 16.0056 112.154 16.1778 111.628 16.5224C111.102 16.8487 110.776 17.3383 110.649 17.991H107.249C107.34 17.0119 107.666 16.1597 108.228 15.4344C108.808 14.7092 109.552 14.1561 110.459 13.7754C111.365 13.3765 112.38 13.177 113.504 13.177C115.426 13.177 116.94 13.6575 118.047 14.6185C119.153 15.5795 119.706 16.9394 119.706 18.6981V26.9935H116.741L116.415 24.8177C116.016 25.5429 115.454 26.1413 114.728 26.6127C114.021 27.0841 113.106 27.3198 111.981 27.3198ZM112.77 24.6001C113.767 24.6001 114.538 24.2737 115.082 23.621C115.644 22.9682 115.998 22.1613 116.143 21.2004H113.178C112.253 21.2004 111.592 21.3726 111.193 21.7171C110.794 22.0435 110.594 22.4515 110.594 22.941C110.594 23.4669 110.794 23.8748 111.193 24.1649C111.592 24.455 112.117 24.6001 112.77 24.6001Z" fill="#051226"/>
<path d="M123.028 26.9935V13.5034H126.129L126.455 16.0328C126.944 15.1625 127.606 14.4734 128.44 13.9658C129.292 13.4399 130.29 13.177 131.432 13.177V16.8487H130.453C129.691 16.8487 129.011 16.9666 128.413 17.2023C127.815 17.438 127.343 17.846 126.999 18.4262C126.672 19.0064 126.509 19.8133 126.509 20.8468V26.9935H123.028Z" fill="#051226"/>
<path d="M132.726 26.9935V8.36182H136.207V18.9702L140.994 13.5034H145.128L139.607 19.6501L146.025 26.9935H141.674L136.207 20.2213V26.9935H132.726Z" fill="#051226"/>
<path d="M20.148 4.34277H6.42395V8.68115H20.148C22.1041 8.68115 23.6898 10.2669 23.6898 12.223V23.645C23.6898 25.6012 22.1041 27.1869 20.148 27.1869H6.42395V31.5253H20.148C24.5001 31.5253 28.0282 27.9972 28.0282 23.645V12.223C28.0282 7.87086 24.5001 4.34277 20.148 4.34277Z" fill="#051226"/>
<path d="M19.5278 12.9111L16.4535 9.8501L6.51494 19.8317L3.52037 16.8242L0.446045 19.8853L6.51494 25.9804L19.5278 12.9111Z" fill="#051226"/>
</g>
<defs>
<clipPath id="clip0_28_114">
<rect width="149.044" height="38" fill="white" transform="translate(0.446045)"/>
</clipPath>
</defs>
</svg>
