<svg width="96" height="40" viewBox="0 0 96 40" fill="none" xmlns="http://www.w3.org/2000/svg">
<g clip-path="url(#clip0_46_108)">
<path opacity="0.7" fill-rule="evenodd" clip-rule="evenodd" d="M4.20717 19.5499H15.1301L26.0532 3H15.1301L4.20717 19.5499ZM26.0524 36.1002H15.1293L4.2063 19.5503H15.1293L26.0524 36.1002Z" fill="#0E1418"/>
<path d="M12.4828 19.5499H23.4057L12.4828 3H1.55981L12.4828 19.5499Z" fill="#0E1418"/>
<path d="M12.4823 36.1002H1.55933L12.4823 19.5501H23.4051L12.4823 36.1002Z" fill="#0E1418"/>
<path d="M31.4597 19.395C31.4597 17.9007 31.7935 16.566 32.4608 15.391C33.1424 14.2014 34.0637 13.2801 35.2244 12.6273C36.3996 11.96 37.7122 11.6263 39.1629 11.6263C40.8604 11.6263 42.3474 12.0615 43.624 12.932C44.9006 13.8024 45.7927 15.0065 46.3006 16.5443H42.7971C42.4489 15.8189 41.9557 15.2749 41.3176 14.9122C40.6935 14.5495 39.9683 14.3682 39.1413 14.3682C38.2564 14.3682 37.4658 14.5785 36.7694 14.9993C36.0874 15.4054 35.5507 15.9857 35.159 16.7401C34.782 17.4945 34.5931 18.3794 34.5931 19.395C34.5931 20.396 34.782 21.2809 35.159 22.0499C35.5507 22.8043 36.0874 23.3917 36.7694 23.8125C37.4658 24.2186 38.2564 24.4219 39.1413 24.4219C39.9683 24.4219 40.6935 24.2402 41.3176 23.8776C41.9557 23.5007 42.4489 22.9492 42.7971 22.2237H46.3006C45.7927 23.7762 44.9006 24.9873 43.624 25.8578C42.3618 26.7139 40.8748 27.1416 39.1629 27.1416C37.7122 27.1416 36.3996 26.8154 35.2244 26.1625C34.0637 25.4952 33.1424 24.574 32.4608 23.3988C31.7935 22.2237 31.4597 20.8892 31.4597 19.395Z" fill="#0E1418"/>
<path d="M53.3852 27.2071C52.2248 27.2071 51.1802 26.9531 50.2518 26.4456C49.3234 25.9233 48.5906 25.1906 48.054 24.2478C47.5317 23.3046 47.2705 22.2165 47.2705 20.9835C47.2705 19.7504 47.5388 18.6623 48.0755 17.7194C48.627 16.7764 49.3741 16.051 50.3169 15.5432C51.2601 15.021 52.3118 14.7599 53.4723 14.7599C54.6331 14.7599 55.6848 15.021 56.6276 15.5432C57.5708 16.051 58.3107 16.7764 58.8474 17.7194C59.3985 18.6623 59.6744 19.7504 59.6744 20.9835C59.6744 22.2165 59.3913 23.3046 58.8255 24.2478C58.2744 25.1906 57.5201 25.9233 56.5625 26.4456C55.6194 26.9531 54.5604 27.2071 53.3852 27.2071ZM53.3852 24.5524C53.9367 24.5524 54.4518 24.4219 54.9305 24.1607C55.4237 23.8848 55.8154 23.4787 56.1053 22.942C56.3956 22.4053 56.5406 21.7525 56.5406 20.9835C56.5406 19.8374 56.2359 18.9597 55.6266 18.3504C55.032 17.7266 54.2992 17.4147 53.4287 17.4147C52.5586 17.4147 51.8259 17.7266 51.2309 18.3504C50.6507 18.9597 50.3604 19.8374 50.3604 20.9835C50.3604 22.1294 50.6435 23.0143 51.2093 23.6384C51.7895 24.2478 52.5151 24.5524 53.3852 24.5524Z" fill="#0E1418"/>
<path d="M64.0853 24.596H67.4103V27.0114H61.0386V10.9081H64.0853V24.596Z" fill="#0E1418"/>
<path d="M68.2224 20.9399C68.2224 19.7213 68.462 18.6405 68.9404 17.6975C69.4339 16.7545 70.094 16.0292 70.921 15.5214C71.7623 15.0137 72.6979 14.7598 73.7281 14.7598C74.6274 14.7598 75.4109 14.9411 76.0781 15.3038C76.7601 15.6665 77.304 16.1235 77.7101 16.6747V14.9557H80.7785V27.011H77.7101V25.2485C77.3184 25.8143 76.7745 26.2859 76.0781 26.6628C75.3965 27.0258 74.6058 27.2071 73.7062 27.2071C72.6907 27.2071 71.7623 26.9459 70.921 26.4236C70.094 25.9013 69.4339 25.1686 68.9404 24.2258C68.462 23.2683 68.2224 22.1729 68.2224 20.9399ZM77.7101 20.9834C77.7101 20.2435 77.5652 19.6125 77.2749 19.0902C76.985 18.5534 76.5932 18.1472 76.1001 17.8716C75.6065 17.5815 75.077 17.4364 74.5112 17.4364C73.9454 17.4364 73.4235 17.5742 72.9447 17.8499C72.4659 18.1255 72.0742 18.5317 71.7695 19.0684C71.4792 19.5907 71.3343 20.2145 71.3343 20.9399C71.3343 21.6653 71.4792 22.3035 71.7695 22.855C72.0742 23.3917 72.4659 23.8049 72.9447 24.0952C73.4378 24.3855 73.9602 24.5305 74.5112 24.5305C75.077 24.5305 75.6065 24.3927 76.1001 24.1168C76.5932 23.8269 76.985 23.4208 77.2749 22.8985C77.5652 22.3614 77.7101 21.7233 77.7101 20.9834Z" fill="#0E1418"/>
<path d="M85.9297 16.7183C86.3214 16.138 86.8581 15.6665 87.5401 15.3038C88.2365 14.9411 89.0272 14.7598 89.912 14.7598C90.9419 14.7598 91.8707 15.0137 92.6973 15.5214C93.539 16.0292 94.1991 16.7545 94.6778 17.6975C95.171 18.626 95.4174 19.7068 95.4174 20.9399C95.4174 22.1729 95.171 23.2683 94.6778 24.2258C94.1991 25.1686 93.539 25.9013 92.6973 26.4236C91.8707 26.9459 90.9419 27.2071 89.912 27.2071C89.0124 27.2071 88.2218 27.033 87.5401 26.6848C86.8729 26.3222 86.3362 25.8578 85.9297 25.292V27.011H82.8833V10.9081H85.9297V16.7183ZM92.3055 20.9399C92.3055 20.2145 92.1534 19.5907 91.8487 19.0684C91.5584 18.5317 91.1671 18.1255 90.6735 17.8498C90.1948 17.5742 89.6728 17.4364 89.107 17.4364C88.5556 17.4364 88.0333 17.5815 87.5401 17.8716C87.0613 18.1472 86.6696 18.5534 86.3649 19.0902C86.075 19.6269 85.9297 20.258 85.9297 20.9834C85.9297 21.7088 86.075 22.3398 86.3649 22.8765C86.6696 23.4132 87.0613 23.8269 87.5401 24.1168C88.0333 24.3927 88.5556 24.5305 89.107 24.5305C89.6728 24.5305 90.1948 24.3855 90.6735 24.0952C91.1671 23.8049 91.5584 23.3916 91.8487 22.855C92.1534 22.3179 92.3055 21.6797 92.3055 20.9399Z" fill="#0E1418"/>
</g>
<defs>
<clipPath id="clip0_46_108">
<rect width="94.7009" height="40" fill="white" transform="translate(0.856445)"/>
</clipPath>
</defs>
</svg>
