<svg width="155" height="38" viewBox="0 0 155 38" fill="none" xmlns="http://www.w3.org/2000/svg">
<path fill-rule="evenodd" clip-rule="evenodd" d="M11.3483 3.80005H14.8045L6.44446 12.1601V8.70389C6.44446 5.99558 8.63999 3.80005 11.3483 3.80005ZM6.44446 24.3625V16.6619L14.9334 8.17294L27.6662 20.9058L31.6452 16.9267L36.6849 21.9665V29.1367C36.6849 29.3073 36.6762 29.476 36.6592 29.6422L31.6448 24.6278L27.6658 28.6068L14.933 15.874L6.44446 24.3625ZM6.44446 28.8642V29.1367C6.44446 31.845 8.63999 34.0405 11.3483 34.0405H31.7811C33.1024 34.0405 34.3017 33.5179 35.1835 32.6681L31.6448 29.1295L27.6658 33.1085L14.933 20.3757L6.44446 28.8642ZM36.6849 8.70389V17.4647L31.6452 12.425L27.6662 16.404L15.0622 3.80005H31.7811C34.4894 3.80005 36.6849 5.99558 36.6849 8.70389Z" fill="black"/>
<path d="M52.9426 27.8461C51.2098 27.8461 49.6733 27.4783 48.3329 26.7428C47.0087 26.0072 45.9789 24.9692 45.2434 23.6288C44.5078 22.2721 44.1403 20.7028 44.1403 18.9211C44.1403 17.1557 44.5159 15.6028 45.2679 14.2624C46.0363 12.9057 47.0907 11.8595 48.431 11.124C49.7878 10.372 51.3244 9.99609 53.0407 9.99609C54.6915 9.99609 56.1709 10.3312 57.4787 11.0014L57.1353 13.9927C56.4323 13.6821 55.7539 13.4451 55.1001 13.2817C54.4627 13.1019 53.7682 13.0119 53.0162 13.0119C51.2669 13.0119 49.9185 13.5514 48.9703 14.6302C48.0386 15.7091 47.5729 17.1394 47.5729 18.9211C47.5729 20.7028 48.0305 22.1331 48.9458 23.212C49.8775 24.2908 51.2098 24.8302 52.9426 24.8302C53.7107 24.8302 54.4136 24.7485 55.051 24.5851C55.7049 24.4216 56.3997 24.1764 57.1353 23.8495L57.4787 26.8408C56.0563 27.511 54.5443 27.8461 52.9426 27.8461Z" fill="black"/>
<path d="M64.9717 27.7481C63.6805 27.7481 62.5606 27.462 61.6127 26.8899C60.6645 26.3178 59.937 25.5495 59.4303 24.5851C58.9236 23.6207 58.6703 22.5582 58.6703 21.3976C58.6703 20.237 58.9236 19.1663 59.4303 18.1856C59.937 17.2048 60.6645 16.4284 61.6127 15.8562C62.5606 15.2841 63.6805 14.998 64.9717 14.998C66.263 14.998 67.3829 15.2841 68.3308 15.8562C69.279 16.4284 70.0064 17.2048 70.5131 18.1856C71.0198 19.1663 71.2732 20.237 71.2732 21.3976C71.2732 22.5582 71.0198 23.6207 70.5131 24.5851C70.0064 25.5495 69.279 26.3178 68.3308 26.8899C67.3829 27.462 66.263 27.7481 64.9717 27.7481ZM64.9717 25.2471C65.969 25.2471 66.7452 24.8957 67.3009 24.1928C67.8731 23.4899 68.1594 22.5582 68.1594 21.3976C68.1594 20.2207 67.8731 19.2808 67.3009 18.5779C66.7452 17.8587 65.969 17.499 64.9717 17.499C63.9745 17.499 63.1899 17.8587 62.618 18.5779C62.0623 19.2808 61.7844 20.2207 61.7844 21.3976C61.7844 22.5582 62.0623 23.4899 62.618 24.1928C63.1899 24.8957 63.9745 25.2471 64.9717 25.2471Z" fill="black"/>
<path d="M85.2769 27.7481C83.9856 27.7481 82.8657 27.462 81.9175 26.8899C80.9697 26.3178 80.2422 25.5495 79.7355 24.5851C79.2288 23.6207 78.9755 22.5582 78.9755 21.3976C78.9755 20.237 79.2288 19.1663 79.7355 18.1856C80.2422 17.2048 80.9697 16.4284 81.9175 15.8562C82.8657 15.2841 83.9856 14.998 85.2769 14.998C86.5682 14.998 87.6877 15.2841 88.6359 15.8562C89.5842 16.4284 90.3116 17.2048 90.8183 18.1856C91.325 19.1663 91.5783 20.237 91.5783 21.3976C91.5783 22.5582 91.325 23.6207 90.8183 24.5851C90.3116 25.5495 89.5842 26.3178 88.6359 26.8899C87.6877 27.462 86.5682 27.7481 85.2769 27.7481ZM85.2769 25.2471C86.2738 25.2471 87.0503 24.8957 87.6061 24.1928C88.1783 23.4899 88.4642 22.5582 88.4642 21.3976C88.4642 20.2207 88.1783 19.2808 87.6061 18.5779C87.0503 17.8587 86.2738 17.499 85.2769 17.499C84.2796 17.499 83.4951 17.8587 82.9228 18.5779C82.3671 19.2808 82.0892 20.2207 82.0892 21.3976C82.0892 22.5582 82.3671 23.4899 82.9228 24.1928C83.4951 24.8957 84.2796 25.2471 85.2769 25.2471Z" fill="black"/>
<path d="M93.6946 15.2433H96.5389L96.6124 16.5428C96.972 16.1341 97.4296 15.7745 97.9857 15.4639C98.5576 15.1533 99.1543 14.998 99.7756 14.998C99.9715 14.998 100.151 15.0144 100.315 15.0471L100.094 18.0385C99.7837 17.9567 99.4322 17.9158 99.0397 17.9158C98.5331 17.9158 98.0673 18.0385 97.6423 18.2836C97.2173 18.5125 96.9148 18.7985 96.7351 19.1418V27.5029H93.6946V15.2433Z" fill="black"/>
<path d="M104.292 27.7481C103.279 27.7481 102.429 27.4212 101.742 26.7673C101.072 26.0972 100.737 25.1981 100.737 24.0702C100.737 23.0077 101.121 22.1577 101.889 21.5202C102.658 20.8664 103.565 20.4087 104.611 20.1471C105.657 19.8692 106.663 19.714 107.627 19.6813C107.594 18.962 107.406 18.4471 107.063 18.1366C106.736 17.826 106.189 17.6707 105.42 17.6707C104.881 17.6707 104.35 17.7442 103.826 17.8914C103.32 18.0385 102.731 18.2755 102.061 18.6024L101.791 16.126C103.279 15.4067 104.766 15.0471 106.254 15.0471C107.692 15.0471 108.788 15.4394 109.539 16.224C110.308 17.0087 110.692 18.2591 110.692 19.9755V23.2856C110.692 23.9068 110.716 24.3563 110.765 24.6342C110.831 24.8957 110.929 25.0673 111.06 25.1491C111.207 25.2144 111.444 25.2471 111.771 25.2471H112.163L111.893 27.7481H110.79C110.12 27.7481 109.556 27.6255 109.098 27.3803C108.64 27.1188 108.289 26.7673 108.044 26.326C107.651 26.7673 107.112 27.1188 106.425 27.3803C105.755 27.6255 105.044 27.7481 104.292 27.7481ZM105.567 25.4188C105.878 25.4188 106.229 25.3452 106.622 25.1981C107.014 25.0346 107.357 24.814 107.651 24.5361V21.7409C106.671 21.7899 105.804 22.0024 105.052 22.3784C104.3 22.7543 103.924 23.2774 103.924 23.9476C103.924 24.4544 104.055 24.8303 104.317 25.0755C104.578 25.3043 104.995 25.4188 105.567 25.4188Z" fill="black"/>
<path d="M144.834 27.7481C143.82 27.7481 142.971 27.4212 142.284 26.7673C141.614 26.0972 141.279 25.1981 141.279 24.0702C141.279 23.0077 141.663 22.1577 142.431 21.5202C143.2 20.8664 144.107 20.4087 145.153 20.1471C146.199 19.8692 147.204 19.714 148.169 19.6813C148.136 18.962 147.948 18.4471 147.605 18.1366C147.278 17.826 146.73 17.6707 145.962 17.6707C145.423 17.6707 144.891 17.7442 144.368 17.8914C143.861 18.0385 143.273 18.2755 142.603 18.6024L142.333 16.126C143.82 15.4067 145.308 15.0471 146.795 15.0471C148.234 15.0471 149.329 15.4394 150.081 16.224C150.849 17.0087 151.233 18.2591 151.233 19.9755V23.2856C151.233 23.9068 151.258 24.3563 151.307 24.6342C151.372 24.8957 151.471 25.0673 151.601 25.1491C151.748 25.2144 151.985 25.2471 152.312 25.2471H152.705L152.435 27.7481H151.332C150.662 27.7481 150.097 27.6255 149.64 27.3803C149.182 27.1188 148.831 26.7673 148.585 26.326C148.193 26.7673 147.654 27.1188 146.967 27.3803C146.297 27.6255 145.586 27.7481 144.834 27.7481ZM146.109 25.4188C146.419 25.4188 146.771 25.3452 147.163 25.1981C147.556 25.0346 147.899 24.814 148.193 24.5361V21.7409C147.212 21.7899 146.346 22.0024 145.594 22.3784C144.842 22.7543 144.466 23.2774 144.466 23.9476C144.466 24.4544 144.597 24.8303 144.859 25.0755C145.12 25.3043 145.537 25.4188 146.109 25.4188Z" fill="black"/>
<path d="M125.037 9.11353V27.503H122.168L122.119 26.7184C121.645 27.0616 121.147 27.3232 120.623 27.503C120.117 27.6664 119.512 27.7482 118.809 27.7482C117.616 27.7482 116.586 27.4621 115.719 26.89C114.87 26.3179 114.224 25.5496 113.783 24.5852C113.341 23.6208 113.12 22.5583 113.12 21.3977C113.12 20.2371 113.341 19.1746 113.783 18.2102C114.224 17.2458 114.87 16.4775 115.719 15.9054C116.586 15.3332 117.616 15.0472 118.809 15.0472C120.002 15.0472 121.065 15.3741 121.996 16.028V9.11353H125.037ZM119.251 25.2472C120.215 25.2472 120.934 24.904 121.408 24.2174C121.899 23.5309 122.144 22.591 122.144 21.3977C122.144 20.2044 121.899 19.2645 121.408 18.578C120.934 17.8915 120.215 17.5482 119.251 17.5482C118.302 17.5482 117.558 17.8996 117.019 18.6025C116.496 19.3054 116.235 20.2371 116.235 21.3977C116.235 22.5583 116.496 23.49 117.019 24.1929C117.558 24.8958 118.302 25.2472 119.251 25.2472Z" fill="black"/>
<path d="M133.43 27.7481C132.138 27.7481 131.018 27.462 130.071 26.8899C129.122 26.3178 128.395 25.5495 127.888 24.5851C127.382 23.6207 127.128 22.5582 127.128 21.3976C127.128 20.237 127.382 19.1663 127.888 18.1856C128.395 17.2048 129.122 16.4284 130.071 15.8562C131.018 15.2841 132.138 14.998 133.43 14.998C134.721 14.998 135.841 15.2841 136.789 15.8562C137.737 16.4284 138.464 17.2048 138.971 18.1856C139.478 19.1663 139.731 20.237 139.731 21.3976C139.731 22.5582 139.478 23.6207 138.971 24.5851C138.464 25.5495 137.737 26.3178 136.789 26.8899C135.841 27.462 134.721 27.7481 133.43 27.7481ZM133.43 25.2471C134.427 25.2471 135.203 24.8957 135.759 24.1928C136.331 23.4899 136.617 22.5582 136.617 21.3976C136.617 20.2207 136.331 19.2808 135.759 18.5779C135.203 17.8587 134.427 17.499 133.43 17.499C132.432 17.499 131.648 17.8587 131.076 18.5779C130.52 19.2808 130.242 20.2207 130.242 21.3976C130.242 22.5582 130.52 23.4899 131.076 24.1928C131.648 24.8957 132.432 25.2471 133.43 25.2471Z" fill="black"/>
<path d="M76.7333 8.70508H73.4641V27.5032H76.7333V8.70508Z" fill="black"/>
</svg>
