<svg width="155" height="40" viewBox="0 0 155 40" fill="none" xmlns="http://www.w3.org/2000/svg">
<path d="M10.9039 9.06809C12.8016 7.25622 15.3785 6.19868 17.9902 6.06713C18.8841 6.06713 19.7806 6.0725 20.6744 6.06445C20.6288 7.02273 20.6744 7.98368 20.6476 8.94191C20.5214 11.0839 19.7296 13.1776 18.3955 14.8579C16.6615 17.118 14.0095 18.6346 11.1938 19.0265C9.96442 19.2251 8.71623 19.099 7.47883 19.1339C7.50028 18.079 7.43319 17.0214 7.51642 15.9692C7.75801 13.3601 8.99005 10.8611 10.9039 9.06809Z" fill="#0E1418"/>
<path d="M21.5022 6.06445C22.4605 6.07518 23.4187 6.05909 24.3797 6.06982C26.7713 6.23891 29.1307 7.15691 30.9317 8.74868C32.9181 10.4531 34.279 12.8904 34.6281 15.4941C34.7808 16.702 34.6844 17.9233 34.7435 19.1365C33.9058 19.1339 33.0712 19.1312 32.2335 19.1365C30.1749 19.0802 28.151 18.4145 26.4277 17.2925C25.6332 16.7235 24.8172 16.1464 24.2213 15.3572C22.9141 13.897 22.0257 12.0637 21.6901 10.131C21.4378 8.78891 21.5398 7.42 21.5022 6.06445Z" fill="#0E1418"/>
<path d="M7.48062 19.9041C8.33153 19.9524 9.18512 19.8639 10.0333 19.9578C13.665 20.0356 17.1894 22.0756 19.071 25.1813C20.1501 26.9206 20.7299 28.9823 20.6548 31.03C20.652 31.7014 20.6628 32.3695 20.644 33.0382C19.2965 32.9977 17.9356 33.1077 16.6016 32.8473C13.6382 32.3482 10.9138 30.5845 9.27366 28.0668C8.03089 26.2362 7.41085 24.0002 7.47526 21.7911C7.47526 21.1603 7.47526 20.5322 7.48062 19.9041Z" fill="#0E1418"/>
<path d="M30.2081 20.1885C31.6686 19.8637 33.174 19.9174 34.6586 19.9174L34.7231 19.9819C34.6909 21.3857 34.8009 22.8056 34.519 24.1934C33.9259 27.307 31.8645 30.0877 29.0916 31.615C27.3656 32.5764 25.3847 33.0486 23.4118 33.0273C22.781 33.03 22.1475 33.0164 21.5167 33.035C21.5167 31.8727 21.4684 30.7055 21.5999 29.5482C21.9059 26.7487 23.4198 24.1424 25.5967 22.3815C26.9442 21.3186 28.5279 20.5482 30.2081 20.1885Z" fill="#0E1418"/>
<path d="M45.7421 27.8391C45.7421 28.3116 45.5784 28.7114 45.2516 29.0386C44.9425 29.3477 44.5516 29.5023 44.0793 29.5023C43.6248 29.5023 43.243 29.3477 42.9343 29.0386C42.6253 28.7114 42.4707 28.3116 42.4707 27.8391V10.9907C42.4707 10.5182 42.6253 10.1274 42.9343 9.81846C43.2612 9.49132 43.6612 9.32773 44.1339 9.32773C44.6062 9.32773 44.988 9.49132 45.2789 9.81846C45.5875 10.1274 45.7421 10.5182 45.7421 10.9907V27.8391Z" fill="#0E1418"/>
<path d="M58.8734 14.9166C59.3457 14.9166 59.7366 15.0802 60.0457 15.4073C60.3543 15.7163 60.5089 16.1071 60.5089 16.5796V23.5043C60.5089 25.4309 59.973 26.9576 58.9007 28.0845C57.828 29.2114 56.2834 29.7746 54.2657 29.7746C52.2484 29.7746 50.7034 29.2114 49.6312 28.0845C48.5771 26.9576 48.0498 25.4309 48.0498 23.5043V16.5796C48.0498 16.1071 48.2044 15.7163 48.5134 15.4073C48.8225 15.0802 49.213 14.9166 49.6857 14.9166C50.1584 14.9166 50.5489 15.0802 50.858 15.4073C51.1671 15.7163 51.3216 16.1071 51.3216 16.5796V23.5043C51.3216 24.613 51.5671 25.44 52.0575 25.9852C52.5484 26.5123 53.2844 26.7758 54.2657 26.7758C55.2657 26.7758 56.0107 26.5123 56.5016 25.9852C56.9921 25.44 57.2375 24.613 57.2375 23.5043V16.5796C57.2375 16.1071 57.3921 15.7163 57.7012 15.4073C58.0098 15.0802 58.4007 14.9166 58.8734 14.9166Z" fill="#0E1418"/>
<path d="M70.3484 14.6439C71.8025 14.6439 72.8748 14.9984 73.5657 15.7072C74.2561 16.3979 74.7107 17.2975 74.9284 18.4062L74.4652 18.1608L74.6834 17.7246C74.9011 17.3066 75.2375 16.8613 75.692 16.3888C76.1461 15.898 76.6916 15.4891 77.3275 15.1619C77.982 14.8166 78.7089 14.6439 79.5089 14.6439C80.8175 14.6439 81.808 14.9257 82.4802 15.4891C83.1711 16.0525 83.6434 16.8068 83.898 17.7519C84.1525 18.6788 84.2798 19.7148 84.2798 20.8598V27.8391C84.2798 28.3116 84.1252 28.7114 83.8161 29.0386C83.507 29.3477 83.1166 29.5023 82.6439 29.5023C82.1716 29.5023 81.7807 29.3477 81.4716 29.0386C81.1625 28.7114 81.008 28.3116 81.008 27.8391V20.8598C81.008 20.26 80.9357 19.7239 80.7902 19.2513C80.6448 18.7606 80.3811 18.3699 79.9993 18.079C79.618 17.7882 79.0725 17.6428 78.3639 17.6428C77.673 17.6428 77.0825 17.7882 76.5916 18.079C76.1007 18.3699 75.7284 18.7606 75.4739 19.2513C75.2375 19.7239 75.1193 20.26 75.1193 20.8598V27.8391C75.1193 28.3116 74.9648 28.7114 74.6561 29.0386C74.347 29.3477 73.9561 29.5023 73.4839 29.5023C73.0111 29.5023 72.6202 29.3477 72.3116 29.0386C72.0025 28.7114 71.848 28.3116 71.848 27.8391V20.8598C71.848 20.26 71.7752 19.7239 71.6298 19.2513C71.4843 18.7606 71.2207 18.3699 70.8393 18.079C70.4575 17.7882 69.912 17.6428 69.2034 17.6428C68.513 17.6428 67.922 17.7882 67.4311 18.079C66.9407 18.3699 66.568 18.7606 66.3134 19.2513C66.0775 19.7239 65.9593 20.26 65.9593 20.8598V27.8391C65.9593 28.3116 65.8048 28.7114 65.4957 29.0386C65.1866 29.3477 64.7961 29.5023 64.3234 29.5023C63.8507 29.5023 63.4602 29.3477 63.1511 29.0386C62.842 28.7114 62.6875 28.3116 62.6875 27.8391V16.5796C62.6875 16.107 62.842 15.7163 63.1511 15.4073C63.4602 15.0801 63.8507 14.9166 64.3234 14.9166C64.7961 14.9166 65.1866 15.0801 65.4957 15.4073C65.8048 15.7163 65.9593 16.107 65.9593 16.5796V17.7519L65.5502 17.6701C65.7139 17.3611 65.9411 17.0339 66.2316 16.6886C66.5225 16.3251 66.877 15.9889 67.2952 15.6799C67.713 15.3709 68.1766 15.1256 68.6852 14.9438C69.1943 14.7439 69.7489 14.6439 70.3484 14.6439Z" fill="#0E1418"/>
<path d="M89.538 27.8391C89.538 28.3116 89.3834 28.7114 89.0744 29.0386C88.7657 29.3477 88.3748 29.5023 87.9021 29.5023C87.4298 29.5023 87.0389 29.3477 86.7298 29.0386C86.4212 28.7114 86.2666 28.3116 86.2666 27.8391V16.5796C86.2666 16.1071 86.4212 15.7163 86.7298 15.4073C87.0389 15.0801 87.4298 14.9166 87.9021 14.9166C88.3748 14.9166 88.7657 15.0801 89.0744 15.4073C89.3834 15.7163 89.538 16.1071 89.538 16.5796V27.8391ZM87.8748 13.1445C87.2571 13.1445 86.8207 13.0446 86.5662 12.8446C86.3121 12.6447 86.1848 12.2903 86.1848 11.7814V11.2634C86.1848 10.7363 86.3212 10.3819 86.5935 10.2001C86.8844 10.0002 87.3207 9.90024 87.9021 9.90024C88.5385 9.90024 88.9839 10.0002 89.238 10.2001C89.4925 10.4001 89.6198 10.7545 89.6198 11.2634V11.7814C89.6198 12.3085 89.4834 12.672 89.2107 12.8719C88.9384 13.0536 88.493 13.1445 87.8748 13.1445Z" fill="#0E1418"/>
<path d="M99.3344 14.6439C100.679 14.6439 101.697 14.9257 102.388 15.4891C103.097 16.0525 103.578 16.8068 103.833 17.7519C104.105 18.6788 104.242 19.7148 104.242 20.8598V27.8391C104.242 28.3116 104.087 28.7114 103.778 29.0386C103.469 29.3477 103.078 29.5023 102.606 29.5023C102.133 29.5023 101.743 29.3477 101.433 29.0386C101.124 28.7114 100.97 28.3116 100.97 27.8391V20.8598C100.97 20.26 100.888 19.7239 100.725 19.2513C100.579 18.7606 100.307 18.3699 99.9067 18.079C99.5071 17.7882 98.9344 17.6428 98.1894 17.6428C97.4621 17.6428 96.8444 17.7882 96.3353 18.079C95.8448 18.3699 95.463 18.7606 95.1903 19.2513C94.9357 19.7239 94.8085 20.26 94.8085 20.8598V27.8391C94.8085 28.3116 94.6544 28.7114 94.3453 29.0386C94.0362 29.3477 93.6453 29.5023 93.173 29.5023C92.7003 29.5023 92.3094 29.3477 92.0007 29.0386C91.6917 28.7114 91.5371 28.3116 91.5371 27.8391V16.5796C91.5371 16.107 91.6917 15.7163 92.0007 15.4073C92.3094 15.0801 92.7003 14.9166 93.173 14.9166C93.6453 14.9166 94.0362 15.0801 94.3453 15.4073C94.6544 15.7163 94.8085 16.107 94.8085 16.5796V17.7519L94.3998 17.6701C94.5635 17.3611 94.7994 17.0339 95.1085 16.6886C95.4176 16.3251 95.7812 15.9889 96.1989 15.6799C96.6171 15.3709 97.0898 15.1256 97.6167 14.9438C98.1439 14.7439 98.7162 14.6439 99.3344 14.6439Z" fill="#0E1418"/>
<path d="M120.428 22.2229C120.428 23.7133 120.091 25.031 119.419 26.176C118.764 27.3029 117.874 28.1844 116.747 28.8204C115.638 29.4568 114.393 29.7745 113.012 29.7745C111.631 29.7745 110.377 29.4568 109.25 28.8204C108.141 28.1844 107.251 27.3029 106.578 26.176C105.924 25.031 105.597 23.7133 105.597 22.2229C105.597 20.7326 105.924 19.424 106.578 18.2971C107.251 17.1521 108.141 16.2615 109.25 15.6254C110.377 14.9711 111.631 14.6439 113.012 14.6439C114.393 14.6439 115.638 14.9711 116.747 15.6254C117.874 16.2615 118.764 17.1521 119.419 18.2971C120.091 19.424 120.428 20.7326 120.428 22.2229ZM117.156 22.2229C117.156 21.296 116.965 20.4963 116.583 19.8239C116.22 19.1332 115.72 18.597 115.084 18.2154C114.466 17.8337 113.775 17.6428 113.012 17.6428C112.249 17.6428 111.549 17.8337 110.913 18.2154C110.295 18.597 109.795 19.1332 109.413 19.8239C109.05 20.4963 108.868 21.296 108.868 22.2229C108.868 23.1317 109.05 23.9314 109.413 24.6221C109.795 25.2945 110.295 25.8216 110.913 26.2033C111.549 26.585 112.249 26.7758 113.012 26.7758C113.775 26.7758 114.466 26.585 115.084 26.2033C115.72 25.8216 116.22 25.2945 116.583 24.6221C116.965 23.9314 117.156 23.1317 117.156 22.2229Z" fill="#0E1418"/>
<path d="M132.621 14.9166C133.094 14.9166 133.484 15.0802 133.794 15.4073C134.102 15.7163 134.257 16.1071 134.257 16.5796V23.5043C134.257 25.4309 133.721 26.9576 132.648 28.0845C131.576 29.2114 130.031 29.7746 128.014 29.7746C125.996 29.7746 124.451 29.2114 123.379 28.0845C122.325 26.9576 121.798 25.4309 121.798 23.5043V16.5796C121.798 16.1071 121.952 15.7163 122.261 15.4073C122.57 15.0802 122.961 14.9166 123.434 14.9166C123.906 14.9166 124.297 15.0802 124.606 15.4073C124.915 15.7163 125.069 16.1071 125.069 16.5796V23.5043C125.069 24.613 125.314 25.44 125.805 25.9852C126.296 26.5123 127.032 26.7758 128.014 26.7758C129.013 26.7758 129.759 26.5123 130.249 25.9852C130.74 25.44 130.985 24.613 130.985 23.5043V16.5796C130.985 16.1071 131.14 15.7163 131.449 15.4073C131.758 15.0802 132.149 14.9166 132.621 14.9166Z" fill="#0E1418"/>
<path d="M135.59 27.2393C135.409 26.9849 135.327 26.6577 135.345 26.2579C135.363 25.858 135.599 25.5127 136.054 25.2219C136.344 25.0401 136.654 24.9674 136.981 25.0038C137.308 25.0219 137.626 25.1855 137.935 25.4945C138.462 26.0215 139.016 26.4305 139.598 26.7213C140.179 27.0121 140.907 27.1575 141.779 27.1575C142.052 27.1393 142.351 27.103 142.679 27.0484C143.006 26.9758 143.288 26.8304 143.524 26.6123C143.778 26.376 143.905 26.0215 143.905 25.549C143.905 25.1492 143.769 24.8311 143.496 24.5948C143.224 24.3585 142.86 24.1586 142.406 23.995C141.97 23.8314 141.479 23.677 140.934 23.5316C140.37 23.368 139.789 23.1863 139.189 22.9863C138.607 22.7864 138.071 22.5319 137.58 22.2229C137.09 21.8958 136.69 21.4687 136.381 20.9416C136.072 20.4145 135.918 19.7511 135.918 18.9514C135.918 18.0427 136.172 17.2703 136.681 16.6341C137.19 15.998 137.844 15.5073 138.644 15.1619C139.462 14.8166 140.316 14.6439 141.206 14.6439C141.77 14.6439 142.36 14.7166 142.979 14.862C143.596 14.9893 144.187 15.2074 144.75 15.5164C145.314 15.8071 145.787 16.1979 146.168 16.6886C146.368 16.9613 146.486 17.2884 146.523 17.6701C146.559 18.0518 146.386 18.3971 146.004 18.7061C145.732 18.9242 145.414 19.0241 145.05 19.0059C144.687 18.9696 144.387 18.8424 144.151 18.6243C143.842 18.2244 143.424 17.9064 142.897 17.6701C142.388 17.4338 141.797 17.3157 141.124 17.3157C140.852 17.3157 140.552 17.352 140.225 17.4247C139.916 17.4793 139.644 17.6156 139.407 17.8337C139.171 18.0336 139.053 18.3608 139.053 18.8151C139.053 19.2332 139.189 19.5694 139.462 19.8239C139.734 20.0601 140.098 20.26 140.552 20.4236C141.024 20.569 141.524 20.7144 142.052 20.8598C142.597 21.0052 143.151 21.1779 143.714 21.3778C144.278 21.5778 144.796 21.8413 145.269 22.1684C145.741 22.4956 146.123 22.9227 146.414 23.4498C146.704 23.9587 146.85 24.613 146.85 25.4127C146.85 26.3396 146.577 27.1303 146.032 27.7845C145.487 28.4389 144.805 28.9386 143.987 29.2841C143.169 29.6114 142.333 29.7745 141.479 29.7745C140.407 29.7745 139.334 29.5932 138.262 29.2295C137.19 28.8477 136.299 28.1844 135.59 27.2393Z" fill="#0E1418"/>
</svg>
