<svg width="137" height="38" viewBox="0 0 137 38" fill="none" xmlns="http://www.w3.org/2000/svg">
<g clip-path="url(#clip0_28_178)">
<path d="M123.454 26.7599C122.437 26.7599 121.516 26.5963 120.689 26.269C119.862 25.9245 119.147 25.4422 118.544 24.822C117.942 24.1847 117.485 23.4354 117.175 22.5741C116.865 21.6956 116.71 20.7224 116.71 19.6544C116.71 18.2074 116.986 16.9586 117.537 15.9078C118.105 14.8398 118.898 14.013 119.914 13.4273C120.948 12.8244 122.162 12.5229 123.557 12.5229C124.711 12.5229 125.736 12.7383 126.632 13.1689C127.528 13.5996 128.242 14.2025 128.777 14.9776C129.328 15.7355 129.629 16.6226 129.681 17.6389H126.529C126.442 17.105 126.253 16.6571 125.96 16.2954C125.684 15.9336 125.331 15.658 124.901 15.4685C124.47 15.2791 123.996 15.1843 123.48 15.1843C122.739 15.1843 122.102 15.3738 121.568 15.7527C121.033 16.1145 120.629 16.6313 120.353 17.3031C120.095 17.9749 119.966 18.7586 119.966 19.6544C119.966 20.6362 120.112 21.4544 120.405 22.109C120.698 22.7636 121.102 23.2631 121.619 23.6076C122.153 23.9349 122.765 24.0985 123.454 24.0985C124.057 24.0985 124.582 23.9952 125.03 23.7885C125.478 23.5645 125.831 23.2631 126.089 22.8842C126.365 22.488 126.529 22.0401 126.58 21.5405H129.733C129.664 22.5913 129.353 23.5129 128.802 24.3052C128.251 25.0804 127.519 25.6833 126.606 26.114C125.693 26.5446 124.642 26.7599 123.454 26.7599Z" fill="black"/>
<path d="M111.884 26.5273V12.7813H115.114V26.5273H111.884ZM111.884 10.8434V7.69116H115.114V10.8434H111.884Z" fill="black"/>
<path d="M107.567 26.5272C106.723 26.5272 106.06 26.4066 105.578 26.1655C105.113 25.9071 104.785 25.5454 104.596 25.0803C104.407 24.6152 104.312 24.0554 104.312 23.4008V15.3909H101.78V12.7812H104.312V8.90546L107.516 8.56958V12.7812H110.436V15.3909H107.516V22.8065C107.516 23.2372 107.611 23.53 107.8 23.685C107.99 23.8228 108.282 23.8917 108.679 23.8917H110.436V26.5272H107.567Z" fill="black"/>
<path d="M88.5674 26.5274V12.7813H91.6681L91.7973 15.391H91.9525C92.3486 14.4264 92.9514 13.7115 93.7611 13.2464C94.5704 12.7641 95.4749 12.5229 96.4742 12.5229C97.1632 12.5229 97.8003 12.6349 98.3861 12.8589C98.9888 13.0656 99.5056 13.4015 99.9362 13.8666C100.384 14.3144 100.729 14.9087 100.97 15.6494C101.228 16.3729 101.358 17.2514 101.358 18.2849V26.5274H98.1276V18.9825C98.1276 18.1213 98.0243 17.415 97.8177 16.8638C97.6108 16.2954 97.2924 15.8733 96.8614 15.5977C96.4482 15.3221 95.9055 15.1843 95.2339 15.1843C94.5104 15.1843 93.8903 15.3566 93.3734 15.7011C92.874 16.0456 92.4863 16.5021 92.2105 17.0705C91.9351 17.6389 91.7973 18.2677 91.7973 18.9567V26.5274H88.5674Z" fill="black"/>
<path d="M78.1788 26.7599C77.352 26.7599 76.5941 26.6135 75.9051 26.3207C75.2335 26.0106 74.6478 25.5541 74.148 24.9512C73.666 24.3483 73.2953 23.6076 73.0373 22.7291C72.7789 21.8334 72.6497 20.8085 72.6497 19.6544C72.6497 18.0868 72.8737 16.7777 73.3213 15.7269C73.7863 14.6589 74.4323 13.8579 75.2591 13.324C76.1032 12.79 77.0766 12.5229 78.1788 12.5229C78.937 12.5229 79.6086 12.6435 80.1943 12.8847C80.7971 13.1086 81.3139 13.4273 81.7445 13.8407C82.1751 14.2541 82.5024 14.7451 82.7264 15.3135H82.9074L83.0366 12.7813H86.137V26.5274H82.9074V23.9694H82.7264C82.3991 24.8134 81.8393 25.4938 81.047 26.0106C80.2547 26.5101 79.2987 26.7599 78.1788 26.7599ZM79.3935 24.1244C80.1684 24.1244 80.806 23.9435 81.3054 23.5818C81.8223 23.22 82.2099 22.7549 82.4679 22.1865C82.7264 21.6008 82.8556 20.9893 82.8556 20.352V18.9309C82.8556 18.2763 82.7264 17.6648 82.4679 17.0964C82.2099 16.5107 81.8223 16.0456 81.3054 15.7011C80.806 15.3393 80.1684 15.1585 79.3935 15.1585C78.7045 15.1585 78.1014 15.3221 77.5845 15.6494C77.0681 15.9767 76.663 16.4762 76.3702 17.148C76.0773 17.8026 75.9311 18.638 75.9311 19.6544C75.9311 20.6362 76.0773 21.463 76.3702 22.1348C76.663 22.8066 77.0681 23.3062 77.5845 23.6334C78.1014 23.9607 78.7045 24.1244 79.3935 24.1244Z" fill="black"/>
<path d="M67.8239 26.5273V7.69116H71.0538V26.5273H67.8239Z" fill="black"/>
<path d="M63.5073 26.5272C62.6631 26.5272 62 26.4066 61.5176 26.1655C61.0526 25.9071 60.7253 25.5454 60.5357 25.0803C60.3462 24.6152 60.2514 24.0554 60.2514 23.4008V15.3909H57.7194V12.7812H60.2514V8.90546L63.4554 8.56958V12.7812H66.3751V15.3909H63.4554V22.8065C63.4554 23.2372 63.5502 23.53 63.7398 23.685C63.929 23.8228 64.2218 23.8917 64.6184 23.8917H66.3751V26.5272H63.5073Z" fill="black"/>
<path d="M41.6412 26.5273L48.1267 7.69116H52.9327L59.4181 26.5273H55.8783L54.4574 22.3932H46.6024L45.207 26.5273H41.6412ZM47.4291 19.7577H53.6561L51.7957 14.4608L50.6073 10.8176H50.478L49.2637 14.4608L47.4291 19.7577Z" fill="black"/>
<path fill-rule="evenodd" clip-rule="evenodd" d="M35.7305 18.3667C35.7305 27.9814 27.9363 35.7757 18.3216 35.7757C8.70684 35.7757 0.912598 27.9814 0.912598 18.3667C0.912598 8.752 8.70684 0.957764 18.3216 0.957764C27.9363 0.957764 35.7305 8.752 35.7305 18.3667ZM18.3216 34.292C27.1168 34.292 34.2468 27.162 34.2468 18.3667C34.2468 9.57146 27.1168 2.44148 18.3216 2.44148C9.5263 2.44148 2.39632 9.57146 2.39632 18.3667C2.39632 27.162 9.5263 34.292 18.3216 34.292Z" fill="black"/>
<g filter="url(#filter0_d_28_178)">
<path d="M18.8537 7.40199C18.6447 6.90018 17.9647 6.90018 17.7557 7.40199C15.208 13.5184 10.4681 17.2467 9.67729 17.8379C9.34129 18.0891 9.34129 18.6107 9.67729 18.8619C10.4681 19.4531 15.208 23.1814 17.7557 29.2977C17.9647 29.7995 18.6447 29.7995 18.8537 29.2977C21.4014 23.1814 26.1413 19.4531 26.9321 18.8619C27.2681 18.6107 27.2681 18.0891 26.9321 17.8379C26.1413 17.2467 21.4014 13.5184 18.8537 7.40199Z" fill="black"/>
</g>
</g>
<defs>
<filter id="filter0_d_28_178" x="4.84271" y="3.44549" width="26.9239" height="31.8136" filterUnits="userSpaceOnUse" color-interpolation-filters="sRGB">
<feFlood flood-opacity="0" result="BackgroundImageFix"/>
<feColorMatrix in="SourceAlpha" type="matrix" values="0 0 0 0 0 0 0 0 0 0 0 0 0 0 0 0 0 0 127 0" result="hardAlpha"/>
<feOffset dy="1.00244"/>
<feGaussianBlur stdDeviation="2.29129"/>
<feComposite in2="hardAlpha" operator="out"/>
<feColorMatrix type="matrix" values="0 0 0 0 0 0 0 0 0 0 0 0 0 0 0 0 0 0 0.21 0"/>
<feBlend mode="normal" in2="BackgroundImageFix" result="effect1_dropShadow_28_178"/>
<feBlend mode="normal" in="SourceGraphic" in2="effect1_dropShadow_28_178" result="shape"/>
</filter>
<clipPath id="clip0_28_178">
<rect width="135.533" height="38" fill="white" transform="translate(0.912598)"/>
</clipPath>
</defs>
</svg>
