<svg width="204" height="40" viewBox="0 0 204 40" fill="none" xmlns="http://www.w3.org/2000/svg">
<path d="M44.5447 30.9771V7.19553H48.8932L60.0704 23.9446V7.19553H64.419V30.9771H60.0704L48.8932 14.262V30.9771H44.5447Z" fill="#0E1418"/>
<path d="M75.4165 31.3848C73.7177 31.3848 72.2117 31.0222 70.8981 30.2975C69.5845 29.5729 68.554 28.5536 67.8064 27.24C67.0589 25.9261 66.6853 24.4088 66.6853 22.6875C66.6853 20.9435 67.0476 19.392 67.7726 18.0331C68.5198 16.6742 69.5391 15.621 70.8301 14.8736C72.1437 14.1035 73.6839 13.7185 75.4504 13.7185C77.1041 13.7185 78.5646 14.0808 79.8331 14.8056C81.1015 15.5304 82.0866 16.5269 82.7887 17.7953C83.5137 19.041 83.876 20.4339 83.876 21.974C83.876 22.2232 83.8647 22.4836 83.8418 22.7554C83.8418 23.0272 83.8306 23.3102 83.808 23.6049H71C71.0906 24.9185 71.5435 25.949 72.359 26.6962C73.1968 27.4438 74.2048 27.8174 75.3827 27.8174C76.2659 27.8174 77.0019 27.6249 77.5908 27.24C78.2023 26.8323 78.6552 26.3113 78.9498 25.6773H83.3664C83.0492 26.7417 82.517 27.7155 81.7694 28.5987C81.0448 29.4594 80.139 30.1389 79.0517 30.6373C77.9873 31.1357 76.7756 31.3848 75.4165 31.3848ZM75.4504 17.2517C74.386 17.2517 73.446 17.5575 72.6308 18.169C71.8152 18.7578 71.2943 19.6638 71.068 20.8869H79.4595C79.3915 19.7771 78.9837 18.8938 78.2365 18.2369C77.4889 17.5801 76.5602 17.2517 75.4504 17.2517Z" fill="#0E1418"/>
<path d="M83.0767 30.9771L89.1917 22.5516L83.0767 14.1261H87.7311L92.0116 20.1055L96.2583 14.1261H100.947L94.7974 22.5516L100.947 30.9771H96.2583L92.0116 24.9978L87.7311 30.9771H83.0767Z" fill="#0E1418"/>
<path d="M109.527 30.9771C107.76 30.9771 106.345 30.5467 105.28 29.686C104.215 28.8253 103.683 27.2964 103.683 25.0996V17.7613H100.796V14.1261H103.683L104.193 9.60765H108.032V14.1261H112.584V17.7613H108.032V25.1334C108.032 25.949 108.202 26.515 108.541 26.8322C108.904 27.1265 109.515 27.2739 110.376 27.2739H112.483V30.9771H109.527Z" fill="#0E1418"/>
<path d="M114.619 30.9771V14.1261H118.458L118.832 16.4024C119.375 15.587 120.089 14.9415 120.972 14.4659C121.878 13.9676 122.92 13.7185 124.098 13.7185C126.703 13.7185 128.548 14.7264 129.636 16.7421C130.247 15.8135 131.062 15.0774 132.082 14.5338C133.123 13.9903 134.256 13.7185 135.479 13.7185C137.676 13.7185 139.363 14.3753 140.541 15.6889C141.719 17.0026 142.308 18.9277 142.308 21.4644V30.9771H137.959V21.8721C137.959 20.4226 137.676 19.3128 137.11 18.5427C136.566 17.7726 135.717 17.3876 134.562 17.3876C133.384 17.3876 132.433 17.8179 131.708 18.6786C131.006 19.5393 130.655 20.7397 130.655 22.2798V30.9771H126.306V21.8721C126.306 20.4226 126.023 19.3128 125.457 18.5427C124.891 17.7726 124.019 17.3876 122.841 17.3876C121.686 17.3876 120.746 17.8179 120.021 18.6786C119.319 19.5393 118.968 20.7397 118.968 22.2798V30.9771H114.619Z" fill="#0E1418"/>
<path d="M152.823 31.3848C151.192 31.3848 149.72 31.0109 148.407 30.2637C147.116 29.5162 146.085 28.4856 145.315 27.172C144.567 25.8355 144.194 24.2957 144.194 22.5516C144.194 20.8076 144.579 19.2788 145.349 17.9652C146.119 16.6288 147.149 15.587 148.441 14.8396C149.754 14.0922 151.226 13.7185 152.857 13.7185C154.465 13.7185 155.915 14.0922 157.206 14.8396C158.519 15.587 159.55 16.6288 160.297 17.9652C161.067 19.2788 161.452 20.8076 161.452 22.5516C161.452 24.2957 161.067 25.8355 160.297 27.172C159.55 28.4856 158.519 29.5162 157.206 30.2637C155.892 31.0109 154.431 31.3848 152.823 31.3848ZM152.823 27.6136C153.956 27.6136 154.941 27.1946 155.779 26.3565C156.617 25.4961 157.036 24.2277 157.036 22.5516C157.036 20.8755 156.617 19.6185 155.779 18.7805C154.941 17.9199 153.967 17.4895 152.857 17.4895C151.702 17.4895 150.705 17.9199 149.867 18.7805C149.052 19.6185 148.644 20.8755 148.644 22.5516C148.644 24.2277 149.052 25.4961 149.867 26.3565C150.705 27.1946 151.691 27.6136 152.823 27.6136Z" fill="#0E1418"/>
<path d="M167.365 30.9771L161.182 14.1261H165.734L170.015 26.8661L174.296 14.1261H178.848L172.631 30.9771H167.365Z" fill="#0E1418"/>
<path d="M187.25 31.3848C185.552 31.3848 184.045 31.0222 182.732 30.2975C181.418 29.5729 180.388 28.5536 179.64 27.24C178.893 25.9261 178.519 24.4088 178.519 22.6875C178.519 20.9435 178.882 19.392 179.606 18.0331C180.354 16.6742 181.373 15.621 182.664 14.8736C183.977 14.1035 185.518 13.7185 187.284 13.7185C188.938 13.7185 190.399 14.0808 191.667 14.8056C192.935 15.5304 193.92 16.5269 194.622 17.7953C195.347 19.041 195.71 20.4339 195.71 21.974C195.71 22.2232 195.698 22.4836 195.676 22.7554C195.676 23.0272 195.664 23.3102 195.642 23.6049H182.834C182.924 24.9185 183.378 25.949 184.193 26.6962C185.031 27.4438 186.039 27.8174 187.216 27.8174C188.1 27.8174 188.836 27.6249 189.425 27.24C190.036 26.8323 190.489 26.3113 190.784 25.6773H195.2C194.883 26.7417 194.351 27.7155 193.604 28.5987C192.879 29.4594 191.973 30.1389 190.885 30.6373C189.821 31.1357 188.609 31.3848 187.25 31.3848ZM187.284 17.2517C186.22 17.2517 185.28 17.5575 184.465 18.169C183.649 18.7578 183.128 19.6638 182.902 20.8869H191.293C191.225 19.7771 190.817 18.8938 190.07 18.2369C189.323 17.5801 188.394 17.2517 187.284 17.2517Z" fill="#0E1418"/>
<path d="M23.1016 6.73322V17.4839C23.1016 18.711 22.1069 19.7057 20.8799 19.7057H10.1291V15.2622H15.51L9.85645 9.60857L12.9985 6.46651L18.6581 12.1261V6.73322H23.1016Z" fill="#0E1418"/>
<path d="M36.2259 19.8581H25.4752C24.2481 19.8581 23.2534 20.8528 23.2534 22.0798V32.8307H27.6971V27.4492L33.351 33.1031L36.4929 29.9612L30.8335 24.3015H36.2259V19.8581Z" fill="#0E1418"/>
</svg>
