<svg width="164" height="40" viewBox="0 0 164 40" fill="none" xmlns="http://www.w3.org/2000/svg">
<path d="M49.7448 12.0236C51.2324 12.0236 52.52 12.2716 53.6076 12.7674C54.7112 13.2632 55.5588 13.9669 56.1504 14.8786C56.7424 15.7902 57.0384 16.8698 57.0384 18.1174C57.0384 19.3489 56.7424 20.4285 56.1504 21.3562C55.5588 22.2678 54.7112 22.9716 53.6076 23.4676C52.52 23.9472 51.2324 24.1872 49.7448 24.1872H46.362V28.8176H42.4756V12.0236H49.7448ZM49.5292 21.0203C50.6964 21.0203 51.5844 20.7724 52.192 20.2766C52.8 19.7648 53.1036 19.045 53.1036 18.1174C53.1036 17.1737 52.8 16.454 52.192 15.9582C51.5844 15.4464 50.6964 15.1905 49.5292 15.1905H46.362V21.0203H49.5292Z" fill="#0E1418"/>
<path d="M61.9243 17.6136C62.3719 16.9898 62.9719 16.518 63.7235 16.1981C64.4911 15.8782 65.3707 15.7183 66.3623 15.7183V19.173C65.9467 19.141 65.6667 19.125 65.5227 19.125C64.4511 19.125 63.6115 19.4289 63.0039 20.0367C62.3959 20.6284 62.0919 21.5241 62.0919 22.7236V28.8176H58.3495V15.9102H61.9243V17.6136Z" fill="#0E1418"/>
<path d="M73.4127 29.0092C72.0535 29.0092 70.8299 28.7296 69.7423 28.1696C68.6707 27.594 67.8311 26.802 67.2231 25.7944C66.6155 24.7868 66.3115 23.6432 66.3115 22.3638C66.3115 21.0843 66.6155 19.9407 67.2231 18.9331C67.8311 17.9254 68.6707 17.1418 69.7423 16.582C70.8299 16.0062 72.0535 15.7183 73.4127 15.7183C74.7723 15.7183 75.9879 16.0062 77.0595 16.582C78.1311 17.1418 78.9707 17.9254 79.5787 18.9331C80.1863 19.9407 80.4903 21.0843 80.4903 22.3638C80.4903 23.6432 80.1863 24.7868 79.5787 25.7944C78.9707 26.802 78.1311 27.594 77.0595 28.1696C75.9879 28.7296 74.7723 29.0092 73.4127 29.0092ZM73.4127 25.9384C74.3727 25.9384 75.1563 25.6188 75.7639 24.9788C76.3879 24.3232 76.6995 23.4516 76.6995 22.3638C76.6995 21.2762 76.3879 20.4125 75.7639 19.7728C75.1563 19.117 74.3727 18.7891 73.4127 18.7891C72.4531 18.7891 71.6615 19.117 71.0379 19.7728C70.4139 20.4125 70.1019 21.2762 70.1019 22.3638C70.1019 23.4516 70.4139 24.3232 71.0379 24.9788C71.6615 25.6188 72.4531 25.9384 73.4127 25.9384Z" fill="#0E1418"/>
<path d="M97.4587 12.0236V28.8176H94.2679L85.8947 18.6212V28.8176H82.0563V12.0236H85.2711L93.6199 22.2199V12.0236H97.4587Z" fill="#0E1418"/>
<path d="M105.175 15.7183C107.174 15.7183 108.709 16.1981 109.781 17.1578C110.852 18.1014 111.388 19.5329 111.388 21.4522V28.8176H107.885V27.21C107.182 28.4096 105.87 29.0092 103.951 29.0092C102.959 29.0092 102.095 28.8416 101.36 28.5056C100.64 28.1696 100.088 27.706 99.7047 27.114C99.3207 26.5224 99.1287 25.8504 99.1287 25.0988C99.1287 23.8992 99.5767 22.9556 100.472 22.2678C101.384 21.5801 102.783 21.2362 104.671 21.2362H107.645C107.645 20.4205 107.398 19.7968 106.902 19.3649C106.406 18.9171 105.662 18.6932 104.671 18.6932C103.983 18.6932 103.303 18.8051 102.631 19.029C101.976 19.237 101.416 19.5249 100.952 19.8927L99.6087 17.2777C100.312 16.7819 101.152 16.398 102.127 16.1261C103.119 15.8542 104.135 15.7183 105.175 15.7183ZM104.887 26.4904C105.526 26.4904 106.094 26.3464 106.59 26.0584C107.086 25.7544 107.437 25.3148 107.645 24.7388V23.4196H105.079C103.543 23.4196 102.775 23.9232 102.775 24.9308C102.775 25.4108 102.959 25.7944 103.327 26.0824C103.711 26.3544 104.231 26.4904 104.887 26.4904Z" fill="#0E1418"/>
<path d="M121.901 28.1936C121.533 28.4656 121.077 28.6736 120.533 28.8176C120.005 28.9452 119.446 29.0092 118.854 29.0092C117.319 29.0092 116.127 28.6176 115.279 27.834C114.447 27.05 114.032 25.8984 114.032 24.3792V19.077H112.041V16.1981H114.032V13.0552H117.774V16.1981H120.989V19.077H117.774V24.3312C117.774 24.8748 117.91 25.2988 118.182 25.6028C118.47 25.8904 118.87 26.0344 119.382 26.0344C119.973 26.0344 120.477 25.8744 120.893 25.5548L121.901 28.1936Z" fill="#0E1418"/>
<path d="M135.806 15.9102V28.8176H132.255V27.282C131.759 27.8416 131.167 28.2736 130.48 28.5776C129.792 28.8656 129.048 29.0092 128.248 29.0092C126.553 29.0092 125.21 28.5216 124.218 27.546C123.226 26.5704 122.73 25.1228 122.73 23.2036V15.9102H126.473V22.6516C126.473 24.7308 127.345 25.7704 129.088 25.7704C129.984 25.7704 130.704 25.4828 131.247 24.9068C131.791 24.3152 132.063 23.4436 132.063 22.2918V15.9102H135.806Z" fill="#0E1418"/>
<path d="M141.648 17.6136C142.096 16.9898 142.696 16.518 143.447 16.1981C144.215 15.8782 145.095 15.7183 146.086 15.7183V19.173C145.67 19.141 145.39 19.125 145.247 19.125C144.175 19.125 143.335 19.4289 142.728 20.0367C142.12 20.6284 141.816 21.5241 141.816 22.7236V28.8176H138.073V15.9102H141.648V17.6136Z" fill="#0E1418"/>
<path d="M159.638 22.412C159.638 22.4596 159.614 22.7956 159.566 23.4196H149.802C149.978 24.2192 150.394 24.8508 151.05 25.3148C151.705 25.7784 152.521 26.0104 153.496 26.0104C154.168 26.0104 154.76 25.9144 155.272 25.7224C155.8 25.5148 156.288 25.1948 156.735 24.7628L158.727 26.922C157.511 28.3136 155.736 29.0092 153.4 29.0092C151.945 29.0092 150.658 28.7296 149.538 28.1696C148.418 27.594 147.555 26.802 146.947 25.7944C146.339 24.7868 146.035 23.6432 146.035 22.3638C146.035 21.1003 146.331 19.9647 146.923 18.9571C147.531 17.9334 148.354 17.1418 149.394 16.582C150.45 16.0062 151.625 15.7183 152.921 15.7183C154.184 15.7183 155.328 15.9902 156.352 16.534C157.375 17.0778 158.175 17.8615 158.751 18.8851C159.342 19.8927 159.638 21.0683 159.638 22.412ZM152.945 18.5492C152.097 18.5492 151.385 18.7891 150.81 19.269C150.234 19.7488 149.882 20.4046 149.754 21.2362H156.112C155.984 20.4205 155.632 19.7728 155.056 19.293C154.48 18.7971 153.776 18.5492 152.945 18.5492Z" fill="#0E1418"/>
<path fill-rule="evenodd" clip-rule="evenodd" d="M21.1615 2.67104C20.5913 2.34116 19.8882 2.34116 19.318 2.67104C15.2676 5.01404 12.5358 9.39784 12.5358 14.4219C12.5358 15.1379 12.5913 15.841 12.6982 16.527C9.90998 15.58 6.89098 15.9246 4.4251 17.3455C3.8543 17.6744 3.50274 18.2833 3.5033 18.9421C3.50622 22.4176 5.31166 25.8048 8.5451 27.6716C10.1314 28.5876 11.8628 29.0228 13.5706 29.0236C13.3108 29.76 13.1694 30.552 13.1694 31.3772C13.1694 35.282 16.3348 38.4472 20.2395 38.4472C24.1443 38.4472 27.3095 35.282 27.3095 31.3772C27.3095 30.55 27.1675 29.7564 26.9067 29.0188C28.5127 28.968 30.1303 28.532 31.6199 27.6716C34.8535 25.8048 36.6587 22.4176 36.6615 18.9422C36.6623 18.2834 36.3107 17.6746 35.7399 17.3457C33.3711 15.9807 30.4919 15.609 27.7975 16.4212C27.8939 15.7688 27.9435 15.1012 27.9435 14.4219C27.9435 9.39784 25.2119 5.01404 21.1615 2.67104ZM16.2176 14.4219C16.2176 11.1594 17.7973 8.26416 20.2397 6.462C22.6823 8.26416 24.2619 11.1594 24.2619 14.4219C24.2619 17.6843 22.6823 20.5796 20.2397 22.3817C17.7973 20.5796 16.2176 17.6843 16.2176 14.4219ZM27.4999 20.5357C29.1999 19.5542 31.1643 19.44 32.8803 20.0611C32.5603 21.8577 31.4791 23.5016 29.7791 24.4832C28.0791 25.4648 26.1147 25.5788 24.3987 24.958C24.7187 23.1612 25.7999 21.5172 27.4999 20.5357ZM7.28478 20.061C9.0007 19.4399 10.965 19.5541 12.6651 20.5356C14.3651 21.5171 15.4462 23.1612 15.7663 24.9576C14.0503 25.5788 12.086 25.4648 10.386 24.4832C8.68594 23.5016 7.60486 21.8576 7.28478 20.061ZM16.8512 31.3772C16.8512 29.506 18.3682 27.9888 20.2395 27.9888C22.1108 27.9888 23.6279 29.506 23.6279 31.3772C23.6279 33.2484 22.1108 34.7656 20.2395 34.7656C18.3682 34.7656 16.8512 33.2484 16.8512 31.3772Z" fill="#0E1418"/>
</svg>
