<svg width="32" height="32" viewBox="0 0 32 32" fill="none" xmlns="http://www.w3.org/2000/svg">
<path fill-rule="evenodd" clip-rule="evenodd" d="M29.8593 25.8196V29.336H29.8554C29.8554 30.0858 26.6123 30.6938 22.6123 30.6938C18.6123 30.6938 15.3692 30.0858 15.3692 29.336H15.3653V25.8196C16.9147 26.4796 20.1271 26.7212 22.6123 26.7212C25.0975 26.7212 28.3103 26.4796 29.8593 25.8196ZM22.6123 20.1978C26.4085 20.1978 28.8559 19.6949 29.3813 19.3377L29.8593 19.0112V16.0593C29.7868 16.0988 29.7101 16.1367 29.6281 16.1729C29.0674 16.3999 28.4833 16.5642 27.8864 16.6627C26.1439 16.955 24.3791 17.0931 22.6123 17.0755C20.8458 17.093 19.0811 16.9549 17.3388 16.6627C16.742 16.5642 16.1579 16.3999 15.5971 16.1729C15.5152 16.1367 15.4384 16.0988 15.3659 16.0593V19.0125L15.844 19.339C16.3687 19.6949 18.8161 20.1978 22.6123 20.1978ZM22.6123 21.0467C19.1396 21.0467 16.2182 20.6193 15.3653 20.0394V24.8623C16.2182 25.4422 19.1396 25.8696 22.6123 25.8696C26.085 25.8696 29.0064 25.4422 29.8593 24.8623V20.0407C29.0064 20.6206 26.085 21.048 22.6123 21.048V21.0467ZM15.3692 14.8675C15.3692 14.1197 18.6231 13.5098 22.6123 13.5098C26.6015 13.5098 29.8554 14.1197 29.8554 14.8675C29.8554 15.6152 26.6015 16.2252 22.6123 16.2252C18.6231 16.2252 15.3692 15.6156 15.3692 14.8675ZM5.93867 16.0734H7.21214V10.7032H5.93867V16.0734ZM20.2952 4.86519H23.6324L19.0946 0.326416V3.66356C19.0953 3.98187 19.222 4.28696 19.447 4.51213C19.6719 4.73731 19.9769 4.86424 20.2952 4.86519ZM14.033 16.0734H14.515V14.8675C14.515 14.8158 14.5197 14.7642 14.529 14.7134C14.569 14.4959 14.6604 14.2912 14.7955 14.1163C14.9306 13.9414 15.1056 13.8013 15.3059 13.7076V12.2383H14.0324L14.033 16.0734ZM3.17883 23.9019V1.52707C3.17978 1.20893 3.30658 0.904087 3.53154 0.679126C3.7565 0.454165 4.06134 0.327364 4.37949 0.326416H18.2443V3.66356C18.2451 4.20723 18.4614 4.72841 18.8459 5.11282C19.2304 5.49722 19.7516 5.71348 20.2952 5.71417H23.6324V12.6725C23.2967 12.6636 22.9567 12.6592 22.6123 12.6592C20.8443 12.6412 19.0781 12.7791 17.3343 13.0712C16.9365 13.1432 16.5432 13.2377 16.1561 13.3543V11.8144C16.1561 11.7018 16.1114 11.5939 16.0318 11.5143C15.9522 11.4346 15.8442 11.3899 15.7316 11.3899H13.6092C13.4966 11.3899 13.3886 11.4346 13.309 11.5143C13.2294 11.5939 13.1847 11.7018 13.1847 11.8144V16.4985C13.1847 16.6111 13.2294 16.719 13.309 16.7987C13.3886 16.8783 13.4966 16.923 13.6092 16.923H14.5163V18.2056H5.09916C4.98658 18.2056 4.87861 18.2503 4.799 18.3299C4.71939 18.4095 4.67467 18.5175 4.67467 18.6301C4.67467 18.7427 4.71939 18.8506 4.799 18.9302C4.87861 19.0099 4.98658 19.0546 5.09916 19.0546H14.515V19.8631H10.9127C10.8001 19.8631 10.6922 19.9078 10.6126 19.9874C10.5329 20.067 10.4882 20.175 10.4882 20.2876C10.4882 20.4001 10.5329 20.5081 10.6126 20.5877C10.6922 20.6673 10.8001 20.712 10.9127 20.712H14.515V21.5202H5.09916C4.98658 21.5202 4.87861 21.5649 4.799 21.6445C4.71939 21.7241 4.67467 21.8321 4.67467 21.9447C4.67467 22.0573 4.71939 22.1653 4.799 22.2449C4.87861 22.3245 4.98658 22.3692 5.09916 22.3692H14.515V25.0983H4.37949C4.06208 25.0974 3.75787 24.9712 3.53303 24.7471C3.30819 24.5231 3.1809 24.2193 3.17883 23.9019ZM8.06144 10.2781C8.06144 10.2223 8.05047 10.1671 8.02913 10.1156C8.0078 10.0641 7.97653 10.0173 7.93712 9.97793C7.8977 9.93851 7.8509 9.90724 7.7994 9.88591C7.7479 9.86458 7.6927 9.8536 7.63696 9.8536H5.51451C5.45876 9.8536 5.40356 9.86458 5.35206 9.88591C5.30056 9.90724 5.25376 9.93851 5.21435 9.97793C5.17493 10.0173 5.14366 10.0641 5.12233 10.1156C5.101 10.1671 5.09002 10.2223 5.09002 10.2781V16.4985C5.09002 16.6111 5.13474 16.719 5.21435 16.7987C5.29395 16.8783 5.40193 16.923 5.51451 16.923H7.63696C7.74954 16.923 7.85751 16.8783 7.93712 16.7987C8.01672 16.719 8.06144 16.6111 8.06144 16.4985V10.2781ZM12.1104 8.54748C12.1104 8.4349 12.0657 8.32692 11.9861 8.24732C11.9065 8.16771 11.7985 8.12299 11.6859 8.12299H9.56349C9.4509 8.12299 9.34293 8.16771 9.26333 8.24732C9.18372 8.32692 9.139 8.4349 9.139 8.54748V16.4985C9.139 16.6111 9.18372 16.719 9.26333 16.7987C9.34293 16.8783 9.4509 16.923 9.56349 16.923H11.6859C11.7985 16.923 11.9065 16.8783 11.9861 16.7987C12.0657 16.719 12.1104 16.6111 12.1104 16.4985V8.54748ZM4.90455 4.79989C4.90455 4.85563 4.91553 4.91083 4.93686 4.96233C4.95819 5.01383 4.98946 5.06063 5.02888 5.10005C5.0683 5.13946 5.11509 5.17073 5.16659 5.19206C5.21809 5.2134 5.27329 5.22438 5.32904 5.22438H10.0859C10.1985 5.22438 10.3065 5.17965 10.3861 5.10005C10.4657 5.02044 10.5104 4.91247 10.5104 4.79989C10.5104 4.6873 10.4657 4.57933 10.3861 4.49973C10.3065 4.42012 10.1985 4.3754 10.0859 4.3754H5.32969C5.27389 4.37531 5.21862 4.38623 5.16704 4.40752C5.11547 4.42881 5.0686 4.46007 5.02911 4.49949C4.98962 4.53892 4.9583 4.58574 4.93692 4.63729C4.91555 4.68883 4.90455 4.74409 4.90455 4.79989ZM4.90455 6.46062C4.90455 6.51636 4.91553 6.57156 4.93686 6.62307C4.95819 6.67457 4.98946 6.72136 5.02888 6.76078C5.0683 6.8002 5.11509 6.83146 5.16659 6.8528C5.21809 6.87413 5.27329 6.88511 5.32904 6.88511H6.61883C6.67458 6.88511 6.72978 6.87413 6.78128 6.8528C6.83278 6.83146 6.87958 6.8002 6.91899 6.76078C6.95841 6.72136 6.98968 6.67457 7.01101 6.62307C7.03234 6.57156 7.04332 6.51636 7.04332 6.46062C7.04332 6.40488 7.03234 6.34968 7.01101 6.29817C6.98968 6.24667 6.95841 6.19988 6.91899 6.16046C6.87958 6.12104 6.83278 6.08978 6.78128 6.06844C6.72978 6.04711 6.67458 6.03613 6.61883 6.03613H5.32904C5.27324 6.03613 5.21799 6.04713 5.16644 6.06851C5.1149 6.08988 5.06807 6.1212 5.02865 6.16069C4.98922 6.20018 4.95797 6.24705 4.93667 6.29863C4.91538 6.3502 4.90446 6.40482 4.90455 6.46062ZM9.98602 16.0734H11.2595V8.97393H9.98602V16.0734ZM16.3468 18.3685C16.3468 18.1315 16.4171 17.8998 16.5488 17.7028C16.6805 17.5057 16.8676 17.3521 17.0866 17.2614C17.3056 17.1707 17.5465 17.147 17.779 17.1932C18.0115 17.2394 18.225 17.3536 18.3926 17.5212C18.5602 17.6888 18.6743 17.9023 18.7205 18.1347C18.7668 18.3672 18.743 18.6082 18.6523 18.8271C18.5616 19.0461 18.408 19.2333 18.211 19.3649C18.0139 19.4966 17.7822 19.5669 17.5452 19.5669C17.2276 19.5668 16.923 19.4408 16.6982 19.2165C16.4733 18.9921 16.3466 18.6878 16.3459 18.3702L16.3468 18.3685ZM17.1958 18.3685C17.1958 18.4374 17.2162 18.5047 17.2545 18.5619C17.2927 18.6192 17.3471 18.6638 17.4107 18.6901C17.4743 18.7165 17.5443 18.7234 17.6118 18.7099C17.6793 18.6965 17.7413 18.6633 17.79 18.6147C17.8387 18.566 17.8719 18.504 17.8853 18.4364C17.8987 18.3689 17.8918 18.2989 17.8655 18.2353C17.8391 18.1717 17.7945 18.1174 17.7373 18.0791C17.68 18.0409 17.6127 18.0205 17.5439 18.0205C17.4981 18.0205 17.4527 18.0297 17.4105 18.0473C17.3682 18.0649 17.3298 18.0907 17.2975 18.1232C17.2652 18.1557 17.2396 18.1942 17.2222 18.2366C17.2048 18.279 17.196 18.3244 17.1961 18.3702L17.1958 18.3685ZM18.7429 23.368C18.7429 23.131 18.6726 22.8993 18.541 22.7023C18.4093 22.5052 18.2221 22.3516 18.0031 22.2609C17.7842 22.1702 17.5432 22.1465 17.3108 22.1927C17.0783 22.2389 16.8648 22.3531 16.6972 22.5207C16.5296 22.6883 16.4154 22.9018 16.3692 23.1343C16.323 23.3667 16.3467 23.6077 16.4374 23.8266C16.5281 24.0456 16.6817 24.2328 16.8788 24.3645C17.0758 24.4961 17.3075 24.5664 17.5445 24.5664C17.8623 24.5661 18.1669 24.4397 18.3915 24.215C18.6162 23.9904 18.7426 23.6858 18.7429 23.368ZM17.8939 23.368C17.894 23.4368 17.8737 23.5041 17.8355 23.5614C17.7974 23.6186 17.7432 23.6633 17.6797 23.6897C17.6162 23.7162 17.5462 23.7232 17.4787 23.7099C17.4112 23.6967 17.3492 23.6637 17.3004 23.6152C17.2516 23.5667 17.2183 23.5048 17.2047 23.4374C17.191 23.37 17.1977 23.3 17.2238 23.2364C17.2499 23.1727 17.2942 23.1182 17.3512 23.0798C17.4083 23.0413 17.4754 23.0206 17.5442 23.0203C17.59 23.0201 17.6354 23.029 17.6778 23.0464C17.7202 23.0638 17.7587 23.0893 17.7912 23.1216C17.8237 23.1539 17.8495 23.1923 17.8671 23.2346C17.8847 23.2769 17.8938 23.3222 17.8939 23.368ZM18.7429 28.1909C18.7429 27.9539 18.6726 27.7222 18.541 27.5251C18.4093 27.3281 18.2221 27.1745 18.0031 27.0838C17.7842 26.9931 17.5432 26.9693 17.3108 27.0156C17.0783 27.0618 16.8648 27.1759 16.6972 27.3435C16.5296 27.5111 16.4154 27.7247 16.3692 27.9571C16.323 28.1896 16.3467 28.4305 16.4374 28.6495C16.5281 28.8685 16.6817 29.0556 16.8788 29.1873C17.0758 29.319 17.3075 29.3893 17.5445 29.3893C17.8622 29.3888 18.1668 29.2624 18.3914 29.0378C18.6161 28.8132 18.7425 28.5086 18.7429 28.1909ZM17.8939 28.1909C17.8939 28.2597 17.8734 28.327 17.8351 28.3842C17.7968 28.4414 17.7424 28.486 17.6788 28.5123C17.6152 28.5386 17.5452 28.5454 17.4777 28.5319C17.4102 28.5185 17.3483 28.4853 17.2996 28.4366C17.251 28.3879 17.2178 28.3259 17.2044 28.2584C17.191 28.1909 17.1979 28.1209 17.2243 28.0573C17.2507 27.9937 17.2953 27.9394 17.3525 27.9011C17.4097 27.8629 17.477 27.8425 17.5459 27.8425C17.6382 27.8426 17.7267 27.8793 17.792 27.9447C17.8573 28.01 17.8939 28.0986 17.8939 28.1909Z" fill="#010205"/>
<path d="M20.2643 18.2334C23.2468 18.5322 24.8785 18.4684 27.7283 18.0334" stroke="white" stroke-width="0.75" stroke-linecap="round"/>
<path d="M20.2643 23.6667C23.2468 23.9655 24.8785 23.9017 27.7283 23.4667" stroke="white" stroke-width="0.75" stroke-linecap="round"/>
<path d="M20.2643 29C23.2468 29.2988 24.8785 29.235 27.7283 28.8" stroke="white" stroke-width="0.75" stroke-linecap="round"/>
</svg>
