<svg width="30" height="30" viewBox="0 0 30 30" fill="none" xmlns="http://www.w3.org/2000/svg">
<g clip-path="url(#clip0_223_506)">
<path d="M15.0001 1.25C12.363 1.25 9.78514 2.03199 7.59248 3.49707C5.39983 4.96216 3.69086 7.04454 2.68169 9.48089C1.67253 11.9172 1.40848 14.5981 1.92295 17.1845C2.43742 19.771 3.7073 22.1467 5.572 24.0114C7.4367 25.8761 9.81247 27.146 12.3989 27.6605C14.9853 28.1749 17.6662 27.9109 20.1025 26.9017C22.5389 25.8926 24.6213 24.1836 26.0864 21.9909C27.5514 19.7983 28.3334 17.2204 28.3334 14.5833C28.3334 11.0471 26.9287 7.65573 24.4282 5.15524C21.9277 2.65476 18.5363 1.25 15.0001 1.25ZM22.5001 11.4833C22.5001 11.78 22.4121 12.07 22.2473 12.3167C22.0825 12.5634 21.8482 12.7556 21.5741 12.8692C21.3 12.9827 20.9984 13.0124 20.7075 12.9545C20.4165 12.8966 20.1492 12.7538 19.9394 12.544C19.7297 12.3342 19.5868 12.0669 19.5289 11.776C19.471 11.485 19.5007 11.1834 19.6143 10.9093C19.7278 10.6352 19.9201 10.401 20.1667 10.2361C20.4134 10.0713 20.7034 9.98333 21.0001 9.98333C21.3979 9.98333 21.7794 10.1414 22.0607 10.4227C22.3421 10.704 22.5001 11.0855 22.5001 11.4833ZM9.54176 12.9833C9.24508 12.9833 8.95507 12.8954 8.7084 12.7305C8.46173 12.5657 8.26947 12.3314 8.15594 12.0574C8.0424 11.7833 8.0127 11.4817 8.07058 11.1907C8.12845 10.8997 8.27132 10.6325 8.4811 10.4227C8.69087 10.2129 8.95815 10.07 9.24912 10.0122C9.54009 9.95428 9.84169 9.98398 10.1158 10.0975C10.3899 10.211 10.6241 10.4033 10.789 10.65C10.9538 10.8967 11.0418 11.1867 11.0418 11.4833C11.0418 11.6832 11.0019 11.881 10.9245 12.0652C10.847 12.2494 10.7335 12.4162 10.5907 12.556C10.4479 12.6957 10.2785 12.8055 10.0927 12.8789C9.90684 12.9523 9.70819 12.9878 9.50842 12.9833H9.54176ZM21.2084 19.2583C21.341 19.4351 21.398 19.6574 21.3667 19.8762C21.3355 20.095 21.2186 20.2924 21.0418 20.425C20.8649 20.5576 20.6427 20.6145 20.4239 20.5833C20.2051 20.552 20.0077 20.4351 19.8751 20.2583C19.3252 19.5224 18.6092 18.9267 17.7855 18.5198C16.9619 18.1129 16.0537 17.9064 15.1351 17.9169C14.2164 17.9275 13.3132 18.1549 12.4991 18.5806C11.685 19.0063 10.9829 19.6183 10.4501 20.3667C10.3219 20.5468 10.1274 20.6686 9.9094 20.7053C9.69139 20.7421 9.46772 20.6907 9.28759 20.5625C9.10746 20.4343 8.98564 20.2398 8.94891 20.0218C8.91218 19.8038 8.96357 19.5801 9.09176 19.4C9.77666 18.4379 10.6791 17.6511 11.7256 17.1037C12.7721 16.5563 13.9331 16.2638 15.1141 16.25C16.295 16.2362 17.4626 16.5014 18.5216 17.0242C19.5806 17.547 20.5012 18.3125 21.2084 19.2583Z" fill="#7DED01"/>
</g>
<defs>
<clipPath id="clip0_223_506">
<rect width="30" height="30" fill="white"/>
</clipPath>
</defs>
</svg>
