<svg width="24" height="24" viewBox="0 0 24 24" fill="none" xmlns="http://www.w3.org/2000/svg">
<rect width="24" height="24" rx="6" fill="#E9E8E4"/>
<g clip-path="url(#clip0_129_188)">
<path d="M17.6 4.80005H6.40005C5.52005 4.80005 4.80005 5.52005 4.80005 6.40005V17.6C4.80005 18.4808 5.52005 19.2 6.40005 19.2H12V13.6H10.4V11.62H12V9.98005C12 8.24885 12.9696 7.03285 15.0128 7.03285L16.4552 7.03445V9.11845H15.4976C14.7024 9.11845 14.4 9.71525 14.4 10.2688V11.6208H16.4544L16 13.6H14.4V19.2H17.6C18.48 19.2 19.2 18.4808 19.2 17.6V6.40005C19.2 5.52005 18.48 4.80005 17.6 4.80005Z" fill="#0E1418"/>
</g>
<defs>
<clipPath id="clip0_129_188">
<rect width="16" height="16" fill="white" transform="translate(4 4)"/>
</clipPath>
</defs>
</svg>
