<svg width="30" height="30" viewBox="0 0 30 30" fill="none" xmlns="http://www.w3.org/2000/svg">
<path d="M15 28C18.4478 28 21.7544 26.6304 24.1924 24.1924C26.6304 21.7544 28 18.4478 28 15C28 11.5522 26.6304 8.24558 24.1924 5.80761C21.7544 3.36964 18.4478 2 15 2C11.5522 2 8.24558 3.36964 5.80761 5.80761C3.36964 8.24558 2 11.5522 2 15C2 18.4478 3.36964 21.7544 5.80761 24.1924C8.24558 26.6304 11.5522 28 15 28ZM10.9578 10.9375C11.3888 10.9375 11.8021 11.1087 12.1069 11.4135C12.4116 11.7182 12.5828 12.1315 12.5828 12.5625C12.5828 12.9935 12.4116 13.4068 12.1069 13.7115C11.8021 14.0163 11.3888 14.1875 10.9578 14.1875C10.5268 14.1875 10.1135 14.0163 9.80876 13.7115C9.50402 13.4068 9.33281 12.9935 9.33281 12.5625C9.33281 12.1315 9.50402 11.7182 9.80876 11.4135C10.1135 11.1087 10.5268 10.9375 10.9578 10.9375ZM17.4578 12.5625C17.4578 12.1315 17.629 11.7182 17.9338 11.4135C18.2385 11.1087 18.6518 10.9375 19.0828 10.9375C19.5138 10.9375 19.9271 11.1087 20.2319 11.4135C20.5366 11.7182 20.7078 12.1315 20.7078 12.5625C20.7078 12.9935 20.5366 13.4068 20.2319 13.7115C19.9271 14.0163 19.5138 14.1875 19.0828 14.1875C18.6518 14.1875 18.2385 14.0163 17.9338 13.7115C17.629 13.4068 17.4578 12.9935 17.4578 12.5625ZM10.125 19.0625H19.875C20.3219 19.0625 20.6875 19.4281 20.6875 19.875C20.6875 20.3219 20.3219 20.6875 19.875 20.6875H10.125C9.67812 20.6875 9.3125 20.3219 9.3125 19.875C9.3125 19.4281 9.67812 19.0625 10.125 19.0625Z" fill="#7DED01"/>
</svg>
