<svg width="44" height="44" viewBox="0 0 44 44" fill="none" xmlns="http://www.w3.org/2000/svg">
<path d="M13.4573 0.900566H6.2821V39.4672H13.4573V0.900566Z" fill="black"/>
<path d="M38.5705 22.4261H31.3953V39.4672H38.5705V22.4261Z" fill="black"/>
<path d="M26.0138 13.4572H18.8386V39.4672H26.0138V13.4572Z" fill="black"/>
<path d="M42.158 41.261H1.79758V0.900569C1.79758 0.662696 1.70309 0.434567 1.53489 0.266365C1.36669 0.0981642 1.13856 0.00366974 0.900683 0.00366974C0.662811 0.00366974 0.434681 0.0981642 0.26648 0.266365C0.0982786 0.434567 0.00378418 0.662696 0.00378418 0.900569L0.00378418 42.1579C0.00378418 42.3958 0.0982786 42.6239 0.26648 42.7921C0.434681 42.9603 0.662811 43.0548 0.900683 43.0548H42.158C42.3959 43.0548 42.624 42.9603 42.7922 42.7921C42.9604 42.6239 43.0549 42.3958 43.0549 42.1579C43.0549 41.92 42.9604 41.6919 42.7922 41.5237C42.624 41.3555 42.3959 41.261 42.158 41.261Z" fill="black"/>
<path d="M32.8213 12.5603H31.3952C31.1573 12.5603 30.9292 12.6547 30.761 12.8229C30.5928 12.9911 30.4983 13.2193 30.4983 13.4572C30.4983 13.695 30.5928 13.9232 30.761 14.0914C30.9292 14.2596 31.1573 14.354 31.3952 14.354C36.7228 14.354 35.8797 15.1344 35.8797 9.86956C35.8797 9.63168 35.7852 9.40355 35.617 9.23535C35.4488 9.06715 35.2207 8.97266 34.9828 8.97266C34.7449 8.97266 34.5168 9.06715 34.3486 9.23535C34.1804 9.40355 34.0859 9.63168 34.0859 9.86956V11.2956L23.063 0.26377C22.8941 0.094881 22.665 0 22.4262 0C22.1874 0 21.9583 0.094881 21.7894 0.26377C21.6205 0.43266 21.5256 0.661723 21.5256 0.900569C21.5256 1.13941 21.6205 1.36848 21.7894 1.53737L32.8213 12.5603Z" fill="black"/>
</svg>
