<svg width="50" height="50" viewBox="0 0 50 50" fill="none" xmlns="http://www.w3.org/2000/svg">
<path d="M24.6667 6C20.9747 6 17.3657 7.09478 14.296 9.1459C11.2263 11.197 8.83376 14.1123 7.42092 17.5232C6.00809 20.9341 5.63843 24.6874 6.35868 28.3083C7.07894 31.9293 8.85677 35.2554 11.4673 37.866C14.0779 40.4765 17.404 42.2544 21.025 42.9746C24.646 43.6949 28.3992 43.3252 31.8101 41.9124C35.221 40.4996 38.1363 38.107 40.1874 35.0373C42.2385 31.9676 43.3333 28.3586 43.3333 24.6667C43.3333 19.7159 41.3667 14.968 37.866 11.4673C34.3653 7.96666 29.6174 6 24.6667 6ZM26.5103 33.4815H22.9959V30.0247H26.5679L26.5103 33.4815ZM29.9095 23.5144C29.4079 24.1268 28.8266 24.6693 28.1811 25.1276L27.3169 25.8189C26.8834 26.1334 26.5607 26.5771 26.3951 27.0864C26.2762 27.5376 26.218 28.0026 26.2222 28.4691H23.0535C23.0484 27.5323 23.1843 26.6 23.4568 25.7037C23.8376 24.9834 24.392 24.3696 25.07 23.9177L25.9342 23.2263C26.2002 23.0345 26.4337 22.8011 26.6255 22.535C26.9291 22.1164 27.0906 21.6117 27.0864 21.0946C27.0989 20.4963 26.917 19.91 26.5679 19.4239C26.2222 18.9245 25.5885 18.6749 24.6667 18.6749C24.2876 18.6396 23.906 18.7065 23.5615 18.8686C23.217 19.0307 22.9223 19.2821 22.7078 19.5967C22.3369 20.1618 22.1369 20.822 22.1317 21.4979H18.6749C18.7517 19.2318 19.5391 17.6378 21.037 16.716C22.0742 16.077 23.2762 15.7565 24.4938 15.7942C26.0696 15.7354 27.6232 16.1793 28.93 17.0617C29.5226 17.495 29.9968 18.0703 30.3088 18.7348C30.6209 19.3992 30.761 20.1315 30.716 20.8642C30.7453 21.8122 30.4619 22.7434 29.9095 23.5144Z" fill="#0E1418"/>
</svg>
