<svg width="33" height="30" viewBox="0 0 33 30" fill="none" xmlns="http://www.w3.org/2000/svg">
<path d="M10.6667 0.375C7.95929 0.375 5.36276 1.45052 3.44833 3.36495C1.53389 5.27939 0.458374 7.87592 0.458374 10.5833C0.458374 13.2908 1.53389 15.8873 3.44833 17.8017C5.36276 19.7161 7.95929 20.7917 10.6667 20.7917H12.2271C12.0887 19.8244 12.0887 18.8423 12.2271 17.875H10.6667C8.73284 17.875 6.87817 17.1068 5.51072 15.7393C4.14327 14.3719 3.37504 12.5172 3.37504 10.5833C3.37504 8.64946 4.14327 6.7948 5.51072 5.42735C6.87817 4.05989 8.73284 3.29167 10.6667 3.29167H22.3334C23.4148 3.29145 24.4826 3.53175 25.4597 3.99518C26.4367 4.4586 27.2985 5.13354 27.9825 5.9711C28.6665 6.80867 29.1557 7.78788 29.4145 8.83782C29.6734 9.88776 29.6955 10.9821 29.4792 12.0417C30.3384 12.8841 31.0424 13.8715 31.5588 14.9583C32.2969 13.4022 32.6294 11.6846 32.5251 9.96542C32.4208 8.24625 31.8833 6.5814 30.9625 5.12586C30.0418 3.67032 28.7677 2.47141 27.2589 1.64074C25.7501 0.810069 24.0557 0.374645 22.3334 0.375H10.6667ZM15.0417 19.3333C15.042 18.1964 15.3081 17.0753 15.8188 16.0596C16.3295 15.0439 17.0707 14.1616 17.983 13.4833C18.8954 12.805 19.9538 12.3495 21.0736 12.1531C22.1934 11.9566 23.3436 12.0248 24.4324 12.3521C25.5212 12.6793 26.5183 13.2567 27.3442 14.038C28.1702 14.8192 28.8019 15.7828 29.1891 16.8518C29.5763 17.9207 29.7082 19.0654 29.5742 20.1943C29.4403 21.3233 29.0442 22.4053 28.4175 23.354L32.1144 27.0523L30.0523 29.1144L26.354 25.4175C25.2549 26.1439 23.9796 26.559 22.6635 26.6187C21.3474 26.6783 20.0398 26.3803 18.8795 25.7563C17.7192 25.1322 16.7497 24.2055 16.074 23.0746C15.3982 21.9436 15.0415 20.6508 15.0417 19.3333Z" fill="#7DED01"/>
</svg>
