<svg width="42" height="32" viewBox="0 0 42 32" fill="none" xmlns="http://www.w3.org/2000/svg">
<path d="M31.7653 28.0063C31.666 28.9479 31.2265 29.8209 30.5294 30.4617C29.8323 31.1024 28.9253 31.4668 27.9787 31.4865C27.0321 31.5061 26.1107 31.1798 25.3876 30.5686C24.6644 29.9574 24.1891 29.1034 24.0507 28.1667L23.6181 25.532L25.5188 25.8528C26.2832 25.9843 27.0335 26.1878 27.7597 26.4604L31.6486 27.9188L31.7653 28.0063ZM28.8729 11.4542C27.8352 11.8906 26.7504 12.2055 25.6403 12.3924L24.1188 12.65C22.9368 12.8492 21.8636 13.4607 21.0897 14.3759C20.3158 15.2912 19.8911 16.4511 19.8911 17.6497C19.8911 18.8483 20.3158 20.0082 21.0897 20.9234C21.8636 21.8387 22.9368 22.4502 24.1188 22.6493L26.0243 22.9702C26.9791 23.1285 27.9156 23.3825 28.8195 23.7285L28.9313 23.7722C28.1994 21.7737 27.8371 19.6588 27.8618 17.5306C27.8384 15.4614 28.1807 13.4043 28.8729 11.4542ZM41.7111 17.5306C41.7111 22.8243 39.3632 26.8104 36.2424 26.8104C33.1215 26.8104 30.7785 22.8195 30.7785 17.5306C30.7785 12.2417 33.1264 8.23613 36.2424 8.23613C39.3583 8.23613 41.7111 12.2417 41.7111 17.5306ZM35.3188 17.657V20.5736C36.14 20.5736 36.9276 20.2474 37.5083 19.6667C38.089 19.086 38.4153 18.2984 38.4153 17.4771C38.4153 16.6559 38.089 15.8682 37.5083 15.2875C36.9276 14.7068 36.14 14.3806 35.3188 14.3806V17.2972M25.159 9.51947C26.0465 9.36551 26.9139 9.11278 27.7451 8.766L31.6924 7.11322V4.68266C31.6922 4.16115 31.5915 3.64455 31.3958 3.16113L23.8222 9.74308L25.159 9.51947ZM18.65 10.375L29.4174 1.01252C28.8681 0.743305 28.2645 0.603614 27.6528 0.604189H5.00973C4.39984 0.605548 3.79818 0.745159 3.25001 1.01252L14.0417 10.375C14.6837 10.9244 15.5009 11.2264 16.3458 11.2264C17.1908 11.2264 18.008 10.9244 18.65 10.375ZM16.9583 17.6472C16.9594 16.3627 17.2695 15.0972 17.8625 13.9577C17.3581 14.0814 16.8409 14.145 16.3215 14.1472C15.1189 14.1465 13.9403 13.8097 12.9188 13.175L3.5514 21.3611C4.01648 21.5413 4.51096 21.6336 5.00973 21.6334H18.0278C17.328 20.4214 16.9592 19.0467 16.9583 17.6472ZM1.25209 3.13683C1.05642 3.62025 0.955746 4.13684 0.955566 4.65836V17.5646C0.964066 18.1921 1.1171 18.8093 1.40279 19.3681L10.6389 11.3084L1.25209 3.13683Z" fill="#7DED01"/>
</svg>
