<svg width="47" height="50" viewBox="0 0 47 50" fill="none" xmlns="http://www.w3.org/2000/svg">
<g clip-path="url(#clip0_131_6507)">
<path d="M22.9298 15.4954C20.0548 15.4954 17.7168 17.8333 17.7168 20.7083C17.7168 23.5833 20.0548 25.9213 22.9298 25.9213C25.8048 25.9213 28.1427 23.5833 28.1427 20.7083C28.1427 17.838 25.8048 15.4954 22.9298 15.4954Z" fill="#010205"/>
<path d="M31.4895 34.3055C31.4895 34.2824 31.4849 34.2592 31.4849 34.2407C31.4849 32.5555 29.7997 31.0231 28.383 30.0324C26.8506 28.9629 25.0173 28.3935 23.0914 28.3935H22.6562C20.7303 28.3935 18.9016 28.9583 17.3645 30.0324C15.9525 31.0231 14.2627 32.5555 14.2627 34.2407C14.2627 34.2639 14.2627 34.287 14.258 34.3055C14.2534 34.3565 13.6701 39.6111 13.434 42.1805C13.4155 42.3518 13.4756 42.5231 13.5914 42.6481C13.7117 42.7778 13.8738 42.8518 14.0497 42.8518H31.6932C31.8692 42.8518 32.0358 42.7824 32.1516 42.6481C32.2673 42.5185 32.3229 42.3518 32.309 42.1805C32.258 41.6342 32.1932 40.9676 32.1238 40.2592C31.8599 37.6157 31.4942 34.3472 31.4895 34.3055Z" fill="#010205"/>
<path d="M9.75415 42.6759L4.29119 44.6388L5.46249 41.4166C5.6199 40.9861 5.45786 40.5092 5.0736 40.2592L2.11527 38.3379L6.89767 36.7361C7.21712 36.6296 7.38841 36.287 7.28193 35.9676C7.17545 35.6481 6.83286 35.4768 6.51341 35.5833L1.26341 37.3426C0.902303 37.4629 0.647674 37.7731 0.601377 38.1481C0.555081 38.5231 0.721748 38.8888 1.04119 39.0926L4.25415 41.1759L2.97638 44.6944C2.84675 45.0555 2.93008 45.449 3.20323 45.7222C3.39304 45.912 3.63841 46.0138 3.89304 46.0138C4.00415 46.0138 4.1199 45.9953 4.23101 45.9537L10.1662 43.8194C10.481 43.7037 10.6477 43.3564 10.5319 43.0416C10.4162 42.7268 10.069 42.5601 9.75415 42.6759Z" fill="#010205"/>
<path d="M15.4069 30.0231C15.3653 30.0185 15.319 30.0231 15.2727 30.0324C11.6014 30.7361 8.92081 31.4907 8.18007 31.7083C7.69859 31.8565 7.40692 32.3379 7.49951 32.824L8.97173 40.9768C9.02266 41.2546 9.18933 41.5 9.43007 41.6435C9.58285 41.7361 9.75414 41.7824 9.93007 41.7824C10.0319 41.7824 10.1291 41.7639 10.2264 41.7361C10.6153 41.6157 11.3375 41.3935 12.319 41.1296C12.3606 40.7222 12.4023 40.287 12.4486 39.8379C12.6986 37.3889 13.0134 34.5463 13.0504 34.2083C13.0597 33.3055 13.3791 32.412 14.0134 31.5277C14.3745 31.0185 14.8421 30.5185 15.4069 30.0231Z" fill="#010205"/>
<path d="M45.6945 38.2037C45.6482 37.8287 45.3935 37.5185 45.0324 37.3935L39.7917 35.625C39.4722 35.5185 39.1296 35.6898 39.0232 36.0092C38.9167 36.3287 39.088 36.6713 39.4028 36.7778L44.1806 38.3889L41.2176 40.3009C40.8333 40.5509 40.6713 41.0231 40.8287 41.4583L41.9908 44.6805L36.5324 42.7037C36.2176 42.5879 35.8704 42.7546 35.7546 43.0694C35.6389 43.3842 35.8056 43.7315 36.1158 43.8472L42.0463 45.9953C42.1574 46.037 42.2732 46.0555 42.3843 46.0555C42.6389 46.0555 42.8843 45.9537 43.0741 45.7685C43.3472 45.4953 43.4352 45.1018 43.3056 44.7407L42.0371 41.2222L45.2546 39.1435C45.5741 38.9444 45.7408 38.5787 45.6945 38.2037Z" fill="#010205"/>
<path d="M36.3507 41.8102C36.5266 41.8102 36.7072 41.7592 36.86 41.6666C37.1007 41.5185 37.2674 41.2777 37.3183 41.0046L38.809 32.8611C38.9016 32.3657 38.5961 31.875 38.1238 31.7453C37.397 31.5277 34.7303 30.7685 31.0405 30.0555C31.0035 30.0463 30.9664 30.0463 30.9248 30.0463H30.9201C30.772 30.0463 30.6331 30.1018 30.5312 30.1898C30.9757 30.5972 31.3507 31.0092 31.6609 31.4213C32.3461 32.3379 32.6979 33.2731 32.7072 34.2083C32.7442 34.537 33.0498 37.3009 33.2951 39.7222C33.3414 40.1713 33.3831 40.6065 33.4248 41.0092C34.6331 41.324 35.5683 41.6111 36.0637 41.7685C36.1609 41.7963 36.2535 41.8102 36.3507 41.8102Z" fill="#010205"/>
<path d="M16.3093 6.3935L19.0268 8.37035C19.0685 8.40276 19.087 8.45369 19.0731 8.50461L18.0361 11.6991C17.8556 12.2592 18.0454 12.8472 18.5222 13.1944C18.9991 13.5417 19.6148 13.5417 20.0963 13.1944L22.8139 11.2222C22.8555 11.1898 22.9111 11.1898 22.9574 11.2222L25.675 13.1944C25.9157 13.3657 26.1889 13.4537 26.462 13.4537C26.7352 13.4537 27.0083 13.3657 27.2491 13.1944C27.7259 12.8472 27.9157 12.2592 27.7352 11.6991L26.6981 8.50461C26.6843 8.45369 26.6981 8.39813 26.7444 8.37035L29.462 6.3935C29.9389 6.04628 30.1287 5.45832 29.9481 4.89813C29.7676 4.33795 29.2676 3.97684 28.675 3.97684H25.3139C25.263 3.97684 25.2167 3.9398 25.1981 3.8935L24.1472 0.694429C23.9667 0.134243 23.4667 -0.226868 22.8741 -0.226868C22.2861 -0.226868 21.7861 0.134243 21.6009 0.694429L20.5639 3.88887C20.5454 3.9398 20.5037 3.97221 20.4481 3.97221H17.0917C16.5037 3.97221 16.0037 4.33332 15.8185 4.8935C15.6426 5.45832 15.8324 6.04628 16.3093 6.3935Z" fill="#010205"/>
<path d="M2.30534 15.2824L5.02293 17.2592C5.0646 17.2916 5.08312 17.3425 5.0646 17.3935L4.02756 20.5879C3.84701 21.1481 4.03682 21.7361 4.51367 22.0833C4.99052 22.4305 5.60626 22.4305 6.08775 22.0833L8.80534 20.1064C8.84701 20.074 8.90719 20.074 8.94886 20.1064L11.6665 22.0833C11.9072 22.2546 12.1803 22.3425 12.4535 22.3425C12.7266 22.3425 12.9998 22.2546 13.2405 22.0833C13.7174 21.7361 13.9072 21.1481 13.7266 20.5879L12.6896 17.3935C12.6757 17.3425 12.6896 17.2916 12.7359 17.2592L15.4535 15.2824C15.9303 14.9351 16.1202 14.3472 15.9396 13.787C15.759 13.2268 15.259 12.8611 14.6665 12.8611H11.2961C11.2452 12.8611 11.1989 12.8287 11.1803 12.7777L10.1433 9.58328C9.96275 9.0231 9.46275 8.66199 8.87015 8.66199C8.28219 8.66199 7.78219 9.0231 7.59701 9.58328L6.55997 12.7777C6.54145 12.8287 6.49978 12.8611 6.44423 12.8611H3.09238C2.50441 12.8611 2.00441 13.2222 1.81923 13.787C1.63867 14.3472 1.82849 14.9351 2.30534 15.2824Z" fill="#010205"/>
<path d="M30.3141 15.2824L33.0317 17.2592C33.0734 17.2916 33.0919 17.3425 33.078 17.3935L32.041 20.5879C31.8604 21.1481 32.0502 21.7361 32.5271 22.0833C33.0039 22.4305 33.6197 22.4305 34.0965 22.0833L36.8141 20.1064C36.8558 20.074 36.9114 20.074 36.9577 20.1064L39.6752 22.0833C39.916 22.2546 40.1891 22.3425 40.4576 22.3425C40.7308 22.3425 41.0039 22.2546 41.2447 22.0833C41.7215 21.7361 41.9114 21.1481 41.7308 20.5879L40.6938 17.3935C40.6752 17.3425 40.6938 17.287 40.7401 17.2592L43.4577 15.2824C43.9345 14.9351 44.1243 14.3472 43.9438 13.787C43.7632 13.2268 43.2632 12.8611 42.6706 12.8611H39.3049C39.2539 12.8611 39.2077 12.8287 39.1891 12.7777L38.1521 9.58328C37.9715 9.0231 37.4715 8.66199 36.8789 8.66199C36.5827 8.66199 36.3095 8.75458 36.0919 8.91199C35.8697 9.07402 35.6984 9.30088 35.6104 9.58328L34.5734 12.7777C34.5549 12.8287 34.5086 12.8611 34.4577 12.8611H31.1012C30.5132 12.8611 30.0132 13.2222 29.828 13.787C29.6428 14.3472 29.8373 14.9351 30.3141 15.2824Z" fill="#010205"/>
</g>
<defs>
<clipPath id="clip0_131_6507">
<rect width="46.2963" height="50" fill="white"/>
</clipPath>
</defs>
</svg>
