<svg width="35" height="35" viewBox="0 0 35 35" fill="none" xmlns="http://www.w3.org/2000/svg">
<path d="M7.62861 5.00231C7.62861 3.59732 8.77176 2.45376 10.1772 2.45376C11.5825 2.45376 12.7257 3.59691 12.7257 5.00231C12.7257 6.4077 11.5825 7.55085 10.1772 7.55085C8.77176 7.55085 7.62861 6.4077 7.62861 5.00231ZM28.9681 13.0945L27.8428 14.9598C29.143 15.8383 29.9996 17.3261 29.9996 19.0099C29.9996 21.7034 27.8083 23.8943 25.1148 23.8943C24.2794 23.8943 23.4922 23.6832 22.8038 23.3118L21.2465 25.8932V29.6766C21.2465 29.893 21.1333 30.0931 20.9478 30.2048L15.5556 33.4446C15.4581 33.5031 15.3481 33.5327 15.2381 33.5327C15.1334 33.5327 15.029 33.5064 14.9349 33.4528C14.7416 33.3436 14.6223 33.1386 14.6223 32.9165V29.3369C14.4904 29.3831 14.3564 29.4254 14.2212 29.4627L14.1177 30.2267C14.0856 30.4626 13.9025 30.6497 13.6671 30.6866C13.2798 30.7475 12.8901 30.778 12.5 30.778C12.1099 30.778 11.7198 30.7475 11.3321 30.6866C11.0966 30.6497 10.9135 30.4626 10.8815 30.2263L10.778 29.4623C10.2758 29.3231 9.79597 29.1245 9.34334 28.8688L8.72995 29.336C8.54037 29.4806 8.27813 29.4834 8.08571 29.3425C7.45243 28.8806 6.8971 28.3252 6.43513 27.692C6.29467 27.4995 6.29711 27.2373 6.44162 27.0477L6.90887 26.4339C6.65271 25.9813 6.45421 25.5015 6.31537 24.9993L5.55138 24.8958C5.31512 24.8637 5.12798 24.6806 5.09103 24.4452C4.96966 23.6706 4.96966 22.8851 5.09103 22.1102C5.12798 21.8747 5.31512 21.6916 5.55138 21.6596L6.31537 21.5561C6.45421 21.0543 6.65312 20.5741 6.90887 20.1214L6.44203 19.508C6.29751 19.3185 6.29508 19.0566 6.43553 18.8638C6.8971 18.2305 7.45243 17.6752 8.08612 17.2132C8.27854 17.0728 8.54078 17.0752 8.73036 17.2197L9.34415 17.687C9.42615 17.6407 9.50897 17.5968 9.59259 17.5542L6.90156 13.0937C6.31862 13.0064 5.87005 12.5042 5.87005 11.8973V9.76164C5.87005 9.09385 6.41321 8.5507 7.08099 8.5507H28.7891C29.4568 8.5507 30 9.09385 30 9.76164V11.8973C30 12.5038 29.5506 13.0072 28.9681 13.0945ZM26.7248 19.8328C26.7248 18.6994 25.7181 18.5009 25.2342 18.4055C25.075 18.3742 24.8116 18.3223 24.7454 18.2662C24.7426 18.2573 24.7373 18.2334 24.7373 18.1867C24.7373 18.1136 24.8806 17.9797 25.1148 17.9797C25.3255 17.9797 25.4619 18.0876 25.4879 18.1603C25.6016 18.481 25.9535 18.6491 26.2742 18.5358C26.5949 18.4221 26.763 18.0702 26.6497 17.7495C26.5028 17.3342 26.1618 17.0139 25.7311 16.856V16.502C25.7311 16.1618 25.4554 15.8858 25.1148 15.8858C24.7742 15.8858 24.4986 16.1614 24.4986 16.502V16.8576C23.9157 17.0744 23.5048 17.5883 23.5048 18.1867C23.5048 19.3201 24.5116 19.5186 24.9955 19.614C25.1546 19.6453 25.4181 19.6972 25.4838 19.7532C25.4867 19.7622 25.4919 19.7861 25.4919 19.8328C25.4919 19.9059 25.3486 20.0398 25.1144 20.0398C24.9078 20.0398 24.773 19.9367 24.743 19.8637C24.6147 19.5486 24.2554 19.3972 23.9404 19.5251C23.6254 19.6534 23.4736 20.0126 23.6019 20.3277C23.7581 20.7117 24.0898 21.0101 24.4982 21.1615V21.5171C24.4982 21.8573 24.7738 22.1333 25.1144 22.1333C25.455 22.1333 25.7306 21.8577 25.7306 21.5171V21.1615C26.3132 20.9447 26.7248 20.4312 26.7248 19.8328ZM14.237 21.541C13.758 21.062 13.1288 20.8225 12.5 20.8225C11.8712 20.8225 11.2416 21.062 10.7625 21.541C10.2985 22.005 10.0428 22.6221 10.0428 23.2781C10.0428 23.9341 10.2985 24.5515 10.7625 25.0151C11.7206 25.9732 13.279 25.9732 14.237 25.0151C14.701 24.5511 14.9568 23.9341 14.9568 23.2781C14.9568 22.6221 14.701 22.0046 14.237 21.541ZM20.0149 26.3377H18.1435C18.126 26.3698 18.109 26.4023 18.0907 26.4343L18.558 27.0481C18.7025 27.2377 18.7049 27.4999 18.5644 27.6924C18.1025 28.3256 17.5471 28.881 16.9139 29.3429C16.7214 29.4834 16.4592 29.481 16.2696 29.3364L15.8547 29.0206V31.8278L20.0149 29.3283V26.3377ZM21.7994 22.592C20.8353 21.6994 20.2305 20.4239 20.2305 19.0095C20.2305 16.3161 22.4218 14.1252 25.1152 14.1252C25.6844 14.1252 26.2308 14.2242 26.7394 14.4037L27.5205 13.1087H8.34917L10.7568 17.1C10.7638 17.0979 10.7711 17.0959 10.778 17.0939L10.8815 16.3299C10.9135 16.0936 11.0966 15.9065 11.3321 15.8695C12.1062 15.7482 12.8917 15.7482 13.6671 15.8695C13.9025 15.9065 14.0856 16.0936 14.1177 16.3295L14.2212 17.0935C14.723 17.2327 15.2032 17.4312 15.6554 17.687L16.2692 17.2197C16.4588 17.0752 16.721 17.0728 16.9135 17.2132C17.5467 17.6752 18.1021 18.2305 18.564 18.8638C18.7045 19.0562 18.7017 19.3185 18.5575 19.508L18.0903 20.1218C18.346 20.5745 18.545 21.0543 18.6838 21.5561L19.4478 21.6596C19.6841 21.6916 19.8712 21.8747 19.9081 22.1102C20.0295 22.8847 20.0295 23.6702 19.9081 24.4452C19.8712 24.6806 19.6841 24.8637 19.4478 24.8958L18.6838 24.9993C18.6741 25.0346 18.6631 25.0699 18.6525 25.1053H20.2824L21.7994 22.592ZM25.1075 7.55085C26.5125 7.55085 27.6561 6.4077 27.6561 5.00231C27.6561 3.59691 26.5129 2.45376 25.1075 2.45376C23.7021 2.45376 22.559 3.59691 22.559 5.00231C22.559 6.4077 23.7021 7.55085 25.1075 7.55085ZM17.6425 6.98049C19.4409 6.98049 20.9039 5.51745 20.9039 3.7191C20.9039 1.92075 19.4409 0.457718 17.6425 0.457718C15.8442 0.457718 14.3812 1.92075 14.3812 3.7191C14.3812 5.51745 15.8442 6.98049 17.6425 6.98049Z" fill="#7DED01"/>
</svg>
