<svg width="44" height="50" viewBox="0 0 44 50" fill="none" xmlns="http://www.w3.org/2000/svg">
<path fill-rule="evenodd" clip-rule="evenodd" d="M20.9725 6.9485C13.646 7.244 8.02354 13.6235 8.69804 20.9845H11.0115C11.3725 20.9845 11.668 21.3535 11.479 21.756C11.3685 21.992 11.31 22.341 11.31 22.6125C11.31 24.587 13.708 25.5805 15.1045 24.1845C15.6245 23.6645 15.865 22.9015 15.71 22.1565C15.6465 21.851 15.5265 21.6895 15.5265 21.512C15.5265 21.221 15.7625 20.9845 16.054 20.9845H20.9725V16.771C18.965 17.1285 17.122 15.5835 17.122 13.545C17.122 11.5065 18.965 9.9615 20.9725 10.319V6.9485ZM34.3015 20.9845H32.693C33.0505 18.9775 31.5055 17.134 29.467 17.134C27.4285 17.134 25.8835 18.9775 26.241 20.9845H22.0275V16.066C22.0275 15.775 21.7915 15.5385 21.5 15.5385C21.3225 15.5385 21.161 15.6585 20.8555 15.722C20.1105 15.877 19.348 15.6365 18.8275 15.1165C17.431 13.72 18.425 11.322 20.3995 11.322C20.6705 11.322 21.0195 11.3805 21.256 11.491C21.6585 11.6795 22.0275 11.384 22.0275 11.0235V6.9485C29.3535 7.244 34.9755 13.6225 34.3015 20.9845ZM22.027 35.0605H27.4525C27.4525 33.807 27.401 32.93 27.9765 31.7375C28.3215 31.0225 28.8315 30.3895 29.4965 29.861C31.9445 27.914 33.6155 25.141 34.1605 22.039H31.9875C31.6265 22.039 31.331 21.67 31.52 21.2675C31.6305 21.0315 31.689 20.6825 31.689 20.411C31.689 18.4365 29.291 17.443 27.8945 18.839C27.3745 19.359 27.134 20.122 27.289 20.867C27.3525 21.172 27.4725 21.334 27.4725 21.5115C27.4725 21.8025 27.2365 22.039 26.945 22.039H22.0265V26.2525C24.034 25.895 25.877 27.4405 25.877 29.4785C25.877 31.5165 24.034 33.062 22.0265 32.7045L22.027 35.0605ZM15.547 35.0605V34.0955C15.547 32.398 14.8325 30.9185 13.503 29.861C11.055 27.914 9.38404 25.141 8.83904 22.039H10.307C9.94954 24.046 11.4945 25.8895 13.533 25.8895C15.5715 25.8895 17.1165 24.0465 16.759 22.039H20.9725V26.9575C20.9725 27.2485 21.2085 27.485 21.5 27.485C21.6775 27.485 21.839 27.365 22.1445 27.3015C22.8895 27.1465 23.652 27.387 24.1725 27.907C25.569 29.3035 24.575 31.7015 22.6005 31.7015C22.329 31.7015 21.9805 31.643 21.744 31.532C21.342 31.3435 20.973 31.639 20.973 31.9995V35.0605H15.547ZM19.19 45.708C19.645 47.467 21.8605 48.123 23.184 46.7995C23.4815 46.502 23.7015 46.127 23.81 45.7085C23.598 45.7345 23.3825 45.7475 23.164 45.7475H19.8355C19.617 45.7475 19.402 45.734 19.19 45.708ZM22.0275 4.3255C22.0275 4.6165 21.7915 4.853 21.5 4.853C21.2085 4.853 20.9725 4.617 20.9725 4.3255V3.0275C20.9725 2.7365 21.2085 2.5 21.5 2.5C21.7915 2.5 22.0275 2.736 22.0275 3.0275V4.3255ZM13.362 6.3645C13.5075 6.616 13.422 6.938 13.1705 7.0835C12.919 7.229 12.597 7.1435 12.4515 6.892L11.8025 5.768C11.657 5.5165 11.7425 5.1945 11.994 5.049C12.2455 4.9035 12.5675 4.989 12.713 5.2405L13.362 6.3645ZM6.87754 12.4635C7.12904 12.608 7.21554 12.929 7.07104 13.1805C6.92654 13.432 6.60554 13.5185 6.35404 13.374L5.23004 12.725C4.97854 12.5805 4.89204 12.2595 5.03654 12.008C5.18104 11.7565 5.50204 11.67 5.75354 11.8145L6.87754 12.4635ZM4.31354 20.9845C4.60454 20.9845 4.84104 21.2205 4.84104 21.512C4.84104 21.8035 4.60504 22.0395 4.31354 22.0395H3.01554C2.72454 22.0395 2.48804 21.8035 2.48804 21.512C2.48804 21.2205 2.72404 20.9845 3.01554 20.9845H4.31354ZM6.35454 29.65C6.60604 29.5055 6.92704 29.592 7.07154 29.8435C7.21604 30.095 7.12954 30.416 6.87804 30.5605L5.75404 31.2095C5.50254 31.354 5.18154 31.2675 5.03704 31.016C4.89254 30.7645 4.97904 30.4435 5.23054 30.299L6.35454 29.65ZM36.122 30.5605C35.8705 30.416 35.784 30.095 35.9285 29.8435C36.073 29.592 36.394 29.5055 36.6455 29.65L37.7695 30.299C38.021 30.4435 38.1075 30.7645 37.963 31.016C37.8185 31.2675 37.4975 31.354 37.246 31.2095L36.122 30.5605ZM38.686 22.0395C38.395 22.0395 38.1585 21.8035 38.1585 21.512C38.1585 21.2205 38.3945 20.9845 38.686 20.9845H39.984C40.275 20.9845 40.5115 21.2205 40.5115 21.512C40.5115 21.8035 40.2755 22.0395 39.984 22.0395H38.686ZM36.647 13.374C36.3955 13.5195 36.0735 13.434 35.928 13.1825C35.7825 12.931 35.868 12.609 36.1195 12.4635L37.2435 11.8145C37.495 11.669 37.817 11.7545 37.9625 12.006C38.108 12.2575 38.0225 12.5795 37.771 12.725L36.647 13.374ZM30.548 6.8895L31.197 5.7655C31.3415 5.514 31.255 5.193 31.0035 5.0485C30.752 4.904 30.431 4.9905 30.2865 5.242L29.6375 6.366C29.493 6.6175 29.5795 6.9385 29.831 7.083C30.0825 7.2275 30.4035 7.141 30.548 6.8895ZM15.42 38.408C13.606 36.594 10.6535 36.579 8.82454 38.408C7.00354 40.229 7.00354 43.1825 8.82454 45.0035C10.6455 46.8245 13.599 46.8245 15.42 45.0035C17.2565 43.167 17.2265 40.2145 15.42 38.408ZM15.5465 37.126V36.1155H27.452V40.404C27.452 40.678 27.426 40.9465 27.376 41.2065H22.8625C22.5715 41.2065 22.335 41.4425 22.335 41.734C22.335 42.0255 22.571 42.2615 22.8625 42.2615H27.0255C26.3205 43.716 24.835 44.693 23.163 44.693H19.8345C18.957 44.693 18.1105 44.4255 17.393 43.9255C17.9735 42.549 17.9895 40.9815 17.436 39.592H19.947C20.238 39.592 20.4745 39.356 20.4745 39.0645C20.4745 38.773 20.2385 38.537 19.947 38.537H16.882C16.52 37.994 16.068 37.5165 15.546 37.1255L15.5465 37.126ZM8.87754 42.327C8.67154 42.121 8.67154 41.787 8.87754 41.5815C9.08354 41.3755 9.41754 41.3755 9.62304 41.5815L10.999 42.9575L14.6205 39.336C14.8265 39.13 15.1605 39.13 15.366 39.336C15.5715 39.542 15.572 39.876 15.366 40.0815L11.3715 44.076C11.1655 44.282 10.8315 44.282 10.626 44.076L8.87754 42.327Z" fill="white"/>
</svg>
