<svg width="60" height="60" viewBox="0 0 60 60" fill="none" xmlns="http://www.w3.org/2000/svg">
<path d="M51.4718 53.5187L49.7864 42.423C49.3148 38.1555 45.7356 34.9362 41.4598 34.9362H33.5235C32.8651 34.9362 32.3265 34.3952 32.3265 33.734V29.4232L33.6695 30.772C34.7971 31.9068 36.3006 32.5319 37.8999 32.5319H43.0974C45.0773 32.5319 46.6885 30.9139 46.6885 28.9255C46.6885 26.9372 45.0773 25.3191 43.0974 25.3191H39.3004C38.9844 25.3191 38.6755 25.1917 38.4529 24.9681L33.3751 19.8687C32.2451 18.7315 30.744 18.1064 29.1448 18.1064H26.3389C24.359 18.1064 22.7478 19.7244 22.7478 21.7128V36.1383C22.7478 40.7785 26.5065 44.5532 31.127 44.5532H38.6755C39.2621 44.5532 39.76 44.9763 39.8678 45.6135L41.8668 54.9035C42.2595 57.2621 44.2729 58.9763 46.655 58.9763C48.0339 58.9763 49.3507 58.3849 50.27 57.3534C51.1917 56.3244 51.6322 54.942 51.4718 53.5187Z" fill="#0E1418"/>
<path d="M27.5362 15.7021C31.5028 15.7021 34.7184 12.4729 34.7184 8.48936C34.7184 4.50586 31.5028 1.2766 27.5362 1.2766C23.5696 1.2766 20.354 4.50586 20.354 8.48936C20.354 12.4729 23.5696 15.7021 27.5362 15.7021Z" fill="#0E1418"/>
<path d="M35.482 47.0248C34.8572 46.8084 34.1749 47.133 33.9522 47.7581C32.0944 53.0306 27.11 56.5745 21.5509 56.5745C14.2897 56.5745 8.38357 50.6408 8.38357 43.3511C8.38357 36.8788 12.9969 31.4019 19.3556 30.3272C20.0068 30.2166 20.4473 29.5963 20.3372 28.9424C20.227 28.2884 19.6165 27.8484 18.9582 27.9566C11.4432 29.2261 5.9895 35.7007 5.9895 43.3511C5.9895 51.9679 12.9706 58.9787 21.5509 58.9787C28.1227 58.9787 34.0121 54.7929 36.2098 48.5611C36.4301 47.9336 36.1021 47.2484 35.482 47.0248Z" fill="#0E1418"/>
</svg>
