<svg width="51" height="50" viewBox="0 0 51 50" fill="none" xmlns="http://www.w3.org/2000/svg">
<path fill-rule="evenodd" clip-rule="evenodd" d="M30.7991 3.97829C30.0264 3.20561 29.0419 2.67941 27.9701 2.46625C26.8983 2.25309 25.7874 2.36253 24.7778 2.78073C23.7682 3.19893 22.9053 3.90712 22.2982 4.81573C21.6911 5.72435 21.3671 6.79259 21.3671 7.88536C21.3671 8.97814 21.6911 10.0464 22.2982 10.955C22.9053 11.8636 23.7682 12.5718 24.7778 12.99C25.7874 13.4082 26.8983 13.5176 27.9701 13.3045C29.0419 13.0913 30.0264 12.5651 30.7991 11.7924C31.8353 10.7562 32.4174 9.35077 32.4174 7.88536C32.4174 6.41995 31.8353 5.01455 30.7991 3.97829ZM33.2981 23.646H38.5355C38.3964 22.4939 38.0307 21.3808 37.4596 20.3706C36.8884 19.3605 36.1231 18.4733 35.2077 17.7601C30.6314 13.997 23.1486 13.9965 18.5724 17.7601C17.6569 18.4732 16.8916 19.3604 16.3206 20.3706C15.7496 21.3807 15.384 22.4939 15.2451 23.646H20.486C19.7436 21.854 19.6597 19.898 21.087 18.4702C21.444 18.1125 21.8681 17.8287 22.3349 17.6353C22.8018 17.4418 23.3023 17.3425 23.8077 17.3429C24.4148 17.3184 25.0179 17.4514 25.5583 17.7289C26.0988 18.0065 26.5583 18.4191 26.8921 18.9268C27.2258 18.4191 27.6853 18.0065 28.2258 17.7289C28.7662 17.4514 29.3693 17.3184 29.9764 17.3429C30.9969 17.3432 31.9755 17.7487 32.697 18.4703C33.4186 19.1919 33.8241 20.1705 33.8244 21.1909C33.813 22.036 33.6342 22.8705 33.2981 23.646ZM32.2971 21.1909C32.2971 23.9687 28.7466 27.504 26.8931 29.3636C24.9638 27.4273 21.489 24.0838 21.489 21.1909C21.4897 20.5752 21.7348 19.9849 22.1704 19.5498C22.606 19.1146 23.1965 18.8702 23.8123 18.8702C25.1017 18.8702 25.6178 19.5626 26.2163 20.7601C26.2794 20.8869 26.3767 20.9936 26.4971 21.0682C26.6176 21.1428 26.7564 21.1823 26.8981 21.1823C27.0398 21.1823 27.1787 21.1428 27.2991 21.0682C27.4195 20.9936 27.5168 20.8869 27.5799 20.7601C28.1769 19.5626 28.6976 18.8717 29.9835 18.8717C30.5988 18.8724 31.1886 19.1171 31.6237 19.5522C32.0588 19.9873 32.3035 20.5771 32.3042 21.1924L32.2971 21.1909ZM36.7011 35.4995C36.6107 35.8279 36.4747 36.1421 36.2971 36.4328C35.4456 37.8808 34.0804 37.5414 32.7506 37.5606C31.8416 37.5744 30.9934 37.5894 30.2062 37.6056C25.2592 37.7 22.7577 37.7475 19.1173 36.8197C18.9211 36.7699 18.7527 36.6441 18.6492 36.4701C18.5456 36.2962 18.5155 36.0882 18.5653 35.8919C18.6151 35.6957 18.7409 35.5273 18.9149 35.4238C19.0888 35.3202 19.2968 35.2901 19.4931 35.3399C22.9537 36.2217 25.3809 36.1758 30.1825 36.0838C30.9597 36.0692 31.7986 36.053 32.733 36.0394C33.5471 36.0273 34.6557 36.2222 34.9845 35.6631C35.0692 35.5629 35.1292 35.4443 35.1597 35.3167C35.1902 35.1891 35.1904 35.0561 35.1603 34.9284C35.1301 34.8008 35.0704 34.6819 34.9861 34.5815C34.9017 34.481 34.7949 34.4017 34.6744 34.35C32.641 33.154 27.1067 33.2621 25.3279 32.5202C24.5491 32.1955 23.7713 31.8288 22.991 31.4596C19.0557 29.6061 15.0547 27.7222 10.3234 31.5465L13.2552 43.3843C15.4214 43.4909 17.2451 43.696 18.9153 43.8843C22.3794 44.2748 25.1779 44.5914 28.8017 43.7465L46.7466 34.7828C47.179 34.5933 47.5495 34.2864 47.8163 33.897C47.9281 33.678 47.9754 33.4318 47.9525 33.187C47.9297 32.9422 47.8378 32.709 47.6874 32.5145C47.5371 32.3199 47.3345 32.1722 47.1033 32.0884C46.8722 32.0047 46.622 31.9884 46.382 32.0414L36.7011 35.4995ZM12.389 46.2202L6.6567 47.6399L2.52539 30.9596L8.25771 29.5404L12.389 46.2202Z" fill="#010205"/>
</svg>
