<svg width="54" height="50" viewBox="0 0 54 50" fill="none" xmlns="http://www.w3.org/2000/svg">
<path d="M27.5635 7.70905V28.9962H49.9994V7.70905H27.5635ZM42.443 21.0449C42.6066 21.2138 42.6975 21.4402 42.696 21.6754C42.6945 21.9106 42.6009 22.1358 42.4352 22.3027C42.2695 22.4695 42.0449 22.5647 41.8097 22.5678C41.5746 22.5709 41.3476 22.4817 41.1775 22.3192L38.4404 19.618L35.6942 22.3193C35.6106 22.4023 35.5114 22.4681 35.4023 22.5129C35.2931 22.5576 35.1763 22.5804 35.0584 22.58C34.9405 22.5796 34.8238 22.5559 34.715 22.5104C34.6062 22.4649 34.5075 22.3984 34.4244 22.3148C34.3413 22.2311 34.2755 22.1319 34.2308 22.0228C34.186 21.9137 34.1632 21.7968 34.1636 21.6789C34.1641 21.561 34.1877 21.4443 34.2332 21.3355C34.2787 21.2267 34.3452 21.128 34.4289 21.0449L37.1571 18.3526L34.4289 15.6603C34.2599 15.4925 34.1645 15.2644 34.1636 15.0263C34.1628 14.7882 34.2566 14.5594 34.4244 14.3904C34.5922 14.2215 34.8202 14.126 35.0584 14.1252C35.2965 14.1244 35.5253 14.2182 35.6942 14.386L38.4404 17.0872L41.1776 14.386C41.3475 14.223 41.5747 14.1334 41.8101 14.1363C42.0455 14.1392 42.2704 14.2345 42.4363 14.4016C42.6022 14.5686 42.6958 14.7941 42.6971 15.0296C42.6983 15.265 42.607 15.4915 42.4429 15.6603L39.7147 18.3526L42.443 21.0449Z" fill="#010205"/>
<path d="M25.7689 7.70905H3.33301V28.9962H25.7689V7.70905ZM19.9535 15.4808L13.4292 22.4539C13.2616 22.626 13.0331 22.7253 12.793 22.7303C12.5529 22.7353 12.3204 22.6457 12.1458 22.4808L8.27789 18.7205C8.11197 18.5539 8.01801 18.3288 8.01619 18.0937C8.01437 17.8586 8.10484 17.6321 8.26816 17.4629C8.43149 17.2937 8.65464 17.1953 8.88971 17.1888C9.12478 17.1824 9.35301 17.2683 9.52539 17.4283L12.7471 20.5603L18.6433 14.2513C18.8077 14.0832 19.0314 13.9863 19.2664 13.9812C19.5015 13.9762 19.7291 14.0635 19.9006 14.2243C20.072 14.3852 20.1736 14.6069 20.1835 14.8418C20.1934 15.0767 20.1108 15.3061 19.9535 15.4808Z" fill="#010205"/>
<path d="M43.7086 38.1769H39.5625V44.791H43.7086C44.0623 44.7915 44.4127 44.7221 44.7395 44.587C45.0664 44.4519 45.3634 44.2536 45.6135 44.0035C45.8636 43.7534 46.0619 43.4564 46.197 43.1295C46.3321 42.8027 46.4014 42.4524 46.401 42.0987V40.8692C46.4004 40.1553 46.1166 39.4708 45.6118 38.9661C45.107 38.4613 44.4225 38.1774 43.7086 38.1769Z" fill="#010205"/>
<path d="M37.7687 38.1769H15.3418V44.791H37.7687V38.1769Z" fill="#010205"/>
<path d="M13.5458 44.2708V38.6975L7.65918 41.4883L13.5458 44.2708Z" fill="#010205"/>
</svg>
