<svg width="42" height="43" viewBox="0 0 42 43" fill="none" xmlns="http://www.w3.org/2000/svg">
<g filter="url(#filter0_d_121_2720)">
<path d="M27.6535 26.18C27.997 26.3616 28.441 26.3419 28.7473 26.0706L28.7582 26.0816C29.9294 25.043 31.1129 24.0185 32.3085 23.0081C32.687 22.6953 32.6213 22.1944 32.3217 21.7766L32.0482 21.4047C31.2935 20.3875 30.576 19.4228 30.576 17.4869V10.2681L30.5782 9.53531C30.5957 6.76813 30.6088 4.23938 28.5373 2.30562C26.7588 0.599375 23.8188 0 21.5657 0C17.1623 0 12.247 1.64062 11.2101 7.0875C11.1073 7.665 11.5229 7.97125 11.9013 8.05656L16.3945 8.53781C16.8101 8.51813 17.1163 8.10906 17.1951 7.69125C17.5801 5.81656 19.1551 4.91094 20.9204 4.91094C21.872 4.91094 22.9526 5.26094 23.5192 6.11406C24.0967 6.96719 24.0879 8.10469 24.0813 9.12406V10.0691C23.6438 10.1172 23.191 10.1646 22.7229 10.2113C20.2882 10.4606 17.4795 10.7494 15.3729 11.6769C12.4723 12.9281 10.4313 15.4875 10.4313 19.2456C10.4313 24.0581 13.4654 26.46 17.3613 26.46C20.6557 26.46 22.4538 25.6856 24.9935 23.0912L25.3588 23.6294C25.9582 24.5153 26.3563 25.1059 27.6492 26.18H27.6535ZM17.1907 18.4428C17.1907 14.4966 20.7279 13.7812 24.0748 13.7812V15.0281C24.077 16.7256 24.0792 18.165 23.2085 19.6941C22.4735 20.9956 21.3054 21.7962 20.0038 21.7962C18.2276 21.7962 17.1907 20.4422 17.1907 18.4428ZM4.95166 26.6306C10.7026 30.1372 19.6035 35.5644 33.7895 28.8116C34.402 28.5578 34.8285 28.9822 34.2248 29.7544C33.6145 30.5375 28.7451 35 20.5595 35C12.3826 35 6.1176 29.4131 4.20572 27.0944C3.68072 26.4928 4.28447 26.2194 4.64104 26.4403L4.95166 26.6306Z" fill="#7DED01"/>
<path d="M34.2489 26.1253C35.4892 25.9722 37.4602 26.0663 37.8473 26.5716C38.1427 26.9566 37.8386 28.6847 37.3377 29.925C36.8345 31.1566 36.0864 32.0272 35.6708 32.3641C35.2552 32.7009 34.9423 32.5697 35.1677 32.0644C35.3973 31.5613 36.6639 28.4266 36.163 27.7703C35.697 27.1622 33.5883 27.3831 32.6083 27.4859L32.4114 27.5056C32.2043 27.5246 32.0344 27.5421 31.9017 27.5581C31.4795 27.6041 31.3658 27.6172 31.3023 27.4881C31.1405 27.0309 33.0064 26.2719 34.2489 26.1253Z" fill="#7DED01"/>
</g>
<defs>
<filter id="filter0_d_121_2720" x="0" y="0" width="43" height="43" filterUnits="userSpaceOnUse" color-interpolation-filters="sRGB">
<feFlood flood-opacity="0" result="BackgroundImageFix"/>
<feColorMatrix in="SourceAlpha" type="matrix" values="0 0 0 0 0 0 0 0 0 0 0 0 0 0 0 0 0 0 127 0" result="hardAlpha"/>
<feOffset dy="4"/>
<feGaussianBlur stdDeviation="2"/>
<feComposite in2="hardAlpha" operator="out"/>
<feColorMatrix type="matrix" values="0 0 0 0 0 0 0 0 0 0 0 0 0 0 0 0 0 0 0.25 0"/>
<feBlend mode="normal" in2="BackgroundImageFix" result="effect1_dropShadow_121_2720"/>
<feBlend mode="normal" in="SourceGraphic" in2="effect1_dropShadow_121_2720" result="shape"/>
</filter>
</defs>
</svg>
