<svg width="54" height="50" viewBox="0 0 54 50" fill="none" xmlns="http://www.w3.org/2000/svg">
<path d="M38.9243 15.1613C41.4185 15.1613 43.4405 13.1393 43.4405 10.6452C43.4405 8.15097 41.4185 6.12903 38.9243 6.12903C36.4301 6.12903 34.4082 8.15097 34.4082 10.6452C34.4082 13.1393 36.4301 15.1613 38.9243 15.1613Z" fill="#010205"/>
<path d="M50.6984 9.03227C49.6769 8.87098 48.7629 9.51614 48.4403 10.4839L47.3651 13.7097C46.9887 14.8925 45.9672 15.8065 44.7306 16.129C42.9027 16.5592 41.021 16.828 39.0855 16.828H38.7629C36.8812 16.828 34.9995 16.6129 33.1177 16.129C31.8812 15.8065 30.9134 14.8925 30.4833 13.7097L29.4081 10.4839C29.0855 9.51614 28.1177 8.87098 27.15 9.03227C25.8597 9.24732 25.1608 10.5376 25.5371 11.6667L26.6124 14.8925C27.4726 17.4731 29.6231 19.4624 32.3113 20.1075C32.6876 20.2151 33.1177 20.2688 33.4941 20.3764L34.0317 29.4086L32.7952 44.785C32.6876 45.8065 33.3328 46.7742 34.3005 47.043C35.5371 47.3656 36.7199 46.5054 36.8274 45.2688L38.0102 31.3441C38.064 30.8602 38.4403 30.4839 38.9242 30.4839C39.4081 30.4839 39.7844 30.8602 39.8382 31.3441L41.021 45.2688C41.1285 46.3441 41.9887 47.0968 43.064 47.0968C43.1715 47.0968 43.2253 47.0968 43.3328 47.0968C44.4081 46.9893 45.1608 45.9678 45.107 44.8925L43.7629 29.4624L44.3005 20.4301C44.6769 20.3764 45.107 20.2688 45.4833 20.1613C48.1715 19.5161 50.322 17.5807 51.1823 14.9462L52.2575 11.7204C52.6876 10.5376 51.9887 9.24732 50.6984 9.03227ZM39.9995 25.3226L39.0855 26.3441C39.0317 26.4516 38.8704 26.4516 38.7629 26.3441L37.8489 25.3226C37.7952 25.2688 37.7952 25.2151 37.7952 25.1613L38.5478 19.5699H38.1715C38.064 19.5699 37.9564 19.4624 37.9564 19.3548V18.1721C37.9564 18.0645 38.064 17.957 38.1715 17.957H39.6231C39.7306 17.957 39.8382 18.0645 39.8382 18.1721V19.3548C39.8382 19.4624 39.7306 19.5699 39.6231 19.5699H39.2468L39.9995 25.1613C40.107 25.2151 40.0532 25.2688 39.9995 25.3226Z" fill="#010205"/>
<path d="M28.0108 23.9247H22.9033C22.3657 23.9247 21.9355 24.3548 21.9355 24.8924V46.129C21.9355 46.6666 22.3657 47.0967 22.9033 47.0967H28.0108C28.5484 47.0967 28.9786 46.6666 28.9786 46.129V24.8924C28.9786 24.3548 28.5484 23.9247 28.0108 23.9247Z" fill="#010205"/>
<path d="M17.7413 31.0215H12.6338C12.0961 31.0215 11.666 31.4516 11.666 31.9892V46.129C11.666 46.6666 12.0961 47.0968 12.6338 47.0968H17.7413C18.2789 47.0968 18.709 46.6666 18.709 46.129V31.9892C18.709 31.4516 18.2789 31.0215 17.7413 31.0215Z" fill="#010205"/>
<path d="M7.41902 38.172H2.31149C1.77386 38.172 1.34375 38.6021 1.34375 39.1397V46.129C1.34375 46.6666 1.77386 47.0967 2.31149 47.0967H7.41902C7.95665 47.0967 8.38676 46.6666 8.38676 46.129V39.1397C8.38676 38.5483 7.95665 38.172 7.41902 38.172Z" fill="#010205"/>
</svg>
