<svg width="56" height="57" viewBox="0 0 56 57" fill="none" xmlns="http://www.w3.org/2000/svg">
<g clip-path="url(#clip0_106_3)">
<path d="M53.3255 1.21191H42.5787C41.5173 1.21191 40.6587 2.07342 40.6587 3.13193V15.2754C40.6587 16.3368 41.5202 17.1954 42.5787 17.1954H43.8695L42.4317 19.9799L46.4364 17.1954H53.3255C54.387 17.1954 55.2455 16.3339 55.2455 15.2754V3.13193C55.2455 2.07048 54.384 1.21191 53.3255 1.21191Z" fill="#0E1418"/>
<path d="M42.4317 20.1299C42.3965 20.1299 42.3612 20.1181 42.3347 20.0946C42.2847 20.0505 42.27 19.977 42.3024 19.9152L43.6284 17.3454H42.5787C41.4379 17.3454 40.5117 16.4163 40.5117 15.2784V3.13197C40.5117 1.99114 41.4409 1.06494 42.5787 1.06494H53.3255C54.4664 1.06494 55.3926 1.99408 55.3926 3.13197V15.2754C55.3926 16.4163 54.4634 17.3424 53.3255 17.3424H46.4835L42.517 20.1004C42.4905 20.1181 42.4611 20.1269 42.4317 20.1269V20.1299ZM42.5787 1.35897C41.5996 1.35897 40.8057 2.15579 40.8057 3.13197V15.2754C40.8057 16.2545 41.6026 17.0484 42.5787 17.0484H43.8695C43.9195 17.0484 43.9695 17.0749 43.996 17.119C44.0224 17.1631 44.0254 17.216 44.0019 17.2631L42.8346 19.5212L46.3512 17.0749C46.3747 17.0572 46.4041 17.0484 46.4364 17.0484H53.3255C54.3047 17.0484 55.0985 16.2516 55.0985 15.2754V3.13197C55.0985 2.15285 54.3017 1.35897 53.3255 1.35897H42.5787Z" fill="#0E1418"/>
<path d="M46.7599 12.2706V10.3153C47.2157 9.96242 47.6244 9.56842 47.986 9.13325C48.3506 8.69809 48.6358 8.23646 48.8505 7.74837C49.0622 7.25734 49.168 6.75161 49.168 6.2253C49.168 5.85188 49.1004 5.58137 48.9622 5.41377C48.827 5.24618 48.627 5.16385 48.3653 5.16385C48.1242 5.16385 47.9331 5.23442 47.7979 5.37555C47.6626 5.51668 47.592 5.71368 47.592 5.96655C47.592 6.12827 47.6097 6.27234 47.645 6.39877C47.6802 6.52521 47.7244 6.65752 47.7743 6.8016L45.5485 7.31615C45.4662 7.07504 45.4045 6.83982 45.3604 6.61048C45.3162 6.38407 45.2927 6.14297 45.2927 5.8901C45.2927 5.00213 45.5632 4.30822 46.1042 3.80837C46.6453 3.30852 47.4186 3.05859 48.43 3.05859C49.4415 3.05859 50.2354 3.32616 50.7852 3.8613C51.335 4.39643 51.6114 5.15797 51.6114 6.14885C51.6114 6.75455 51.5115 7.33085 51.3086 7.87481C51.1057 8.41876 50.8117 8.93625 50.4236 9.41846C50.0354 9.90361 49.562 10.3564 49.0063 10.7828V12.2676H46.7658L46.7599 12.2706ZM46.6835 15.4961V13.1497H49.0916V15.4961H46.6835Z" fill="white"/>
<path d="M32.9924 30.3503V33.6841C32.9924 33.6841 39.5308 35.4801 42.1623 37.2762C44.7897 39.0722 45.944 42.7894 45.7543 45.2272C45.5606 47.6649 45.3709 51.5759 45.048 54.0742C44.7292 56.5765 44.0874 61.1897 44.0874 61.1897L40.7537 61.3188C40.7537 61.3188 40.9474 70.9367 41.012 73.0516C41.0766 75.1665 42.2954 79.6546 42.2954 80.8089V82.3466C42.2954 82.3466 31.5878 85.1678 24.3432 84.974C17.0985 84.7803 13.6356 81.5757 13.6356 81.5757C13.6356 81.5757 14.7253 72.7287 14.7899 68.6241C14.8544 64.5194 13.7647 49.9009 13.7647 49.9009L11.9687 51.8261L5.23657 45.8003C5.23657 45.8003 7.48061 41.6311 8.44118 40.4162C9.40176 39.1973 9.84976 37.7888 12.2875 36.4407C14.7253 35.0927 19.5322 34.3904 20.1739 34.1967C20.8157 34.003 24.662 33.0424 24.662 33.0424L24.9203 31.3755L33.0005 30.3503H32.9924Z" fill="#0E1418"/>
<path d="M25.0535 85.1879C24.8073 85.1879 24.5692 85.1879 24.3311 85.1799C17.0945 84.9861 13.6356 81.8622 13.4943 81.729C13.4459 81.6847 13.4217 81.6201 13.4297 81.5555C13.4419 81.4667 14.5195 72.6722 14.5841 68.624C14.6406 64.9876 13.7768 52.8956 13.5912 50.3811L12.11 51.9673C12.0333 52.048 11.9082 52.0521 11.8274 51.9794L5.09533 45.9536C5.02672 45.8931 5.00654 45.7881 5.05094 45.7074C5.14377 45.5379 7.31515 41.5099 8.27573 40.2911C8.50175 40.0045 8.69548 39.7099 8.90535 39.3991C9.55515 38.4224 10.2897 37.3125 12.1826 36.2631C14.1199 35.1935 17.5465 34.5195 19.1892 34.1966C19.6291 34.1119 19.9762 34.0433 20.1053 34.0029C20.6825 33.8294 23.7862 33.0504 24.4723 32.8769L24.7064 31.3432C24.7185 31.2544 24.7912 31.1858 24.88 31.1736L32.9601 30.1485C33.0166 30.1404 33.0772 30.1606 33.1175 30.1969C33.1619 30.2333 33.1861 30.2898 33.1861 30.3503V33.5307C34.1992 33.8173 39.8294 35.4438 42.2672 37.1066C44.931 38.9228 46.1499 42.6521 45.944 45.2392C45.8835 45.9859 45.827 46.8698 45.7624 47.8102C45.6212 49.9412 45.4597 52.3548 45.2377 54.0943C44.9189 56.5684 44.2812 61.1654 44.2772 61.2139C44.2651 61.3107 44.1843 61.3834 44.0834 61.3874L40.9474 61.5085C40.9757 62.8969 41.1412 71.1183 41.2017 73.0395C41.238 74.1978 41.6255 76.0826 41.9645 77.7495C42.243 79.1016 42.4811 80.272 42.4811 80.8048V82.3425C42.4811 82.4354 42.4206 82.5161 42.3318 82.5363C42.2269 82.5645 32.2094 85.1799 25.0455 85.1799L25.0535 85.1879ZM13.8414 81.495C14.3863 81.947 17.8411 84.6027 24.3391 84.7722C31.0026 84.9538 40.7577 82.5282 42.0856 82.1892V80.8088C42.0856 80.3164 41.8394 79.1097 41.5771 77.8343C41.23 76.1512 40.8385 74.2503 40.8021 73.0556C40.7376 70.9609 40.5479 61.4157 40.5438 61.3188C40.5438 61.2098 40.6286 61.117 40.7376 61.113L43.9018 60.9919C44.0189 60.1403 44.5556 56.2455 44.8382 54.0459C45.0602 52.3184 45.2216 49.9089 45.3629 47.786C45.4274 46.8456 45.4839 45.9577 45.5445 45.211C45.7422 42.7046 44.487 39.1125 42.0412 37.4416C39.4702 35.6859 32.9964 33.898 32.9319 33.8778C32.8431 33.8536 32.7825 33.7729 32.7825 33.6841V30.5804L25.0818 31.5571L24.8477 33.0746C24.8356 33.1553 24.775 33.2199 24.6984 33.2401C24.662 33.2482 20.848 34.2007 20.2184 34.3904C20.069 34.4348 19.7502 34.4993 19.2618 34.5922C17.6353 34.911 14.2531 35.577 12.3723 36.6142C10.5642 37.6152 9.88611 38.6322 9.23227 39.617C9.0224 39.9359 8.82059 40.2386 8.5865 40.5373C7.74701 41.6028 5.87429 45.0213 5.47472 45.7518L11.9404 51.5395L13.5993 49.7596C13.6517 49.6991 13.7365 49.6789 13.8132 49.7071C13.8899 49.7354 13.9423 49.804 13.9464 49.8807C13.9585 50.026 15.0361 64.5557 14.9715 68.62C14.911 72.4421 13.9544 80.4658 13.8293 81.4869L13.8414 81.495Z" fill="#0E1418"/>
<path d="M13.1957 43.1364C13.0907 43.1364 13.0019 43.0557 12.9939 42.9507L12.8526 41.2031C12.8445 41.0901 12.9253 40.9932 13.0383 40.9852C13.1472 40.9771 13.2481 41.0578 13.2562 41.1708L13.3975 42.9184C13.4055 43.0314 13.3248 43.1283 13.2118 43.1364C13.2078 43.1364 13.1997 43.1364 13.1957 43.1364Z" fill="#0E1418"/>
<path d="M13.7566 50.1108C13.6517 50.1108 13.5629 50.0301 13.5548 49.9251L13.0906 44.2061C13.0826 44.093 13.1633 43.9962 13.2763 43.9881C13.3853 43.98 13.4862 44.0608 13.4942 44.1738L13.9584 49.8928C13.9665 50.0058 13.8857 50.1027 13.7727 50.1108C13.7687 50.1108 13.7606 50.1108 13.7566 50.1108Z" fill="#0E1418"/>
<path d="M12.7961 47.9272C12.7073 47.9272 12.6225 47.8667 12.5983 47.7739L11.2503 42.3898C11.222 42.2808 11.2906 42.1718 11.3956 42.1436C11.5005 42.1153 11.6135 42.1839 11.6418 42.2889L12.9898 47.673C13.0181 47.7819 12.9495 47.8909 12.8445 47.9192C12.8284 47.9192 12.8122 47.9232 12.7961 47.9232V47.9272Z" fill="#0E1418"/>
<path d="M26.5228 56.3424C26.4461 56.3424 26.3734 56.3021 26.3411 56.2294C24.0204 51.3821 21.2961 45.0496 21.2679 44.9891C21.2235 44.8882 21.2679 44.7671 21.3728 44.7227C21.4737 44.6783 21.5948 44.7227 21.6392 44.8276C21.6674 44.8922 24.3917 51.2126 26.7084 56.0559C26.7569 56.1568 26.7125 56.2779 26.6116 56.3263C26.5833 56.3384 26.5551 56.3465 26.5228 56.3465V56.3424Z" fill="#0E1418"/>
<path d="M32.4597 61.125C32.3991 61.125 32.3386 61.0968 32.2982 61.0443C28.5568 55.9549 24.9083 49.7515 24.8679 49.6909C24.8114 49.5941 24.8437 49.473 24.9405 49.4165C25.0334 49.36 25.1585 49.3923 25.215 49.4891C25.2513 49.5497 28.8918 55.7369 32.6211 60.8102C32.6857 60.899 32.6695 61.0281 32.5767 61.0927C32.5404 61.121 32.5 61.1331 32.4556 61.1331L32.4597 61.125Z" fill="#0E1418"/>
<path d="M36.9113 46.0223C36.8911 46.0223 36.8669 46.0223 36.8467 46.0102C36.7418 45.9739 36.6853 45.8609 36.7176 45.756C37.1171 44.5613 38.4894 43.1003 38.5499 43.0397C38.6266 42.959 38.7558 42.955 38.8365 43.0316C38.9172 43.1083 38.9212 43.2375 38.8446 43.3182C38.8324 43.3343 37.4723 44.7752 37.105 45.8851C37.0768 45.9699 36.996 46.0223 36.9153 46.0223H36.9113Z" fill="#0E1418"/>
<path d="M37.2221 43.8467C37.1898 43.8467 37.1535 43.8386 37.1252 43.8225C37.0283 43.77 36.992 43.6449 37.0485 43.548C37.4481 42.8256 38.5984 41.8287 38.6468 41.7843C38.7315 41.7116 38.8567 41.7197 38.9333 41.8045C39.006 41.8892 38.9979 42.0143 38.9132 42.091C38.9011 42.0991 37.771 43.0839 37.4037 43.7458C37.3674 43.8104 37.2988 43.8507 37.2261 43.8507L37.2221 43.8467Z" fill="#0E1418"/>
<path d="M44.0835 61.1896L40.7498 61.3188L40.2372 59.9707C39.7246 58.6227 37.864 50.7363 37.864 50.7363C41.9687 47.5317 45.367 50.3529 45.367 50.3529L45.3912 50.3892C45.2903 51.7211 45.1813 53.0207 45.0441 54.07C44.7253 56.5724 44.0835 61.1856 44.0835 61.1856V61.1896Z" fill="#E3E3E3"/>
<path d="M40.7498 61.5206C40.665 61.5206 40.5923 61.4681 40.5601 61.3914L40.0475 60.0434C39.5349 58.6994 37.7429 51.1076 37.6662 50.7847C37.6501 50.708 37.6743 50.6273 37.7389 50.5789C41.9202 47.3097 45.4558 50.1672 45.4921 50.1995C45.5082 50.2116 45.5203 50.2237 45.5284 50.2398L45.5526 50.2762C45.5809 50.3125 45.593 50.3609 45.589 50.4053C45.4679 52.0157 45.3589 53.1861 45.2419 54.0983C44.923 56.5724 44.2853 61.1694 44.2813 61.2178C44.2692 61.3147 44.1885 61.3874 44.0876 61.3914L40.7538 61.5206H40.7457H40.7498ZM38.09 50.821C38.3322 51.8421 39.9587 58.6751 40.4228 59.9021L40.8829 61.1129L43.9019 60.9959C44.0189 60.1443 44.5557 56.2495 44.8383 54.0499C44.9513 53.1619 45.0602 52.0238 45.1773 50.4699C44.7252 50.1228 41.7305 48.0563 38.086 50.821H38.09Z" fill="#0E1418"/>
<path d="M24.6582 33.0465L24.9165 31.3796L32.9966 30.3545V33.6883C32.9966 33.6883 33.6666 33.8739 34.6635 34.1807C34.1348 35.8596 31.9917 41.9742 28.5086 42.8581C25.1506 43.7097 22.7693 36.5942 21.9863 33.7246C23.2456 33.4017 24.6622 33.0506 24.6622 33.0506L24.6582 33.0465Z" fill="#E3E3E3"/>
<path d="M27.9475 43.1285C24.6097 43.1285 22.4101 36.0533 21.7885 33.777C21.7724 33.7245 21.7804 33.668 21.8087 33.6236C21.8369 33.5752 21.8813 33.5429 21.9338 33.5308C22.963 33.2685 24.1011 32.9819 24.4805 32.8891L24.7146 31.3554C24.7267 31.2666 24.7994 31.198 24.8882 31.1859L32.9683 30.1607C33.0248 30.1526 33.0854 30.1728 33.1257 30.2091C33.1701 30.2455 33.1943 30.302 33.1943 30.3625V33.5429C33.4446 33.6156 34.0015 33.773 34.72 33.9949C34.7724 34.0111 34.8128 34.0474 34.837 34.0958C34.8612 34.1443 34.8653 34.2008 34.8491 34.2492C34.272 36.0896 32.1086 42.1558 28.5529 43.0599C28.3471 43.1123 28.1453 43.1366 27.9475 43.1366V43.1285ZM22.2325 33.8658C22.8015 35.8838 25.1747 43.4917 28.456 42.6603C31.697 41.837 33.7634 36.2995 34.4052 34.3138C33.5293 34.0474 32.9441 33.886 32.9401 33.8819C32.8513 33.8577 32.7907 33.777 32.7907 33.6882V30.5845L25.09 31.5612L24.8559 33.0788C24.8438 33.1595 24.7832 33.2241 24.7066 33.2442C24.7066 33.2442 23.4352 33.5631 22.2325 33.8698V33.8658Z" fill="#0E1418"/>
<path d="M36.9921 12.8945C36.9921 12.8945 39.0142 14.7552 38.5702 16.3332C38.1263 17.9113 36.8307 22.9685 36.8307 22.9685C36.8307 22.9685 34.9701 29.5634 34.4414 30.4957C33.9167 31.428 30.2318 33.1272 29.1784 33.1272C28.125 33.1272 25.4975 32.4411 25.0495 31.9527C24.6055 31.4684 23.875 29.2808 23.5521 28.3929C23.2293 27.501 24.5652 19.893 24.6863 18.5571C24.8074 17.2212 24.8881 13.2941 25.4975 12.7291C26.107 12.164 28.7344 10.3397 31.8502 11.0703C34.3687 11.6595 36.3827 11.9622 36.9881 12.8905L36.9921 12.8945Z" fill="#E3E3E3"/>
<path d="M29.1825 33.3289C28.1452 33.3289 25.4169 32.6468 24.9043 32.0898C24.529 31.6782 24.0204 30.3019 23.5321 28.9296L23.3666 28.4614C23.1406 27.8359 23.5845 24.716 24.1415 21.0069C24.311 19.8929 24.4523 18.9283 24.4886 18.5409C24.5128 18.2584 24.537 17.8628 24.5653 17.4067C24.7065 15.0416 24.864 13.0478 25.3604 12.5837C26.1313 11.8653 28.8072 10.154 31.8988 10.8764C32.2903 10.9693 32.6737 11.054 33.0369 11.1347C35.0913 11.5908 36.5806 11.9258 37.1456 12.7613C37.3636 12.9671 39.2201 14.7753 38.7641 16.3856C38.3241 17.9435 37.0366 22.9684 37.0245 23.0168C36.9478 23.2913 35.1478 29.6521 34.6191 30.5925C34.0298 31.6297 30.2319 33.3249 29.1825 33.3249V33.3289ZM30.3731 11.1025C28.0928 11.1025 26.2443 12.3133 25.6389 12.8783C25.2191 13.2698 25.0577 15.974 24.9689 17.431C24.9406 17.8911 24.9164 18.2947 24.8922 18.5772C24.8559 18.9768 24.7187 19.897 24.5411 21.0674C24.1657 23.5657 23.5361 27.7471 23.746 28.3242C23.7944 28.4574 23.8509 28.6148 23.9155 28.7964C24.2424 29.7207 24.8518 31.436 25.203 31.8194C25.5743 32.223 28.1009 32.9293 29.1825 32.9293C30.2642 32.9293 33.7917 31.2423 34.2679 30.4028C34.7765 29.5027 36.6169 22.9845 36.6371 22.92C36.6492 22.8756 37.9367 17.8467 38.3766 16.2847C38.7842 14.8439 36.8752 13.064 36.855 13.0478C36.8429 13.0357 36.8308 13.0236 36.8227 13.0115C36.3545 12.2971 34.8531 11.9581 32.9481 11.5343C32.5809 11.4536 32.2015 11.3688 31.8059 11.276C31.3135 11.163 30.8332 11.1105 30.3731 11.1105V11.1025Z" fill="#0E1418"/>
<path d="M24.2666 21.5315C24.4724 20.1633 24.65 19.009 24.6904 18.561C24.8115 17.2251 24.8922 13.298 25.5016 12.733C26.1111 12.1679 28.7385 10.3436 31.8544 11.0742C34.3728 11.6634 36.3868 11.9661 36.9922 12.8944C36.9922 12.8944 39.0143 14.755 38.5703 16.3331C38.1264 17.9112 36.8308 22.9684 36.8308 22.9684C36.8308 22.9684 36.7985 23.0773 36.746 23.2711L36.6693 23.2912C36.6693 23.2912 36.2657 23.4123 36.2657 23.0087C36.2657 22.6051 36.629 21.471 36.5079 21.2692C36.3868 21.0674 35.9429 21.1077 36.0236 20.2965C36.1043 19.4853 36.7097 18.2745 36.5886 17.7457C36.4675 17.221 34.3648 16.0466 33.8764 16.2887C33.3921 16.5309 31.366 17.0152 30.7606 16.7327C30.1552 16.4502 28.5367 15.2757 27.7658 14.9528C26.995 14.6299 25.8245 15.2757 25.6631 15.8044C25.5016 16.3291 25.5016 17.665 25.1384 18.6781C24.7751 19.6911 24.3271 21.6324 24.3271 21.6324C24.3271 21.6324 24.3029 21.5921 24.2666 21.5275V21.5315Z" fill="#0E1418"/>
<path d="M36.5443 23.5133C36.4515 23.5133 36.3425 23.4931 36.2457 23.4245C36.1609 23.3639 36.064 23.2428 36.064 23.0128C36.064 22.8231 36.1286 22.5164 36.1972 22.1975C36.2578 21.9231 36.3546 21.467 36.3264 21.362C36.3264 21.362 36.2779 21.3298 36.2416 21.3096C36.056 21.1925 35.7492 20.9907 35.8219 20.2844C35.8582 19.9091 35.9995 19.4651 36.1326 19.0373C36.286 18.5489 36.4475 18.0404 36.391 17.7982C36.3506 17.6287 35.7694 17.1363 34.9461 16.7489C34.3043 16.4462 34.0218 16.4502 33.9693 16.4784C33.489 16.7206 31.3863 17.2574 30.6759 16.9264C30.3934 16.7973 29.9212 16.4906 29.4167 16.1677C28.7992 15.7721 28.1009 15.3241 27.6893 15.1506C27.3946 15.0255 26.9708 15.0699 26.5551 15.2636C26.204 15.4291 25.9174 15.6793 25.8569 15.8771C25.8004 16.0627 25.76 16.3856 25.7197 16.7569C25.647 17.3623 25.5582 18.1211 25.3282 18.7588C24.973 19.7476 24.529 21.6688 24.525 21.689C24.5048 21.7697 24.4403 21.8302 24.3595 21.8423C24.2788 21.8544 24.1981 21.8141 24.1537 21.7414L24.0932 21.6365C24.073 21.5961 24.0609 21.5517 24.0689 21.5073L24.1416 21.0149C24.3111 19.901 24.4524 18.9364 24.4887 18.5489C24.5129 18.2664 24.5371 17.8709 24.5654 17.4148C24.7066 15.0497 24.864 13.0559 25.3605 12.5917C26.1313 11.8733 28.8072 10.162 31.8988 10.8845C32.2903 10.9773 32.6738 11.0621 33.037 11.1428C35.0914 11.5989 36.5806 11.9339 37.1457 12.7693C37.3636 12.9752 39.2202 14.7833 38.7641 16.3937C38.3242 17.9516 37.0367 22.9765 37.0246 23.0249L36.9358 23.3316C36.9156 23.4002 36.8632 23.4527 36.7946 23.4729L36.7179 23.4931C36.7179 23.4931 36.6331 23.5173 36.5363 23.5173L36.5443 23.5133ZM34.0541 16.0587C34.3124 16.0587 34.6676 16.1677 35.1196 16.3775C35.7331 16.6681 36.6856 17.2574 36.7865 17.7014C36.8672 18.0525 36.7058 18.561 36.5201 19.1543C36.391 19.562 36.2578 19.9858 36.2255 20.3167C36.1811 20.7809 36.3183 20.8697 36.4636 20.9625C36.5403 21.0109 36.625 21.0674 36.6816 21.1643C36.7825 21.3338 36.734 21.6163 36.5928 22.2782C36.5322 22.5648 36.4676 22.8594 36.4676 23.0088C36.4676 23.0693 36.4797 23.0935 36.4878 23.0975C36.504 23.1096 36.5484 23.1097 36.5847 23.1056L36.6372 22.9159C36.6493 22.8715 37.9368 17.8426 38.3767 16.2807C38.7843 14.8398 36.8753 13.0599 36.8551 13.0438C36.843 13.0317 36.8309 13.0196 36.8228 13.0075C36.3546 12.289 34.8532 11.954 32.9482 11.5303C32.5809 11.4495 32.2015 11.3648 31.806 11.272C28.892 10.5899 26.3654 12.2043 25.6349 12.8823C25.2152 13.2738 25.0537 15.978 24.9649 17.435C24.9367 17.8951 24.9125 18.2987 24.8883 18.5812C24.8802 18.6579 24.8721 18.7548 24.856 18.8678C24.8842 18.779 24.9125 18.6942 24.9407 18.6175C25.1546 18.0202 25.2394 17.2897 25.308 16.7045C25.3524 16.313 25.3928 15.9739 25.4614 15.752C25.5582 15.4412 25.9094 15.1102 26.3735 14.8923C26.8982 14.6461 27.431 14.6057 27.8346 14.7752C28.2785 14.9609 28.9646 15.4008 29.6225 15.8246C30.1149 16.1394 30.5791 16.4381 30.8333 16.5592C31.3419 16.7973 33.3034 16.3493 33.7756 16.1152C33.8483 16.0789 33.937 16.0627 34.042 16.0627L34.0541 16.0587Z" fill="#0E1418"/>
<path d="M34.9298 22.1208C34.8934 22.1208 34.8571 22.1127 34.8248 22.0925C34.8087 22.0845 33.2629 21.1723 32.2337 21.4669C32.1247 21.4992 32.0157 21.4347 31.9835 21.3297C31.9512 21.2208 32.0157 21.1118 32.1207 21.0795C33.3234 20.7364 34.962 21.7051 35.0307 21.7495C35.1275 21.806 35.1558 21.9311 35.0993 22.028C35.0629 22.0925 34.9943 22.1248 34.9257 22.1248L34.9298 22.1208Z" fill="#0E1418"/>
<path d="M28.5407 20.3006C28.5004 20.3006 28.456 20.2885 28.4237 20.2643C28.3752 20.232 28.347 20.1835 28.3349 20.1311C28.1775 19.8929 27.3339 18.9283 26.216 19.0817C26.111 19.0978 26.002 19.0212 25.9899 18.9082C25.9738 18.7992 26.0505 18.6942 26.1635 18.6821C27.6286 18.4763 28.6457 19.8122 28.7264 19.9979C28.7627 20.0786 28.7425 20.1956 28.6779 20.2522C28.6416 20.2844 28.5932 20.2965 28.5447 20.2965L28.5407 20.3006Z" fill="#0E1418"/>
<path d="M29.0817 27.4727C28.9607 27.4727 28.8396 27.4525 28.7104 27.4081C27.8225 27.0973 27.4431 26.1448 27.4431 25.8825C27.4431 25.7695 27.5319 25.6807 27.6449 25.6807C27.7579 25.6807 27.8467 25.7695 27.8467 25.8825C27.8508 25.9632 28.1091 26.7704 28.8436 27.0287C29.4975 27.2588 30.1029 26.4233 30.1109 26.4152C30.1755 26.3264 30.3006 26.3022 30.3935 26.3668C30.4863 26.4314 30.5065 26.5565 30.4419 26.6493C30.4136 26.6897 29.8486 27.4767 29.0858 27.4767L29.0817 27.4727Z" fill="#0E1418"/>
<path d="M36.8309 22.9685C36.8309 22.9685 38.0054 22.4841 38.2072 23.695C38.409 24.9098 35.5757 27.1337 35.5757 27.1337L36.8309 22.9644V22.9685Z" fill="#E3E3E3"/>
<path d="M35.5757 27.3395C35.5353 27.3395 35.495 27.3274 35.4627 27.3032C35.39 27.2547 35.3578 27.1619 35.382 27.0771L36.6372 22.9079C36.6533 22.8514 36.6977 22.803 36.7542 22.7788C36.7784 22.7667 37.3838 22.5245 37.8722 22.7949C38.1588 22.9523 38.3364 23.2429 38.409 23.6586C38.6229 24.9542 36.0035 27.057 35.7049 27.291C35.6685 27.3193 35.6241 27.3354 35.5797 27.3354L35.5757 27.3395ZM36.9924 23.1259L35.9632 26.5484C36.8511 25.7695 38.1305 24.4618 38.0094 23.7272C37.961 23.4407 37.848 23.2469 37.6785 23.1501C37.4444 23.0209 37.1417 23.0815 36.9964 23.1259H36.9924Z" fill="#0E1418"/>
<path d="M24.4886 20.583C24.4886 20.583 23.2738 19.3682 22.9509 21.0674C22.628 22.7665 23.7622 24.8734 23.7622 24.8734L24.4886 20.583Z" fill="#E3E3E3"/>
<path d="M23.7581 25.0752C23.6854 25.0752 23.6168 25.0348 23.5805 24.9702C23.5321 24.8814 22.4181 22.7827 22.7491 21.0311C22.8581 20.4499 23.0921 20.0987 23.4352 19.9938C23.9881 19.8203 24.5653 20.3772 24.6299 20.4418C24.6743 20.4862 24.6985 20.5548 24.6864 20.6194L23.9559 24.9097C23.9397 24.9945 23.8751 25.0631 23.7904 25.0752C23.7783 25.0752 23.7702 25.0752 23.7581 25.0752ZM23.6532 20.3651C23.6168 20.3651 23.5845 20.3692 23.5522 20.3813C23.3182 20.4539 23.2011 20.8172 23.1446 21.1078C22.9388 22.1894 23.3626 23.4729 23.6653 24.1994L24.2666 20.6598C24.1254 20.5387 23.8671 20.3651 23.6532 20.3651Z" fill="#0E1418"/>
<path d="M32.0038 22.9522C31.8383 23.38 31.8908 23.7998 32.1168 23.8885C32.3469 23.9773 32.6657 23.7029 32.8312 23.2751C32.9967 22.8472 32.9442 22.4315 32.7182 22.3387C32.4881 22.2499 32.1693 22.5244 32.0038 22.9522Z" fill="#0E1418"/>
<path d="M26.6762 21.7939C26.6116 22.2459 26.761 22.6415 27.0031 22.6778C27.2453 22.7101 27.4955 22.371 27.5601 21.919C27.6247 21.467 27.4753 21.0714 27.2332 21.0351C26.991 20.9988 26.7408 21.3418 26.6762 21.7939Z" fill="#0E1418"/>
<path d="M28.0081 28.3525C27.9718 28.3525 27.9314 28.3404 27.8991 28.3203L26.2 27.2265C26.1071 27.1659 26.0789 27.0408 26.1394 26.948C26.2 26.8552 26.3251 26.8269 26.4179 26.8875L28.1171 27.9812C28.2099 28.0418 28.2382 28.1669 28.1776 28.2597C28.1373 28.3203 28.0727 28.3525 28.0081 28.3525Z" fill="#0E1418"/>
<path d="M34.1187 31.0648C34.1187 31.0648 33.9572 32.0779 34.0379 32.9658C34.1187 33.8578 33.7554 34.7457 33.7554 35.5166C33.7554 36.2875 33.7151 41.4657 33.7958 41.8289C33.8765 42.1922 39.3009 50.8132 39.9467 51.7051C40.5925 52.5971 43.9141 56.4798 44.237 58.2597C44.5599 60.0395 43.3854 63.0343 43.1432 64.007C42.9011 64.9796 41.9284 65.2218 41.4441 65.1007C40.9597 64.9796 38.0457 62.8325 36.6291 61.1333C35.2124 59.4341 34.7685 58.3404 34.2397 55.5474C33.7151 52.7545 30.1109 42.7572 30.1109 42.7572C30.1109 42.7572 27.2776 40.3275 26.874 39.8432C26.4704 39.3589 24.9327 36.8485 24.9327 36.8485C24.9327 36.8485 22.5433 35.9969 22.4626 35.8354C22.3819 35.674 22.0186 35.1897 22.1397 35.1089C22.2608 35.0282 22.8662 34.9879 22.8662 34.9879C22.8662 34.9879 22.055 34.5035 22.1397 34.217C22.2204 33.9345 23.1528 33.8941 23.7178 33.8941C24.2828 33.8941 25.0537 33.8537 25.2555 33.8941C25.4573 33.9345 26.3897 34.0555 26.3897 34.0555L24.7712 32.5582C24.7712 32.5582 23.516 32.1546 23.5564 31.9124C23.5967 31.6702 24.081 31.5492 24.4483 31.6299C24.8116 31.7106 27.0395 32.4008 27.1605 32.4815C27.2816 32.5622 29.4288 33.9789 29.4288 33.9789L27.5682 31.5088C27.5682 31.5088 26.1112 30.4958 25.8287 30.1729C25.5461 29.85 25.6268 29.4867 25.7883 29.402C25.9497 29.3213 28.7023 30.859 28.9445 31.0608C29.1866 31.2626 32.0199 33.6923 32.0199 33.6923C32.0199 33.6923 32.4639 33.3694 32.5446 32.8407C32.6253 32.316 32.7868 31.8277 32.8675 31.6662C32.9482 31.5048 34.1227 31.0608 34.1227 31.0608L34.1187 31.0648Z" fill="#E3E3E3"/>
<path d="M41.6983 65.3308C41.5894 65.3308 41.4885 65.3187 41.3956 65.2944C40.8225 65.1532 37.8479 62.9132 36.4717 61.2624C35.059 59.5673 34.5788 58.4534 34.042 55.5878C33.5455 52.9442 30.2158 43.6492 29.9414 42.8783C29.5781 42.5675 27.1081 40.4405 26.7206 39.9764C26.3412 39.5203 25.0416 37.4135 24.7994 37.018C22.402 36.1623 22.3254 36.013 22.285 35.9282C22.2648 35.8919 22.2325 35.8354 22.1881 35.7708C21.9863 35.4479 21.7724 35.113 22.0267 34.9434C22.0872 34.9031 22.1922 34.8748 22.3173 34.8506C22.0751 34.6448 21.8774 34.3986 21.946 34.1645C22.0146 33.9304 22.2769 33.6923 23.7178 33.6923C23.9115 33.6923 24.1295 33.6882 24.3393 33.6842C24.8358 33.6721 25.1465 33.6681 25.2959 33.6963C25.3726 33.7125 25.5663 33.7407 25.7842 33.769L24.6663 32.7357C23.29 32.2877 23.3384 32.0012 23.3586 31.8761C23.3747 31.7913 23.4232 31.6702 23.5765 31.5653C23.7985 31.4159 24.1779 31.3594 24.4927 31.4281C24.7793 31.4926 27.104 32.1949 27.2735 32.3079C27.3381 32.3523 27.9798 32.7721 28.561 33.1595L27.4229 31.6541C27.1847 31.4886 25.9497 30.6208 25.6712 30.302C25.4815 30.0841 25.4008 29.8217 25.4452 29.5755C25.4775 29.41 25.5663 29.2809 25.6914 29.2203C26.0547 29.0387 29.0413 30.8832 29.0696 30.9034C29.2794 31.081 31.4468 32.9375 32.0118 33.4219C32.1289 33.3008 32.2984 33.0869 32.3428 32.8084C32.4276 32.2635 32.593 31.759 32.6859 31.5734C32.7181 31.5088 32.8029 31.3393 34.05 30.867C34.1187 30.8428 34.1913 30.8549 34.2478 30.8993C34.3043 30.9437 34.3326 31.0164 34.3205 31.089C34.3205 31.0971 34.163 32.0859 34.2397 32.9416C34.2882 33.4743 34.1873 33.9909 34.0944 34.4874C34.0258 34.8506 33.9572 35.1937 33.9572 35.5085V36.243C33.9491 37.6758 33.929 41.4859 33.9935 41.7805C34.163 42.2567 39.5148 50.7647 40.1122 51.58C40.2332 51.7455 40.4431 52.0118 40.7095 52.3468C41.9163 53.8765 44.1643 56.7179 44.4388 58.2193C44.7052 59.6763 44.0069 61.8921 43.5912 63.2159C43.4823 63.563 43.3935 63.8495 43.341 64.0513C43.1876 64.6688 42.784 64.9837 42.4773 65.1411C42.2351 65.2621 41.9566 65.3267 41.7024 65.3267L41.6983 65.3308ZM22.624 35.7184C22.8137 35.8475 23.964 36.2955 24.9972 36.6628C25.0416 36.6789 25.0779 36.7072 25.1022 36.7476C25.1183 36.7718 26.6358 39.2499 27.0273 39.7181C27.3381 40.0934 29.2673 41.7724 30.24 42.6079C30.2683 42.6321 30.2885 42.6603 30.3006 42.6926C30.4459 43.1003 33.9128 52.7343 34.4375 55.5111C34.9662 58.3282 35.4061 59.3534 36.7824 61.0041C38.2273 62.7356 41.0929 64.802 41.4925 64.9029C41.666 64.9473 41.9768 64.9393 42.2957 64.7819C42.5297 64.6648 42.8325 64.4267 42.9495 63.9585C43.002 63.7527 43.0948 63.454 43.2038 63.0988C43.6074 61.8113 44.2854 59.6561 44.0392 58.296C43.785 56.8954 41.4925 53.9935 40.3906 52.6011C40.1202 52.258 39.9063 51.9876 39.7852 51.8221C39.2081 51.0311 33.6949 42.3052 33.598 41.8733C33.5334 41.5868 33.5375 38.9997 33.5496 36.2471V35.5166C33.5496 35.1654 33.6222 34.8022 33.6949 34.4188C33.7837 33.9465 33.8805 33.4582 33.8361 32.986C33.7837 32.3927 33.8321 31.759 33.8725 31.3796C33.4729 31.5411 33.0935 31.7187 33.0249 31.7873C32.9724 31.8962 32.815 32.3644 32.7383 32.877C32.6455 33.4784 32.1531 33.8456 32.1329 33.8577C32.0562 33.9143 31.9553 33.9102 31.8827 33.8497C31.8827 33.8497 29.0534 31.424 28.8072 31.2222C28.5933 31.0446 26.3452 29.7935 25.8488 29.6239C25.8448 29.6401 25.8367 29.6603 25.8327 29.6885C25.8286 29.741 25.8327 29.8863 25.9699 30.0437C26.1878 30.2939 27.2735 31.0688 27.6731 31.3473C27.6892 31.3594 27.7054 31.3756 27.7175 31.3917L29.5781 33.8618C29.6387 33.9385 29.6306 34.0515 29.562 34.1201C29.4934 34.1887 29.3844 34.2048 29.3037 34.1483C29.3037 34.1483 27.1605 32.7317 27.0354 32.651C26.874 32.5703 24.7672 31.9124 24.3918 31.8317C24.1254 31.7711 23.8631 31.8478 23.7743 31.9164C23.9196 32.0294 24.3716 32.2272 24.8237 32.3725C24.8519 32.3806 24.8761 32.3967 24.9003 32.4169L26.5188 33.9143C26.5834 33.9748 26.6036 34.0676 26.5632 34.1483C26.5269 34.2291 26.4421 34.2735 26.3533 34.2614C26.317 34.2573 25.4129 34.1403 25.2071 34.0959C25.0941 34.0717 24.6945 34.0838 24.3393 34.0918C24.1254 34.0959 23.9034 34.0999 23.7097 34.0999C22.4787 34.0999 22.3213 34.2856 22.3213 34.2896C22.3415 34.3582 22.6523 34.6286 22.9671 34.8183C23.0438 34.8627 23.0801 34.9515 23.0599 35.0403C23.0397 35.1251 22.9631 35.1896 22.8783 35.1937C22.6805 35.2058 22.4747 35.234 22.3496 35.2583C22.398 35.3551 22.4787 35.4883 22.5272 35.561C22.5675 35.6215 22.5998 35.678 22.624 35.7224V35.7184Z" fill="#0E1418"/>
<path d="M28.9808 35.7183C28.9485 35.7183 28.9122 35.7102 28.8799 35.6941L26.2888 34.2371C26.1919 34.1846 26.1556 34.0595 26.2121 33.9626C26.2646 33.8657 26.3897 33.8294 26.4865 33.8859L29.0777 35.3429C29.1745 35.3954 29.2109 35.5205 29.1544 35.6174C29.118 35.682 29.0494 35.7183 28.9768 35.7183H28.9808Z" fill="#0E1418"/>
<path d="M27.6853 36.9333C27.653 36.9333 27.6167 36.9252 27.5844 36.905C27.5642 36.8929 25.6027 35.7709 25.2879 35.6135C25.0901 35.5126 23.9358 35.3996 23.1811 35.3512C23.068 35.3431 22.9873 35.2462 22.9914 35.1372C22.9994 35.0242 23.1084 34.9395 23.2053 34.9476C23.5241 34.9677 25.1264 35.0807 25.4695 35.2503C25.7924 35.4117 27.7054 36.5055 27.7862 36.5499C27.883 36.6064 27.9153 36.7274 27.8629 36.8243C27.8265 36.8889 27.7579 36.9252 27.6893 36.9252L27.6853 36.9333Z" fill="#0E1418"/>
<path d="M33.0249 35.1089C32.9684 35.1089 32.9079 35.0847 32.8715 35.0363L31.8585 33.8214C31.7858 33.7367 31.798 33.6075 31.8827 33.5389C31.9675 33.4663 32.0966 33.4784 32.1652 33.5631L33.1783 34.778C33.2509 34.8627 33.2388 34.9919 33.1541 35.0605C33.1177 35.0928 33.0693 35.1089 33.0249 35.1089Z" fill="#0E1418"/>
<path d="M11.4483 51.382C11.4483 51.382 6.01575 58.663 5.2489 59.0505C4.47802 59.4339 1.53172 57.1899 1.07968 56.1001C0.63168 55.0104 1.39853 52.8955 1.39853 52.8955L5.22872 45.8042L11.4483 51.382Z" fill="#E3E3E3"/>
<path d="M5.03496 59.2927C4.86949 59.2927 4.67576 59.2483 4.44974 59.1636C3.19453 58.6913 1.26934 57.0729 0.898027 56.1729C0.425811 55.0226 1.18459 52.9117 1.21687 52.823L5.05514 45.7074C5.0834 45.6549 5.13587 45.6146 5.19641 45.6065C5.25695 45.5944 5.32152 45.6146 5.36592 45.6549L11.5855 51.2328C11.6621 51.3014 11.6742 51.4184 11.6137 51.5032C11.0567 52.2539 6.13277 58.8366 5.3417 59.2281C5.25291 59.2725 5.15201 59.2927 5.03496 59.2927ZM1.58012 52.9884C1.58012 52.9884 0.853631 55.0186 1.26934 56.0195C1.59626 56.8106 3.45687 58.3604 4.591 58.7842C4.96635 58.9254 5.11568 58.8851 5.16008 58.8649C5.68073 58.6066 9.07907 54.2154 11.1778 51.4063L5.2852 46.1231L1.58012 52.9884Z" fill="#0E1418"/>
<path d="M6.87534 55.745C7.63411 61.4318 8.8651 66.8845 10.9356 72.7327C10.9356 72.7327 16.6425 72.4744 16.8322 72.539C17.026 72.6035 20.2952 74.2704 20.4849 74.6539C20.6786 75.0373 21.51 76.3207 21.2557 76.5145C20.9974 76.7082 19.5243 75.4893 19.5243 75.4893C19.5243 75.4893 17.7282 74.3996 17.5385 74.3996C17.3489 74.3996 19.27 76.1956 19.27 76.1956L20.7432 78.1813C20.7432 78.1813 20.1014 78.9522 19.5243 78.1168C18.9471 77.2813 17.1511 76.0665 17.1511 76.0665C17.1511 76.0665 19.9077 78.7585 19.6534 79.0168C19.3992 79.2751 19.4597 79.594 18.7574 79.0814C18.0511 78.5688 16.5134 77.2208 16.5134 77.2208L15.0402 76.8373C15.0402 76.8373 16.4488 78.3105 16.8363 78.7625C17.2197 79.2105 17.6717 79.9814 17.3489 80.046C17.03 80.1106 16.3883 79.7271 16.1945 79.4688C16.0008 79.2105 14.7214 78.0603 14.7214 78.0603L13.1191 77.0997C13.1191 77.0997 11.1334 77.0351 10.6813 76.8414C10.2333 76.6477 9.20817 75.5579 9.07901 75.3037C7.41617 71.9739 5.269 68.7895 3.35592 65.5526C1.92716 63.135 -1.68509 58.1666 -0.0182108 55.2486C0.494366 54.3526 2.56082 50.813 2.56082 50.813" fill="#E3E3E3"/>
<path d="M17.2722 80.2478C16.8363 80.2478 16.2228 79.8361 16.0331 79.5818C15.8999 79.4042 15.0927 78.6576 14.5842 78.2015L13.0585 77.2894C12.6953 77.2773 11.0446 77.2086 10.6006 77.0189C10.1122 76.8091 9.05075 75.6911 8.89738 75.3843C7.76325 73.1161 6.38293 70.8761 5.047 68.7128C4.42949 67.7078 3.78776 66.6705 3.18235 65.6454C2.9967 65.3346 2.77875 64.9794 2.53659 64.592C0.845489 61.8798 -1.70529 57.7832 -0.191772 55.1356C0.320804 54.2396 2.39129 50.7 2.39129 50.7L2.73839 50.9018C2.73839 50.9018 0.671939 54.4373 0.159363 55.3333C-1.23307 57.7711 1.24102 61.7466 2.87965 64.374C3.12181 64.7615 3.3438 65.1207 3.52945 65.4355C4.13486 66.4607 4.77255 67.4939 5.39007 68.4989C6.73003 70.6703 8.11439 72.9183 9.25659 75.2027C9.36152 75.4086 10.3463 76.47 10.758 76.6476C11.0607 76.7768 12.3684 76.8656 13.1191 76.8858C13.1554 76.8858 13.1877 76.8979 13.2159 76.914L14.8182 77.8746C14.9837 78.0158 16.1542 79.0733 16.3519 79.3356C16.5053 79.5415 17.0058 79.8321 17.2479 79.8401C17.2197 79.6747 16.9977 79.2589 16.6748 78.8836C16.2995 78.4437 14.903 76.9826 14.8869 76.9665C14.8263 76.9019 14.8142 76.801 14.8586 76.7243C14.903 76.6476 14.9958 76.6073 15.0846 76.6315L16.5578 77.0149C16.5901 77.023 16.6143 77.0391 16.6385 77.0593C16.6546 77.0714 18.1803 78.4033 18.8664 78.9078C19.1852 79.1419 19.266 79.15 19.2861 79.1419C19.2902 79.1338 19.3225 79.0894 19.3467 79.0571C19.3749 79.0168 19.4072 78.9724 19.4435 78.928C19.2942 78.5769 18.0915 77.2732 17.0017 76.2037C16.9291 76.131 16.921 76.014 16.9856 75.9333C17.0542 75.8525 17.1713 75.8364 17.256 75.8929C17.3327 75.9454 19.0884 77.14 19.6817 77.9957C19.8149 78.1894 19.9561 78.2903 20.1014 78.2943C20.2265 78.3024 20.3718 78.2257 20.4687 78.149L19.1005 76.3046C17.2358 74.5691 17.2762 74.4641 17.3327 74.3229C17.365 74.2462 17.4497 74.1897 17.5345 74.1897C17.595 74.1897 17.7847 74.1897 19.6252 75.3077C20.17 75.7557 20.8239 76.2117 21.0902 76.3046C21.0337 76.0301 20.6544 75.3682 20.501 75.0978C20.4162 74.9485 20.3436 74.8193 20.2992 74.7345C20.0893 74.4117 17.0381 72.8215 16.7596 72.7206C16.5295 72.6923 13.1433 72.8255 10.9356 72.9224C10.8468 72.9345 10.7661 72.8739 10.7378 72.7892C8.76823 67.2275 7.4767 61.8152 6.66949 55.7611C6.65334 55.6522 6.73407 55.5472 6.84304 55.5351C6.95201 55.5149 7.05695 55.5997 7.06906 55.7087C7.86819 61.686 9.13954 67.0298 11.0688 72.5147C13.6599 72.3977 16.7071 72.2806 16.8887 72.3412C16.921 72.3533 20.4082 74.0565 20.6584 74.557C20.6988 74.6377 20.7674 74.7588 20.8481 74.9C21.3687 75.8122 21.6876 76.4256 21.3687 76.6678C21.2759 76.7405 20.9853 76.9544 19.387 75.6346C19.0399 75.4247 18.6646 75.2027 18.3377 75.0171C18.6484 75.3238 19.0319 75.6911 19.3951 76.0342L20.8925 78.0481C20.949 78.1248 20.9449 78.2257 20.8844 78.2984C20.8723 78.3145 20.5494 78.6939 20.1135 78.6939C20.1014 78.6939 20.0933 78.6939 20.0812 78.6939C19.944 78.6899 19.8149 78.6455 19.6938 78.5688C19.7987 78.7302 19.8593 78.8634 19.8593 78.9522C19.8593 79.0289 19.831 79.0975 19.7826 79.1459C19.7382 79.1903 19.7059 79.2388 19.6736 79.2832C19.605 79.3841 19.5162 79.5092 19.3467 79.5374C19.1691 79.5697 18.9673 79.4809 18.6242 79.2307C17.9704 78.7544 16.6425 77.6001 16.4004 77.3903L15.6577 77.1965C16.1057 77.6687 16.7313 78.3347 16.9695 78.6132C16.9775 78.6213 17.7726 79.5576 17.6193 80.0096C17.5789 80.1227 17.4901 80.1993 17.369 80.2236C17.3327 80.2316 17.2964 80.2357 17.256 80.2357L17.2722 80.2478Z" fill="#0E1418"/>
<line x1="54.5" y1="56.5" x2="-0.5" y2="56.5" stroke="#0E1418"/>
</g>
<defs>
<clipPath id="clip0_106_3">
<rect width="56" height="56" fill="white" transform="translate(0 0.70459)"/>
</clipPath>
</defs>
</svg>
