<svg width="60" height="60" viewBox="0 0 60 60" fill="none" xmlns="http://www.w3.org/2000/svg">
<path d="M28.4808 39.0618C36.7296 39.0618 37.2492 32.6412 37.6674 27.4824C37.6998 27.084 37.7148 26.6646 37.731 26.22C37.7562 25.5246 37.782 24.8052 37.878 24.171C38.0148 23.2692 38.3838 22.6266 38.9172 22.3608C39.5496 22.0458 40.2888 22.3086 40.7982 22.5846C41.4144 22.9182 42.018 23.5146 42.5436 24.309C43.299 25.4502 43.827 26.9004 43.9218 28.0932C44.0592 29.823 43.7004 31.377 43.3536 32.88C43.0992 33.9834 42.8358 35.124 42.777 36.3078C42.7692 36.4698 42.828 36.6282 42.9396 36.7458C43.0518 36.8634 43.2066 36.93 43.3692 36.93H50.3172C53.2116 36.93 53.3376 38.499 53.379 39.0144C53.466 40.0986 52.983 41.4198 51.717 41.7588C51.705 41.7618 51.6942 41.7678 51.6822 41.772C51.6618 41.7792 51.6414 41.7858 51.6216 41.7948C51.6048 41.8026 51.5886 41.8122 51.573 41.8212C51.5562 41.8314 51.5394 41.841 51.5238 41.8524C51.5082 41.8638 51.4938 41.8764 51.4794 41.889C51.4656 41.9016 51.4512 41.9142 51.4386 41.928C51.426 41.9418 51.414 41.9568 51.4026 41.9712C51.3906 41.9868 51.3792 42.0018 51.369 42.0186C51.3594 42.0342 51.351 42.0504 51.3432 42.0666C51.3342 42.0846 51.3258 42.102 51.3186 42.1206C51.312 42.1386 51.3066 42.1566 51.3018 42.1746C51.297 42.1932 51.2916 42.2112 51.2886 42.2304C51.285 42.2508 51.2838 42.2718 51.282 42.2934C51.2814 42.306 51.2784 42.3186 51.2784 42.3312C51.2784 42.3372 51.2802 42.342 51.2802 42.348C51.2802 42.3678 51.2838 42.3876 51.2862 42.4074C51.2886 42.4284 51.2916 42.4488 51.2964 42.4692C51.2976 42.4746 51.2976 42.48 51.2988 42.4848C51.303 42.501 51.3102 42.516 51.3156 42.5316C51.3204 42.5448 51.324 42.558 51.3294 42.5706C51.3426 42.6006 51.3582 42.6294 51.3756 42.6558C51.3774 42.6582 51.378 42.6612 51.3798 42.6636C51.4002 42.6936 51.423 42.7206 51.4482 42.7464C51.4548 42.753 51.4626 42.759 51.4698 42.7656C51.4884 42.783 51.5076 42.7992 51.5286 42.8142C51.5394 42.822 51.5508 42.8286 51.5616 42.8352C51.5808 42.8472 51.6 42.8574 51.6204 42.867C51.633 42.873 51.6456 42.8784 51.6582 42.8832C51.6804 42.8916 51.7032 42.8988 51.7266 42.9042C51.738 42.9072 51.7494 42.9108 51.7608 42.9126C51.7968 42.9192 51.8334 42.924 51.87 42.924C51.87 42.924 51.8712 42.924 51.8718 42.924H52.7694C54.063 42.924 54.6522 44.2002 54.6522 45.3864C54.6522 46.5726 54.063 47.8488 52.7694 47.8494H52.1232C51.7956 47.8494 51.5304 48.1152 51.5304 48.4422C51.5304 48.4722 51.5352 48.501 51.5394 48.5298C51.5412 48.54 51.5406 48.5514 51.5424 48.5616C51.5496 48.5964 51.5604 48.6294 51.5736 48.6612C51.5754 48.6648 51.5754 48.669 51.5772 48.6726C51.5826 48.6852 51.5904 48.696 51.5964 48.7086C51.6942 48.9012 51.8922 49.035 52.1232 49.035C53.4168 49.035 54.006 50.3112 54.006 51.4974C54.006 52.6836 53.4168 53.9598 52.1232 53.9598C52.1118 53.9598 52.101 53.9628 52.0896 53.9634C52.0656 53.9646 52.0416 53.9664 52.0176 53.9706C52.0008 53.9736 51.9852 53.9784 51.969 53.9826C51.948 53.988 51.9276 53.994 51.9078 54.0018C51.8916 54.0084 51.8766 54.0162 51.861 54.0234C51.8424 54.0324 51.8238 54.042 51.8058 54.0534C51.7914 54.0624 51.7782 54.0726 51.765 54.0834C51.7482 54.096 51.7314 54.1092 51.7158 54.1236C51.7032 54.1356 51.6918 54.1488 51.6798 54.1626C51.6666 54.1776 51.6534 54.1926 51.6414 54.2094C51.6294 54.2262 51.6192 54.2448 51.609 54.2628C51.6024 54.2748 51.594 54.285 51.588 54.2976C51.5862 54.3018 51.5856 54.306 51.5838 54.3096C51.5748 54.3288 51.5688 54.3492 51.5622 54.3696C51.5562 54.387 51.5496 54.4044 51.546 54.4224C51.5424 54.4392 51.5406 54.4566 51.5388 54.474C51.5358 54.4962 51.5328 54.5184 51.5322 54.5406C51.5322 54.5448 51.531 54.5484 51.531 54.5526C51.531 54.5658 51.534 54.5778 51.5346 54.5904C51.5358 54.6126 51.5376 54.6342 51.5412 54.6558C51.5448 54.675 51.5502 54.693 51.555 54.711C51.5604 54.729 51.5652 54.7476 51.5718 54.765C51.579 54.7836 51.588 54.801 51.597 54.819C51.6054 54.8352 51.6132 54.852 51.6234 54.8676C51.6336 54.8838 51.6456 54.8994 51.6576 54.9144C51.669 54.9294 51.6804 54.9444 51.6936 54.9582C51.7074 54.9726 51.7224 54.9858 51.7374 54.9984C51.7512 55.0104 51.7644 55.0224 51.7794 55.0332C51.798 55.0464 51.8178 55.0578 51.8382 55.0692C51.849 55.0752 51.858 55.0824 51.8688 55.0878C52.296 55.2918 52.6302 55.7742 52.7202 56.3166C52.7784 56.667 52.7814 57.3468 52.1454 57.969C51.0294 59.0616 49.353 59.0514 47.7318 59.0412C47.5776 59.04 47.4252 59.0394 47.274 59.0394H38.4318C38.1768 59.0406 37.9236 59.0424 37.6716 59.0442C35.1744 59.064 32.8152 59.082 30.7254 58.1184C29.0238 57.3342 27.4296 56.9844 25.5564 56.9844H24.0348V39.0606H28.4814L28.4808 39.0618ZM15.693 18.7692L14.763 23.6268L19.0956 21.2412C19.1844 21.192 19.2828 21.1674 19.3812 21.1674C19.4796 21.1674 19.578 21.192 19.6668 21.2412L24 23.6268L23.07 18.7686C23.0316 18.5688 23.0982 18.3636 23.247 18.225L26.8548 14.8416L21.9474 14.2248C21.7458 14.1996 21.5712 14.0724 21.4848 13.8888L19.3818 9.4122L17.2788 13.8888C17.1924 14.073 17.0178 14.1996 16.8162 14.2248L11.9088 14.8416L15.5166 18.225C15.6648 18.3642 15.7314 18.5694 15.6936 18.7686L15.693 18.7692ZM21.8748 37.6128H16.8894C16.3524 37.6128 15.915 38.0496 15.915 38.5872V57.4602C15.915 57.9972 16.3518 58.4346 16.8894 58.4346H21.8748C22.4118 58.4346 22.8492 57.9978 22.8492 57.4602V38.5872C22.8492 38.0502 22.4124 37.6128 21.8748 37.6128ZM8.39398 10.035L6.23698 8.79C5.95378 8.625 5.59078 8.7234 5.42698 9.0072C5.26318 9.2904 5.36038 9.6534 5.64418 9.8172L7.80118 11.0622C7.89478 11.1156 7.99678 11.1414 8.09758 11.1414C8.30158 11.1414 8.50198 11.0346 8.61118 10.845C8.77498 10.5618 8.67778 10.1988 8.39398 10.035ZM8.61118 23.2818C8.44738 22.9986 8.08498 22.9002 7.80118 23.0646L5.64418 24.3096C5.36098 24.4734 5.26378 24.8358 5.42698 25.1196C5.53738 25.3092 5.73658 25.416 5.94178 25.416C6.04258 25.416 6.14458 25.3902 6.23698 25.3368L8.39398 24.0918C8.67718 23.928 8.77438 23.5656 8.61118 23.2818ZM19.3824 29.4996C19.0554 29.4996 18.7896 29.7654 18.7896 30.0924V32.5824C18.7896 32.9094 19.0554 33.1752 19.3824 33.1752C19.7094 33.1752 19.9752 32.9094 19.9752 32.5824V30.0924C19.9752 29.7654 19.7094 29.4996 19.3824 29.4996ZM33.1188 24.3096L30.963 23.0646C30.6786 22.8996 30.3168 22.998 30.153 23.2818C29.9892 23.565 30.0852 23.928 30.3702 24.0918L32.526 25.3368C32.6196 25.3902 32.7216 25.416 32.8224 25.416C33.0276 25.416 33.2268 25.3092 33.336 25.1196C33.4998 24.8364 33.4038 24.4734 33.1188 24.3096ZM33.336 9.0066C33.1722 8.7234 32.8098 8.625 32.526 8.7894L30.3702 10.0344C30.0858 10.1982 29.9898 10.5606 30.153 10.8444C30.2622 11.034 30.4614 11.1408 30.6666 11.1408C30.7674 11.1408 30.8694 11.115 30.963 11.0616L33.1188 9.8166C33.4032 9.6528 33.4992 9.2904 33.336 9.0066ZM19.3818 0.949799C19.0548 0.949799 18.789 1.2156 18.789 1.5426V4.0326C18.789 4.3596 19.0548 4.6254 19.3818 4.6254C19.7088 4.6254 19.9746 4.3596 19.9746 4.0326V1.5426C19.9746 1.2156 19.7088 0.949799 19.3818 0.949799Z" fill="#0E1418"/>
</svg>
