<svg width="24" height="24" viewBox="0 0 24 24" fill="none" xmlns="http://www.w3.org/2000/svg">
<path d="M21.9943 21.9999V21.999H21.9993V14.664C21.9993 11.0757 21.2268 8.31152 17.0318 8.31152C15.0152 8.31152 13.6618 9.41819 13.1093 10.4674H13.051V8.64652H9.07349V21.999H13.2152V15.3874C13.2152 13.6465 13.5452 11.9632 15.701 11.9632C17.8252 11.9632 17.8568 13.9499 17.8568 15.499V21.9999H21.9943Z" fill="#C8CAD1"/>
<path d="M2.33032 8.64697H6.47699V21.9995H2.33032V8.64697Z" fill="#C8CAD1"/>
<path d="M4.40045 1.99951C3.07461 1.99951 1.99878 3.07535 1.99878 4.40118C1.99878 5.72701 3.07461 6.82535 4.40045 6.82535C5.72628 6.82535 6.80211 5.72701 6.80211 4.40118C6.80128 3.07535 5.72545 1.99951 4.40045 1.99951V1.99951Z" fill="#C8CAD1"/>
</svg>
