<svg width="60" height="60" viewBox="0 0 60 60" fill="none" xmlns="http://www.w3.org/2000/svg">
<g clip-path="url(#clip0_118_995)">
<path d="M29.2369 0.108557C29.6308 -0.0997285 30.1231 0.00756987 30.4475 0.295382C39.7597 8.02339 49.0695 15.7552 58.3804 23.4845C58.7856 23.8417 59.3701 24.1636 59.3789 24.7771C59.4181 25.2593 59.0507 25.614 58.7579 25.9435C58.4082 26.3146 58.1015 26.7249 57.7278 27.0733C57.3415 27.4255 56.7078 27.4002 56.3253 27.0569C47.6986 19.9045 39.0768 12.747 30.45 5.59592C30.0612 5.22606 29.4124 5.18188 29.0034 5.5429C20.3728 12.689 11.7485 19.8451 3.11796 26.9925C2.79102 27.2967 2.29366 27.4166 1.88214 27.2159C1.43654 26.9635 1.16766 26.5014 0.817991 26.1417C0.463275 25.7125 -0.089627 25.2946 0.0126221 24.666C0.0643778 24.1409 0.554163 23.8568 0.915191 23.545C10.2552 15.8032 19.5939 8.06 28.9327 0.316842C29.0286 0.238577 29.1296 0.169149 29.2369 0.108557Z" fill="#0E1418"/>
<path d="M48.0078 7.22431C47.9839 6.62975 48.5267 6.10462 49.1187 6.13996C50.1765 6.13491 51.2344 6.13239 52.2922 6.14123C52.8842 6.11345 53.4119 6.6449 53.3866 7.23567C53.3955 10.3334 53.3854 13.4299 53.3904 16.5264C51.5929 15.0382 49.7978 13.5473 48.0015 12.0565C48.0104 10.4458 47.9952 8.83505 48.0078 7.22431Z" fill="#0E1418"/>
<path d="M6.52375 26.9862C14.248 20.5824 21.9697 14.1735 29.6926 7.76843C37.4421 14.1874 45.1789 20.6228 52.9309 27.0392C53.1241 27.221 53.4548 27.3674 53.393 27.6881C53.3841 38.0834 53.3955 48.4787 53.3866 58.874C53.4119 59.3903 53.0243 59.894 52.5081 59.9723C52.1836 60.0139 51.8567 59.995 51.531 59.9975C36.7175 59.9925 21.9028 60.0025 7.08927 59.9925C6.48714 60.0177 5.95696 59.4711 5.99609 58.8715C5.98725 48.4762 5.99861 38.0796 5.98978 27.6843C5.92919 27.3321 6.31925 27.1907 6.52375 26.9862ZM25.6001 17.775C25.1495 19.1559 25.4941 20.7263 26.4143 21.8384C24.3921 24.7039 22.3724 27.5707 20.3488 30.4362C18.1991 30.0613 16.0531 29.6661 13.9008 29.3076C12.2787 29.0564 10.6175 30.2582 10.3335 31.8714C9.44857 36.8337 8.57756 41.7984 7.70277 46.7619C7.44651 48.0407 8.06127 49.4267 9.17465 50.1021C9.83485 50.5363 10.6427 50.5893 11.3989 50.7307C22.414 52.6709 33.4279 54.6149 44.4417 56.5602C45.1512 56.6851 45.8833 56.8669 46.6003 56.6826C47.8538 56.4137 48.8738 55.3307 49.0707 54.0633C49.9266 49.2323 50.7698 44.4001 51.6269 39.5704C51.7342 39.0238 51.781 38.4532 51.6345 37.9079C51.3492 36.6809 50.2813 35.6913 49.0354 35.4969C46.5915 35.0576 44.1464 34.6246 41.7 34.2042C38.7814 30.089 35.8831 25.9587 32.9696 21.8397C33.905 20.7288 34.256 19.1484 33.7952 17.7611C33.2928 16.0885 31.6795 14.835 29.9325 14.7643C28.0238 14.6292 26.1392 15.9395 25.6001 17.775Z" fill="#0E1418"/>
<path d="M28.9845 17.0276C30.19 16.5656 31.6492 17.4379 31.8159 18.7154C32.0406 19.878 31.1279 21.0886 29.9527 21.1997C28.8229 21.3688 27.683 20.4864 27.5568 19.3541C27.4028 18.367 28.0377 17.3394 28.9845 17.0276Z" fill="#0E1418"/>
<path d="M22.693 30.8502C24.5158 28.2611 26.3424 25.6746 28.1703 23.0894C29.146 23.4554 30.2367 23.4542 31.2125 23.0894C33.7043 26.6125 36.1911 30.1395 38.6754 33.6677C33.3484 32.7247 28.0213 31.7843 22.693 30.8502Z" fill="#0E1418"/>
<path d="M13.0664 31.5255C13.2924 31.4157 13.5499 31.4296 13.7897 31.47C25.3982 33.5061 37.0041 35.5637 48.6112 37.6075C49.0947 37.6643 49.5188 38.0543 49.5706 38.5466C49.5883 38.9241 49.4848 39.2927 49.4267 39.6638C48.6314 44.1691 47.8349 48.6731 47.0447 53.1796C46.9689 53.6038 46.9298 54.1074 46.5486 54.3826C46.2481 54.6363 45.8303 54.6401 45.4655 54.5593C33.8886 52.503 22.3054 50.4807 10.7273 48.4307C10.129 48.3562 9.68588 47.7326 9.826 47.1431C10.6869 42.2213 11.5604 37.302 12.4264 32.3801C12.482 32.0115 12.7155 31.6682 13.0664 31.5255ZM13.9867 35.9374C13.5322 38.4924 13.0853 41.0498 12.6322 43.6061C12.5754 43.9381 12.4958 44.2688 12.4883 44.6071C12.4996 45.1549 12.9932 45.6233 13.5373 45.6271C14.0586 45.6485 14.5433 45.2383 14.6203 44.7232C14.816 43.6692 14.9902 42.6113 15.1821 41.5573C15.6731 41.6431 16.1654 41.7239 16.6552 41.8211C17.039 43.1302 17.4278 44.4367 17.8204 45.7432C17.9529 46.3327 18.6308 46.719 19.2026 46.5069C19.7479 46.339 20.0736 45.7003 19.8881 45.16C19.5674 44.0441 19.2241 42.9332 18.8984 41.8199C19.5649 41.5623 20.1746 41.1319 20.5634 40.5247C21.2009 39.5767 21.2754 38.2866 20.7452 37.2742C20.287 36.3552 19.3629 35.7001 18.3493 35.5473C17.2902 35.3693 16.2361 35.1585 15.1745 34.9982C14.6014 34.9061 14.0536 35.3744 13.9867 35.9374ZM23.5501 37.5532C23.0691 40.2041 22.6134 42.86 22.1375 45.5109C22.0883 45.7912 22.0239 46.0727 22.0391 46.3592C22.0871 46.825 22.4721 47.2163 22.9316 47.2883C24.3428 47.5445 25.7567 47.7995 27.1705 48.0406C27.6388 48.1315 28.1374 47.8589 28.3255 47.4234C28.6057 46.8515 28.2472 46.0878 27.6237 45.9502C26.5406 45.7306 25.4474 45.5677 24.3618 45.3658C24.4842 44.6589 24.6092 43.9519 24.7342 43.245C25.7971 43.4243 26.8549 43.6301 27.919 43.8005C28.4719 43.9141 29.0539 43.5089 29.1523 42.9572C29.2836 42.3942 28.8721 41.7807 28.3003 41.6924C27.2386 41.4853 26.1682 41.3162 25.104 41.118C25.2303 40.4111 25.3515 39.7042 25.4802 38.9985C26.5481 39.1803 27.6136 39.3848 28.6827 39.5552C29.2495 39.6651 29.834 39.227 29.9072 38.6602C30.0044 38.1099 29.6005 37.5342 29.0476 37.4446C27.6262 37.182 26.2023 36.9258 24.7758 36.6885C24.2179 36.5736 23.6359 36.994 23.5501 37.5532ZM32.7778 38.2134C32.3498 38.3333 32.0595 38.736 32.0103 39.1677C31.523 41.9524 31.0231 44.7359 30.5409 47.5218C30.4096 48.0735 30.7858 48.6731 31.3387 48.793C31.9067 48.9457 32.5404 48.5443 32.6402 47.9649C32.8952 46.623 33.1135 45.2736 33.361 43.9292C33.852 45.5463 34.3178 47.1696 34.8126 48.7854C34.9666 49.3648 35.6609 49.7094 36.2151 49.4822C36.6254 49.3383 36.8829 48.9319 36.9258 48.5102C37.4105 45.7381 37.9079 42.9673 38.3876 40.1952C38.5302 39.6158 38.1086 38.9872 37.5191 38.9026C36.9473 38.789 36.3514 39.222 36.2782 39.7989C36.0308 41.1268 35.8149 42.4599 35.5675 43.7891C35.0803 42.1632 34.6081 40.5335 34.1108 38.9127C33.953 38.3661 33.3168 38.0354 32.7778 38.2134ZM39.4441 40.3189C39.3053 40.8744 39.6966 41.4904 40.2609 41.5952C40.9867 41.7454 41.7227 41.8527 42.4523 41.989C42.0319 44.3736 41.6141 46.7581 41.1887 49.1414C41.142 49.4242 41.0839 49.7297 41.2076 50.0048C41.3894 50.4795 41.9385 50.7723 42.4346 50.6524C42.8575 50.5653 43.1945 50.1992 43.2627 49.7751C43.7071 47.3047 44.135 44.8305 44.5743 42.3589C45.2963 42.4775 46.0133 42.6278 46.7379 42.7338C47.3476 42.8411 47.9561 42.3109 47.951 41.6962C47.9775 41.1496 47.5307 40.6573 46.9916 40.5992C44.8835 40.2306 42.7767 39.8443 40.6661 39.4921C40.122 39.3873 39.5502 39.7774 39.4441 40.3189Z" fill="#0E1418"/>
<path d="M15.937 37.3184C16.678 37.4534 17.4265 37.5557 18.1625 37.7223C18.6788 37.8498 19.0259 38.4115 18.9262 38.9316C18.8454 39.4934 18.2609 39.92 17.6992 39.8089C16.9847 39.7029 16.2753 39.5577 15.5633 39.4391C15.6845 38.7322 15.812 38.0253 15.937 37.3184Z" fill="#0E1418"/>
</g>
<defs>
<clipPath id="clip0_118_995">
<rect width="59.3815" height="60" fill="white"/>
</clipPath>
</defs>
</svg>
