<svg width="193" height="28" viewBox="0 0 193 28" fill="none" xmlns="http://www.w3.org/2000/svg">
<path d="M13.0362 26.6322L19.5543 13.6685H6.44568L0 26.6322H13.0362Z" fill="#0E1418"/>
<path d="M26.0003 26.7048H39.1089L26.0003 0.849609H13.1089L26.0003 26.7048Z" fill="#0E1418"/>
<path d="M52.1449 26.6322H65.2535L52.1449 0.70459H39.0363L32.5906 13.7408H45.6992L52.1449 26.6322Z" fill="#0E1418"/>
<path d="M76.7654 22.7046V5.90459H81.2294L85.8374 14.9766L90.4454 5.90459H94.9094V22.7046H91.6214V10.3446L85.7894 21.5046L79.9814 10.2966V22.7046H76.7654ZM103.833 22.9446C102.585 22.9446 101.449 22.6566 100.425 22.0806C99.4175 21.5046 98.6175 20.7286 98.0255 19.7526C97.4335 18.7766 97.1375 17.6806 97.1375 16.4646C97.1375 15.2486 97.4175 14.1526 97.9775 13.1766C98.5535 12.2006 99.3295 11.4246 100.305 10.8486C101.281 10.2726 102.369 9.98459 103.569 9.98459C104.769 9.98459 105.833 10.2806 106.761 10.8726C107.689 11.4646 108.417 12.2646 108.945 13.2726C109.489 14.2806 109.761 15.4246 109.761 16.7046V17.5686H100.497C100.641 18.0646 100.873 18.5126 101.193 18.9126C101.529 19.3126 101.937 19.6246 102.417 19.8486C102.913 20.0726 103.441 20.1846 104.001 20.1846C104.561 20.1846 105.073 20.0966 105.537 19.9206C106.017 19.7446 106.425 19.4966 106.761 19.1766L108.921 21.1446C108.153 21.7686 107.361 22.2246 106.545 22.5126C105.745 22.8006 104.841 22.9446 103.833 22.9446ZM100.449 15.2166H106.521C106.409 14.7206 106.201 14.2886 105.897 13.9206C105.609 13.5366 105.257 13.2406 104.841 13.0326C104.441 12.8086 103.993 12.6966 103.497 12.6966C102.985 12.6966 102.521 12.8006 102.105 13.0086C101.689 13.2166 101.337 13.5126 101.049 13.8966C100.777 14.2646 100.577 14.7046 100.449 15.2166ZM117.352 22.8966C115.96 22.8966 114.904 22.5846 114.184 21.9606C113.48 21.3206 113.128 20.3926 113.128 19.1766V12.9366H110.56V10.2006H113.128V7.00859L116.416 6.26459V10.2006H119.992V12.9366H116.416V18.5046C116.416 19.0806 116.544 19.4966 116.8 19.7526C117.056 19.9926 117.504 20.1126 118.144 20.1126C118.464 20.1126 118.752 20.0966 119.008 20.0646C119.28 20.0166 119.576 19.9366 119.896 19.8246V22.5366C119.56 22.6486 119.136 22.7366 118.624 22.8006C118.128 22.8646 117.704 22.8966 117.352 22.8966ZM121.596 22.7046V10.2006H124.884V11.5926C125.284 11.0486 125.764 10.6326 126.324 10.3446C126.884 10.0566 127.516 9.91259 128.22 9.91259C128.828 9.92859 129.284 10.0246 129.588 10.2006V13.0806C129.348 12.9686 129.084 12.8886 128.796 12.8406C128.508 12.7766 128.212 12.7446 127.908 12.7446C127.268 12.7446 126.684 12.9046 126.156 13.2246C125.628 13.5446 125.204 14.0006 124.884 14.5926V22.7046H121.596ZM136.997 22.9446C135.749 22.9446 134.621 22.6566 133.613 22.0806C132.605 21.5046 131.805 20.7286 131.213 19.7526C130.621 18.7766 130.325 17.6806 130.325 16.4646C130.325 15.2486 130.613 14.1526 131.189 13.1766C131.781 12.1846 132.581 11.4006 133.589 10.8246C134.613 10.2486 135.749 9.96059 136.997 9.96059C138.245 9.96059 139.373 10.2486 140.381 10.8246C141.405 11.4006 142.205 12.1846 142.781 13.1766C143.373 14.1526 143.669 15.2486 143.669 16.4646C143.669 17.6806 143.373 18.7766 142.781 19.7526C142.205 20.7286 141.413 21.5046 140.405 22.0806C139.397 22.6566 138.261 22.9446 136.997 22.9446ZM136.997 20.0886C137.653 20.0886 138.237 19.9286 138.749 19.6086C139.277 19.2886 139.693 18.8566 139.997 18.3126C140.317 17.7526 140.477 17.1366 140.477 16.4646C140.477 15.7766 140.317 15.1606 139.997 14.6166C139.693 14.0726 139.277 13.6406 138.749 13.3206C138.237 12.9846 137.653 12.8166 136.997 12.8166C136.357 12.8166 135.773 12.9846 135.245 13.3206C134.717 13.6406 134.301 14.0726 133.997 14.6166C133.693 15.1606 133.541 15.7766 133.541 16.4646C133.541 17.1366 133.693 17.7526 133.997 18.3126C134.301 18.8566 134.717 19.2886 135.245 19.6086C135.773 19.9286 136.357 20.0886 136.997 20.0886ZM145.69 27.6006V10.2006H148.93V11.2326C149.954 10.4326 151.138 10.0326 152.482 10.0326C153.666 10.0326 154.738 10.3206 155.698 10.8966C156.658 11.4726 157.418 12.2486 157.978 13.2246C158.554 14.1846 158.842 15.2646 158.842 16.4646C158.842 17.6646 158.554 18.7526 157.978 19.7286C157.402 20.6886 156.626 21.4566 155.65 22.0326C154.674 22.5926 153.586 22.8726 152.386 22.8726C151.762 22.8726 151.162 22.7926 150.586 22.6326C150.01 22.4566 149.474 22.2086 148.978 21.8886V27.6006H145.69ZM151.954 20.0886C152.642 20.0886 153.258 19.9286 153.802 19.6086C154.362 19.2886 154.802 18.8566 155.122 18.3126C155.442 17.7686 155.602 17.1526 155.602 16.4646C155.602 15.7766 155.442 15.1606 155.122 14.6166C154.802 14.0566 154.362 13.6246 153.802 13.3206C153.258 13.0006 152.642 12.8406 151.954 12.8406C151.346 12.8406 150.786 12.9446 150.274 13.1526C149.778 13.3446 149.346 13.6406 148.978 14.0406V18.9126C149.33 19.2806 149.762 19.5686 150.274 19.7766C150.802 19.9846 151.362 20.0886 151.954 20.0886ZM160.831 22.7046V5.90459L164.119 5.35259V22.7046H160.831ZM172.81 22.9446C171.562 22.9446 170.426 22.6566 169.402 22.0806C168.394 21.5046 167.594 20.7286 167.002 19.7526C166.41 18.7766 166.114 17.6806 166.114 16.4646C166.114 15.2486 166.394 14.1526 166.954 13.1766C167.53 12.2006 168.306 11.4246 169.282 10.8486C170.258 10.2726 171.346 9.98459 172.546 9.98459C173.746 9.98459 174.81 10.2806 175.738 10.8726C176.666 11.4646 177.394 12.2646 177.922 13.2726C178.466 14.2806 178.738 15.4246 178.738 16.7046V17.5686H169.474C169.618 18.0646 169.85 18.5126 170.17 18.9126C170.506 19.3126 170.914 19.6246 171.394 19.8486C171.89 20.0726 172.418 20.1846 172.978 20.1846C173.538 20.1846 174.05 20.0966 174.514 19.9206C174.994 19.7446 175.402 19.4966 175.738 19.1766L177.898 21.1446C177.13 21.7686 176.338 22.2246 175.522 22.5126C174.722 22.8006 173.818 22.9446 172.81 22.9446ZM169.426 15.2166H175.498C175.386 14.7206 175.178 14.2886 174.874 13.9206C174.586 13.5366 174.234 13.2406 173.818 13.0326C173.418 12.8086 172.97 12.6966 172.474 12.6966C171.962 12.6966 171.498 12.8006 171.082 13.0086C170.666 13.2166 170.314 13.5126 170.026 13.8966C169.754 14.2646 169.554 14.7046 169.426 15.2166ZM178.471 22.7046L183.271 16.3446L178.591 10.2006H182.407L185.167 13.9206L187.903 10.2006H191.599L186.991 16.2966L191.887 22.7046H188.047L185.095 18.7206L182.143 22.7046H178.471Z" fill="#0E1418"/>
</svg>
