<svg width="21" height="20" viewBox="0 0 21 20" fill="none" xmlns="http://www.w3.org/2000/svg">
<path d="M17.9902 8.33337C17.9902 14.1667 10.4902 19.1667 10.4902 19.1667C10.4902 19.1667 2.99023 14.1667 2.99023 8.33337C2.99023 6.34425 3.78041 4.4366 5.18693 3.03007C6.59346 1.62355 8.50111 0.833374 10.4902 0.833374C12.4794 0.833374 14.387 1.62355 15.7935 3.03007C17.2001 4.4366 17.9902 6.34425 17.9902 8.33337Z" stroke="#0E1418" stroke-width="1.5" stroke-linecap="round" stroke-linejoin="round"/>
<path d="M10.4902 10.8334C11.8709 10.8334 12.9902 9.71409 12.9902 8.33337C12.9902 6.95266 11.8709 5.83337 10.4902 5.83337C9.10952 5.83337 7.99023 6.95266 7.99023 8.33337C7.99023 9.71409 9.10952 10.8334 10.4902 10.8334Z" stroke="#0E1418" stroke-width="1.5" stroke-linecap="round" stroke-linejoin="round"/>
</svg>
