<svg width="20" height="21" viewBox="0 0 20 21" fill="none" xmlns="http://www.w3.org/2000/svg">
<path d="M1.66675 16.0949V11.0949C1.66675 10.7199 1.74314 10.3796 1.89591 10.0741C2.04869 9.7685 2.25008 9.49767 2.50008 9.26156V6.92822C2.50008 6.23378 2.74314 5.6435 3.22925 5.15739C3.71536 4.67128 4.30564 4.42822 5.00008 4.42822H8.33341C8.65286 4.42822 8.95147 4.48739 9.22925 4.60572C9.50703 4.72406 9.76397 4.88711 10.0001 5.09489C10.2362 4.88656 10.4931 4.7235 10.7709 4.60572C11.0487 4.48794 11.3473 4.42878 11.6667 4.42822H15.0001C15.6945 4.42822 16.2848 4.67128 16.7709 5.15739C17.257 5.6435 17.5001 6.23378 17.5001 6.92822V9.26156C17.7501 9.49767 17.9515 9.7685 18.1042 10.0741C18.257 10.3796 18.3334 10.7199 18.3334 11.0949V16.0949H16.6667V14.4282H3.33341V16.0949H1.66675ZM10.8334 8.59489H15.8334V6.92822C15.8334 6.69211 15.7534 6.49433 15.5934 6.33489C15.4334 6.17545 15.2356 6.09544 15.0001 6.09489H11.6667C11.4306 6.09489 11.2329 6.17489 11.0734 6.33489C10.914 6.49489 10.834 6.69267 10.8334 6.92822V8.59489ZM4.16675 8.59489H9.16675V6.92822C9.16675 6.69211 9.08675 6.49433 8.92675 6.33489C8.76675 6.17545 8.56897 6.09544 8.33341 6.09489H5.00008C4.76397 6.09489 4.56619 6.17489 4.40675 6.33489C4.2473 6.49489 4.1673 6.69267 4.16675 6.92822V8.59489Z" fill="#0E1418"/>
</svg>
