<svg width="56" height="40" viewBox="0 0 56 40" fill="none" xmlns="http://www.w3.org/2000/svg">
<path d="M34.796 18.0361L32.2016 20.6294H28.8627V13.79H26.8538V27.54L23.5138 27.5388L20.9216 24.9477C21.0816 24.5905 21.1716 24.2033 21.1716 23.8011C21.1716 23.0483 20.8782 22.3405 20.3455 21.8077L16.3616 25.7933C16.9105 26.3433 17.6321 26.6177 18.3538 26.6177C18.746 26.6177 19.1343 26.5288 19.4993 26.3672L22.6827 29.5477L26.8538 29.5489V36.3827H28.8632V22.6388L33.0343 22.6377L36.2155 19.4588C36.5727 19.6188 36.9599 19.7083 37.3627 19.7083C38.1149 19.7083 38.8227 19.415 39.3549 18.8833L35.3704 14.8977C34.5221 15.7455 34.3354 17.0011 34.796 18.0361ZM37.7182 3.61774L31.5043 9.83163L43.3099 21.6383L49.5238 15.4227L37.7182 3.61774ZM48.9093 17.1316L45.0188 21.0211L45.906 21.9089L51.9893 20.2127L48.9093 17.1316ZM3.72656 27.1233L9.81045 28.8183L10.6971 27.9316L6.80712 24.0416L3.72656 27.1233ZM17.9977 10.5277L6.19212 22.3339L12.4066 28.5483L24.2121 16.7427L17.9977 10.5277Z" fill="black"/>
</svg>
