<svg width="23" height="61" viewBox="0 0 23 61" fill="none" xmlns="http://www.w3.org/2000/svg">
<g clip-path="url(#clip0_399_505)">
<path d="M17.5401 57.4481L17.5396 50.7642C17.5224 50.4646 17.3756 50.152 17.1264 49.8843C16.9855 49.7331 16.811 49.5962 16.6181 49.4855L16.6176 40.5283C16.6 40.2301 16.4596 39.9297 16.2116 39.6593C16.0345 39.4659 15.8176 39.3029 15.5899 39.1911C15.5854 39.1887 15.5809 39.1862 15.5761 39.1838L15.5756 32.0793C15.5583 31.7773 15.4179 31.4747 15.1697 31.2043C14.9968 31.0158 14.7809 30.8542 14.5482 30.7387L14.5476 21.2142C14.5305 20.9148 14.3837 20.6024 14.1344 20.3347C13.9835 20.1729 13.8014 20.0302 13.607 19.922L13.5093 19.8684C13.293 19.7604 13.0686 19.6929 12.8621 19.6734C12.8052 19.6672 12.7486 19.6646 12.6927 19.6654L12.6983 10.0995H12.574L12.5712 1.14361C12.5889 1.01044 12.5329 0.882028 12.4212 0.800411C12.251 0.675536 11.9941 0.68533 11.8387 0.757834C11.6997 0.822855 11.6148 0.945689 11.6057 1.10321V7.64905C11.5242 7.67557 11.4426 7.71094 11.3652 7.75338C11.0262 7.9392 10.824 8.21914 10.824 8.50236V14.1293C10.0954 14.3633 9.61847 14.9784 9.56977 15.7659V17.1396C9.51863 17.1384 9.46707 17.1407 9.41783 17.1459C9.20236 17.1628 8.9741 17.2305 8.76013 17.3408C8.51936 17.4596 8.2994 17.6236 8.12392 17.8153C7.87363 18.0879 7.73393 18.3934 7.71992 18.7051V28.2092C7.7187 28.2098 7.71747 28.2105 7.71625 28.2111L7.6632 28.2408C7.4533 28.3521 7.25865 28.5025 7.10167 28.6742C6.85124 28.939 6.70392 29.2543 6.68637 29.5699V36.6626C6.45267 36.7771 6.23775 36.9377 6.06486 37.127C5.81661 37.3977 5.67609 37.7035 5.6584 38.0194L5.65296 46.7581C5.58264 46.7927 5.51911 46.828 5.46048 46.865C4.96126 47.1809 4.64907 47.6442 4.62513 48.1119V57.4481H0.983643V60.7046H21.2844V57.4481H17.5401ZM21.0058 60.426H1.26223V57.7267H4.90372L4.90358 48.1189C4.92262 47.7487 5.18652 47.3681 5.60943 47.1006C5.67881 47.0566 5.7573 47.0152 5.84925 46.9739L5.93155 46.9371L5.93672 38.0272C5.95059 37.7843 6.06581 37.5381 6.2704 37.315C6.42125 37.1499 6.60911 37.01 6.81968 36.9075C6.82988 36.9017 6.84131 36.8969 6.85274 36.892L6.96496 36.8389L6.96469 29.5777C6.97829 29.3356 7.09881 29.0827 7.30557 28.8638C7.44297 28.7138 7.61178 28.5835 7.79637 28.4854L7.84915 28.4559C7.86003 28.4501 7.87145 28.4457 7.88288 28.441L7.9985 28.3892L7.99837 18.7114C8.00925 18.4723 8.12365 18.2275 8.32919 18.0036C8.48168 17.8371 8.67335 17.6942 8.88555 17.5896C9.06905 17.4949 9.26072 17.4375 9.4434 17.4233C9.52352 17.415 9.6065 17.4163 9.68948 17.4283L9.84836 17.4507L9.84809 15.7746C9.89107 15.0827 10.3319 14.5439 10.9988 14.3685L11.1025 14.3411V8.50236C11.1025 8.32511 11.2545 8.13181 11.4992 7.99769C11.5874 7.94926 11.6857 7.91117 11.7759 7.89063L11.8843 7.86601L11.884 1.11151C11.8858 1.08172 11.8953 1.03887 11.9569 1.01003C12.0358 0.973167 12.1836 0.971671 12.2565 1.02499C12.2852 1.04608 12.2992 1.07587 12.2939 1.12525L12.2954 10.3781H12.4197L12.4141 19.9756L12.5727 19.9534C12.6556 19.9418 12.7429 19.9407 12.8341 19.9505C13.0086 19.967 13.199 20.0248 13.3798 20.115L13.4719 20.1657C13.6407 20.2597 13.7993 20.3838 13.9304 20.5246C14.1356 20.7448 14.256 20.9955 14.2693 21.2223L14.2696 30.9157L14.4165 30.9842C14.6238 31.0865 14.8133 31.2277 14.9644 31.3926C15.1687 31.6154 15.2838 31.8581 15.2973 32.0871L15.2975 39.3647L15.4108 39.4147C15.4258 39.421 15.4409 39.427 15.461 39.4379C15.6637 39.5377 15.8523 39.6795 16.0062 39.8476C16.2104 40.0701 16.3258 40.3112 16.3392 40.5364L16.3395 49.6517L16.4138 49.6909C16.6089 49.7937 16.7847 49.9262 16.9224 50.0742C17.1275 50.2946 17.2479 50.5452 17.2612 50.772L17.2615 57.7267H21.0058V60.426Z" fill="#0E1418"/>
<path d="M12.2191 19.9194V18.4457C12.1848 18.0969 12.1269 17.7239 12.0559 17.3946C11.9664 16.9903 11.8888 16.8219 11.8494 16.7563C11.6127 16.8143 11.431 16.9209 11.2971 17.0804V57.4145V57.4334L12.2191 57.5371V19.9194Z" fill="#0E1418"/>
<path d="M12.2193 10.5781H12.0703V10.6023V10.7918V10.9893V11.1788V11.3683V11.5657V11.7552V11.9448V12.1422V12.3317V12.5291V12.7186V12.9081V13.1056V13.2951V13.4925V13.682V13.8715V14.0689V14.2585V14.448V14.6454V14.8349V15.0323V15.2219V15.4114V15.6088V15.7983V15.9878V16.1852V16.3748V16.4948C12.1164 16.545 12.1664 16.6251 12.2193 16.7575V10.5781Z" fill="#0E1418"/>
<path d="M12.559 57.5876H12.9379H13.2527V30.7837L13.3569 30.7414C13.5648 30.6569 13.8101 30.6487 14.0745 30.7113V22.0453C14.0544 21.7431 13.8119 21.4115 13.4405 21.1793C13.1314 20.9858 12.8028 20.9068 12.5535 20.9601V21.5079H12.559V57.5876Z" fill="#0E1418"/>
<path d="M13.7426 20.9827V20.6176C13.6793 20.5545 13.6128 20.4948 13.54 20.4424V20.8522C13.5658 20.8669 13.5918 20.8799 13.6174 20.8959C13.6611 20.9232 13.7019 20.9529 13.7426 20.9827Z" fill="#0E1418"/>
<path d="M16.7353 50.168C16.6731 50.1061 16.6067 50.047 16.5327 49.9937V50.3997C16.6037 50.4385 16.6711 50.4808 16.7353 50.5266V50.168Z" fill="#0E1418"/>
<path d="M15.6539 50.1639V49.6904C15.6163 49.6925 15.5797 49.696 15.5457 49.7031V50.1697L15.5493 50.1695C15.5559 50.1686 15.5631 50.1692 15.5698 50.1684C15.5971 50.1652 15.6258 50.1652 15.6539 50.1639Z" fill="#0E1418"/>
<path d="M15.988 50.1911C16.008 50.1951 16.0282 50.2013 16.0483 50.2062C16.073 50.2122 16.0972 50.2174 16.1221 50.2247C16.1476 50.2322 16.173 50.24 16.1986 50.2488V49.805C16.1279 49.7734 16.0576 49.7478 15.988 49.7295V50.1911Z" fill="#0E1418"/>
<path d="M15.8196 40.302V39.9405C15.7546 39.8744 15.6852 39.8123 15.6091 39.7573V40.166C15.6333 40.1798 15.6577 40.1919 15.6818 40.2069C15.7298 40.2368 15.7751 40.2691 15.8196 40.302Z" fill="#0E1418"/>
<path d="M14.6289 39.468V39.9379C14.662 39.9331 14.6955 39.9295 14.7298 39.9277V39.4561C14.6953 39.4585 14.6608 39.4612 14.6289 39.468Z" fill="#0E1418"/>
<path d="M15.064 39.955C15.1335 39.9692 15.2037 39.9886 15.2745 40.013V39.5671C15.2532 39.5579 15.2309 39.5459 15.2098 39.5378C15.1603 39.5192 15.1118 39.5043 15.064 39.4917V39.955Z" fill="#0E1418"/>
<path d="M13.5872 31.8256V57.5868L14.2948 57.5829V39.2338L14.3978 39.1911C14.598 39.1078 14.8427 39.0989 15.1027 39.1587V32.9117L15.1016 32.9118C15.0859 32.612 14.8479 32.2811 14.4802 32.0485C14.1696 31.8519 13.8387 31.7713 13.5872 31.8256Z" fill="#0E1418"/>
<path d="M14.03 31.5064C14.097 31.5201 14.1645 31.5389 14.2326 31.5621V31.1142C14.2167 31.1072 14.1999 31.0977 14.1841 31.092C14.1319 31.0721 14.0805 31.0562 14.03 31.043V31.5064Z" fill="#0E1418"/>
<path d="M13.5872 31.0195V31.4893C13.6228 31.4841 13.6588 31.4802 13.6957 31.4785V31.0068C13.6584 31.0091 13.6215 31.0122 13.5872 31.0195Z" fill="#0E1418"/>
<path d="M14.7775 31.8491V31.4857C14.7131 31.4205 14.6438 31.3592 14.5669 31.3042V31.7136C14.5976 31.731 14.6284 31.7469 14.6589 31.7662C14.7004 31.7925 14.7388 31.8209 14.7775 31.8491Z" fill="#0E1418"/>
<path d="M14.6289 40.2745V57.5871H15.2111V50.6355V50.2739V49.4692L15.3139 49.4262C15.4674 49.3623 15.6445 49.3405 15.8392 49.3614C15.9383 49.3699 16.0408 49.3938 16.1444 49.4265V41.3624C16.1254 41.0579 15.88 40.7239 15.5051 40.4905C15.1983 40.2996 14.8735 40.2215 14.6289 40.2745Z" fill="#0E1418"/>
<path d="M15.9677 50.5293C15.924 50.5186 15.8806 50.5091 15.8386 50.5035C15.813 50.5001 15.7884 50.4988 15.7637 50.4973C15.7258 50.4951 15.6889 50.4949 15.6532 50.4973C15.63 50.4988 15.6071 50.5009 15.5849 50.5044C15.5711 50.5066 15.559 50.5113 15.5457 50.5143V57.5871H16.3118H17.0666V51.5858C17.0459 51.244 16.7354 50.8667 16.293 50.6467L16.2413 50.6236C16.172 50.5913 16.1033 50.5663 16.0357 50.5458C16.0126 50.5388 15.9904 50.5349 15.9677 50.5293Z" fill="#0E1418"/>
<path d="M13.2057 20.2494L13.205 20.2491C13.1344 20.2189 13.0642 20.1956 12.9951 20.1777V20.6407C13.0647 20.655 13.1349 20.6745 13.2057 20.6989V20.2494Z" fill="#0E1418"/>
<path d="M12.6611 20.1411C12.6237 20.1433 12.5873 20.1468 12.5535 20.1538V20.6229C12.5888 20.6178 12.6245 20.6141 12.6611 20.6124V20.1411Z" fill="#0E1418"/>
<path d="M12.1002 7.77764V1.17839C12.093 1.17798 12.0859 1.17839 12.0789 1.1788L12.0793 7.76777C12.0864 7.77087 12.0934 7.77405 12.1002 7.77764Z" fill="#0E1418"/>
<path d="M11.7385 16.3752V16.1857V15.9883V15.7987V15.6092V15.4118V15.2223V15.0328V14.8353V14.6458V14.4484V14.2589V14.0694V13.872V13.6824V13.4929V13.2955V13.106V12.9086V12.719V12.5295V12.3321V12.1426V11.9452V11.7557V11.5661V11.3687V11.1792V10.9897V10.7923V10.6027V10.4053H11.9044V10.2387H11.9188V8.0674C11.8524 8.06658 11.6825 8.10426 11.5197 8.21281C11.3827 8.30449 11.2977 8.41536 11.2977 8.50228V14.3616L11.2971 16.6409C11.4243 16.5544 11.5714 16.4897 11.7385 16.4453V16.3752Z" fill="#0E1418"/>
<path d="M10.0434 17.3914V57.5236C10.3513 57.4633 10.6577 57.4286 10.9627 57.4193V57.4145V16.9667V14.5762C10.4324 14.7503 10.0787 15.203 10.043 15.7762L10.0434 17.3914Z" fill="#0E1418"/>
<path d="M6.6121 57.5865V47.8397C6.36072 47.7855 6.02979 47.8665 5.71961 48.0629C5.352 48.2955 5.11414 48.6259 5.09839 48.9257L5.09864 57.5865H6.6121Z" fill="#0E1418"/>
<path d="M6.16997 47.064C6.10335 47.0812 6.03549 47.1045 5.96729 47.1333V47.5766C6.0354 47.5533 6.10299 47.5345 6.16997 47.5208V47.064Z" fill="#0E1418"/>
<path d="M6.50439 47.4924C6.5411 47.4941 6.57686 47.4979 6.61227 47.503V47.0418C6.57868 47.0345 6.54056 47.0358 6.50439 47.0332V47.4924Z" fill="#0E1418"/>
<path d="M6.65958 37.6406V37.2319C6.5857 37.2852 6.51935 37.3451 6.45703 37.4083V37.7715C6.49575 37.7432 6.53421 37.7148 6.57578 37.6885C6.6035 37.6709 6.63164 37.6566 6.65958 37.6406Z" fill="#0E1418"/>
<path d="M7.20471 36.9648C7.15474 36.978 7.10392 36.9938 7.05223 37.0134C7.03362 37.0208 7.01347 37.0319 6.99414 37.0405V37.4864C7.06491 37.4619 7.13517 37.4423 7.20471 37.428V36.9648Z" fill="#0E1418"/>
<path d="M7.53906 37.4C7.57605 37.4017 7.61208 37.4056 7.64775 37.4108V36.9414C7.61334 36.9341 7.57639 36.931 7.53906 36.9287V37.4Z" fill="#0E1418"/>
<path d="M7.87797 36.6639L7.98203 36.7063V57.5873H8.02652H8.67279V29.2982C8.42785 29.2457 8.10407 29.3238 7.79812 29.5145C7.4244 29.747 7.1803 30.0798 7.15991 30.3835L7.16015 36.6338C7.42547 36.5709 7.67034 36.5793 7.87797 36.6639Z" fill="#0E1418"/>
<path d="M8.67244 28.9612V28.4915C8.64099 28.4849 8.607 28.4824 8.573 28.48V28.9513C8.6068 28.953 8.63977 28.9565 8.67244 28.9612Z" fill="#0E1418"/>
<path d="M8.239 28.5151C8.18901 28.5283 8.13802 28.5443 8.08611 28.5642C8.06628 28.5712 8.0473 28.5789 8.02856 28.5868V29.0369C8.09937 29.0124 8.16956 28.993 8.239 28.9789V28.5151Z" fill="#0E1418"/>
<path d="M7.69389 29.1895V28.7803C7.62073 28.8333 7.55418 28.8937 7.49121 28.9576V29.3201C7.53338 29.2893 7.5758 29.2587 7.62112 29.2304C7.64521 29.2154 7.66965 29.2033 7.69389 29.1895Z" fill="#0E1418"/>
<path d="M8.90423 28.2153L9.00707 28.2581V57.5877H9.16309H9.70911V57.5569V18.4334C9.46154 18.3812 9.12585 18.4627 8.81948 18.6555C8.44921 18.8886 8.20967 19.2196 8.19402 19.5192L8.19362 28.1842C8.45454 28.1228 8.702 28.131 8.90423 28.2153Z" fill="#0E1418"/>
<path d="M6.84315 46.7654L6.94667 46.8081V57.5833L7.64763 57.5873V37.7485C7.39632 37.6942 7.06534 37.7748 6.75446 37.9714C6.38678 38.204 6.14859 38.5348 6.13295 38.8346L6.13208 38.8346L6.13213 38.9837L6.12671 46.7336C6.38698 46.6738 6.63801 46.6807 6.84315 46.7654Z" fill="#0E1418"/>
<path d="M5.6328 47.7274V47.3208C5.55531 47.376 5.48502 47.4353 5.42236 47.4979V47.8627C5.461 47.8345 5.49935 47.8062 5.54084 47.7799C5.57126 47.7607 5.60212 47.7448 5.6328 47.7274Z" fill="#0E1418"/>
<path d="M15.5455 57.9214H14.2946H14.2417H13.3627L13.2526 57.9219L12.9379 57.9214V59.2449C12.7874 59.2449 12.6453 59.2449 12.5033 59.2449H11.2719C11.1215 59.2449 10.9794 59.2449 10.829 59.2449H9.60597C9.45552 59.2449 9.31346 59.2449 9.16301 59.2449V57.9214H9.007H8.02637H7.98189H7.87227H6.82565H1.45728V60.2312H9.16415C9.16415 59.9034 9.16415 59.5721 9.16415 59.246C9.31419 59.246 9.45632 59.246 9.60636 59.246C9.60636 59.5721 9.60636 59.9034 9.60636 60.2312H10.8303C10.8303 59.9034 10.8303 59.5721 10.8303 59.246C10.9804 59.246 11.1225 59.246 11.2726 59.246C11.2726 59.5721 11.2726 59.9034 11.2726 60.2312H12.5044C12.5044 59.9034 12.5044 59.5721 12.5044 59.246C12.6466 59.246 12.7887 59.246 12.9387 59.246C12.9387 59.5721 12.9387 59.9034 12.9387 60.2312H20.8108V57.9214H17.4008H16.3116H15.5455Z" fill="#0E1418"/>
<path d="M9.27367 17.6538C9.20356 17.6714 9.13366 17.6969 9.06323 17.7276V18.171C9.13402 18.1466 9.20425 18.1271 9.27367 18.113V17.6538Z" fill="#0E1418"/>
<path d="M8.72839 18.3227V17.9136C8.65113 17.9689 8.58196 18.0303 8.51782 18.0949V18.4582C8.55792 18.4289 8.59791 18.3996 8.64107 18.3724C8.66997 18.3542 8.69927 18.3392 8.72839 18.3227Z" fill="#0E1418"/>
<path d="M9.70901 17.6271C9.67662 17.6202 9.6424 17.617 9.60767 17.6147V18.085C9.64215 18.0868 9.67571 18.0907 9.70901 18.0955V17.6271Z" fill="#0E1418"/>
</g>
<defs>
<clipPath id="clip0_399_505">
<rect width="22.8866" height="60" fill="white" transform="translate(0 0.70459)"/>
</clipPath>
</defs>
</svg>
