<svg width="46" height="45" viewBox="0 0 46 45" fill="none" xmlns="http://www.w3.org/2000/svg">
<path fill-rule="evenodd" clip-rule="evenodd" d="M31.6592 26.6519C32.5646 26.6519 33.3015 25.9151 33.3015 25.0097C33.3015 24.1047 32.5646 23.3678 31.6592 23.3678C30.7538 23.3678 30.017 24.1047 30.017 25.0097C30.017 25.9151 30.7538 26.6519 31.6592 26.6519ZM39.4021 28.5901H30.0902L26.8977 25.0097L30.0902 21.4296H39.4021V28.5901ZM40.4012 19.4319H39.7351V11.2722C39.7351 10.7215 39.2868 10.2732 38.7361 10.2732H36.8211V6.6931C36.8211 6.14236 36.3728 5.69402 35.8221 5.69402H31.1667C30.7638 5.69402 30.4029 5.93421 30.2463 6.30512C30.116 6.61484 30.1489 6.96577 30.3342 7.24551C30.5198 7.52526 30.8312 7.69219 31.1667 7.69219H34.823V10.2732H29.2373C28.8347 10.2732 28.4734 10.5134 28.3169 10.8843C28.1866 11.1936 28.2194 11.5449 28.4051 11.8247C28.5908 12.1044 28.9021 12.2713 29.2373 12.2713H37.737V19.4319H29.6427C29.3576 19.4319 29.0853 19.5534 28.8967 19.7661L24.8121 24.3449C24.4745 24.7237 24.4741 25.2957 24.8121 25.6749L28.8967 30.254C29.0866 30.4663 29.3588 30.5879 29.6427 30.5879H37.737V37.7484H17.662C17.2595 37.7484 16.8977 37.9882 16.7412 38.3591C16.6109 38.6684 16.6438 39.0202 16.8295 39.2999C17.0155 39.5797 17.3265 39.7462 17.662 39.7462H38.7361C39.2868 39.7462 39.7351 39.2982 39.7351 38.7471V30.5879H40.4012C40.952 30.5879 41.4003 30.14 41.4003 29.5888V20.4305C41.4003 19.8798 40.952 19.4319 40.4012 19.4319ZM28.7623 3.9069C28.6386 3.85445 28.5083 3.82739 28.3747 3.82739C27.9718 3.82739 27.61 4.06759 27.4535 4.43933L12.3764 40.2253C12.2728 40.4713 12.2711 40.7428 12.3719 40.99C12.4726 41.2373 12.6633 41.4305 12.9093 41.5341C13.0325 41.5862 13.1632 41.6124 13.2969 41.6124C13.6998 41.6124 14.0616 41.3726 14.2181 41.0013L29.2947 5.21487C29.5091 4.707 29.2701 4.12046 28.7623 3.9069ZM10.5048 37.7484H8.7635C7.01927 37.7484 5.59973 36.3289 5.59973 34.5842V12.0153C5.99104 12.1818 6.43314 12.2713 6.87065 12.2713H22.0801C22.4834 12.2713 22.8448 12.0311 23.0009 11.6602C23.1312 11.3509 23.0983 10.9996 22.9126 10.7198C22.727 10.4401 22.416 10.2732 22.0801 10.2732H6.86774C6.16838 10.2732 5.59973 9.70409 5.59973 9.00557V8.96311C5.59973 8.2625 6.17004 7.69219 6.87065 7.69219H24.0095C24.4125 7.69219 24.7738 7.45199 24.9304 7.08108C25.0607 6.77178 25.0278 6.42043 24.8421 6.14069C24.6565 5.86095 24.3455 5.69402 24.0095 5.69402H6.87065C5.06564 5.69402 3.60156 7.15809 3.60156 8.95728V34.5842C3.60156 37.4308 5.91736 39.7462 8.7635 39.7462H10.5048C10.9078 39.7462 11.2691 39.5064 11.4252 39.1351C11.5555 38.8258 11.5226 38.4744 11.337 38.1947C11.1517 37.9149 10.8404 37.7484 10.5048 37.7484Z" fill="#0E1418"/>
</svg>
