<svg width="32" height="32" viewBox="0 0 32 32" fill="none" xmlns="http://www.w3.org/2000/svg">
<path fill-rule="evenodd" clip-rule="evenodd" d="M12.2353 19.2502C12.2356 18.0773 12.5301 16.9232 13.0917 15.8934C13.6532 14.8637 14.4641 13.9912 15.45 13.3558C16.4359 12.7204 17.5654 12.3423 18.7351 12.2562C19.9049 12.17 21.0776 12.3786 22.1459 12.8628V2.93336C22.1476 2.71381 22.1058 2.49609 22.023 2.29273C21.9402 2.08937 21.8181 1.90438 21.6635 1.7484C21.509 1.59241 21.3252 1.46852 21.1226 1.38383C20.92 1.29914 20.7027 1.25534 20.4832 1.25493H2.93336C2.71248 1.25326 2.49347 1.29553 2.28908 1.37929C2.08469 1.46305 1.899 1.58662 1.74281 1.74281C1.58662 1.899 1.46305 2.08469 1.37929 2.28908C1.29553 2.49347 1.25326 2.71248 1.25493 2.93336V22.7389H4.32944C4.88141 22.7405 5.41031 22.9605 5.80061 23.3508C6.19092 23.7411 6.41092 24.27 6.41258 24.822V27.8965H20.4832C20.9239 27.8957 21.3463 27.7202 21.658 27.4086C21.9696 27.0969 22.1451 26.6745 22.1459 26.2338V25.6408C21.0773 26.1251 19.9044 26.3336 18.7344 26.2474C17.5643 26.1611 16.4346 25.7827 15.4487 25.147C14.4627 24.5112 13.6519 23.6383 13.0905 22.6081C12.5292 21.5779 12.2351 20.4234 12.2353 19.2502ZM5.33336 7.03689H18.0894C18.1951 7.04601 18.2934 7.09441 18.3651 7.17254C18.4368 7.25066 18.4766 7.35283 18.4766 7.45885C18.4766 7.56488 18.4368 7.66704 18.3651 7.74517C18.2934 7.82329 18.1951 7.8717 18.0894 7.88081H5.33336C5.22773 7.8717 5.12936 7.82329 5.05769 7.74517C4.98601 7.66704 4.94625 7.56488 4.94625 7.45885C4.94625 7.35283 4.98601 7.25066 5.05769 7.17254C5.12936 7.09441 5.22773 7.04601 5.33336 7.03689ZM5.33336 10.6008H18.0894C18.2009 10.6008 18.3079 10.6451 18.3867 10.7239C18.4655 10.8028 18.5098 10.9097 18.5098 11.0212C18.5098 11.1327 18.4655 11.2396 18.3867 11.3185C18.3079 11.3973 18.2009 11.4416 18.0894 11.4416H5.33336C5.22187 11.4416 5.11494 11.3973 5.0361 11.3185C4.95726 11.2396 4.91297 11.1327 4.91297 11.0212C4.91297 10.9097 4.95726 10.8028 5.0361 10.7239C5.11494 10.6451 5.22187 10.6008 5.33336 10.6008ZM5.33336 14.1616H12.4894C12.6009 14.1616 12.7079 14.2059 12.7867 14.2847C12.8655 14.3636 12.9098 14.4705 12.9098 14.582C12.9098 14.6935 12.8655 14.8004 12.7867 14.8793C12.7079 14.9581 12.6009 15.0024 12.4894 15.0024H5.33336C5.22187 15.0024 5.11494 14.9581 5.0361 14.8793C4.95726 14.8004 4.91297 14.6935 4.91297 14.582C4.91297 14.4705 4.95726 14.3636 5.0361 14.2847C5.11494 14.2059 5.22187 14.1616 5.33336 14.1616ZM5.33336 18.5538C5.22187 18.5538 5.11494 18.5095 5.0361 18.4306C4.95726 18.3518 4.91297 18.2449 4.91297 18.1334C4.91297 18.0219 4.95726 17.9149 5.0361 17.8361C5.11494 17.7573 5.22187 17.713 5.33336 17.713H11.1247C11.2362 17.713 11.3432 17.7573 11.422 17.8361C11.5008 17.9149 11.5451 18.0219 11.5451 18.1334C11.5451 18.2449 11.5008 18.3518 11.422 18.4306C11.3432 18.5095 11.2362 18.5538 11.1247 18.5538H5.33336ZM11.4792 22.1271H9.01964C8.90814 22.1271 8.80121 22.0828 8.72237 22.004C8.64354 21.9251 8.59924 21.8182 8.59924 21.7067C8.59924 21.5952 8.64354 21.4883 8.72237 21.4094C8.80121 21.3306 8.90814 21.2863 9.01964 21.2863H11.4792C11.5907 21.2863 11.6977 21.3306 11.7765 21.4094C11.8553 21.4883 11.8996 21.5952 11.8996 21.7067C11.8996 21.8182 11.8553 21.9251 11.7765 22.004C11.6977 22.0828 11.5907 22.1271 11.4792 22.1271ZM13.0792 19.2502C13.0786 20.4716 13.4403 21.6658 14.1185 22.6816C14.7966 23.6974 15.7609 24.4892 16.8892 24.9569C18.0175 25.4246 19.2591 25.5471 20.4571 25.309C21.6551 25.0709 22.7555 24.4828 23.6191 23.6191C24.4828 22.7555 25.0709 21.6551 25.309 20.4571C25.5471 19.2591 25.4246 18.0175 24.9569 16.8892C24.4892 15.7609 23.6974 14.7966 22.6816 14.1185C21.6658 13.4403 20.4716 13.0786 19.2502 13.0792C17.6138 13.0801 16.0447 13.7305 14.8876 14.8876C13.7305 16.0447 13.0801 17.6138 13.0792 19.2502ZM24.091 19.2502C24.0916 20.2078 23.8082 21.144 23.2767 21.9405C22.7452 22.737 21.9894 23.3579 21.1049 23.7248C20.2204 24.0916 19.247 24.1879 18.3078 24.0015C17.3685 23.8151 16.5057 23.3543 15.8284 22.6774C15.1511 22.0006 14.6897 21.138 14.5027 20.1989C14.3156 19.2598 14.4113 18.2863 14.7776 17.4016C15.1439 16.5169 15.7644 15.7607 16.5605 15.2286C17.3566 14.6966 18.2927 14.4126 19.2502 14.4126C20.5335 14.4126 21.7643 14.9222 22.6721 15.8293C23.5798 16.7364 24.0902 17.9669 24.091 19.2502ZM19.2502 15.2534C20.0416 15.2527 20.8154 15.4869 21.4737 15.9262C22.132 16.3655 22.6451 16.9901 22.9483 17.7212C23.2514 18.4522 23.3309 19.2567 23.1767 20.033C23.0224 20.8092 22.6414 21.5222 22.0818 22.0818C21.5222 22.6414 20.8092 23.0224 20.033 23.1767C19.2567 23.3309 18.4522 23.2514 17.7212 22.9483C16.9901 22.6451 16.3655 22.132 15.9262 21.4737C15.4869 20.8154 15.2527 20.0416 15.2534 19.2502C15.2534 18.1902 15.6745 17.1736 16.424 16.424C17.1736 15.6745 18.1902 15.2534 19.2502 15.2534ZM29.9514 28.7185L28.7185 29.9514C28.6197 30.0497 28.486 30.1049 28.3467 30.1049C28.2074 30.1049 28.0737 30.0497 27.9749 29.9514L24.7843 26.7577C24.6872 26.6596 24.6327 26.5271 24.6327 26.389C24.6327 26.251 24.6872 26.1185 24.7843 26.0204L23.5514 24.7843C24.0211 24.4208 24.4428 23.9991 24.8063 23.5294L26.0204 24.7843C26.1185 24.6872 26.251 24.6327 26.389 24.6327C26.5271 24.6327 26.6596 24.6872 26.7577 24.7843L29.9514 27.9749C30.0497 28.0737 30.1049 28.2074 30.1049 28.3467C30.1049 28.486 30.0497 28.6197 29.9514 28.7185ZM5.22042 23.9436C5.45226 24.1773 5.58296 24.4928 5.58434 24.822V27.4761L1.68787 23.5796H4.34199C4.6712 23.581 4.98668 23.7117 5.22042 23.9436Z" fill="#010205"/>
</svg>
