<svg width="53" height="50" viewBox="0 0 53 50" fill="none" xmlns="http://www.w3.org/2000/svg">
<path fill-rule="evenodd" clip-rule="evenodd" d="M38.98 17.5252C39.6871 17.2223 40.4447 17.0707 41.2527 17.0707C48.0204 17.2223 49.081 26.7171 42.5659 28.3838C42.4144 31.2626 41.5052 33.9899 39.9396 36.4142C42.0608 38.6363 41.8083 42.6262 39.3336 44.5454C36.8083 46.7677 32.4648 46.0101 30.7982 43.0303C28.0709 43.7879 25.0911 43.7879 22.3639 43.0303C19.3841 48.0303 11.8083 45.909 11.7578 40.1515C11.7578 38.6868 12.2628 37.3737 13.172 36.3636C11.5558 33.9899 10.6972 31.2121 10.5457 28.3334C9.78811 28.1313 9.03054 27.8283 8.37397 27.3233C3.02043 23.1817 7.81842 14.9495 14.0305 17.5252C15.7982 15.303 18.172 13.5858 20.8487 12.5757C20.4952 9.2424 23.172 6.31311 26.5053 6.31311C29.8386 6.31311 32.5154 9.2424 32.1618 12.5757C34.8386 13.5858 37.1619 15.2525 38.98 17.5252ZM31.1517 12.0202C31.1517 9.44442 29.0305 7.32321 26.4548 7.32321C23.879 7.32321 21.7578 9.44442 21.8083 12.0202C21.8083 13.2828 22.3133 14.4949 23.172 15.3535V15.202C23.172 14.1919 23.98 13.3333 25.0406 13.3333H27.9194C28.9295 13.3333 29.7881 14.1414 29.7881 15.202V15.3535C30.6466 14.4445 31.1517 13.2828 31.1517 12.0202ZM11.4547 18.0808C7.66685 18.2324 5.64665 22.8283 8.07094 25.707C8.1719 24.5959 9.182 23.6363 10.3437 23.5858L13.2224 23.4343C14.3336 23.3838 15.4447 24.1918 15.6467 25.3031C17.7174 22.1716 15.2426 17.8283 11.4547 18.0808ZM9.08104 26.6666C9.68705 27.0707 10.3942 27.3233 11.1518 27.4242C12.4144 27.5758 13.7275 27.1717 14.6871 26.3636L14.6366 25.8081C14.6366 25.0505 13.98 24.4444 13.2224 24.4949L10.3437 24.6464C9.93958 24.6464 9.6366 24.8485 9.38407 25.101C8.97998 25.505 9.03054 26.1616 9.08104 26.6666ZM18.778 41.4141C19.8386 41.4141 20.6972 42.3737 20.6467 43.4343C23.5759 40.505 21.4548 35.4041 17.3639 35.4545C13.2224 35.4041 11.1012 40.5555 14.0305 43.4343C13.98 42.3232 14.7881 41.4141 15.8992 41.4141H18.778ZM38.9295 43.4343C39.7881 42.5252 40.2932 41.3636 40.2932 40.1009C40.0406 33.8889 31.1517 33.8889 30.9497 40.1009C30.9497 41.3636 31.4547 42.5757 32.3134 43.4343C32.2629 42.3232 33.0709 41.4141 34.182 41.4141H37.0608C38.0709 41.4141 38.9295 42.2222 38.9295 43.2828V43.4343ZM29.8891 40.1515C29.8891 35.404 35.4951 32.7272 39.1315 35.6566C40.4951 33.4848 41.3032 31.01 41.4043 28.4343C40.0406 28.4848 38.6265 28.0303 37.5659 27.1212C36.2528 26.0101 35.4952 24.4444 35.4952 22.7273C35.4952 20.7575 36.5053 18.9899 38.0204 17.9798C36.4043 16.0101 34.2831 14.4949 31.9093 13.5353C31.6063 14.5959 31.0002 15.606 30.0911 16.3636C27.0103 18.9899 21.9598 17.4242 20.9497 13.5353C18.5759 14.4445 16.4548 16.0101 14.8386 17.9798C15.0911 18.1312 15.2931 18.2828 15.4951 18.4849C16.6063 19.495 17.2628 20.909 17.3639 22.4242C17.6164 25.707 14.6871 28.6363 11.4547 28.4343C11.6063 31.01 12.3639 33.4848 13.778 35.6566C14.7376 34.899 16.0002 34.4444 17.3134 34.4444C21.2023 34.394 24.081 38.4848 22.6669 42.1211C25.1416 42.7778 27.7679 42.7778 30.2427 42.1211C29.9901 41.5151 29.8891 40.8081 29.8891 40.1515ZM39.1821 26.9696C40.7477 27.7272 42.7174 27.5757 44.081 26.5151H44.0305V25.9091C44.0305 25.1515 43.4245 24.5455 42.6669 24.5455H39.7881C39.0305 24.5455 38.4245 25.1515 38.4245 25.9091V26.5151L39.1821 26.9696ZM42.7174 23.5354C43.879 23.5354 44.8386 24.3939 45.0406 25.505C47.3133 22.4747 45.0406 18.0303 41.3033 18.0303C37.5154 17.9798 35.2427 22.4747 37.5154 25.505C37.7174 24.3939 38.677 23.5354 39.8386 23.5354H42.7174ZM26.4548 12.5252C28.879 12.4748 28.879 8.93947 26.4548 8.88892C24.081 8.93947 24.081 12.4243 26.4548 12.5252ZM29.2326 27.3737C30.1922 27.3737 31.0002 28.0807 31.1517 29.0404L31.4042 30.8081C31.5558 31.7171 30.8487 32.5252 29.9396 32.5252H22.9699C22.0608 32.5252 21.3537 31.7171 21.5053 30.8081L21.8083 29.0404C21.9598 28.0807 22.7679 27.3737 23.7275 27.3737H29.2326ZM11.6063 22.8788C14.0305 22.8284 14.0305 19.293 11.6063 19.2425C9.23251 19.3434 9.23251 22.8284 11.6063 22.8788ZM17.3133 36.9697C14.8891 37.0202 14.8891 40.5555 17.3133 40.606C19.7376 40.5555 19.7376 37.0706 17.3133 36.9697ZM35.5962 36.9697C33.172 37.0202 33.172 40.5555 35.5962 40.606C38.0204 40.5555 38.0204 37.0706 35.5962 36.9697ZM41.2527 19.2425C38.8285 19.293 38.8285 22.8284 41.2527 22.8788C43.6265 22.8284 43.6265 19.3434 41.2527 19.2425ZM26.4548 26.3636C29.6871 26.2626 29.6871 21.5656 26.4548 21.4646C23.2225 21.5152 23.2225 26.2626 26.4548 26.3636Z" fill="#010205"/>
</svg>
