<svg width="32" height="61" viewBox="0 0 32 61" fill="none" xmlns="http://www.w3.org/2000/svg">
<path d="M8.72424 2.90381L8.69799 3.08012C8.66755 3.28608 8.56778 3.55194 8.43113 3.79406C8.05115 4.46599 8.57023 5.05268 9.34225 4.82344C9.90576 4.65611 9.97046 3.72941 9.46517 3.06457C9.34206 2.90264 9.22453 3.00046 9.28427 3.21551C9.33427 3.39666 9.33225 3.82134 9.28203 3.87297C9.1367 4.01861 8.98014 3.89052 8.98014 3.62462C8.98014 3.36801 8.94015 3.22415 8.81948 3.0437L8.72424 2.90381ZM8.67066 5.19912V5.3278V5.45629H9.03057H9.38993V5.3278V5.19912H9.03057H8.67066ZM7.4821 5.83356L7.44141 6.21355C7.38852 6.70293 7.37186 6.68473 7.8771 6.69843C8.64488 6.7191 10.266 6.71688 10.4528 6.69465L10.6408 6.67321L10.6386 6.41581C10.6374 6.27446 10.6231 6.08578 10.6093 5.99626L10.583 5.83353H9.03155L7.4821 5.83356ZM8.36192 7.03238V7.30099C8.36192 7.44862 8.37526 7.57986 8.38437 7.59243C8.42726 7.63566 9.68085 7.61836 9.72525 7.57392C9.74769 7.54943 9.76614 7.43194 9.76614 7.28307V7.03236H9.064L8.36192 7.03238ZM8.72773 7.98147C8.66528 7.98109 8.58663 7.98679 8.48912 7.99779L8.15651 8.03577V8.1682C8.15651 8.24094 8.16094 8.30044 8.16983 8.30044C8.17428 8.30044 8.34006 8.27688 8.53506 8.24771C8.91964 8.19021 8.94637 8.18133 8.94637 8.11527C8.94637 8.02308 8.88817 7.98248 8.72773 7.98147ZM9.32557 8.09344C9.29646 8.09542 9.28202 8.11264 9.27935 8.14282C9.26824 8.22342 9.35404 8.39656 9.53082 8.61669L9.6988 8.82567V10.363C9.6988 11.6732 9.68992 11.9194 9.64614 12.0276C9.54769 12.2632 9.3647 12.4025 9.1351 12.418C8.9711 12.4289 8.98397 12.3034 9.01531 13.6117C9.07686 16.1801 9.38883 17.0153 10.4076 17.3365C10.6515 17.4133 10.7274 17.5117 10.642 17.6421C10.5342 17.8064 10.0808 17.6506 9.67866 17.3105C9.56955 17.2182 9.47754 17.1461 9.47354 17.1505C9.44221 17.184 9.81324 19.3814 9.92575 19.8309C10.0651 20.3878 10.0244 20.378 10.3253 19.9254C11.0434 18.845 11.3341 17.9295 11.1716 17.2613C11.1539 17.1859 11.1079 16.7793 11.0705 16.3584C10.9959 15.5212 10.8965 14.9828 10.6221 13.9205C10.4643 13.3101 10.4358 13.1381 10.2969 11.9361L10.1452 10.6196L10.213 10.3986C10.4218 9.7218 10.1087 8.66347 9.56886 8.22311C9.45419 8.12964 9.37197 8.09024 9.32557 8.09344ZM8.59847 8.71548C8.55091 8.7155 8.50137 8.71666 8.44826 8.71868C8.15314 8.72963 8.12487 8.75187 8.17092 8.93495C8.19714 9.0354 8.24004 9.04364 8.76228 9.04948C9.15177 9.05391 9.18138 9.04946 9.20167 8.98553C9.25856 8.80578 9.05625 8.71525 8.59847 8.71548ZM8.75869 9.38711C8.52704 9.38795 8.25942 9.42012 8.25942 9.47192C8.25942 9.61476 8.40366 9.86594 8.43588 9.77911C8.45143 9.73807 8.49832 9.69108 8.54144 9.67501C8.5841 9.65894 8.72187 9.63549 8.84722 9.62227C9.0756 9.59821 9.12982 9.55733 9.09062 9.44005C9.07728 9.40272 8.92762 9.3865 8.75869 9.38711ZM9.33564 9.84227C9.33413 9.84228 9.28763 9.86418 9.23296 9.89069C9.1783 9.91717 9.05163 9.94984 8.95183 9.96291L8.77028 9.98672L8.78361 10.9624L8.79029 11.939L8.8714 12.0044C8.97762 12.0903 9.15138 12.0884 9.24629 12.0001C9.2874 11.9617 9.32206 11.8883 9.32228 11.8372C9.32268 11.7861 9.32674 11.3166 9.32896 10.7936C9.3334 10.2706 9.3334 9.84236 9.3334 9.84236L9.33564 9.84227ZM15.2859 13.8246C15.2703 13.8214 15.2192 14.1227 15.1679 14.5108C15.1154 14.9115 15.0639 15.2741 15.0541 15.3165C15.0363 15.3909 15.0474 15.3938 15.2822 15.3938C15.5002 15.3938 15.5259 15.3868 15.5104 15.3336C15.5037 15.3006 15.4521 14.9576 15.4019 14.5712C15.3515 14.1849 15.2985 13.8483 15.2859 13.8246C15.2866 13.8247 15.2855 13.8239 15.2859 13.8246ZM12.971 14.8627L13.0226 14.9386C13.311 15.3646 13.6939 15.9057 13.7076 15.9062C13.7165 15.9067 13.7914 15.8634 13.8725 15.8096L14.0196 15.7114L13.5823 15.3558C13.3417 15.16 13.1058 14.9687 13.0579 14.9312L12.971 14.8627ZM17.5361 14.918C17.5354 14.918 17.5365 14.9178 17.5361 14.918C17.5137 14.9247 17.4221 14.9959 17.2511 15.1364C17.1362 15.2308 16.9306 15.3984 16.7943 15.5091L16.5467 15.7106L16.6927 15.8072C16.869 15.9238 16.8452 15.937 17.0869 15.5902C17.1951 15.4349 17.3535 15.2075 17.4395 15.085C17.5184 14.9725 17.5561 14.9153 17.5361 14.918ZM15.3285 15.77C14.2918 15.7641 13.2479 16.4145 13.1377 17.5693L13.1177 17.7753L13.2377 17.6019C13.3035 17.5067 13.4499 17.3369 13.5634 17.2249C14.6292 16.1714 16.5146 16.3573 17.3135 17.5944C17.5127 17.9025 17.4442 17.3464 17.2293 16.9088C16.8928 16.2232 16.2602 15.8627 15.5907 15.7858C15.5038 15.7757 15.4164 15.7705 15.3285 15.77ZM13.0575 16.6507L12.5887 16.6731C12.3311 16.6854 12.0282 16.6961 11.9149 16.6961C11.8018 16.6961 11.7205 16.7068 11.7343 16.7205C11.7543 16.7418 12.7687 16.9911 12.8685 16.9995C12.8863 17.0012 12.9374 16.9237 12.9799 16.827L13.0575 16.6507ZM17.5827 16.6662C17.5479 16.6665 17.5279 16.6676 17.5261 16.6694C17.4812 16.7143 17.669 17.0061 17.733 16.9906C17.7714 16.9813 18.0188 16.9249 18.2826 16.865C18.5466 16.8051 18.7836 16.7447 18.8092 16.731C18.8354 16.7173 18.5589 16.6948 18.197 16.6812C17.9255 16.671 17.6876 16.6653 17.5827 16.6662ZM15.0216 16.9014C14.4236 16.9014 13.1814 17.8301 13.4827 18.052C13.5934 18.1335 13.6563 18.1122 14.2846 17.7879C15.0157 17.4105 15.0833 17.3537 15.105 17.0924L15.1228 16.9014L15.0216 16.9014ZM15.5645 16.9102C15.5083 16.9092 15.4645 16.9161 15.4332 16.9295C15.2156 17.0215 15.5583 17.4273 16.2782 17.7932C16.8924 18.1053 16.9536 18.1266 17.068 18.0653C17.3457 17.9167 16.4593 17.1121 15.8445 16.9549C15.7298 16.9255 15.6368 16.9114 15.5645 16.9102ZM11.5442 17.059C11.4913 17.0602 11.5264 17.1048 11.6466 17.1847C11.777 17.2711 11.9952 17.5627 12.063 17.741C12.083 17.792 12.1668 17.8996 12.2499 17.9805C12.498 18.2218 12.5779 18.7088 12.4597 19.2598L12.4134 19.4763L12.6581 19.7126C12.9366 19.9819 12.9421 19.9851 12.9667 19.857C13.0529 19.4055 13.0615 19.2707 13.0098 19.1713C12.9809 19.1158 12.9402 18.9636 12.9195 18.8336C12.8995 18.7035 12.858 18.465 12.8291 18.3032C12.7962 18.1218 12.7802 17.8824 12.7873 17.6784L12.8006 17.3482L12.2687 17.224C11.9766 17.156 11.6883 17.088 11.627 17.0723C11.5897 17.0629 11.5622 17.0585 11.5442 17.059ZM11.5666 17.5863C11.5622 17.5863 11.5533 17.6947 11.551 17.8272C11.531 18.5883 11.1037 19.4915 10.1505 20.7821C9.78787 21.2731 9.73339 21.319 9.60894 21.2375C9.49183 21.1607 9.50475 21.0578 9.65719 20.8565L9.78916 20.6834L9.69541 20.3099L9.60162 19.9358L9.54363 20.0719C9.34852 20.5324 9.18292 21.1656 9.18292 21.4532C9.18292 21.7345 8.98201 21.8771 8.85621 21.6852C8.72421 21.4839 8.97777 20.4447 9.36277 19.6048L9.48277 19.3446L9.4099 18.9564C9.32634 18.5104 9.36033 18.4918 9.09224 19.1282C8.43289 20.693 8.31944 21.9904 8.81053 22.3574C9.07509 22.5552 9.42682 22.5882 9.8228 22.4519C11.1634 21.9904 12.7931 18.6697 11.9217 18.1745C11.8622 18.1408 11.8057 18.069 11.7826 17.9976C11.7473 17.8889 11.5886 17.5863 11.5666 17.5863ZM15.2825 17.6206L15.1176 17.7322C15.027 17.7936 14.7111 17.9665 14.4168 18.1173C13.8058 18.4304 13.8122 18.4231 13.8613 18.882C14.0007 20.1837 14.8784 21.002 15.7117 20.6074C16.2436 20.3556 16.6928 19.5066 16.7025 18.7346C16.707 18.3974 16.7159 18.4051 16.1329 18.1151C15.8447 17.9712 15.5353 17.8005 15.4455 17.7365L15.2825 17.6206ZM17.2466 18.3817C17.2242 18.383 17.1889 18.3944 17.1411 18.4111C17.0358 18.4478 17.0353 18.4487 17.0813 18.5791C17.2257 18.9884 17.3026 18.9977 17.3037 18.6061C17.3039 18.4825 17.3038 18.4195 17.2837 18.3948C17.2748 18.3847 17.2633 18.3808 17.2466 18.3817ZM13.3103 18.3829C13.2519 18.3833 13.2457 18.4344 13.2461 18.6082C13.2469 18.9734 13.309 19.0044 13.4321 18.7011C13.5199 18.4852 13.5101 18.4274 13.3801 18.3947C13.3512 18.3874 13.3281 18.3829 13.3103 18.3829ZM17.043 19.2185C17.0363 19.2192 17.0252 19.2241 17.0205 19.2331C17.0139 19.2415 16.9887 19.7419 16.967 20.3449C16.9445 20.948 16.9201 21.4839 16.9121 21.5357C16.8921 21.67 16.8943 21.6673 17.1635 21.2753L17.4074 20.9205L17.2839 20.136C17.1814 19.4841 17.1123 19.2126 17.0453 19.2185L17.043 19.2185ZM13.5331 19.2314C13.4573 19.2314 13.3975 19.3973 13.3375 19.7729L13.2698 20.1939L13.5652 20.4944C13.8966 20.8308 13.8882 20.8287 13.9577 20.5597L14.0084 20.3641L13.8457 20.0459C13.756 19.871 13.6537 19.6164 13.6188 19.4797C13.5835 19.3431 13.5444 19.2314 13.5331 19.2314ZM12.3119 19.8983C12.3074 19.8976 12.3007 19.8976 12.2985 19.8985C12.2665 19.9057 12.2465 19.9631 12.1996 20.0793C11.6304 21.4859 10.4592 22.7783 9.65679 22.8847C9.49545 22.9062 9.47878 22.9171 9.41966 23.0484C9.28989 23.334 9.31946 23.4195 9.68917 23.8389C9.86561 24.039 9.84248 24.0602 9.98726 23.5684C10.1175 23.126 10.1486 23.0691 10.2617 23.0691C10.4788 23.0691 10.4779 23.1421 10.2506 23.9163C9.96539 24.8997 9.88351 25.321 9.9464 25.4848C9.97262 25.5493 10.354 25.1259 10.6656 24.689C10.8496 24.4311 10.9413 24.373 11.0622 24.4378C11.2409 24.5334 11.0577 24.8426 10.3437 25.6411C9.76208 26.2929 9.73143 26.5413 10.1673 27.0759L10.2908 27.2268L10.3339 26.9212C10.4226 26.2915 10.4508 26.1846 10.5368 26.1455C10.6744 26.0827 10.8043 26.1952 10.7772 26.3537C10.6167 27.2918 10.5892 27.9669 10.7019 28.1743L10.7667 28.2942L10.839 28.1944C10.8785 28.1397 11.0441 27.9167 11.2071 27.6983C12.5201 25.9395 14.4435 24.2202 16.1494 23.2805L16.5227 23.0744L16.3554 23.0522C15.2695 22.9047 14.7534 22.7063 14.2878 22.257C14.1469 22.1211 14.0302 22.0128 14.0279 22.0167C14.0257 22.0207 13.9919 22.1471 13.9521 22.2979C13.7681 22.9981 13.5535 23.3415 13.3741 23.224C13.2639 23.1516 13.2712 23.1007 13.4552 22.6578C13.8913 21.6095 13.8259 21.1548 13.1585 20.5851C12.9269 20.3874 12.941 20.3804 12.8692 20.728C12.6349 21.8654 11.8809 23.4353 11.6019 23.3653C11.4346 23.3233 11.45 23.2145 11.6804 22.8194C12.0803 22.134 12.4363 21.1873 12.5634 20.4713L12.6198 20.1522L12.4674 20.0191C12.3836 19.9454 12.3394 19.903 12.3083 19.8983L12.3119 19.8983ZM16.5841 20.2944C16.5641 20.2969 16.5305 20.3525 16.4745 20.4275C15.9842 21.0843 15.1688 21.2408 14.4984 20.8075L14.2933 20.6742L14.2406 20.8551C14.1048 21.3217 14.1013 21.3667 14.19 21.546C14.5309 22.2353 15.531 22.7001 16.7208 22.7226L16.9082 22.7263L16.7259 22.5419L16.5428 22.3567L16.5473 22.0191C16.5495 21.8333 16.565 21.3655 16.5824 20.9792C16.6002 20.5704 16.6119 20.3799 16.6001 20.318C16.5979 20.3007 16.5907 20.2935 16.5841 20.2944ZM17.2606 21.7914C17.2251 21.7937 17.1795 21.8672 17.0913 21.9998L16.9369 22.2326L17.108 22.4282C17.3024 22.6514 17.2904 22.6473 17.4173 22.5433L17.5131 22.4652L17.4031 22.1157C17.3375 21.9087 17.3084 21.8068 17.2711 21.7929C17.2689 21.7917 17.2644 21.7911 17.2578 21.7914L17.2606 21.7914ZM17.8321 22.759C17.7445 22.7583 17.6612 22.7911 17.5949 22.8646C17.4798 22.9918 17.7925 23.344 18.1379 23.4768C18.387 23.5726 18.4018 23.5691 18.3998 23.4202C18.3954 23.0585 18.0946 22.7609 17.8321 22.759ZM17.2518 23.1852C17.2384 23.1851 17.2256 23.1864 17.2111 23.1889C17.1311 23.2024 17.01 23.2514 16.8482 23.3243C14.76 24.266 11.7294 27.0929 10.7859 28.9798C9.86918 30.8128 9.44023 32.5359 9.79659 32.9515C9.93659 33.1147 10.3026 33.2098 10.4362 33.1174C10.4562 33.1035 10.4926 33.0031 10.5164 32.8942C10.9625 30.8586 11.6686 29.8524 13.9125 28.0547C15.0434 27.1486 15.7854 26.1999 16.8073 24.3559C17.2883 23.4878 17.4333 23.1864 17.2518 23.1852ZM18.7871 23.2411C18.7078 23.2396 18.7304 23.6424 18.8095 23.6679C19.2669 23.8131 19.6371 24.2479 19.9422 24.9962C20.0429 25.243 20.0568 25.2295 20.0099 24.9323C19.8797 24.1096 19.2587 23.2494 18.7871 23.2411ZM17.5814 23.6687L17.4049 23.9944C17.308 24.1734 17.0917 24.5605 16.9245 24.8549L16.6211 25.3904L16.6784 25.6604C16.9601 26.9786 16.6851 28.6513 15.6996 31.67C15.2747 32.9679 15.1922 33.2568 15.0429 33.983C14.8365 34.986 14.4619 36.4305 14.3823 36.5291C14.2301 36.7174 14.051 36.499 14.1288 36.2203C14.3587 35.3973 14.5008 34.8375 14.5966 34.3772C14.8033 33.3842 14.9685 32.774 15.3463 31.6128C16.2493 28.8375 16.3962 28.1633 16.3964 26.7872C16.3964 25.7346 16.3956 25.7328 16.0892 26.1945C15.9605 26.3885 15.7352 26.7032 15.5888 26.8936C15.3666 27.1821 15.2916 27.3158 15.1358 27.6983C14.7835 28.563 14.4535 29.2573 13.2584 31.6433C11.313 35.5274 10.8314 36.6855 10.5981 38.0433C10.5408 38.3782 10.6721 43.0011 10.7425 43.1149C10.797 43.2028 11.0773 43.1342 11.3287 42.9714C12.3863 42.2874 14.4697 39.7034 16.3535 36.7386L16.7142 36.1705L17.046 31.3762C17.2282 28.7391 17.4139 26.0266 17.4595 25.3481C17.5052 24.6696 17.5517 24.0144 17.5621 23.8919L17.5814 23.6687ZM17.9403 23.8012C17.9359 23.8015 17.9337 23.8025 17.927 23.8041C17.9226 23.8084 17.7959 25.5993 17.6459 27.7839C17.4959 29.9686 17.3636 31.8619 17.3521 31.9914L17.3321 32.2264L17.4428 32.1475C17.9626 31.7773 18.2976 31.1664 18.6908 29.8695L18.8106 29.4737L18.7445 29.345C18.6603 29.1805 18.453 29.0367 18.1644 28.9434C17.9449 28.8724 17.9365 28.8655 17.9263 28.747C17.891 28.3356 18.8485 28.7255 19.0792 29.2163C19.1612 29.3909 19.9817 34.2395 20.5057 37.6492C20.5724 38.0827 20.6349 38.4877 20.6455 38.5491C20.6611 38.6437 20.6944 38.6762 20.8597 38.7603C20.9673 38.8148 21.1167 38.9054 21.1921 38.9612C21.2677 39.017 21.3323 39.0601 21.3355 39.0578C21.3377 39.0555 21.1728 37.6042 20.9665 35.8329C20.7601 34.0615 20.5408 32.1729 20.4787 31.6358C20.3922 30.89 20.3725 30.6182 20.396 30.4874C20.6815 28.8945 20.0135 27.5921 18.9115 27.5921C18.6856 27.5921 18.6051 27.5432 18.6051 27.4061C18.6051 27.2498 18.6933 27.1999 18.9182 27.2298L19.0848 27.2522V27.1495C19.0848 26.6603 18.5928 24.2461 18.4362 23.9663C18.4138 23.9269 18.0137 23.7963 17.9403 23.8012ZM18.8569 24.1056C18.8436 24.1054 18.8503 24.1202 18.8592 24.1528C19.0365 24.6123 19.4275 26.6384 19.4275 27.0989C19.4275 27.2711 19.4741 27.3868 19.5441 27.3868C19.6057 27.3868 20.0782 27.6989 20.1645 27.7965L20.2329 27.8738L20.2618 27.6731C20.2774 27.5627 20.2818 27.3179 20.2729 27.1294C20.2505 26.7307 20.1887 26.4672 20.0473 26.1744C19.9913 26.059 19.8544 25.7317 19.7424 25.4471C19.3795 24.5238 19.2398 24.2999 18.9199 24.1319C18.8875 24.1148 18.8667 24.1057 18.8569 24.1056ZM22.4166 26.6752C22.401 26.6751 22.3966 26.6767 22.3941 26.6801C22.3679 26.7202 21.9991 27.3307 21.5738 28.0368L20.8001 29.3204V29.6544C20.8001 29.8381 20.7824 30.1436 20.7628 30.3335C20.7259 30.6725 20.9855 33.3925 21.07 33.5525C21.0991 33.6067 21.3031 33.6906 21.3809 33.6804C21.4071 33.677 21.7745 33.0883 22.1954 32.3722C22.6163 31.6561 22.9776 31.0361 22.9985 30.9947C23.0289 30.9341 23.0209 30.8881 22.9598 30.7568C22.862 30.5486 22.8805 30.3486 23.0067 30.2479C23.0705 30.1972 23.0847 30.1651 23.0611 30.1274C22.9887 30.0129 23.0229 29.8172 23.1333 29.714C23.2327 29.6211 23.2365 29.6084 23.1994 29.4954C23.0756 29.1208 23.4607 28.9057 23.9312 29.0862C23.9739 29.1027 23.987 29.0864 23.987 29.0164C23.987 28.8276 24.1725 28.6199 24.3417 28.6199C24.3871 28.6199 25.0492 27.5388 25.0492 27.4649C25.0492 27.3807 22.6802 26.6768 22.4166 26.6752ZM20.6286 27.1762V27.3868C20.6286 27.5027 20.6108 27.7423 20.5904 27.9193C20.5528 28.2371 20.6568 28.8139 20.7364 28.7306C20.752 28.7169 20.8864 28.498 21.0406 28.2436L21.3212 27.781L21.075 27.5495C20.9393 27.4224 20.7832 27.2867 20.7283 27.2477L20.6286 27.1762ZM25.3009 27.755L25.066 28.1617C24.9371 28.3856 24.8018 28.6125 24.7647 28.6659L24.6978 28.7635L24.8638 28.9316C24.9554 29.0242 25.0331 29.0996 25.0378 29.0996C25.0423 29.0996 25.1474 28.9291 25.2707 28.7202C25.5309 28.2793 25.5219 28.3297 25.3978 28.0071L25.3009 27.755ZM14.6658 27.9148C14.6658 27.8939 13.7823 28.6113 13.3301 28.9993C11.7456 30.3583 11.4318 30.8744 10.8326 33.1091C10.7189 33.5332 10.5547 34.1193 10.4674 34.4115C10.0982 35.6474 10.0307 36.3686 10.2069 37.1849C10.3071 37.6488 10.3131 37.6541 10.3891 37.3546C10.4247 37.2151 10.5249 36.885 10.6115 36.6212C10.9929 35.4624 11.3387 34.695 12.761 31.8582C13.3847 30.6143 13.9928 29.3923 14.1118 29.1419C14.328 28.6867 14.6658 27.938 14.6658 27.9148ZM24.3697 28.9833C24.3653 28.9832 24.3631 28.9841 24.3631 28.9864C24.2928 29.0564 24.3586 29.1776 24.6569 29.5279C24.9641 29.8894 24.9833 29.9305 24.8925 30.0307C24.7836 30.1508 24.6932 30.1099 24.4521 29.8284C24.18 29.5107 23.466 29.1896 23.5567 29.426C23.5701 29.4562 23.6903 29.5333 23.8283 29.597C24.1987 29.7681 24.6972 30.4085 24.5847 30.5691C24.482 30.7159 24.366 30.6663 24.1466 30.381C23.9806 30.1655 23.91 30.1038 23.7367 30.0218C23.3451 29.8365 23.296 29.8996 23.6001 30.1988C23.7923 30.3878 24.1226 30.8185 24.2307 31.0205C24.4263 31.3859 24.0165 31.327 23.7659 30.9536C23.6162 30.731 23.5223 30.6277 23.417 30.5699C23.2081 30.4553 23.2044 30.5036 23.3993 30.8035C23.8704 31.5303 23.9376 31.7067 23.8186 31.9019C23.7179 32.067 23.7268 32.0786 23.8855 31.9964C24.0517 31.9105 24.2409 31.6597 24.4849 31.2022C24.614 30.96 24.7643 30.696 24.8196 30.6153C25.0894 30.2209 25.1562 29.9141 25.0258 29.6655C24.9187 29.4615 24.4586 28.9852 24.3735 28.9832L24.3697 28.9833ZM18.9484 30.2725C18.9477 30.2588 18.8578 30.4946 18.7482 30.7961C18.4135 31.7212 17.9185 32.3608 17.3166 32.6443C17.3143 32.6458 17.2861 33.0015 17.2563 33.435C17.2263 33.8685 17.1172 35.4487 17.0132 36.947C16.6218 42.5972 16.5163 44.1415 16.5163 44.2246V44.3102L16.7477 44.1697C16.8748 44.0923 17.2495 43.8829 17.5793 43.7047C18.3455 43.2905 18.7954 43.0274 19.8693 42.3653L20.7373 41.8297L20.7173 41.5985C20.6413 40.729 20.0256 36.7446 19.2401 32.0374C19.0801 31.0805 18.9491 30.2861 18.9484 30.2725ZM23.2825 31.2922C23.25 31.286 22.9725 31.7316 22.427 32.6636C21.5341 34.1891 21.5811 34.1319 21.2914 34.0322L21.1025 33.9675L21.1225 34.1468C21.1685 34.5206 21.1487 34.4962 21.4594 34.5923C21.6138 34.6403 21.7493 34.6807 21.7599 34.6822C21.7732 34.6841 21.8886 34.4965 22.0224 34.2656C22.1566 34.0348 22.5461 33.3682 22.8883 32.7842L23.5107 31.7228L23.4156 31.5234C23.3631 31.4138 23.3027 31.3092 23.2825 31.2922C23.2832 31.2922 23.2821 31.2919 23.2825 31.2922ZM22.7267 33.8217C22.6932 33.824 22.5836 34.0084 22.3668 34.3772C21.9153 35.146 21.9567 35.1164 21.5167 34.9774C21.1727 34.8687 21.2006 34.8118 21.2801 35.458C21.317 35.7584 21.3476 36.0089 21.3478 36.0143C21.3486 36.0323 21.5009 35.944 21.6951 35.8128C22.144 35.5095 22.4722 34.9992 22.6293 34.3601C22.7179 33.9996 22.7605 33.8194 22.7267 33.8217ZM16.6319 36.9933C16.6119 36.9929 16.5668 37.0668 16.4919 37.1865C16.0545 37.8868 15.0602 39.311 14.4867 40.058L14.216 40.4107L13.908 41.6341C12.4112 47.5776 11.5302 49.9705 10.7695 50.1614C10.5669 50.2122 10.4829 49.9119 10.6749 49.8243C11.0969 49.632 11.7634 48.1249 12.3914 45.9419C12.5325 45.4519 12.6551 45.03 12.6635 45.0048C12.6746 44.9789 12.6373 44.9916 12.5851 45.0332C12.1541 45.3687 11.2938 45.8223 11.0885 45.8223C10.8734 45.8223 10.8771 45.5666 11.0929 45.4742C11.9704 45.0997 12.5777 44.6677 12.8266 44.2403C12.8966 44.1202 13.3252 42.5427 13.6588 41.1789C13.6788 41.0969 13.6544 41.1243 13.0846 41.7807C12.0723 42.95 11.3883 43.4637 10.8406 43.4652L10.6311 43.4659L10.5415 43.8817C10.1076 45.9056 10.0991 48.3849 10.5191 50.6038C10.696 51.5383 10.7557 51.5737 11.521 51.2077L12.0096 50.9743L12.3807 50.0341C13.0702 48.2895 13.3937 47.9645 15.4702 46.9266C16.3892 46.4673 17.4392 45.9023 17.5231 45.8215C17.5864 45.7605 17.5793 45.7543 17.2597 45.605C16.8112 45.3954 16.2967 45.0879 16.2103 44.9781C16.119 44.8622 16.1185 44.7495 16.2059 43.489C16.2432 42.9533 16.3429 41.5052 16.4282 40.2707C16.5133 39.0363 16.5982 37.8175 16.6171 37.562C16.6434 37.2183 16.6567 37.0503 16.6396 37.0057C16.6374 36.9973 16.6353 36.9934 16.6265 36.9932L16.6319 36.9933ZM20.788 39.1249C20.7702 39.1233 20.7618 39.1339 20.7564 39.1605C20.7431 39.2313 20.7742 39.4183 20.8329 39.8105C20.9296 40.4681 21.0427 41.3249 21.091 41.7681L21.1135 41.98L20.9395 42.105L20.7648 42.2305L20.7655 42.4753C20.7655 42.6102 20.7766 42.8476 20.7855 43.0027L20.808 43.2853L20.8975 43.2629C20.9464 43.2509 21.07 43.213 21.172 43.1782C21.3735 43.1095 21.642 42.95 21.7425 42.839C21.8269 42.7455 21.774 42.007 21.6065 40.9557C21.542 40.5505 21.4702 40.0893 21.4474 39.9301C21.3998 39.6023 21.2738 39.426 20.9304 39.2057C20.8615 39.1615 20.816 39.1271 20.788 39.1249ZM20.4027 42.4692C20.3827 42.4719 20.1507 42.6076 19.873 42.778L19.3523 43.0978L19.37 43.3493C19.4082 43.8547 19.568 44.046 19.9887 44.09C20.1179 44.1035 20.2803 44.1343 20.3489 44.1584C20.4175 44.1826 20.4762 44.2005 20.4797 44.1978C20.482 44.1951 20.4664 43.8082 20.4493 43.3373C20.4293 42.8663 20.4083 42.4756 20.4027 42.4692C20.4031 42.4692 20.4025 42.4691 20.4027 42.4692ZM18.9967 43.3202C18.99 43.3202 18.7703 43.4443 18.5088 43.5955L18.0336 43.8707L18.0136 44.0285C18.0002 44.1154 17.9911 44.435 17.9874 44.7387C17.9807 46.1143 18.0654 45.9959 16.4975 46.7945L16.0498 47.022L15.9734 47.887C15.7814 50.0424 15.4944 51.8663 15.1664 53.0092L15.0555 53.3945H17.0554H19.0546L19.0346 52.8553C18.9877 51.7111 19.1572 48.881 19.4705 45.5776L19.5796 44.4248L19.3907 44.2412C19.1863 44.0418 19.0764 43.8107 19.0345 43.4952C19.0212 43.3994 19.0052 43.3202 18.999 43.3202L18.9967 43.3202ZM21.2875 43.5084C21.283 43.5085 21.2786 43.5086 21.2741 43.5091C21.2313 43.5147 21.1722 43.5429 21.0897 43.5672L20.824 43.6453L20.8464 44.4167C20.8598 44.841 20.8996 45.8042 20.9365 46.5571C20.9731 47.3101 21.0033 47.9996 21.0033 48.0901C21.0033 48.3003 21.0258 48.2974 21.2442 48.058C21.5479 47.7221 21.5513 47.7069 21.5149 46.8331C21.4971 46.4184 21.4602 45.5022 21.4324 44.7975C21.3898 43.7156 21.4039 43.5054 21.2875 43.5084ZM17.6477 44.0686L17.3478 44.23C16.3903 44.7463 16.3873 44.7631 17.1953 45.1797L17.5962 45.3857L17.6187 45.2184C17.632 45.1263 17.6411 44.8297 17.6449 44.5594L17.6477 44.0686ZM19.9249 44.4441L19.7958 45.8438C19.5132 48.899 19.4268 50.2483 19.4046 51.9643L19.3868 53.3945H20.2511H21.1162L21.0962 53.2323C21.0655 52.988 20.7784 49.6767 20.7183 48.8718C20.6579 48.0608 20.5283 45.5536 20.5257 45.1315C20.5234 44.6549 20.4172 44.491 20.0927 44.4598L19.9249 44.4441ZM15.6566 47.2264C15.5898 47.2264 14.6669 47.7464 14.2888 47.9971C13.4823 48.5316 13.2259 48.8517 12.866 49.7709C12.6582 50.3017 11.6258 52.8235 11.4492 53.2323L11.3787 53.3953L13.0284 53.3866L14.6772 53.3775L14.7583 53.138C14.9192 52.6641 15.0959 51.8834 15.2469 50.9789C15.4109 49.9985 15.7135 47.2264 15.6566 47.2264ZM10.3596 51.4443L9.9408 52.3704C9.71067 52.8796 9.51412 53.3187 9.50352 53.3463C9.48574 53.3895 9.58883 53.395 10.2458 53.387L11.0066 53.3775L11.397 52.4404C11.6117 51.9248 11.7876 51.4968 11.7876 51.4891C11.7876 51.4816 11.6792 51.5294 11.5467 51.5962C11.009 51.867 10.7319 51.8669 10.4935 51.5962L10.3596 51.4443ZM8.2585 53.7715V54.406V55.0396H15.2491H22.2389V54.406V53.7715H15.2491L8.2585 53.7715ZM6.64819 55.3826V56.342V57.3015H15.2491H23.8498V56.342V55.3826H15.2491L6.64819 55.3826Z" fill="#0E1418"/>
</svg>
