<svg width="36" height="61" viewBox="0 0 36 61" fill="none" xmlns="http://www.w3.org/2000/svg">
<path d="M25.2117 46.5122H10.0963C7.32704 53.7814 4.78857 57.243 4.78857 57.243H11.4809C11.4809 53.5507 14.2501 50.5507 17.7117 50.5507C21.1732 50.5507 23.9424 53.5507 23.9424 57.243H30.4617C30.404 57.243 27.9232 53.7814 25.2117 46.5122Z" fill="#0E1418"/>
<path d="M21.8656 35.6084H22.4425V33.0122H21.2887H14.0194H12.6925V35.6661H13.3848C12.6925 38.493 11.9425 41.0314 11.1925 43.2814H10.1541V45.9353H10.2694H24.8656H25.0387V43.2814H23.9425C23.3079 40.9737 22.5579 38.4353 21.8656 35.6084ZM15.7502 42.7045L16.6733 37.0507H18.5771L19.6156 42.7045H15.7502Z" fill="#0E1418"/>
<path d="M21.1732 32.32C19.7885 25.8008 18.8078 17.8969 18.577 8.60847L19.3847 7.33924V6.1854L18.4039 5.20463L17.7116 1.80078L17.0193 5.20463L15.9808 6.1854V7.39694L16.8462 8.72386C16.6155 17.9546 15.577 25.8585 14.1924 32.3777H21.1732V32.32ZM16.7885 30.2431L17.4808 23.0315H17.827L18.6347 30.2431H16.7885Z" fill="#0E1418"/>
<path d="M25.7883 46.5122C25.7883 46.5122 28.0383 52.5122 31.1537 57.3007H33.2883L25.7883 46.5122Z" fill="#0E1418"/>
<path d="M9.46143 46.5122C9.46143 46.5122 7.21143 52.5122 4.09604 57.3007H1.96143L9.46143 46.5122Z" fill="#0E1418"/>
</svg>
