<svg width="43" height="40" viewBox="0 0 43 40" fill="none" xmlns="http://www.w3.org/2000/svg">
<path d="M20.2179 14.8387H13.7663C13.4101 14.8387 13.1211 15.1278 13.1211 15.4839V37.4194C13.1211 37.7762 13.4101 38.0646 13.7663 38.0646H20.2179C20.574 38.0646 20.863 37.7762 20.863 37.4194V15.4839C20.863 15.1278 20.574 14.8387 20.2179 14.8387Z" fill="black"/>
<path d="M38.2834 3.22583H4.735C4.37888 3.22583 4.08984 3.51486 4.08984 3.87099V37.4194C4.08984 37.7761 4.37888 38.0645 4.735 38.0645H11.1866C11.5427 38.0645 11.8318 37.7761 11.8318 37.4194V13.5484H31.1866V37.4194C31.1866 37.7761 31.475 38.0645 31.8318 38.0645H38.2834C38.6402 38.0645 38.9286 37.7761 38.9286 37.4194V3.87099C38.9286 3.51486 38.6402 3.22583 38.2834 3.22583ZM19.3847 8.19809L18.0944 9.48841C17.9686 9.61422 17.8034 9.67744 17.6382 9.67744C17.4731 9.67744 17.3079 9.61422 17.1821 9.48841L15.8918 8.19809C15.6395 7.94583 15.6395 7.53809 15.8918 7.28583C16.144 7.03357 16.5518 7.03357 16.804 7.28583L17.6382 8.12002L18.4724 7.28583C18.7247 7.03357 19.1324 7.03357 19.3847 7.28583C19.6369 7.53809 19.6369 7.94583 19.3847 8.19809ZM27.1266 9.48841C27.0008 9.61422 26.8356 9.67744 26.6705 9.67744C26.5053 9.67744 26.3402 9.61422 26.2144 9.48841L25.3802 8.65422L24.546 9.48841C24.2937 9.74067 23.886 9.74067 23.6337 9.48841C23.3815 9.23615 23.3815 8.82841 23.6337 8.57615L24.924 7.28583C25.1763 7.03357 25.584 7.03357 25.8363 7.28583L27.1266 8.57615C27.3789 8.82841 27.3789 9.23615 27.1266 9.48841ZM35.0576 24.5161C34.7008 24.5161 34.4124 24.2278 34.4124 23.871C34.4124 23.5142 34.7008 23.2258 35.0576 23.2258C35.4144 23.2258 35.7027 23.5142 35.7027 23.871C35.7027 24.2278 35.4144 24.5161 35.0576 24.5161ZM35.0576 21.9355C34.7008 21.9355 34.4124 21.6471 34.4124 21.2903C34.4124 20.9342 34.7008 20.6452 35.0576 20.6452C35.4144 20.6452 35.7027 20.9342 35.7027 21.2903C35.7027 21.6471 35.4144 21.9355 35.0576 21.9355Z" fill="black"/>
<path d="M29.253 14.8387H22.8014C22.4446 14.8387 22.1562 15.1278 22.1562 15.4839V37.4194C22.1562 37.7762 22.4446 38.0646 22.8014 38.0646H29.253C29.6098 38.0646 29.8982 37.7762 29.8982 37.4194V15.4839C29.8982 15.1278 29.6098 14.8387 29.253 14.8387Z" fill="black"/>
</svg>
