<svg width="35" height="40" viewBox="0 0 35 40" fill="none" xmlns="http://www.w3.org/2000/svg">
<path d="M1.46875 10.578V38.7641H32.8485V10.578H1.46875ZM29.7568 35.987H4.56044V13.3551H29.7573L29.7568 35.987Z" fill="black"/>
<path d="M1.46875 2.24719V9.32854H32.8485V2.24719H1.46875ZM10.355 6.96809H3.8292V4.67686H10.355V6.96809ZM16.4643 6.62068H14.7982V4.95461H16.4643V6.62068ZM23.8234 7.0818C23.1088 7.0818 22.529 6.50247 22.529 5.78787C22.529 5.07326 23.1088 4.49393 23.8234 4.49393C24.5375 4.49393 25.1173 5.07326 25.1173 5.78787C25.1173 6.50247 24.5375 7.0818 23.8234 7.0818ZM29.3775 7.0818C28.6629 7.0818 28.0831 6.50247 28.0831 5.78787C28.0831 5.07326 28.6629 4.49393 29.3775 4.49393C30.0917 4.49393 30.6714 5.07326 30.6714 5.78787C30.6714 6.50247 30.0912 7.0818 29.3775 7.0818Z" fill="black"/>
<path d="M6.05078 14.6045V20.2971H9.72629V18.7222L7.9582 16.1357H11.9739L10.2058 18.7222V20.2971H14.5213V18.7222L12.7533 16.1357H16.769L15.0009 18.7222V20.2971H19.3164V18.7222L17.5483 16.1357H21.5645L19.7955 18.7222V20.2971H24.1115V18.7222L22.3429 16.1357H26.3591L24.5906 18.7222V20.2971H28.2665V14.6045H6.05078Z" fill="black"/>
<path d="M6.05078 21.4081V26.9618H9.56853C8.68404 26.5775 8.06382 25.6975 8.06382 24.6706C8.06382 23.2908 9.18292 22.1712 10.5631 22.1712C11.9434 22.1712 13.0625 23.2903 13.0625 24.6706C13.0625 25.6971 12.4427 26.5771 11.5577 26.9618H16.2333C15.3488 26.5775 14.7285 25.6975 14.7285 24.6706C14.7285 23.2908 15.8472 22.1712 17.2279 22.1712C18.6085 22.1712 19.7272 23.2903 19.7272 24.6706C19.7272 25.6971 19.1074 26.5771 18.2229 26.9618H22.898C22.013 26.5775 21.3933 25.6975 21.3933 24.6706C21.3933 23.2908 22.5119 22.1712 23.8926 22.1712C25.2733 22.1712 26.3919 23.2903 26.3919 24.6706C26.3919 25.6971 25.7721 26.5771 24.8872 26.9618H28.2665V21.4081H6.05078Z" fill="black"/>
<path d="M9.24252 23.3519C9.24252 23.3519 7.92342 24.6014 9.24252 25.9901C9.24252 25.9901 8.57106 24.6935 9.24252 23.3519Z" fill="black"/>
<path d="M15.9066 23.3519C15.9066 23.3519 14.5875 24.6014 15.9066 25.9901C15.9066 25.9901 15.2351 24.6935 15.9066 23.3519Z" fill="black"/>
<path d="M22.5747 23.3519C22.5747 23.3519 21.2552 24.6014 22.5747 25.9901C22.5747 25.9901 21.9033 24.6935 22.5747 23.3519Z" fill="black"/>
<path d="M6.05078 28.0728V34.0432H10.0742C9.21572 33.511 8.58831 32.6405 8.3919 31.6135H15.6157C15.4193 32.6405 14.7919 33.5115 13.9335 34.0432H20.071C19.213 33.511 18.5852 32.6405 18.3888 31.6135H25.613C25.4162 32.6405 24.7883 33.5115 23.9303 34.0432H28.2661V28.0728H6.05078Z" fill="black"/>
</svg>
