<svg width="51" height="50" viewBox="0 0 51 50" fill="none" xmlns="http://www.w3.org/2000/svg">
<path fill-rule="evenodd" clip-rule="evenodd" d="M13.421 12.5027L11.1298 11.0721C10.7741 10.8522 10.346 10.7805 9.93781 10.8725H9.93501C9.52713 10.9602 9.16999 11.204 8.9403 11.5516L1.99633 22.1549C1.98683 22.1688 2.00583 22.1404 1.9818 22.1794C1.77089 22.5138 1.70021 22.9175 1.78499 23.3034C1.86978 23.6893 2.10324 24.0265 2.43501 24.2422L2.4596 24.2567L4.75078 25.6879C5.10723 25.9054 5.53424 25.977 5.94237 25.8875C6.3505 25.798 6.7081 25.5545 6.94026 25.2078L13.8826 14.6039L13.8971 14.5822C14.108 14.2478 14.1787 13.8441 14.0939 13.4582C14.0091 13.0723 13.7756 12.7351 13.4439 12.5194L13.4187 12.5049L13.421 12.5027ZM18.3655 38.1555L21.2714 33.6135L21.6698 32.9907L22.75 31.2981C22.9483 30.9848 23.0146 30.6062 22.9347 30.2444C22.8548 29.8826 22.635 29.5669 22.3231 29.3658C22.0091 29.1677 21.6295 29.1013 21.2668 29.1811C20.904 29.2609 20.5875 29.4803 20.3862 29.7917L20.3527 29.8441C20.2915 29.9977 20.2167 30.1454 20.1291 30.2857C20.1219 30.2963 20.1152 30.3069 20.1073 30.3175L16.6147 35.6863L16.5923 35.7203L16.0335 36.5939C16.0159 36.6282 15.9953 36.6608 15.972 36.6915C15.7944 36.9965 15.7382 37.3569 15.8143 37.7014C15.8905 38.0459 16.0936 38.3492 16.3833 38.5514C16.4139 38.5678 16.4432 38.5864 16.471 38.6071C16.7844 38.789 17.1559 38.8433 17.5084 38.7587C17.8608 38.6742 18.167 38.4574 18.3632 38.1533L18.3655 38.1555ZM15.497 34.8523L15.4467 34.9298C15.2415 35.2439 14.9201 35.4643 14.5526 35.543C14.2014 35.6224 13.8331 35.5665 13.5216 35.3864C13.4978 35.3688 13.4727 35.353 13.4467 35.339C13.1517 35.1399 12.946 34.8341 12.873 34.4864C12.8 34.1386 12.8655 33.7762 13.0555 33.4758L13.0656 33.4602L16.5538 28.0919C16.7597 27.779 17.081 27.5597 17.4479 27.4814C17.4646 27.478 17.4808 27.4736 17.4971 27.4691C17.8338 27.4049 18.1826 27.4643 18.4789 27.6364C18.5031 27.6534 18.5283 27.6691 18.5543 27.6832C18.7997 27.8489 18.9849 28.0892 19.0821 28.3684C19.1794 28.6476 19.1836 28.9507 19.0942 29.2325L15.497 34.8523ZM11.0225 28.8662C11.0085 28.8913 10.993 28.9155 10.9761 28.9387L10.1189 30.2795C9.92044 30.5926 9.85392 30.9712 9.93376 31.3329C10.0136 31.6947 10.2334 32.0104 10.5453 32.2113C10.8593 32.4092 11.2389 32.4754 11.6016 32.3956C11.9643 32.3157 12.2808 32.0962 12.4821 31.7848L14.5928 28.4843C14.7866 28.1791 14.8552 27.8111 14.7842 27.4568C14.7132 27.1025 14.5082 26.789 14.2117 26.5816C14.1812 26.565 14.1519 26.5463 14.124 26.5258C13.8106 26.3442 13.4391 26.2899 13.0866 26.3743C12.7342 26.4587 12.4278 26.6753 12.2312 26.9791L11.0247 28.8662H11.0225ZM23.2502 38.2988L23.0959 38.5408C22.8945 38.852 22.578 39.0714 22.2154 39.1513C21.8527 39.2311 21.4731 39.165 21.159 38.9673C20.8469 38.7665 20.627 38.4508 20.547 38.089C20.4671 37.7272 20.5336 37.3486 20.7321 37.0355L22.4443 34.3594L22.8428 33.7367C23.0394 33.4329 23.3457 33.2163 23.6982 33.1319C24.0506 33.0475 24.4221 33.1018 24.7355 33.2834C24.7632 33.3041 24.7923 33.3227 24.8227 33.3392C25.1198 33.5463 25.3255 33.8596 25.3971 34.214C25.4687 34.5685 25.4007 34.9368 25.2072 35.2425L23.2513 38.2977L23.2502 38.2988ZM31.827 22.2424C31.8581 22.2533 31.8883 22.2664 31.9176 22.2815C32.3932 22.4837 32.8836 22.6495 33.3845 22.7776C34.8061 23.1428 36.1971 23.1941 37.0263 22.8786C37.1984 22.8168 37.3879 22.8248 37.5541 22.901C37.7203 22.9772 37.8499 23.1154 37.915 23.2859C37.9801 23.4564 37.9755 23.6456 37.9022 23.8127C37.8289 23.9799 37.6928 24.1117 37.5231 24.1798C36.7479 24.4337 35.9289 24.5271 35.1163 24.4541L40.2653 27.9608C40.7341 27.6446 41.1804 27.2962 41.6009 26.9183C41.9966 26.5634 42.4141 26.2335 42.851 25.9304L35.9501 15.3945L35.9428 15.3828C35.9338 15.3711 35.926 15.3588 35.9176 15.346C35.8714 15.2717 35.8286 15.196 35.7891 15.1191C34.0506 15.7145 32.6737 15.5222 30.7597 15.254C29.9214 15.1375 28.9787 15.0048 27.8376 14.9234C24.6036 14.6915 22.8445 17.4411 21.1205 20.1356C20.4362 21.2712 19.665 22.3522 18.8136 23.3692C18.8704 23.508 18.9568 23.6328 19.0668 23.7349C20.4728 25.1343 21.6145 24.5009 22.6679 23.4472C23.0138 23.1016 23.3826 22.6784 23.7481 22.2592C24.9244 20.9111 26.0644 19.6037 27.5537 19.6751C27.9614 19.7289 28.3508 19.8771 28.6909 20.1077C29.11 20.3666 29.503 20.6653 29.8644 20.9997C30.4443 21.5223 31.1081 21.9439 31.8281 22.2469L31.827 22.2424ZM30.3059 36.8794L28.8178 35.9316C28.7407 35.8826 28.6547 35.8493 28.5647 35.8334C28.4748 35.8176 28.3825 35.8196 28.2933 35.8393C28.2041 35.8591 28.1197 35.8961 28.0449 35.9484C27.97 36.0007 27.9062 36.0671 27.8571 36.144C27.808 36.2209 27.7746 36.3067 27.7587 36.3964C27.7429 36.4862 27.7449 36.5782 27.7646 36.6672C27.7844 36.7562 27.8216 36.8404 27.874 36.9151C27.9264 36.9898 27.993 37.0534 28.07 37.1024L29.5616 38.0502C29.9748 38.3054 30.2842 38.6982 30.435 39.1591C30.504 39.3378 30.5299 39.5303 30.5106 39.7209C30.4914 39.9115 30.4275 40.0949 30.3242 40.2564C30.2209 40.4179 30.0811 40.5529 29.9159 40.6506C29.7507 40.7483 29.5648 40.8059 29.3732 40.8188C28.8899 40.8765 28.4018 40.7618 27.9952 40.4949L24.7964 38.4588L26.3774 35.9868C26.7739 35.3635 26.9069 34.6089 26.7473 33.888C26.5877 33.1672 26.1485 32.5386 25.5257 32.14C25.1014 31.8694 24.6113 31.7191 24.108 31.7051C24.381 31.1051 24.4327 30.4281 24.2538 29.7937C24.075 29.1594 23.6771 28.6085 23.1306 28.2385C23.0919 28.2077 23.0501 28.181 23.006 28.1588C22.393 27.7915 21.662 27.6731 20.964 27.8282C20.7791 27.8691 20.5988 27.9285 20.4259 28.0054C20.2364 27.387 19.8343 26.8552 19.2903 26.5035C19.2803 26.4963 19.2696 26.489 19.2585 26.4823C18.6513 26.102 17.9214 25.9676 17.2182 26.1066C17.1947 26.1066 17.1718 26.1132 17.1483 26.1183C16.7258 26.2108 16.3301 26.3986 15.9916 26.6674C15.7738 26.1398 15.3981 25.692 14.9158 25.3851C14.291 24.9895 13.5345 24.8569 12.8118 25.0163C12.0892 25.1757 11.4593 25.6143 11.0599 26.2359L10.2284 27.536C9.95904 27.342 9.68522 27.1458 9.37619 26.9345C9.00066 26.6741 8.58042 26.3903 8.05904 26.0463C8.07636 26.0218 8.09368 25.9962 8.11045 25.9705L15.05 15.3661C15.0622 15.3471 15.0539 15.3594 15.0645 15.3426C15.0751 15.3259 15.0762 15.3254 15.0818 15.3159C16.0761 15.8513 17.1011 16.3281 18.1514 16.7437C19.0372 17.115 19.9542 17.4986 20.8712 17.9635C20.5561 18.4307 20.2498 18.9113 19.9441 19.3868C19.2883 20.4793 18.5461 21.5177 17.7245 22.4922C17.5789 22.6516 17.4775 22.8462 17.4303 23.0567C17.3832 23.2673 17.3919 23.4864 17.4557 23.6925C17.5732 24.0826 17.7889 24.4361 18.0821 24.7195C20.3219 26.9495 22.0643 26.0151 23.6536 24.4268C24.0655 24.0148 24.436 23.5905 24.7992 23.1735C25.7492 22.0819 26.6741 21.0237 27.4861 21.0627C27.6565 21.1132 27.8175 21.1912 27.9627 21.2935C28.3004 21.501 28.6172 21.7403 28.9088 22.0083C29.5995 22.6339 30.3904 23.1395 31.2486 23.5041L40.1004 29.533C40.1155 29.5436 40.1306 29.5531 40.1463 29.562L40.1519 29.5654L40.1737 29.5782C40.564 29.8282 40.8546 30.2065 40.9951 30.6475C41.0562 30.8261 41.0783 31.0156 41.06 31.2034C41.0417 31.3911 40.9834 31.5729 40.889 31.7363L40.8822 31.7475L40.8789 31.753C40.7707 31.9095 40.6297 32.0407 40.4656 32.1374C40.3016 32.2341 40.1185 32.2942 39.9289 32.3133C39.4509 32.3712 38.9677 32.2586 38.5648 31.9956L38.5559 31.99L32.7999 28.2959C32.6443 28.1963 32.4554 28.1623 32.2747 28.2017C32.094 28.241 31.9364 28.3503 31.8365 28.5055C31.7366 28.6608 31.7027 28.8493 31.7421 29.0295C31.7815 29.2098 31.891 29.367 32.0466 29.4667L36.5636 32.3658C36.9057 32.587 37.1545 32.9259 37.2627 33.318C37.3057 33.497 37.3118 33.6829 37.2808 33.8644C37.2498 34.0459 37.1822 34.2192 37.0822 34.3739C37.0705 34.3918 37.0599 34.4096 37.0498 34.4297C36.9406 34.5754 36.8024 34.6969 36.6438 34.7868C36.4852 34.8766 36.3097 34.9326 36.1283 34.9515C35.6451 35.0087 35.1571 34.894 34.7503 34.6276L33.7891 34.0143C33.7762 34.0043 33.7628 33.9948 33.7494 33.9859C33.7281 33.9715 33.7059 33.9585 33.6829 33.9469L30.8608 32.1455C30.7052 32.0466 30.5166 32.0134 30.3364 32.0533C30.1563 32.0931 29.9994 32.2027 29.9002 32.358C29.801 32.5132 29.7678 32.7014 29.8077 32.8811C29.8476 33.0609 29.9575 33.2174 30.1131 33.3163L32.9352 35.1132L32.9754 35.1416C32.995 35.1544 33.0151 35.1667 33.0352 35.1773C33.4259 35.4321 33.7179 35.8123 33.8628 36.255C33.9255 36.435 33.948 36.6266 33.9287 36.8162C33.9094 37.0058 33.8487 37.1889 33.7511 37.3527C33.6434 37.5098 33.5026 37.6415 33.3384 37.7385C33.1743 37.8354 32.9909 37.8954 32.8011 37.9141C32.3366 37.9699 31.867 37.8659 31.4699 37.6192C31.4382 37.5955 31.4045 37.5745 31.3694 37.5562L30.3076 36.8816L30.3059 36.8794ZM39.868 11.1C40.2244 10.8824 40.6514 10.8108 41.0596 10.9003C41.4677 10.9898 41.8253 11.2334 42.0575 11.58L49.0037 22.1817C49.0087 22.19 49.0132 22.1984 49.0182 22.2062C49.2291 22.5406 49.2998 22.9443 49.215 23.3302C49.1302 23.7161 48.8968 24.0533 48.565 24.269C48.5516 24.2779 48.5795 24.2595 48.5404 24.2835L46.2492 25.7141C45.8929 25.932 45.4659 26.0038 45.0577 25.9144C44.6495 25.825 44.2918 25.5814 44.0597 25.2346L37.1174 14.6324L37.1029 14.6078C36.892 14.2735 36.8213 13.8698 36.9061 13.4839C36.9909 13.0979 37.2243 12.7608 37.5561 12.545C37.5695 12.5367 37.5416 12.5551 37.5807 12.5306L39.868 11.1Z" fill="#0E1418"/>
</svg>
