<svg width="100" height="109" viewBox="0 0 100 109" fill="none" xmlns="http://www.w3.org/2000/svg">
<path d="M37.549 96.5018C38.0582 95.0709 37.3111 93.4982 35.8802 92.9889C34.4493 92.4797 32.8766 93.2268 32.3674 94.6577C31.8581 96.0886 32.6053 97.6613 34.0361 98.1706C35.467 98.6798 37.0398 97.9327 37.549 96.5018Z" fill="#0E1418"/>
<path d="M22.7287 96.494C23.2379 95.0631 22.4908 93.4904 21.0599 92.9811C19.629 92.4719 18.0563 93.219 17.547 94.6499C17.0378 96.0808 17.7849 97.6535 19.2158 98.1628C20.6467 98.672 22.2194 97.9249 22.7287 96.494Z" fill="#0E1418"/>
<path d="M52.592 96.503C53.1012 95.0721 52.354 93.4994 50.9232 92.9902C49.4923 92.4809 47.9195 93.2281 47.4103 94.6589C46.9011 96.0898 47.6482 97.6626 49.0791 98.1718C50.51 98.681 52.0827 97.9339 52.592 96.503Z" fill="#0E1418"/>
<path d="M67.4123 96.5008C67.9215 95.0699 67.1744 93.4972 65.7435 92.988C64.3126 92.4787 62.7399 93.2259 62.2306 94.6567C61.7214 96.0876 62.4685 97.6604 63.8994 98.1696C65.3303 98.6788 66.903 97.9317 67.4123 96.5008Z" fill="#0E1418"/>
<path d="M82.4552 96.492C82.9645 95.0612 82.2173 93.4884 80.7865 92.9792C79.3556 92.4699 77.7828 93.2171 77.2736 94.648C76.7644 96.0788 77.5115 97.6516 78.9424 98.1608C80.3733 98.67 81.946 97.9229 82.4552 96.492Z" fill="#0E1418"/>
<path d="M50.0013 1.66992C41.6509 1.66992 33.4881 4.14608 26.5451 8.78527C19.6021 13.4245 14.1906 20.0183 10.9951 27.733C7.79954 35.4477 6.96345 43.9368 8.59251 52.1266C10.2216 60.3165 14.2426 67.8394 20.1472 73.744C26.0518 79.6485 33.5747 83.6696 41.7646 85.2987C49.9544 86.9277 58.4435 86.0917 66.1582 82.8961C73.8729 79.7006 80.4667 74.2891 85.1059 67.3461C89.7451 60.4031 92.2213 52.2402 92.2213 43.8899C92.208 32.6965 87.7556 21.9654 79.8407 14.0505C71.9258 6.13557 61.1946 1.68315 50.0013 1.66992ZM27.7913 73.7299C31.6139 71.0801 35.8818 69.1393 40.3913 67.9999C41.0623 67.832 41.6588 67.4466 42.0875 66.9038C42.5163 66.3611 42.7532 65.6916 42.7613 64.9999V58.2899C42.7613 57.4646 42.4947 56.6614 42.0013 55.9999C40.344 53.5984 39.3128 50.821 39.0013 47.9199C38.9665 47.5731 38.8596 47.2373 38.6874 46.9342C38.5152 46.6311 38.2815 46.3674 38.0013 46.1599C37.1425 45.563 36.4405 44.7677 35.9548 43.8416C35.4691 42.9154 35.214 41.8857 35.2113 40.8399C35.2091 40.6941 35.2373 40.5495 35.2941 40.4152C35.351 40.2809 35.4351 40.1599 35.5413 40.0599C35.6474 39.9578 35.7728 39.8777 35.9101 39.8245C36.0475 39.7713 36.194 39.7459 36.3413 39.7499C37.0153 39.7696 37.6697 39.5215 38.1613 39.0599C38.4035 38.8303 38.5973 38.5545 38.7313 38.2488C38.8653 37.9431 38.9367 37.6137 38.9413 37.2799L39.0013 30.9999C38.9928 29.6318 39.2439 28.2745 39.7413 26.9999C41.2613 23.2699 45.0913 19.2499 49.9213 19.2499H50.8013V21.0999C50.7993 21.7124 51.0222 22.3043 51.4278 22.7633C51.8333 23.2223 52.3932 23.5164 53.0013 23.5899C54.5102 23.8173 55.9554 24.3561 57.2448 25.1721C58.5343 25.9881 59.6399 27.0635 60.4913 28.3299C61.2215 29.3507 61.6132 30.5748 61.6113 31.8299V37.2699C61.6113 37.933 61.8747 38.5688 62.3435 39.0377C62.8123 39.5065 63.4482 39.7699 64.1113 39.7699C64.4047 39.7725 64.6851 39.8912 64.8913 40.0999C64.9909 40.1996 65.0696 40.3182 65.1228 40.4487C65.176 40.5792 65.2027 40.719 65.2013 40.8599C65.1979 41.885 64.9525 42.8948 64.4851 43.8071C64.0176 44.7194 63.3413 45.5084 62.5113 46.1099C62.2334 46.3151 62.0011 46.5757 61.829 46.8752C61.6569 47.1747 61.5487 47.5065 61.5113 47.8499C61.211 50.8376 60.1431 53.6969 58.4113 56.1499C57.9042 56.8176 57.627 57.6315 57.6213 58.4699V65.0799C57.6292 65.7672 57.8625 66.4328 58.2852 66.9747C58.7079 67.5166 59.2967 67.9049 59.9613 68.0799C64.3347 69.2299 68.4736 71.1352 72.1913 73.7099C65.7749 78.499 57.9828 81.0863 49.9763 81.0863C41.9698 81.0863 34.1776 78.499 27.7613 73.7099L27.7913 73.7299ZM76.1213 70.3699L76.0013 70.3099C71.9468 67.3365 67.4105 65.0836 62.5913 63.6499V58.8499C64.5343 56.0398 65.8038 52.8199 66.3013 49.4399C67.5148 48.3613 68.4868 47.0385 69.1537 45.5582C69.8206 44.078 70.1674 42.4735 70.1713 40.8499C70.1759 40.0508 70.0208 39.2587 69.7152 38.5203C69.4095 37.7819 68.9594 37.112 68.3913 36.5499C67.8681 36.0277 67.2549 35.6042 66.5813 35.2999V31.8299C66.5902 29.5167 65.8616 27.2609 64.5013 25.3899C62.3913 22.3444 59.3209 20.0945 55.7813 18.9999V16.7699C55.7813 16.1069 55.5179 15.471 55.049 15.0022C54.5802 14.5333 53.9443 14.2699 53.2813 14.2699H49.9013C42.7213 14.2699 37.2913 19.7299 35.0913 25.1299C34.365 26.9806 33.9951 28.9519 34.0013 30.9399V35.2399C33.2615 35.517 32.5823 35.9347 32.0013 36.4699C31.4089 37.0346 30.9384 37.7144 30.6185 38.4676C30.2986 39.2209 30.1362 40.0316 30.1413 40.8499C30.141 42.5057 30.4982 44.142 31.1885 45.647C31.8789 47.1519 32.8861 48.4901 34.1413 49.5699C34.6274 52.8327 35.8444 55.9434 37.7013 58.6699V63.5399C32.773 64.976 28.1357 67.2675 24.0013 70.3099L23.9313 70.3699C18.6686 65.1877 15.0667 58.557 13.584 51.3215C12.1013 44.086 12.8047 36.573 15.6049 29.7385C18.405 22.9041 23.1752 17.0572 29.3084 12.942C35.4416 8.82686 42.6604 6.62945 50.0463 6.62945C57.4321 6.62945 64.651 8.82686 70.7842 12.942C76.9173 17.0572 81.6875 22.9041 84.4877 29.7385C87.2878 36.573 87.9913 44.086 86.5085 51.3215C85.0258 58.557 81.4239 65.1877 76.1613 70.3699H76.1213Z" fill="#0E1418"/>
</svg>
