<svg width="30" height="32" viewBox="0 0 30 32" fill="none" xmlns="http://www.w3.org/2000/svg">
<g clip-path="url(#clip0_62_160)">
<path d="M29.6898 28.1093L28.2884 27.175C28.2373 27.1405 28.18 27.1164 28.1196 27.1041C28.0592 27.0919 27.997 27.0917 27.9366 27.1036C27.8761 27.1155 27.8186 27.1392 27.7674 27.1734C27.7162 27.2076 27.6722 27.2516 27.638 27.3028C27.6038 27.3541 27.5801 27.4116 27.5683 27.472C27.5564 27.5325 27.5566 27.5947 27.5689 27.6551C27.5812 27.7154 27.6053 27.7728 27.6398 27.8238C27.6743 27.8748 27.7186 27.9185 27.7701 27.9523L27.8878 28.0308H24.0584V10.7452C24.0582 10.4975 23.9597 10.26 23.7845 10.0848C23.6094 9.90963 23.3718 9.81112 23.1241 9.8109H20.7884C20.5406 9.81112 20.3031 9.90963 20.1279 10.0848C19.9528 10.26 19.8543 10.4975 19.854 10.7452V28.0308H18.9197V14.9498C18.9195 14.7021 18.821 14.4646 18.6458 14.2894C18.4707 14.1142 18.2332 14.0157 17.9854 14.0155H15.6497C15.4019 14.0157 15.1644 14.1142 14.9893 14.2894C14.8141 14.4646 14.7156 14.7021 14.7154 14.9498V28.0308H13.7811V19.1544C13.7808 18.9067 13.6823 18.6692 13.5071 18.4941C13.332 18.3189 13.0945 18.2204 12.8467 18.2201H10.511C10.2633 18.2204 10.0258 18.3189 9.85061 18.4941C9.67545 18.6692 9.57693 18.9067 9.57667 19.1544V28.0308H8.64236V23.1255C8.64214 22.8777 8.54364 22.6402 8.36847 22.4651C8.1933 22.2899 7.95578 22.1914 7.70806 22.1912H5.37229C5.12457 22.1914 4.88705 22.2899 4.71188 22.4651C4.53671 22.6402 4.43821 22.8777 4.43798 23.1255V28.0308H1.86864V2.01025L1.9471 2.12798C2.0167 2.22999 2.12349 2.30067 2.24459 2.32489C2.36568 2.3491 2.49145 2.32492 2.59492 2.25752C2.698 2.18879 2.76956 2.08193 2.79386 1.96045C2.81816 1.83896 2.7932 1.7128 2.72449 1.60972L1.79018 0.208023C1.74752 0.144033 1.68972 0.0915649 1.62192 0.055276C1.55411 0.0189871 1.47839 0 1.40149 0C1.32458 0 1.24886 0.0189871 1.18106 0.055276C1.11325 0.0915649 1.05545 0.144033 1.01279 0.208023L0.0784865 1.60972C0.00988535 1.71281 -0.0149795 1.83891 0.00935639 1.96033C0.0336923 2.08174 0.105238 2.18853 0.208269 2.25721C0.311301 2.3259 0.437389 2.35087 0.558823 2.32664C0.680257 2.30241 0.787102 2.23095 0.855876 2.12798L0.934335 2.01025V28.4979C0.934318 28.5593 0.94639 28.62 0.96986 28.6767C0.993331 28.7334 1.02774 28.7849 1.07112 28.8283C1.11451 28.8717 1.16601 28.9061 1.2227 28.9296C1.27938 28.953 1.34014 28.9651 1.40149 28.9651H27.8878L27.7701 29.0438C27.719 29.0778 27.6752 29.1216 27.6411 29.1725C27.6069 29.2235 27.5832 29.2807 27.5711 29.3409C27.5591 29.401 27.559 29.463 27.5709 29.5231C27.5829 29.5833 27.6065 29.6406 27.6405 29.6916C27.7102 29.7936 27.817 29.8643 27.9381 29.8884C28.0592 29.9126 28.1849 29.8884 28.2884 29.8209L29.6898 28.8866C29.7538 28.844 29.8063 28.7862 29.8426 28.7184C29.8789 28.6506 29.8978 28.5749 29.8978 28.4979C29.8978 28.421 29.8789 28.3453 29.8426 28.2775C29.8063 28.2097 29.7538 28.1519 29.6898 28.1093Z" fill="#010205"/>
<path d="M5.3723 21.2564C5.49596 21.2563 5.61451 21.2072 5.70206 21.1198C5.7896 21.0325 5.839 20.9141 5.83946 20.7904C5.84025 20.6081 5.91086 16.3198 10.4484 16.3189C10.5707 16.3187 10.6881 16.2705 10.7754 16.1848C10.8627 16.0991 10.9129 15.9825 10.9153 15.8602C10.9158 15.8415 10.9687 13.9501 12.2378 12.9254C13.0331 12.2836 14.1609 12.0988 15.5915 12.3771C15.6573 12.3898 15.725 12.3883 15.7901 12.3726C15.8552 12.3569 15.9162 12.3274 15.9689 12.286C16.0216 12.2447 16.0648 12.1925 16.0956 12.133C16.1264 12.0735 16.144 12.0081 16.1473 11.9412C16.1483 11.9216 16.2627 9.96399 17.6157 8.92978C18.4656 8.28014 19.6474 8.11362 21.1278 8.4364C21.2392 8.46095 21.3559 8.44373 21.4555 8.38802C21.5551 8.33231 21.6308 8.24198 21.6683 8.13415C21.6745 8.11568 22.2938 6.42224 24.5439 6.16449C24.5213 6.24168 24.519 6.32343 24.5374 6.40175C24.5558 6.48007 24.5941 6.55228 24.6488 6.61135C24.7336 6.70119 24.8503 6.75412 24.9738 6.75872C25.0973 6.76333 25.2176 6.71926 25.3089 6.63599L26.2448 5.76737C26.3015 5.71476 26.3442 5.6489 26.3692 5.5757C26.3942 5.5025 26.4006 5.42425 26.3878 5.34797C26.3751 5.27169 26.3436 5.19976 26.2963 5.13863C26.2489 5.07751 26.1871 5.0291 26.1164 4.99775L24.9447 4.47837C24.8448 4.43384 24.7324 4.42586 24.6272 4.45583C24.522 4.4858 24.4307 4.55182 24.3692 4.64233C24.3078 4.73284 24.2801 4.84207 24.2911 4.95091C24.3021 5.05976 24.3509 5.16128 24.4292 5.23771C22.2896 5.48109 21.3166 6.792 20.9591 7.45145C19.3608 7.17338 18.0442 7.42202 17.0414 8.19278C15.8131 9.13622 15.4079 10.6034 15.276 11.3789C13.7853 11.1805 12.5653 11.4572 11.6445 12.2035C10.451 13.1713 10.1136 14.6563 10.0185 15.396C4.96537 15.6691 4.90515 20.7368 4.90515 20.7895C4.90521 20.9134 4.95445 21.0321 5.04205 21.1197C5.12965 21.2072 5.24845 21.2564 5.3723 21.2564Z" fill="#010205"/>
</g>
<defs>
<clipPath id="clip0_62_160">
<rect width="29.8978" height="32" fill="white"/>
</clipPath>
</defs>
</svg>
