<svg width="90" height="90" viewBox="0 0 90 90" fill="none" xmlns="http://www.w3.org/2000/svg">
<g clip-path="url(#clip0_983_4364)">
<path d="M28.3751 39.5183L31.8188 42.9554C32.3778 43.5212 33.1392 43.8422 33.9353 43.8478C34.7315 43.8533 35.4972 43.543 36.0641 42.985C36.631 42.4271 36.9526 41.6672 36.9582 40.8726C36.9638 40.078 36.6528 39.3137 36.0938 38.7479L32.6501 35.3107L36.0938 31.8736C36.5802 31.3067 36.8343 30.5776 36.8054 29.8319C36.7766 29.0861 36.4669 28.3787 35.9381 27.851C35.4094 27.3233 34.7007 27.0142 33.9535 26.9854C33.2063 26.9566 32.4758 27.2102 31.9079 27.6956L28.3751 31.1328L24.9313 27.6956C24.3634 27.2102 23.6328 26.9566 22.8857 26.9854C22.1385 27.0142 21.4298 27.3233 20.901 27.851C20.3723 28.3787 20.0626 29.0861 20.0337 29.8319C20.0049 30.5776 20.259 31.3067 20.7454 31.8736L24.2188 35.3107L20.7454 38.7479C20.3285 39.1605 20.0436 39.6873 19.9267 40.2616C19.8097 40.8359 19.866 41.4319 20.0885 41.9742C20.3109 42.5165 20.6895 42.9809 21.1763 43.3085C21.6631 43.6361 22.2364 43.8122 22.8235 43.8147C23.2142 43.817 23.6015 43.7422 23.9632 43.5948C24.3249 43.4473 24.6539 43.23 24.9313 42.9554L28.3751 39.5183Z" fill="#0E1418"/>
<path d="M69.2571 27.6955C68.7009 27.1436 67.9485 26.8338 67.1642 26.8338C66.3799 26.8338 65.6274 27.1436 65.0712 27.6955L61.6275 31.1326L58.1837 27.6955C57.9089 27.4153 57.5814 27.1919 57.2201 27.038C56.8587 26.8842 56.4705 26.8029 56.0777 26.7987C55.6849 26.7946 55.2951 26.8678 54.9305 27.014C54.566 27.1602 54.2339 27.3767 53.9532 27.651C53.3863 28.205 53.0632 28.9611 53.0548 29.753C53.0507 30.1451 53.124 30.5341 53.2705 30.8979C53.417 31.2618 53.6339 31.5932 53.9087 31.8734L57.3525 35.3105L53.9087 38.7477C53.3497 39.3017 53.0341 40.0547 53.0313 40.841C53.0285 41.6273 53.3388 42.3825 53.8939 42.9404C54.449 43.4984 55.2034 43.8134 55.9912 43.8162C56.779 43.8189 57.5356 43.5093 58.0946 42.9552L61.5384 39.5181L64.9821 42.9552C65.2595 43.2298 65.5885 43.4471 65.9502 43.5946C66.3119 43.742 66.6992 43.8168 67.09 43.8145C67.6771 43.8121 68.2503 43.6359 68.7371 43.3083C69.224 42.9807 69.6025 42.5164 69.825 41.974C70.0474 41.4317 70.1037 40.8357 69.9868 40.2614C69.8699 39.6871 69.585 39.1603 69.1681 38.7477L65.7837 35.3105L69.2275 31.8734C69.7843 31.3221 70.1001 30.5733 70.1056 29.7905C70.1112 29.0077 69.8061 28.2545 69.2571 27.6955Z" fill="#0E1418"/>
<path d="M44.9978 53.0891C40.8985 53.092 36.8621 54.0951 33.2401 56.0111C29.6181 57.9271 26.5203 60.6979 24.2165 64.0821C23.9619 64.4013 23.776 64.7697 23.6706 65.164C23.5652 65.5583 23.5426 65.97 23.6041 66.3735C23.6656 66.7769 23.81 67.1633 24.0281 67.5085C24.2462 67.8537 24.5334 68.1501 24.8717 68.3793C25.21 68.6085 25.5921 68.7655 25.994 68.8404C26.396 68.9153 26.8091 68.9066 27.2074 68.8147C27.6058 68.7228 27.9809 68.5498 28.3091 68.3065C28.6374 68.0632 28.9117 67.7548 29.115 67.4007C30.8764 64.8157 33.2444 62.6999 36.0127 61.2375C38.781 59.7752 41.8657 59.0107 44.9978 59.0107C48.1299 59.0107 51.2146 59.7752 53.9829 61.2375C56.7512 62.6999 59.1192 64.8157 60.8806 67.4007C61.1501 67.7987 61.5125 68.1253 61.9366 68.3524C62.3607 68.5796 62.8337 68.7004 63.315 68.7045C63.9152 68.6979 64.5015 68.5234 65.0072 68.2007C65.6567 67.7567 66.1029 67.0733 66.2477 66.3009C66.3924 65.5286 66.2239 64.7304 65.7791 64.0821C63.4753 60.6979 60.3776 57.9271 56.7555 56.0111C53.1335 54.0951 49.0971 53.092 44.9978 53.0891Z" fill="#0E1418"/>
<path d="M45 0.553955C36.1926 0.553955 27.5829 3.16066 20.2598 8.04445C12.9367 12.9282 7.22897 19.8697 3.85851 27.9912C0.488045 36.1126 -0.393823 45.0492 1.32443 53.6709C3.04267 62.2925 7.28386 70.2121 13.5117 76.4279C19.7395 82.6438 27.6742 86.8769 36.3124 88.5918C44.9506 90.3068 53.9044 89.4266 62.0414 86.0626C70.1784 82.6986 77.1332 77.0018 82.0264 69.6927C86.9196 62.3837 89.5313 53.7905 89.5313 44.9999C89.5313 33.2121 84.8396 21.9071 76.4884 13.5719C68.1371 5.23664 56.8104 0.553955 45 0.553955ZM45 83.5197C37.3669 83.5197 29.9052 81.2606 23.5585 77.028C17.2118 72.7953 12.2651 66.7794 9.34404 59.7408C6.42297 52.7022 5.65869 44.9572 7.14784 37.4851C8.63699 30.0129 12.3127 23.1494 17.7101 17.7623C23.1076 12.3752 29.9843 8.70652 37.4708 7.22023C44.9572 5.73393 52.7171 6.49675 59.7692 9.41223C66.8213 12.3277 72.8488 17.2649 77.0896 23.5994C81.3303 29.934 83.5938 37.3814 83.5938 44.9999C83.5938 55.216 79.5277 65.0137 72.2899 72.2375C65.0522 79.4614 55.2357 83.5197 45 83.5197Z" fill="#0E1418"/>
</g>
<defs>
<clipPath id="clip0_983_4364">
<rect width="89.0625" height="88.8919" fill="white" transform="translate(0.46875 0.553955)"/>
</clipPath>
</defs>
</svg>
