<svg id="ab3fe525-d453-47d8-91ef-044c7180bc24" xmlns="http://www.w3.org/2000/svg" xmlns:xlink="http://www.w3.org/1999/xlink" viewBox="0 0 46.44 60"><defs><style>.cls-1{fill:#fff;}.cls-2{fill:#635bff;}.cls-3{fill:url(#linear-gradient);}.cls-4{fill:url(#linear-gradient-2);}</style><linearGradient id="linear-gradient" x1="11.86" y1="51.66" x2="21.18" y2="42.34" gradientUnits="userSpaceOnUse"><stop offset="0" stop-color="#fff"/><stop offset="1" stop-color="#635bff"/></linearGradient><linearGradient id="linear-gradient-2" x1="6.46" y1="26.16" x2="26.42" y2="6.21" gradientUnits="userSpaceOnUse"><stop offset="0" stop-color="#635bff"/><stop offset="0.48" stop-color="#fff"/><stop offset="0.54" stop-color="#ebeaff"/><stop offset="0.7" stop-color="#b1adff"/><stop offset="0.83" stop-color="#8780ff"/><stop offset="0.94" stop-color="#6d65ff"/><stop offset="1" stop-color="#635bff"/></linearGradient></defs><title>Webflow Platform Ilustrations</title><path class="cls-1" d="M18.34,33.92A1.9,1.9,0,1,1,16.44,32a1.89,1.89,0,0,1,1.9,1.88Zm0,0"/><path class="cls-2" d="M16.44,14.69V43.82H12s.32-5.49-5.65-11.05Zm0,0,0,0V43.82h4.44s-.32-5.49,5.65-11.05Zm0,0"/><path class="cls-3" d="M22.95,49.56h-13a.44.44,0,0,1-.44-.48L10,44.22a.44.44,0,0,1,.44-.4H22.48a.44.44,0,0,1,.44.4l.47,4.85A.44.44,0,0,1,22.95,49.56Zm.49,0"/><path class="cls-1" d="M16.72,35.6h-.55V27.46l1.69-1.68V16.49h.55V26l-1.69,1.68Zm0,0"/><path class="cls-4" d="M30.05,10.44a1.44,1.44,0,0,0-1.36,1H18.31v-.94H15.49v.94H4.2a1.45,1.45,0,1,0,0,.94h7.92a11.19,11.19,0,0,0-6.75,8.83h-1V24H7.14V21.19H6.3a10.24,10.24,0,0,1,9-8.83h.19v.94h2.82v-.83a10.24,10.24,0,0,1,8.27,8.72h-.84V24h2.82V21.19h-1a11.19,11.19,0,0,0-6.76-8.83h7.92a1.45,1.45,0,1,0,1.36-1.92Z"/></svg>