<svg id="ab3fe525-d453-47d8-91ef-044c7180bc24" xmlns="http://www.w3.org/2000/svg" xmlns:xlink="http://www.w3.org/1999/xlink" viewBox="0 0 50.65 60"><defs><style>.cls-1{fill:#635bff;}.cls-2{fill:#fff;}.cls-3{fill:url(#linear-gradient);}.cls-4{fill:none;stroke:#e6e6e6;stroke-miterlimit:10;stroke-width:0.5px;}</style><linearGradient id="linear-gradient" x1="30.06" y1="47.23" x2="40.06" y2="37.23" gradientUnits="userSpaceOnUse"><stop offset="0" stop-color="#635bff"/><stop offset="1" stop-color="#fff"/></linearGradient></defs><title>Webflow Platform Ilustrations</title><rect class="cls-1" x="1.85" y="10.7" width="35.81" height="35.81" rx="2" ry="2"/><path class="cls-2" d="M24.49,25.78,22.77,31.2c0-.42-1.19-9.42-1.19-9.42-2.73,0-4.18,1.94-4.94,4l-2.1,5.44c0-.39-.3-5.39-.3-5.39a4.44,4.44,0,0,0-4.31-4l2.23,13.64c2.85,0,4.39-1.94,5.19-4l1.78-4.63c0,.19,1.19,8.62,1.19,8.62a5.49,5.49,0,0,0,5.23-3.84l4-9.81c-2.85,0-4.35,1.94-5.11,4Z"/><circle id="b1bf23b1-fd72-4a0f-8358-88f260cf5936" class="cls-3" cx="35.06" cy="42.23" r="7.07"/><circle id="b1bf23b1-fd72-4a0f-8358-88f260cf5936-2" data-name="b1bf23b1-fd72-4a0f-8358-88f260cf5936" class="cls-4" cx="36.37" cy="40.92" r="7.07"/><path id="a3de7fb3-a6ab-4159-b608-3b82343f6a5d" class="cls-2" d="M34.36,44.92a.73.73,0,0,1-.44-.15h0L32.25,43.5a.74.74,0,1,1,.9-1.17l1.08.83,2.54-3.32a.74.74,0,0,1,1-.14h0l0,0,0,0a.74.74,0,0,1,.14,1l-3,3.9a.74.74,0,0,1-.59.29Z"/></svg>