<svg width="53" height="45" viewBox="0 0 53 45" fill="none" xmlns="http://www.w3.org/2000/svg">
<path d="M42.993 2.69995C42.5534 2.69995 42.2018 3.02995 42.2018 3.47995C42.2018 3.80995 42.3776 4.10995 42.7 4.22995L46.4509 5.90995L4.7803 22.56C4.37005 22.68 4.13561 23.13 4.28213 23.55C4.39935 23.97 4.83891 24.21 5.24917 24.06C5.24917 24.06 5.30778 24.06 5.33708 24.03L18.9342 18.6C18.9342 18.6 18.9929 18.6 19.0222 18.57L29.894 14.22L46.9784 7.40995L45.308 11.25C45.1322 11.64 45.308 12.12 45.689 12.3C46.0699 12.48 46.5388 12.3 46.7146 11.91L49.1176 6.38995C49.352 5.99995 49.2348 5.51995 48.8538 5.30995C48.7952 5.27995 48.7366 5.24995 48.678 5.21995L43.3153 2.75995C43.3153 2.75995 43.1102 2.69995 43.0223 2.69995H42.993ZM41.2054 16.38C40.7659 16.38 40.4142 16.74 40.4142 17.16V41.46C40.4142 41.91 40.7659 42.27 41.1761 42.27H48.4436C48.8832 42.27 49.2055 41.91 49.2055 41.46V17.19C49.2055 16.74 48.8538 16.38 48.4436 16.38H41.1761H41.2054ZM41.9674 17.97H47.6817V40.68H41.9674V17.97ZM29.1614 21.96C28.7218 21.96 28.3995 22.32 28.3995 22.74V41.46C28.3995 41.91 28.7512 42.27 29.1614 42.27H36.4289C36.8684 42.27 37.1908 41.91 37.1908 41.46V22.74C37.1908 22.29 36.8391 21.96 36.4289 21.96H29.1614ZM29.9526 23.55H35.667V40.68H29.9526V23.55ZM17.0588 27.54C16.6485 27.57 16.3555 27.93 16.3555 28.32V41.46C16.3555 41.91 16.7071 42.27 17.1174 42.27H24.3848C24.8244 42.27 25.176 41.91 25.176 41.49V28.35C25.176 27.9 24.8244 27.57 24.3848 27.57H17.1174C17.1174 27.57 17.0588 27.57 17.0295 27.57L17.0588 27.54ZM17.9086 29.13H23.6229V40.68H17.9086V29.13ZM5.07335 33.12C4.63378 33.12 4.31144 33.48 4.31144 33.93V41.49C4.31144 41.94 4.66309 42.3 5.07335 42.3H12.3408C12.7804 42.3 13.1027 41.94 13.1027 41.49V33.93C13.1027 33.48 12.7511 33.12 12.3408 33.12H5.07335ZM5.86456 34.71H11.5789V40.71H5.83526V34.71H5.86456Z" fill="#0E1418"/>
</svg>
