<svg width="63" height="45" viewBox="0 0 63 45" fill="none" xmlns="http://www.w3.org/2000/svg">
<path d="M25.1086 15.9936H29.1189C29.3471 15.9936 29.5659 15.9029 29.7272 15.7416C29.8886 15.5802 29.9792 15.3614 29.9792 15.1333V11.1249C29.9792 10.8968 29.8886 10.678 29.7272 10.5166C29.5659 10.3553 29.3471 10.2647 29.1189 10.2647H25.1086C24.8805 10.2647 24.6616 10.3553 24.5003 10.5166C24.339 10.678 24.2483 10.8968 24.2483 11.1249V15.1346C24.2487 15.3625 24.3395 15.581 24.5008 15.742C24.6621 15.9031 24.8807 15.9936 25.1086 15.9936ZM25.9689 11.9846H28.2586V14.2749H25.9683L25.9689 11.9846ZM33.3542 15.9936H37.3639C37.592 15.9936 37.8108 15.9029 37.9722 15.7416C38.1335 15.5802 38.2241 15.3614 38.2241 15.1333V11.1249C38.2241 10.8968 38.1335 10.678 37.9722 10.5166C37.8108 10.3553 37.592 10.2647 37.3639 10.2647H33.3542C33.1261 10.2647 32.9072 10.3553 32.7459 10.5166C32.5846 10.678 32.4939 10.8968 32.4939 11.1249V15.1346C32.4943 15.3625 32.5851 15.581 32.7464 15.742C32.9077 15.9031 33.1263 15.9936 33.3542 15.9936ZM34.2145 11.9846H36.5049V14.2749H34.2145V11.9846ZM25.1086 22.8309H29.1189C29.3471 22.8309 29.5659 22.7403 29.7272 22.5789C29.8886 22.4176 29.9792 22.1988 29.9792 21.9706V17.9649C29.9792 17.7368 29.8886 17.518 29.7272 17.3566C29.5659 17.1953 29.3471 17.1047 29.1189 17.1047H25.1086C24.8805 17.1047 24.6616 17.1953 24.5003 17.3566C24.339 17.518 24.2483 17.7368 24.2483 17.9649V21.9746C24.2494 22.2021 24.3405 22.4199 24.5017 22.5803C24.6629 22.7408 24.8812 22.8309 25.1086 22.8309ZM25.9689 18.8219H28.2586V21.1123H25.9683L25.9689 18.8219ZM33.3542 22.8309H37.3639C37.592 22.8309 37.8108 22.7403 37.9722 22.5789C38.1335 22.4176 38.2241 22.1988 38.2241 21.9706V17.9649C38.2241 17.7368 38.1335 17.518 37.9722 17.3566C37.8108 17.1953 37.592 17.1047 37.3639 17.1047H33.3542C33.1261 17.1047 32.9072 17.1953 32.7459 17.3566C32.5846 17.518 32.4939 17.7368 32.4939 17.9649V21.9746C32.495 22.2021 32.5861 22.4199 32.7473 22.5803C32.9085 22.7408 33.1267 22.8309 33.3542 22.8309ZM34.2145 18.8246H36.5049V21.1149H34.2145V18.8246ZM25.1086 29.6742H29.1189C29.3471 29.6742 29.5659 29.5836 29.7272 29.4222C29.8886 29.2609 29.9792 29.0421 29.9792 28.8139V24.8049C29.9792 24.5768 29.8886 24.358 29.7272 24.1966C29.5659 24.0353 29.3471 23.9447 29.1189 23.9447H25.1086C24.8805 23.9447 24.6616 24.0353 24.5003 24.1966C24.339 24.358 24.2483 24.5768 24.2483 24.8049V28.8146C24.2485 29.0426 24.3392 29.2613 24.5005 29.4225C24.6619 29.5837 24.8806 29.6742 25.1086 29.6742ZM25.9689 25.6646H28.2586V27.9549H25.9683L25.9689 25.6646ZM33.3542 29.6742H37.3639C37.592 29.6742 37.8108 29.5836 37.9722 29.4222C38.1335 29.2609 38.2241 29.0421 38.2241 28.8139V24.8049C38.2241 24.5768 38.1335 24.358 37.9722 24.1966C37.8108 24.0353 37.592 23.9447 37.3639 23.9447H33.3542C33.1261 23.9447 32.9072 24.0353 32.7459 24.1966C32.5846 24.358 32.4939 24.5768 32.4939 24.8049V28.8146C32.4941 29.0426 32.5848 29.2613 32.7461 29.4225C32.9075 29.5837 33.1262 29.6742 33.3542 29.6742ZM34.2145 25.6646H36.5049V27.9549H34.2145V25.6646ZM25.1086 36.5142H29.1189C29.3471 36.5142 29.5659 36.4236 29.7272 36.2622C29.8886 36.1009 29.9792 35.8821 29.9792 35.6539V31.6449C29.9792 31.4168 29.8886 31.198 29.7272 31.0366C29.5659 30.8753 29.3471 30.7847 29.1189 30.7847H25.1086C24.8805 30.7847 24.6616 30.8753 24.5003 31.0366C24.339 31.198 24.2483 31.4168 24.2483 31.6449V35.6546C24.2485 35.8826 24.3392 36.1013 24.5005 36.2625C24.6619 36.4237 24.8806 36.5142 25.1086 36.5142ZM25.9689 32.5046H28.2586V34.7949H25.9683L25.9689 32.5046ZM33.3542 36.5142H37.3639C37.592 36.5142 37.8108 36.4236 37.9722 36.2622C38.1335 36.1009 38.2241 35.8821 38.2241 35.6539V31.6449C38.2241 31.4168 38.1335 31.198 37.9722 31.0366C37.8108 30.8753 37.592 30.7847 37.3639 30.7847H33.3542C33.1261 30.7847 32.9072 30.8753 32.7459 31.0366C32.5846 31.198 32.4939 31.4168 32.4939 31.6449V35.6546C32.4941 35.8826 32.5848 36.1013 32.7461 36.2625C32.9075 36.4237 33.1262 36.5142 33.3542 36.5142ZM34.2145 32.5046H36.5049V34.7949H34.2145V32.5046ZM46.0667 36.5142H50.077C50.3052 36.5142 50.524 36.4236 50.6853 36.2622C50.8467 36.1009 50.9373 35.8821 50.9373 35.6539V31.6449C50.9373 31.4168 50.8467 31.198 50.6853 31.0366C50.524 30.8753 50.3052 30.7847 50.077 30.7847H46.0667C45.8386 30.7847 45.6197 30.8753 45.4584 31.0366C45.2971 31.198 45.2064 31.4168 45.2064 31.6449V35.6546C45.2066 35.8824 45.2971 36.1008 45.4582 36.262C45.6192 36.4232 45.8376 36.5139 46.0654 36.5142H46.0667ZM46.927 32.5046H49.218V34.7949H46.925L46.927 32.5046ZM46.0667 28.2693H50.077C50.3052 28.2693 50.524 28.1786 50.6853 28.0173C50.8467 27.856 50.9373 27.6372 50.9373 27.409V23.3994C50.9373 23.1712 50.8467 22.9524 50.6853 22.791C50.524 22.6297 50.3052 22.5391 50.077 22.5391H46.0667C45.8386 22.5391 45.6197 22.6297 45.4584 22.791C45.2971 22.9524 45.2064 23.1712 45.2064 23.3994V27.4083C45.2066 27.6362 45.2971 27.8546 45.4582 28.0158C45.6192 28.1769 45.8376 28.2676 46.0654 28.268L46.0667 28.2693ZM46.927 24.2603H49.218V26.5507H46.925L46.927 24.2603ZM16.4058 30.786H12.3961C12.168 30.786 11.9491 30.8766 11.7878 31.0379C11.6265 31.1993 11.5358 31.4181 11.5358 31.6463V35.6559C11.5358 35.8841 11.6265 36.1029 11.7878 36.2642C11.9491 36.4256 12.168 36.5162 12.3961 36.5162H16.4058C16.6339 36.5162 16.8527 36.4256 17.0141 36.2642C17.1754 36.1029 17.2661 35.8841 17.2661 35.6559V31.6449C17.2657 31.417 17.1749 31.1985 17.0136 31.0375C16.8523 30.8764 16.6337 30.786 16.4058 30.786ZM15.5455 34.7949H13.2558V32.5046H15.5461L15.5455 34.7949ZM16.4058 22.9328H12.3961C12.168 22.9328 11.9491 23.0235 11.7878 23.1848C11.6265 23.3461 11.5358 23.5649 11.5358 23.7931V27.8021C11.5358 28.0302 11.6265 28.2491 11.7878 28.4104C11.9491 28.5717 12.168 28.6624 12.3961 28.6624H16.4058C16.6339 28.6624 16.8527 28.5717 17.0141 28.4104C17.1754 28.2491 17.2661 28.0302 17.2661 27.8021V23.7924C17.2659 23.5644 17.1752 23.3458 17.0139 23.1846C16.8525 23.0234 16.6338 22.9328 16.4058 22.9328ZM15.5455 26.9418H13.2558V24.6514H15.5461L15.5455 26.9418ZM16.4058 15.081H12.3961C12.168 15.081 11.9491 15.1716 11.7878 15.333C11.6265 15.4943 11.5358 15.7131 11.5358 15.9413V19.9509C11.5358 20.1791 11.6265 20.3979 11.7878 20.5592C11.9491 20.7206 12.168 20.8112 12.3961 20.8112H16.4058C16.6339 20.8112 16.8527 20.7206 17.0141 20.5592C17.1754 20.3979 17.2661 20.1791 17.2661 19.9509V15.9399C17.2657 15.712 17.1749 15.4935 17.0136 15.3325C16.8523 15.1714 16.6337 15.081 16.4058 15.081ZM15.5455 19.0899H13.2558V16.7996H15.5461L15.5455 19.0899ZM58.7587 37.9602H55.3036V20.2348C55.3036 20.0066 55.213 19.7878 55.0517 19.6265C54.8903 19.4651 54.6715 19.3745 54.4433 19.3745H42.5574V6.93995C42.5574 6.71178 42.4667 6.49297 42.3054 6.33163C42.1441 6.17029 41.9253 6.07966 41.6971 6.07966H39.1777V2.36054C39.1777 2.13237 39.0871 1.91355 38.9258 1.75222C38.7644 1.59088 38.5456 1.50024 38.3175 1.50024H23.6759C23.4477 1.50024 23.2289 1.59088 23.0676 1.75222C22.9063 1.91355 22.8156 2.13237 22.8156 2.36054V6.08032H20.7747C20.5466 6.08032 20.3278 6.17096 20.1664 6.33229C20.0051 6.49363 19.9144 6.71245 19.9144 6.94061V12.023H8.02848C7.80032 12.023 7.5815 12.1136 7.42016 12.2749C7.25883 12.4363 7.16819 12.6551 7.16819 12.8833V37.9641H3.71576C3.4876 37.9641 3.26878 38.0548 3.10744 38.2161C2.94611 38.3774 2.85547 38.5963 2.85547 38.8244V41.9824C2.85547 42.2105 2.94611 42.4294 3.10744 42.5907C3.26878 42.752 3.4876 42.8427 3.71576 42.8427H58.7574C58.9855 42.8427 59.2044 42.752 59.3657 42.5907C59.527 42.4294 59.6177 42.2105 59.6177 41.9824V38.8198C59.6175 38.5918 59.5268 38.3731 59.3655 38.2119C59.2042 38.0507 58.9854 37.9602 58.7574 37.9602H58.7587ZM53.585 21.0938V37.9588H42.5574V21.0938H53.585ZM24.5336 3.22017H37.4611V6.08032H24.5355L24.5336 3.22017ZM21.6324 7.79958H40.8388V37.9588H21.6344V7.79958H21.6324ZM8.88812 13.7416H19.9158V37.9622H8.88812V13.7416ZM57.8978 41.1181H4.5754V39.6788H57.8978V41.1181Z" fill="#0E1418"/>
</svg>
