<svg width="30" height="30" viewBox="0 0 30 30" fill="none" xmlns="http://www.w3.org/2000/svg">
<circle cx="15" cy="15" r="15" fill="#0E1418"/>
<path d="M9.53159 13.2474C9.60935 13.169 9.70186 13.1068 9.80379 13.0643C9.90572 13.0219 10.015 13 10.1255 13C10.2359 13 10.3452 13.0219 10.4471 13.0643C10.5491 13.1068 10.6416 13.169 10.7193 13.2474L14.5503 17.0784C14.6281 17.1568 14.7206 17.219 14.8225 17.2615C14.9244 17.3039 15.0338 17.3258 15.1442 17.3258C15.2546 17.3258 15.3639 17.3039 15.4659 17.2615C15.5678 17.219 15.6603 17.1568 15.7381 17.0784L19.569 13.2474C19.6468 13.169 19.7393 13.1068 19.8412 13.0643C19.9431 13.0219 20.0525 13 20.1629 13C20.2733 13 20.3826 13.0219 20.4846 13.0643C20.5865 13.1068 20.679 13.169 20.7568 13.2474C20.9126 13.4041 21 13.6161 21 13.8371C21 14.0581 20.9126 14.2701 20.7568 14.4268L16.9175 18.2661C16.4469 18.7361 15.8092 19 15.1442 19C14.4792 19 13.8414 18.736 13.3709 18.2661L9.53159 14.4268C9.3758 14.2701 9.28835 14.0581 9.28835 13.8371C9.28835 13.6161 9.3758 13.4041 9.53159 13.2474Z" fill="#DFDDD8"/>
</svg>
