<svg width="118" height="38" viewBox="0 0 118 38" fill="none" xmlns="http://www.w3.org/2000/svg">
<g clip-path="url(#clip0_223_676)">
<path d="M45.0442 27.5438H34.9586V9.57202H44.5079C45.8848 9.57202 47.0202 9.73297 47.9144 10.0549C48.8264 10.3589 49.5058 10.8417 49.9529 11.5034C50.4 12.1471 50.6234 12.9786 50.6234 13.9979C50.6234 15.1245 50.3194 16.0186 49.7114 16.6803C49.1034 17.3419 48.1825 17.7264 46.9488 17.8337V18.1824C48.4688 18.236 49.5953 18.6742 50.3287 19.4967C51.0794 20.3193 51.4552 21.3386 51.4552 22.5546C51.4552 23.5918 51.2225 24.4859 50.7577 25.237C50.3105 25.988 49.613 26.5603 48.6656 26.9537C47.7177 27.3471 46.5105 27.5438 45.0442 27.5438ZM40.0014 20.3283V23.0106H44.8567C45.3393 23.0106 45.7058 22.9391 45.9562 22.796C46.2065 22.653 46.3319 22.2864 46.3319 21.6963C46.3319 21.0883 46.2154 20.7127 45.9832 20.5697C45.7505 20.4087 45.3752 20.3283 44.8567 20.3283H40.0014ZM40.0014 14.1052V16.412H44.2394C44.7583 16.412 45.1066 16.3316 45.2857 16.1706C45.4824 16.0097 45.5808 15.7057 45.5808 15.2586C45.5808 14.7758 45.4647 14.4629 45.232 14.3198C45.0176 14.1767 44.6506 14.1052 44.1322 14.1052H40.0014ZM59.0552 27.812C57.5711 27.812 56.3014 27.5349 55.2463 26.9805C54.2093 26.4083 53.4134 25.6036 52.8591 24.5664C52.3228 23.5113 52.0543 22.2506 52.0543 20.7843C52.0543 19.2643 52.3317 17.9589 52.8861 16.868C53.4405 15.7772 54.2541 14.9457 55.327 14.3734C56.3998 13.7833 57.6965 13.4883 59.2165 13.4883C60.7006 13.4883 61.9343 13.7565 62.9181 14.293C63.9192 14.8294 64.6614 15.5716 65.1445 16.5194C65.6448 17.4492 65.8952 18.5311 65.8952 19.765C65.8952 20.1405 65.8686 20.516 65.815 20.8916C65.7613 21.2671 65.7166 21.5711 65.6807 21.8036H54.2005V19.0676H61.3086L61.0941 19.2017C61.1118 18.8798 61.0582 18.5937 60.9328 18.3434C60.8256 18.0751 60.6111 17.8605 60.2893 17.6996C59.9853 17.5386 59.5382 17.4582 58.9479 17.4582C58.1254 17.4582 57.5533 17.6102 57.2312 17.9142C56.9094 18.2003 56.7486 18.6652 56.7486 19.309V21.2134C56.7486 21.8751 56.8022 22.3847 56.9094 22.7424C57.0167 23.0822 57.2405 23.3146 57.5799 23.4398C57.9198 23.565 58.4383 23.6276 59.1358 23.6276C59.7438 23.6276 60.1639 23.565 60.3966 23.4398C60.6288 23.2967 60.7453 23.0732 60.7453 22.7692V22.7156H65.7343V23.0374C65.7343 23.9673 65.4573 24.7899 64.9029 25.5052C64.3663 26.2205 63.5974 26.7838 62.5959 27.1951C61.6126 27.6064 60.4325 27.812 59.0552 27.812ZM72.0339 27.5438H67.0179V13.7565H71.7121V17.6727L72.0339 17.8069V27.5438ZM72.0339 18.8262H71.0146V15.8487H71.9536C72.3467 15.1692 72.8656 14.6059 73.5091 14.1589C74.1707 13.7118 74.9577 13.4883 75.8697 13.4883C76.764 13.4883 77.47 13.6671 77.9889 14.0247C78.5074 14.3824 78.8827 14.892 79.1154 15.5537C79.348 16.2153 79.4641 17.0022 79.4641 17.9142V20.4087H74.4211V19.0407C74.4211 18.5222 74.3497 18.1734 74.2066 17.9946C74.0635 17.8158 73.7595 17.7264 73.2946 17.7264C72.8834 17.7264 72.5705 17.789 72.356 17.9142C72.1411 18.0214 72.0339 18.3254 72.0339 18.8262ZM85.3672 27.5438H80.3512V9.57202H85.3672V27.5438ZM91.9944 12.5226H86.9784V9.57202H91.9944V12.5226ZM92.0214 27.5438H86.9784V13.7565H92.0214V27.5438ZM107.983 27.5438H102.94V19.765C102.94 19.0318 102.805 18.5222 102.537 18.236C102.287 17.9499 101.715 17.8069 100.821 17.8069C100.266 17.8069 99.8283 17.8605 99.5062 17.9678C99.2022 18.0751 98.9788 18.2629 98.8357 18.5311C98.7107 18.7993 98.6478 19.1838 98.6478 19.6845H97.843V15.8487H98.5676C98.8179 15.3302 99.1667 14.901 99.6134 14.5612C100.061 14.2036 100.579 13.9353 101.169 13.7565C101.76 13.5777 102.394 13.4883 103.074 13.4883C104.272 13.4883 105.229 13.7297 105.944 14.2125C106.659 14.6774 107.178 15.3123 107.5 16.117C107.821 16.9038 107.983 17.7711 107.983 18.7189V27.5438ZM98.6478 27.5438H93.6318V13.7565H98.3261V17.5386L98.6478 17.6727V27.5438ZM115.488 27.5438H109.48V21.9913H115.488V27.5438Z" fill="#051226"/>
<path d="M21.7259 3.35303H6.07883C5.46157 3.35303 4.96118 2.85264 4.96118 2.23538V1.11773C4.96118 0.500472 5.46157 8.44002e-05 6.07883 8.44002e-05H21.7259C22.3431 8.44002e-05 22.8435 0.500472 22.8435 1.11773V2.23538C22.8435 2.85264 22.3431 3.35303 21.7259 3.35303Z" fill="#051226"/>
<path d="M21.7259 38H6.07883C5.46157 38 4.96118 37.4996 4.96118 36.8824V35.7647C4.96118 35.1474 5.46157 34.6471 6.07883 34.6471H21.7259C22.3431 34.6471 22.8435 35.1474 22.8435 35.7647V36.8824C22.8435 37.4996 22.3431 38 21.7259 38Z" fill="#051226"/>
<path fill-rule="evenodd" clip-rule="evenodd" d="M22.9111 15.7151C23.3476 16.1516 23.3476 16.8592 22.9111 17.2957L14.1336 26.0732C13.6972 26.5097 12.9895 26.5097 12.553 26.0732L6.01084 19.531C5.57435 19.0945 5.57435 18.3869 6.01084 17.9504L8.3817 15.5795C8.8182 15.143 9.52584 15.143 9.96233 15.5795L13.3433 18.9605L18.9596 13.3442C19.3961 12.9077 20.1038 12.9077 20.5403 13.3442L22.9111 15.7151Z" fill="#051226"/>
</g>
<defs>
<clipPath id="clip0_223_676">
<rect width="116.533" height="38" fill="white" transform="translate(0.490479)"/>
</clipPath>
</defs>
</svg>
