<svg width="145" height="34" viewBox="0 0 145 34" fill="none" xmlns="http://www.w3.org/2000/svg">
<path d="M31.5 29L33 33H24.5C27.6895 31.653 29.2521 30.7543 31.5 29Z" fill="#010205"/>
<path d="M12 0L1.5 29C4.64775 26.06 6.97049 24.7071 12 22.5L16.5 9L19.5 17.5C23.2394 12.8772 24.1645 9.61221 23.5 2.5L23 4.5L21 0H12Z" fill="#010205"/>
<path d="M21.5 21.5C7.1 24.7 1.16667 30.5 0 33C11.5 32 17.5 36 28.5 29.5C41.5 21 36.5 8.5 30 4C30.5 5.5 35.5 16.5 21.5 21.5Z" fill="#010205"/>
<path d="M17.4024 21.2175C25.3923 15.4379 26.7461 11.1645 26.1444 2.5473C32.8436 10.3172 29.5112 18.6924 17.4024 21.2175Z" fill="#7DED01"/>
<path d="M57.046 10.4603C53.276 10.4603 51.118 13.1903 51.118 17.2983C51.118 21.5363 53.562 23.8503 57.072 23.8503C60.374 23.8503 62.376 22.0303 62.376 18.9883V18.9103H56.63V15.9723H65.47V26.6583H62.662L62.454 24.4743C61.414 25.9303 59.256 26.9443 56.682 26.9443C51.352 26.9443 47.634 23.0703 47.634 17.2203C47.634 11.4483 51.404 7.34032 57.124 7.34032C61.466 7.34032 64.82 9.86232 65.366 13.7363H61.856C61.258 11.5003 59.334 10.4603 57.046 10.4603ZM75.8759 13.7623V16.7003H74.7059C72.4179 16.7003 70.9879 17.9223 70.9879 20.4183V26.6583H67.8159V13.8403H70.8059L70.9879 15.7123C71.5339 14.4383 72.7559 13.5803 74.4719 13.5803C74.9139 13.5803 75.3559 13.6323 75.8759 13.7623ZM76.0573 20.2103C76.0573 16.2063 78.9433 13.4503 82.9213 13.4503C86.8993 13.4503 89.7853 16.2063 89.7853 20.2103C89.7853 24.2143 86.8993 26.9703 82.9213 26.9703C78.9433 26.9703 76.0573 24.2143 76.0573 20.2103ZM79.2293 20.2103C79.2293 22.5503 80.7373 24.1363 82.9213 24.1363C85.1053 24.1363 86.6133 22.5503 86.6133 20.2103C86.6133 17.8703 85.1053 16.2843 82.9213 16.2843C80.7373 16.2843 79.2293 17.8703 79.2293 20.2103ZM93.7188 26.6583L89.5588 13.8143H92.8608L94.5508 19.3263C94.8368 20.3403 95.0968 21.4583 95.3308 22.6543C95.5648 21.4063 95.7988 20.6003 96.2148 19.3263L97.9828 13.8143H101.207L102.923 19.3263C103.079 19.8463 103.599 21.7703 103.755 22.6283C103.963 21.6663 104.379 20.1323 104.613 19.3263L106.329 13.8143H109.683L105.237 26.6583H102.273L100.505 21.0943C99.9848 19.4043 99.6988 18.1823 99.5948 17.5323C99.4648 18.1303 99.2308 19.0403 98.5808 21.1463L96.8128 26.6583H93.7188ZM115.192 26.6583H112.02V16.4663H109.55V13.8143H112.02V9.81033H115.192V13.8143H117.688V16.4663H115.192V26.6583ZM122.051 26.6583H118.879V7.31432H122.077V15.4783C122.883 14.2303 124.391 13.4243 126.237 13.4243C129.409 13.4243 131.073 15.4263 131.073 18.7543V26.6583H127.901V19.5083C127.901 17.3503 126.835 16.3103 125.223 16.3103C123.221 16.3103 122.051 17.7143 122.051 19.6383V26.6583ZM136.608 26.6583H133.462V7.31432H136.608V26.6583ZM140.741 11.2403C139.649 11.2403 138.791 10.3823 138.791 9.31632C138.791 8.25033 139.649 7.41832 140.741 7.41832C141.781 7.41832 142.639 8.25033 142.639 9.31632C142.639 10.3823 141.781 11.2403 140.741 11.2403ZM139.155 26.6583V13.8143H142.327V26.6583H139.155Z" fill="#010205"/>
</svg>
