<svg width="132" height="40" viewBox="0 0 132 40" fill="none" xmlns="http://www.w3.org/2000/svg">
<g clip-path="url(#clip0_47_2)">
<path d="M47.8054 31.5556L39.3085 19.4173L47.8054 8.59138H52.7263L44.1638 19.4173L52.7263 31.5556H47.8054ZM34.7812 31.5556V8.59138H38.9804V31.5556H34.7812ZM58.1085 31.8836C57.2339 31.8836 56.4357 31.6923 55.7139 31.3095C54.9921 30.9158 54.4179 30.3527 53.9917 29.62C53.565 28.8873 53.3517 28.0016 53.3517 26.9627C53.3517 26.0332 53.565 25.2404 53.9917 24.5843C54.429 23.9172 54.9974 23.365 55.6974 22.9276C56.4081 22.4792 57.1734 22.1293 57.9939 21.8778C58.825 21.6153 59.6397 21.424 60.4379 21.3037C61.2472 21.1834 61.9579 21.1123 62.5703 21.0904C62.5263 20.15 62.2859 19.4665 61.8485 19.0401C61.4112 18.6136 60.6677 18.4004 59.6179 18.4004C58.885 18.4004 58.1685 18.5042 57.469 18.712C56.7801 18.9088 55.9983 19.2205 55.1232 19.647L54.7623 16.3336C55.7468 15.8524 56.7308 15.4916 57.7148 15.251C58.7099 15.0104 59.7161 14.8901 60.733 14.8901C61.9579 14.8901 63.013 15.1088 63.8988 15.5462C64.7845 15.9836 65.4681 16.689 65.9494 17.6622C66.4303 18.6245 66.6708 19.8985 66.6708 21.4841V25.9129C66.6708 26.7331 66.7094 27.3291 66.7859 27.7008C66.8623 28.0617 67.0045 28.2914 67.2121 28.3898C67.4201 28.4882 67.721 28.5374 68.1143 28.5374H68.6392L68.2783 31.8836H66.8023C66.1899 31.8836 65.6432 31.8016 65.1619 31.6376C64.6917 31.4845 64.2872 31.2658 63.9481 30.9815C63.609 30.6971 63.3357 30.3636 63.1281 29.9809C62.5921 30.5823 61.865 31.0525 60.9463 31.3915C60.0388 31.7196 59.093 31.8836 58.1085 31.8836ZM59.8143 28.7671C60.1752 28.7671 60.6237 28.6741 61.1597 28.4882C61.6952 28.2914 62.1765 27.9906 62.6032 27.586V23.8461C61.8374 23.8789 61.0721 24.0047 60.3068 24.2234C59.541 24.4421 58.9014 24.7647 58.3877 25.1912C57.8734 25.6177 57.6165 26.1535 57.6165 26.7987C57.6165 27.4657 57.7917 27.9633 58.1414 28.2914C58.4912 28.6085 59.049 28.7671 59.8143 28.7671ZM70.9045 31.5556V15.1526H74.7099L74.8739 18.2035L73.9228 16.9569C74.5459 16.432 75.2894 15.9563 76.1534 15.5298C77.0174 15.1033 78.0232 14.8901 79.1717 14.8901C81.2712 14.8901 82.8294 15.59 83.8463 16.9897C84.8637 18.3785 85.3721 20.1828 85.3721 22.4027V31.5556H81.3041V22.7308C81.3041 21.1998 81.0472 20.068 80.533 19.3353C80.0299 18.6027 79.2045 18.2363 78.0561 18.2363C77.1268 18.2363 76.3668 18.466 75.7761 18.9252C75.1859 19.3736 74.6663 19.975 74.2179 20.7296L74.9725 18.7284V31.5556H70.9045ZM93.6641 31.8836C92.5814 31.8836 91.6028 31.7797 90.7277 31.572C89.8637 31.3642 88.9943 31.0635 88.1197 30.6698L88.4805 27.1924C89.3228 27.6844 90.1481 28.0836 90.9574 28.3898C91.7774 28.685 92.6361 28.8327 93.5325 28.8327C94.3419 28.8327 94.9597 28.7014 95.3863 28.439C95.8125 28.1765 96.0259 27.761 96.0259 27.1924C96.0259 26.7659 95.9112 26.416 95.6814 26.1426C95.4628 25.8692 95.1294 25.6232 94.681 25.4044C94.2325 25.1857 93.6748 24.9506 93.0077 24.6991C92.0019 24.3273 91.1432 23.9227 90.4325 23.4853C89.7325 23.0479 89.197 22.523 88.825 21.9106C88.4641 21.2873 88.2837 20.5218 88.2837 19.6142C88.2837 18.6737 88.5299 17.8427 89.0219 17.1209C89.5139 16.3992 90.2139 15.836 91.1214 15.4314C92.029 15.0268 93.1063 14.8245 94.353 14.8245C95.3917 14.8245 96.321 14.9393 97.1414 15.169C97.9725 15.3986 98.7379 15.7103 99.4379 16.104L99.077 19.5814C98.3441 19.0674 97.6059 18.6464 96.8623 18.3184C96.1188 17.9793 95.3041 17.8099 94.4183 17.8099C93.7188 17.8099 93.1774 17.952 92.7943 18.2363C92.4117 18.5207 92.2205 18.9252 92.2205 19.4501C92.2205 20.0844 92.4885 20.5601 93.0241 20.8772C93.5601 21.1943 94.4183 21.5825 95.5997 22.0418C96.365 22.3371 97.0263 22.6432 97.5841 22.9604C98.153 23.2775 98.6232 23.6274 98.9948 24.0102C99.3668 24.3929 99.6401 24.8303 99.8152 25.3224C100.001 25.8036 100.094 26.3613 100.094 26.9955C100.094 28.0344 99.8423 28.9201 99.3392 29.6528C98.8472 30.3745 98.1201 30.9268 97.1579 31.3095C96.2063 31.6923 95.0419 31.8836 93.6641 31.8836ZM106.421 31.8836C105.546 31.8836 104.748 31.6923 104.026 31.3095C103.304 30.9158 102.73 30.3527 102.303 29.62C101.877 28.8873 101.664 28.0016 101.664 26.9627C101.664 26.0332 101.877 25.2404 102.303 24.5843C102.741 23.9172 103.309 23.365 104.009 22.9276C104.72 22.4792 105.485 22.1293 106.306 21.8778C107.137 21.6153 107.952 21.424 108.75 21.3037C109.559 21.1834 110.27 21.1123 110.882 21.0904C110.838 20.15 110.598 19.4665 110.161 19.0401C109.723 18.6136 108.979 18.4004 107.929 18.4004C107.197 18.4004 106.481 18.5042 105.781 18.712C105.092 18.9088 104.31 19.2205 103.435 19.647L103.074 16.3336C104.058 15.8524 105.043 15.4916 106.027 15.251C107.022 15.0104 108.028 14.8901 109.045 14.8901C110.27 14.8901 111.325 15.1088 112.211 15.5462C113.097 15.9836 113.78 16.689 114.261 17.6622C114.742 18.6245 114.983 19.8985 114.983 21.4841V25.9129C114.983 26.7331 115.021 27.3291 115.098 27.7008C115.174 28.0617 115.317 28.2914 115.524 28.3898C115.732 28.4882 116.033 28.5374 116.426 28.5374H116.951L116.59 31.8836H115.114C114.502 31.8836 113.955 31.8016 113.474 31.6376C113.004 31.4845 112.599 31.2658 112.26 30.9815C111.921 30.6971 111.648 30.3636 111.44 29.9809C110.904 30.5823 110.177 31.0525 109.258 31.3915C108.351 31.7196 107.405 31.8836 106.421 31.8836ZM108.126 28.7671C108.487 28.7671 108.936 28.6741 109.472 28.4882C110.007 28.2914 110.489 27.9906 110.915 27.586V23.8461C110.149 23.8789 109.384 24.0047 108.619 24.2234C107.853 24.4421 107.213 24.7647 106.699 25.1912C106.185 25.6177 105.929 26.1535 105.929 26.7987C105.929 27.4657 106.103 27.9633 106.453 28.2914C106.803 28.6085 107.361 28.7671 108.126 28.7671ZM123.875 31.8836C122.792 31.8836 121.813 31.7797 120.939 31.572C120.075 31.3642 119.205 31.0635 118.331 30.6698L118.692 27.1924C119.533 27.6844 120.359 28.0836 121.169 28.3898C121.989 28.685 122.847 28.8327 123.744 28.8327C124.553 28.8327 125.171 28.7014 125.597 28.439C126.024 28.1765 126.237 27.761 126.237 27.1924C126.237 26.7659 126.122 26.416 125.893 26.1426C125.674 25.8692 125.34 25.6232 124.892 25.4044C124.444 25.1857 123.886 24.9506 123.219 24.6991C122.213 24.3273 121.354 23.9227 120.644 23.4853C119.944 23.0479 119.408 22.523 119.036 21.9106C118.675 21.2873 118.495 20.5218 118.495 19.6142C118.495 18.6737 118.741 17.8427 119.233 17.1209C119.725 16.3992 120.425 15.836 121.333 15.4314C122.24 15.0268 123.317 14.8245 124.564 14.8245C125.603 14.8245 126.532 14.9393 127.352 15.169C128.183 15.3986 128.949 15.7103 129.649 16.104L129.288 19.5814C128.555 19.0674 127.817 18.6464 127.073 18.3184C126.33 17.9793 125.515 17.8099 124.629 17.8099C123.929 17.8099 123.388 17.952 123.005 18.2363C122.623 18.5207 122.431 18.9252 122.431 19.4501C122.431 20.0844 122.699 20.5601 123.235 20.8772C123.771 21.1943 124.629 21.5825 125.81 22.0418C126.576 22.3371 127.237 22.6432 127.795 22.9604C128.364 23.2775 128.834 23.6274 129.206 24.0102C129.577 24.3929 129.851 24.8303 130.026 25.3224C130.212 25.8036 130.305 26.3613 130.305 26.9955C130.305 28.0344 130.053 28.9201 129.55 29.6528C129.058 30.3745 128.331 30.9268 127.369 31.3095C126.417 31.6923 125.253 31.8836 123.875 31.8836Z" fill="black"/>
<path d="M20.2219 26.2209V6.89658L27.1927 13.7792V33.1035H7.86846L0.98584 26.2209H20.2219Z" fill="black"/>
<path d="M10.6921 6.89658H0.98584V16.6028H10.6921V6.89658Z" fill="black"/>
</g>
<defs>
<clipPath id="clip0_47_2">
<rect width="130.667" height="40" fill="white" transform="translate(0.98584)"/>
</clipPath>
</defs>
</svg>
