<svg width="91" height="38" viewBox="0 0 91 38" fill="none" xmlns="http://www.w3.org/2000/svg">
<g clip-path="url(#clip0_28_104)">
<path opacity="0.7" fill-rule="evenodd" clip-rule="evenodd" d="M3.79673 18.5725H14.1735L24.5504 2.8501H14.1735L3.79673 18.5725ZM24.5497 34.2953H14.1727L3.7959 18.5729H14.1727L24.5497 34.2953Z" fill="#051226"/>
<path d="M11.6587 18.5725H22.0355L11.6587 2.8501H1.28186L11.6587 18.5725Z" fill="#051226"/>
<path d="M11.6582 34.2953H1.28137L11.6582 18.5728H22.0348L11.6582 34.2953Z" fill="#051226"/>
<path d="M29.6866 18.4254C29.6866 17.0058 30.0038 15.7379 30.6377 14.6216C31.2852 13.4915 32.1604 12.6163 33.2631 11.9961C34.3796 11.3621 35.6265 11.0452 37.0047 11.0452C38.6173 11.0452 40.03 11.4586 41.2427 12.2856C42.4555 13.1125 43.303 14.2564 43.7855 15.7172H40.4571C40.1263 15.0281 39.6578 14.5113 39.0516 14.1668C38.4587 13.8222 37.7698 13.65 36.9842 13.65C36.1435 13.65 35.3924 13.8498 34.7308 14.2495C34.0829 14.6354 33.5731 15.1866 33.2009 15.9033C32.8428 16.62 32.6634 17.4606 32.6634 18.4254C32.6634 19.3763 32.8428 20.217 33.2009 20.9476C33.5731 21.6642 34.0829 22.2223 34.7308 22.6221C35.3924 23.0079 36.1435 23.201 36.9842 23.201C37.7698 23.201 38.4587 23.0284 39.0516 22.6839C39.6578 22.3258 40.1263 21.8019 40.4571 21.1127H43.7855C43.303 22.5876 42.4555 23.7381 41.2427 24.5651C40.0436 25.3784 38.6309 25.7847 37.0047 25.7847C35.6265 25.7847 34.3796 25.4748 33.2631 24.8546C32.1604 24.2207 31.2852 23.3455 30.6377 22.2291C30.0038 21.1127 29.6866 19.8449 29.6866 18.4254Z" fill="#051226"/>
<path d="M50.5161 25.8468C49.4137 25.8468 48.4214 25.6056 47.5394 25.1234C46.6574 24.6272 45.9613 23.9311 45.4514 23.0355C44.9552 22.1395 44.7072 21.1057 44.7072 19.9344C44.7072 18.763 44.9621 17.7293 45.4719 16.8335C45.9958 15.9376 46.7056 15.2486 47.6012 14.7662C48.4972 14.27 49.4964 14.022 50.5988 14.022C51.7016 14.022 52.7008 14.27 53.5964 14.7662C54.4924 15.2486 55.1954 15.9376 55.7052 16.8335C56.2287 17.7293 56.4908 18.763 56.4908 19.9344C56.4908 21.1057 56.2219 22.1395 55.6844 23.0355C55.1609 23.9311 54.4443 24.6272 53.5346 25.1234C52.6386 25.6056 51.6325 25.8468 50.5161 25.8468ZM50.5161 23.3249C51.04 23.3249 51.5293 23.2009 51.9842 22.9528C52.4527 22.6907 52.8248 22.3049 53.1002 21.795C53.376 21.2852 53.5137 20.6649 53.5137 19.9344C53.5137 18.8456 53.2243 18.0118 52.6454 17.433C52.0805 16.8404 51.3844 16.5441 50.5575 16.5441C49.7309 16.5441 49.0348 16.8404 48.4695 17.433C47.9183 18.0118 47.6426 18.8456 47.6426 19.9344C47.6426 21.023 47.9115 21.8637 48.449 22.4566C49.0002 23.0355 49.6895 23.3249 50.5161 23.3249Z" fill="#051226"/>
<path d="M60.681 23.3662H63.8397V25.6609H57.7866V10.3628H60.681V23.3662Z" fill="#051226"/>
<path d="M64.6113 19.893C64.6113 18.7354 64.8389 17.7086 65.2934 16.8128C65.7623 15.917 66.3893 15.2279 67.175 14.7455C67.9742 14.2632 68.8631 14.022 69.8418 14.022C70.6961 14.022 71.4404 14.1942 72.0742 14.5388C72.7222 14.8834 73.2388 15.3175 73.6246 15.8412V14.208H76.5396V25.6607H73.6246V23.9862C73.2525 24.5237 72.7358 24.9717 72.0742 25.3299C71.4267 25.6747 70.6756 25.8469 69.8209 25.8469C68.8562 25.8469 67.9742 25.5988 67.175 25.1026C66.3893 24.6064 65.7623 23.9103 65.2934 23.0147C64.8389 22.105 64.6113 21.0645 64.6113 19.893ZM73.6246 19.9344C73.6246 19.2315 73.4869 18.632 73.2112 18.1359C72.9357 17.6259 72.5636 17.24 72.0951 16.9782C71.6262 16.7026 71.1232 16.5647 70.5857 16.5647C70.0482 16.5647 69.5523 16.6957 69.0975 16.9575C68.6427 17.2194 68.2705 17.6053 67.9811 18.1152C67.7053 18.6113 67.5676 19.204 67.5676 19.893C67.5676 20.5822 67.7053 21.1885 67.9811 21.7124C68.2705 22.2222 68.6427 22.6149 69.0975 22.8906C69.566 23.1664 70.0622 23.3041 70.5857 23.3041C71.1232 23.3041 71.6262 23.1733 72.0951 22.9111C72.5636 22.6357 72.9357 22.2499 73.2112 21.7537C73.4869 21.2435 73.6246 20.6373 73.6246 19.9344Z" fill="#051226"/>
<path d="M81.4332 15.8824C81.8054 15.3312 82.3152 14.8833 82.9632 14.5387C83.6247 14.1941 84.3758 14.0219 85.2165 14.0219C86.1948 14.0219 87.0772 14.2631 87.8625 14.7454C88.6621 15.2278 89.2892 15.9169 89.744 16.8127C90.2125 17.6948 90.4466 18.7215 90.4466 19.8929C90.4466 21.0644 90.2125 22.1049 89.744 23.0146C89.2892 23.9102 88.6621 24.6063 87.8625 25.1025C87.0772 25.5987 86.1948 25.8468 85.2165 25.8468C84.3618 25.8468 83.6107 25.6814 82.9632 25.3506C82.3293 25.0062 81.8194 24.565 81.4332 24.0275V25.6606H78.5392V10.3628H81.4332V15.8824ZM87.4903 19.8929C87.4903 19.2039 87.3458 18.6112 87.0563 18.1151C86.7806 17.6052 86.4088 17.2193 85.9399 16.9574C85.4851 16.6956 84.9892 16.5646 84.4517 16.5646C83.9278 16.5646 83.4317 16.7025 82.9632 16.9781C82.5083 17.2399 82.1362 17.6258 81.8467 18.1358C81.5713 18.6457 81.4332 19.2452 81.4332 19.9343C81.4332 20.6234 81.5713 21.2229 81.8467 21.7328C82.1362 22.2426 82.5083 22.6356 82.9632 22.911C83.4317 23.1732 83.9278 23.304 84.4517 23.304C84.9892 23.304 85.4851 23.1663 85.9399 22.8905C86.4088 22.6148 86.7806 22.2221 87.0563 21.7123C87.3458 21.2021 87.4903 20.5958 87.4903 19.8929Z" fill="#051226"/>
</g>
<defs>
<clipPath id="clip0_28_104">
<rect width="89.9658" height="38" fill="white" transform="translate(0.613525)"/>
</clipPath>
</defs>
</svg>
