<svg width="158" height="40" viewBox="0 0 158 40" fill="none" xmlns="http://www.w3.org/2000/svg">
<g clip-path="url(#clip0_46_117)">
<path d="M43.0072 28.7577C41.6712 28.7577 40.4783 28.4333 39.4286 27.7844C38.3788 27.1354 37.5486 26.2479 36.9379 25.1218C36.3271 23.9957 36.0217 22.717 36.0217 21.2855C36.0217 19.854 36.3271 18.5848 36.9379 17.4778C37.5486 16.3517 38.3788 15.4738 39.4286 14.844C40.4783 14.195 41.6712 13.8705 43.0072 13.8705C44.0761 13.8705 45.0112 14.071 45.813 14.4718C46.6143 14.8726 47.2636 15.4356 47.7596 16.1609V8.80186H51.4241V28.4142H48.1605L47.7596 26.3815C47.3014 27.0114 46.6908 27.5648 45.9276 28.042C45.1832 28.5192 44.2097 28.7577 43.0072 28.7577ZM43.7802 25.5513C44.9636 25.5513 45.9276 25.16 46.6716 24.3775C47.4352 23.5759 47.817 22.5548 47.817 21.3141C47.817 20.0736 47.4352 19.062 46.6716 18.2795C45.9276 17.4778 44.9636 17.077 43.7802 17.077C42.616 17.077 41.6521 17.4683 40.8887 18.2508C40.1252 19.0333 39.7435 20.0449 39.7435 21.2855C39.7435 22.5261 40.1252 23.5472 40.8887 24.3488C41.6521 25.1504 42.616 25.5513 43.7802 25.5513Z" fill="#0E1418"/>
<path d="M60.9125 28.7577C59.4809 28.7577 58.212 28.4524 57.1049 27.8416C55.9978 27.2308 55.1294 26.372 54.4996 25.265C53.8698 24.158 53.5547 22.8792 53.5547 21.4287C53.5547 19.959 53.8605 18.6516 54.4711 17.5064C55.1009 16.3613 55.9596 15.4738 57.0476 14.844C58.1547 14.195 59.4525 13.8705 60.9414 13.8705C62.3347 13.8705 63.5654 14.1759 64.6342 14.7867C65.7031 15.3974 66.5333 16.2372 67.1249 17.306C67.736 18.3558 68.0414 19.5296 68.0414 20.8275C68.0414 21.0374 68.0316 21.2569 68.0125 21.4859C68.0125 21.715 68.0031 21.9535 67.984 22.2016H57.1907C57.2671 23.3087 57.6489 24.1771 58.336 24.8069C59.0422 25.4368 59.8916 25.7517 60.884 25.7517C61.6285 25.7517 62.2485 25.5894 62.7449 25.265C63.26 24.9214 63.6418 24.4824 63.8902 23.948H67.612C67.3445 24.8451 66.896 25.6658 66.2662 26.4101C65.6556 27.1354 64.892 27.708 63.976 28.1279C63.0787 28.5478 62.0578 28.7577 60.9125 28.7577ZM60.9414 16.848C60.044 16.848 59.252 17.1056 58.5649 17.621C57.8778 18.1172 57.4391 18.8807 57.248 19.9113H64.3196C64.2622 18.9761 63.9187 18.2317 63.2889 17.6782C62.6591 17.1248 61.8765 16.848 60.9414 16.848Z" fill="#0E1418"/>
<path d="M69.9805 28.4142V14.2141H73.2156L73.5018 16.6189C73.9409 15.7792 74.5707 15.1112 75.3916 14.6149C76.2311 14.1187 77.2142 13.8705 78.3405 13.8705C80.096 13.8705 81.4609 14.424 82.4343 15.5311C83.4076 16.638 83.8942 18.2604 83.8942 20.398V28.4142H80.2298V20.7416C80.2298 19.52 79.9818 18.5848 79.4854 17.9359C78.9894 17.287 78.216 16.9625 77.1662 16.9625C76.1356 16.9625 75.2862 17.3252 74.6182 18.0504C73.9694 18.7757 73.6449 19.7872 73.6449 21.0851V28.4142H69.9805Z" fill="#0E1418"/>
<path d="M87.3987 28.4142V14.2141H90.6338L90.9485 16.1323C91.4067 15.4452 92.0076 14.9012 92.752 14.5004C93.5156 14.0805 94.3933 13.8705 95.3862 13.8705C97.5809 13.8705 99.1365 14.7199 100.052 16.4185C100.568 15.636 101.255 15.0157 102.114 14.5576C102.992 14.0996 103.946 13.8705 104.977 13.8705C106.828 13.8705 108.25 14.424 109.243 15.5311C110.235 16.638 110.731 18.2604 110.731 20.398V28.4142H107.067V20.7416C107.067 19.52 106.828 18.5848 106.351 17.9359C105.893 17.287 105.177 16.9625 104.204 16.9625C103.211 16.9625 102.41 17.3252 101.799 18.0504C101.207 18.7757 100.912 19.7872 100.912 21.0851V28.4142H97.2471V20.7416C97.2471 19.52 97.0085 18.5848 96.5311 17.9359C96.0542 17.287 95.3191 16.9625 94.3267 16.9625C93.3533 16.9625 92.5613 17.3252 91.9507 18.0504C91.3587 18.7757 91.0631 19.7872 91.0631 21.0851V28.4142H87.3987Z" fill="#0E1418"/>
<path d="M117.963 28.7577C116.742 28.7577 115.74 28.5669 114.957 28.1852C114.175 27.7844 113.592 27.2595 113.211 26.6105C112.829 25.9616 112.638 25.2459 112.638 24.4634C112.638 23.1464 113.153 22.0776 114.184 21.2569C115.215 20.4362 116.761 20.0258 118.822 20.0258H122.429V19.6823C122.429 18.7089 122.152 17.9932 121.599 17.5351C121.045 17.077 120.358 16.848 119.538 16.848C118.793 16.848 118.144 17.0293 117.591 17.392C117.037 17.7355 116.694 18.2508 116.56 18.9379H112.982C113.077 17.9073 113.42 17.0102 114.012 16.2468C114.623 15.4833 115.406 14.9012 116.36 14.5004C117.314 14.0805 118.383 13.8705 119.566 13.8705C121.589 13.8705 123.183 14.3764 124.348 15.3879C125.512 16.3995 126.094 17.8309 126.094 19.6823V28.4142H122.973L122.63 26.1239C122.21 26.8873 121.618 27.5172 120.855 28.0134C120.11 28.5096 119.147 28.7577 117.963 28.7577ZM118.793 25.8948C119.843 25.8948 120.654 25.5513 121.227 24.8642C121.819 24.1771 122.191 23.3277 122.344 22.3162H119.223C118.249 22.3162 117.553 22.4975 117.133 22.8601C116.713 23.2037 116.503 23.6331 116.503 24.1484C116.503 24.702 116.713 25.1314 117.133 25.4368C117.553 25.7421 118.106 25.8948 118.793 25.8948Z" fill="#0E1418"/>
<path d="M129.591 28.4142V14.2141H132.855L133.198 16.8766C133.713 15.9605 134.41 15.2352 135.288 14.7008C136.185 14.1473 137.235 13.8705 138.437 13.8705V17.7355H137.407C136.605 17.7355 135.889 17.8596 135.26 18.1077C134.63 18.3558 134.133 18.7852 133.771 19.396C133.427 20.0068 133.256 20.8561 133.256 21.944V28.4142H129.591Z" fill="#0E1418"/>
<path d="M139.799 28.4142V8.80186H143.464V19.9686L148.502 14.2141H152.854L147.042 20.6843L153.799 28.4142H149.218L143.464 21.2855V28.4142H139.799Z" fill="#0E1418"/>
<path d="M21.2963 4.57138H6.84985V9.13809H21.2963C23.3553 9.13809 25.0245 10.8073 25.0245 12.8664V24.8896C25.0245 26.9486 23.3553 28.6178 21.2963 28.6178H6.84985V33.1845H21.2963C25.8774 33.1845 29.5912 29.4708 29.5912 24.8896V12.8664C29.5912 8.28516 25.8774 4.57138 21.2963 4.57138Z" fill="#0E1418"/>
<path d="M20.6435 13.5908L17.4073 10.3686L6.94568 20.8756L3.7935 17.7098L0.557373 20.932L6.94568 27.3479L20.6435 13.5908Z" fill="#0E1418"/>
</g>
<defs>
<clipPath id="clip0_46_117">
<rect width="156.889" height="40" fill="white" transform="translate(0.557373)"/>
</clipPath>
</defs>
</svg>
