<svg width="121" height="38" viewBox="0 0 121 38" fill="none" xmlns="http://www.w3.org/2000/svg">
<g clip-path="url(#clip0_28_146)">
<path d="M50.3478 26.9257H46.5992L40.3299 17.434V26.9257H36.5817V11.5374H40.3299L46.5992 21.0728V11.5374H50.3478V26.9257Z" fill="black"/>
<path d="M52.3195 20.7879C52.3195 19.5311 52.5534 18.4277 53.021 17.4778C53.5034 16.528 54.1537 15.7972 54.972 15.2858C55.7904 14.7743 56.7036 14.5186 57.7121 14.5186C58.5742 14.5186 59.3269 14.6939 59.9699 15.0447C60.6276 15.3954 61.1315 15.8557 61.4823 16.4257V14.6939H65.2309V26.9257H61.4823V25.1939C61.1171 25.7639 60.6057 26.2242 59.948 26.5749C59.305 26.9257 58.5524 27.101 57.6903 27.101C56.6966 27.101 55.7904 26.8453 54.972 26.3338C54.1537 25.8077 53.5034 25.0697 53.021 24.1198C52.5534 23.1553 52.3195 22.0446 52.3195 20.7879ZM61.4823 20.8098C61.4823 19.8745 61.2194 19.1365 60.6933 18.5958C60.1819 18.0551 59.5535 17.7847 58.8082 17.7847C58.0629 17.7847 57.427 18.0551 56.9009 18.5958C56.3896 19.1219 56.1337 19.8526 56.1337 20.7879C56.1337 21.7231 56.3896 22.4685 56.9009 23.0238C57.427 23.5645 58.0629 23.8348 58.8082 23.8348C59.5535 23.8348 60.1819 23.5645 60.6933 23.0238C61.2194 22.4831 61.4823 21.7451 61.4823 20.8098Z" fill="black"/>
<path d="M69.8278 13.4225C69.1703 13.4225 68.6294 13.2325 68.2056 12.8526C67.7966 12.458 67.5919 11.9757 67.5919 11.4058C67.5919 10.8213 67.7966 10.339 68.2056 9.95904C68.6294 9.56448 69.1703 9.36719 69.8278 9.36719C70.4707 9.36719 70.9969 9.56448 71.4062 9.95904C71.83 10.339 72.0417 10.8213 72.0417 11.4058C72.0417 11.9757 71.83 12.458 71.4062 12.8526C70.9969 13.2325 70.4707 13.4225 69.8278 13.4225ZM71.691 14.6939V26.9257H67.9427V14.6939H71.691Z" fill="black"/>
<path d="M78.1559 16.7327C78.5945 16.0604 79.1425 15.5343 79.7999 15.1544C80.4577 14.7598 81.1885 14.5625 81.992 14.5625V18.5302H80.962C80.0265 18.5302 79.3253 18.7348 78.8574 19.1439C78.3898 19.5385 78.1559 20.24 78.1559 21.2483V26.9258H74.4076V14.694H78.1559V16.7327Z" fill="black"/>
<path d="M89.3517 27.101C88.1533 27.101 87.0721 26.8453 86.1077 26.3338C85.1577 25.8223 84.405 25.0916 83.8496 24.1417C83.309 23.1918 83.0387 22.0812 83.0387 20.8098C83.0387 19.553 83.3164 18.4497 83.8715 17.4998C84.4269 16.5353 85.187 15.7972 86.1514 15.2858C87.1159 14.7743 88.1974 14.5186 89.3958 14.5186C90.5938 14.5186 91.6754 14.7743 92.6398 15.2858C93.6042 15.7972 94.3643 16.5353 94.9198 17.4998C95.4749 18.4497 95.7526 19.553 95.7526 20.8098C95.7526 22.0666 95.4678 23.1772 94.8979 24.1417C94.3425 25.0916 93.5753 25.8223 92.5961 26.3338C91.6316 26.8453 90.5501 27.101 89.3517 27.101ZM89.3517 23.8568C90.068 23.8568 90.6743 23.5937 91.1711 23.0676C91.6828 22.5415 91.9383 21.7889 91.9383 20.8098C91.9383 19.8307 91.6899 19.0781 91.193 18.552C90.711 18.0259 90.1118 17.7628 89.3958 17.7628C88.665 17.7628 88.0584 18.0259 87.5764 18.552C87.094 19.0634 86.853 19.816 86.853 20.8098C86.853 21.7889 87.0866 22.5415 87.5541 23.0676C88.0365 23.5937 88.6357 23.8568 89.3517 23.8568Z" fill="black"/>
<path d="M101.489 16.4256C101.84 15.8557 102.345 15.3954 103.002 15.0446C103.66 14.6939 104.412 14.5185 105.26 14.5185C106.268 14.5185 107.182 14.7743 108 15.2858C108.818 15.7972 109.461 16.5279 109.929 17.4778C110.411 18.4277 110.652 19.5311 110.652 20.7879C110.652 22.0446 110.411 23.1553 109.929 24.1198C109.461 25.0697 108.818 25.8077 108 26.3338C107.182 26.8453 106.268 27.101 105.26 27.101C104.398 27.101 103.645 26.933 103.002 26.5968C102.359 26.2461 101.855 25.7858 101.489 25.2158V26.9257H97.7412V10.7043H101.489V16.4256ZM106.838 20.7879C106.838 19.8526 106.575 19.1219 106.049 18.5958C105.538 18.0551 104.902 17.7847 104.142 17.7847C103.397 17.7847 102.761 18.0551 102.235 18.5958C101.723 19.1365 101.468 19.8745 101.468 20.8098C101.468 21.745 101.723 22.483 102.235 23.0238C102.761 23.5645 103.397 23.8348 104.142 23.8348C104.887 23.8348 105.523 23.5645 106.049 23.0238C106.575 22.4684 106.838 21.7231 106.838 20.7879Z" fill="black"/>
<path d="M114.504 13.4225C113.847 13.4225 113.306 13.2325 112.882 12.8526C112.473 12.458 112.268 11.9757 112.268 11.4058C112.268 10.8213 112.473 10.339 112.882 9.95904C113.306 9.56448 113.847 9.36719 114.504 9.36719C115.147 9.36719 115.673 9.56448 116.082 9.95904C116.506 10.339 116.718 10.8213 116.718 11.4058C116.718 11.9757 116.506 12.458 116.082 12.8526C115.673 13.2325 115.147 13.4225 114.504 13.4225ZM116.368 14.6939V26.9257H112.619V14.6939H116.368Z" fill="black"/>
<path fill-rule="evenodd" clip-rule="evenodd" d="M30.469 33.5341L0.731445 16.0115L0.837859 4.01855L30.5754 21.5412L30.469 33.5341Z" fill="black"/>
<path d="M17.765 3.38794C17.7499 5.0889 18.07 6.77618 18.707 8.35345C19.344 9.9307 20.2854 11.3671 21.4775 12.5805C22.6696 13.7939 24.089 14.7607 25.6547 15.4255C27.2204 16.0904 28.9017 16.4404 30.6027 16.4555L30.7176 3.50287L17.765 3.38794Z" fill="black"/>
<path d="M13.5319 33.2807C13.5471 31.5797 13.227 29.8924 12.59 28.3152C11.953 26.7379 11.0116 25.3016 9.81948 24.0881C8.6274 22.8747 7.208 21.908 5.64227 21.2431C4.07658 20.5782 2.39524 20.2282 0.694273 20.2131L0.579346 33.1657L13.5319 33.2807Z" fill="black"/>
</g>
<defs>
<clipPath id="clip0_28_146">
<rect width="120.333" height="38" fill="white" transform="translate(0.579346)"/>
</clipPath>
</defs>
</svg>
