<svg width="194" height="38" viewBox="0 0 194 38" fill="none" xmlns="http://www.w3.org/2000/svg">
<path d="M41.9172 29.4281V6.83569H46.0483L56.6667 22.7473V6.83569H60.7978V29.4281H56.6667L46.0483 13.5489V29.4281H41.9172Z" fill="#051226"/>
<path d="M71.2454 29.8155C69.6315 29.8155 68.2008 29.471 66.9529 28.7826C65.705 28.0942 64.7259 27.1259 64.0158 25.878C63.3056 24.6297 62.9507 23.1883 62.9507 21.5531C62.9507 19.8963 63.2949 18.4224 63.9836 17.1314C64.6935 15.8404 65.6618 14.8399 66.8882 14.1298C68.1361 13.3983 69.5993 13.0325 71.2775 13.0325C72.8485 13.0325 74.236 13.3767 75.4411 14.0653C76.6461 14.7538 77.582 15.7005 78.2489 16.9054C78.9377 18.0889 79.2819 19.4121 79.2819 20.8753C79.2819 21.1119 79.2712 21.3594 79.2494 21.6176C79.2494 21.8758 79.2387 22.1447 79.2173 22.4246H67.0496C67.1357 23.6725 67.5659 24.6515 68.3407 25.3613C69.1366 26.0715 70.0942 26.4264 71.2132 26.4264C72.0523 26.4264 72.7514 26.2436 73.3109 25.878C73.8918 25.4906 74.3221 24.9957 74.602 24.3933H78.7977C78.4964 25.4045 77.9908 26.3297 77.2806 27.1687C76.5922 27.9864 75.7317 28.6319 74.6988 29.1054C73.6876 29.5788 72.5364 29.8155 71.2454 29.8155ZM71.2775 16.389C70.2663 16.389 69.3733 16.6795 68.5989 17.2605C67.8241 17.8199 67.3292 18.6806 67.1143 19.8425H75.0862C75.0215 18.7881 74.6341 17.949 73.9243 17.325C73.2141 16.701 72.3319 16.389 71.2775 16.389Z" fill="#051226"/>
<path d="M78.5227 29.4281L84.332 21.4239L78.5227 13.4197H82.9444L87.0109 19.1001L91.0452 13.4197H95.4991L89.6574 21.4239L95.4991 29.4281H91.0452L87.0109 23.7477L82.9444 29.4281H78.5227Z" fill="#051226"/>
<path d="M103.65 29.4281C101.972 29.4281 100.627 29.0193 99.6157 28.2017C98.6046 27.384 98.099 25.9315 98.099 23.8446V16.8732H95.3557V13.4197H98.099L98.5831 9.1272H102.23V13.4197H106.555V16.8732H102.23V23.8767C102.23 24.6515 102.391 25.1892 102.714 25.4906C103.058 25.7701 103.639 25.9101 104.457 25.9101H106.458V29.4281H103.65Z" fill="#051226"/>
<path d="M108.488 29.4281V13.4198H112.135L112.49 15.5822C113.006 14.8076 113.684 14.1944 114.523 13.7425C115.384 13.2692 116.374 13.0325 117.493 13.0325C119.967 13.0325 121.72 13.99 122.753 15.905C123.334 15.0228 124.109 14.3235 125.077 13.8071C126.067 13.2907 127.143 13.0325 128.305 13.0325C130.392 13.0325 131.995 13.6565 133.114 14.9044C134.232 16.1524 134.792 17.9813 134.792 20.3911V29.4281H130.661V20.7784C130.661 19.4014 130.392 18.3471 129.854 17.6155C129.337 16.884 128.531 16.5182 127.433 16.5182C126.314 16.5182 125.411 16.927 124.722 17.7446C124.055 18.5622 123.722 19.7026 123.722 21.1657V29.4281H119.59V20.7784C119.59 19.4014 119.321 18.3471 118.784 17.6155C118.246 16.884 117.417 16.5182 116.298 16.5182C115.201 16.5182 114.308 16.927 113.62 17.7446C112.953 18.5622 112.619 19.7026 112.619 21.1657V29.4281H108.488Z" fill="#051226"/>
<path d="M144.782 29.8155C143.233 29.8155 141.834 29.4603 140.586 28.7505C139.36 28.0403 138.381 27.0613 137.649 25.8134C136.939 24.5437 136.584 23.0808 136.584 21.4239C136.584 19.7672 136.95 18.3148 137.681 17.0668C138.413 15.7973 139.392 14.8076 140.618 14.0976C141.866 13.3875 143.265 13.0325 144.814 13.0325C146.342 13.0325 147.719 13.3875 148.945 14.0976C150.193 14.8076 151.172 15.7973 151.882 17.0668C152.614 18.3148 152.979 19.7672 152.979 21.4239C152.979 23.0808 152.614 24.5437 151.882 25.8134C151.172 27.0613 150.193 28.0403 148.945 28.7505C147.697 29.4603 146.309 29.8155 144.782 29.8155ZM144.782 26.2329C145.858 26.2329 146.794 25.8348 147.59 25.0386C148.386 24.2212 148.784 23.0162 148.784 21.4239C148.784 19.8317 148.386 18.6375 147.59 17.8414C146.794 17.0238 145.868 16.615 144.814 16.615C143.717 16.615 142.77 17.0238 141.974 17.8414C141.199 18.6375 140.812 19.8317 140.812 21.4239C140.812 23.0162 141.199 24.2212 141.974 25.0386C142.77 25.8348 143.706 26.2329 144.782 26.2329Z" fill="#051226"/>
<path d="M158.597 29.4281L152.722 13.4197H157.047L161.114 25.5226L165.181 13.4197H169.505L163.599 29.4281H158.597Z" fill="#051226"/>
<path d="M177.488 29.8155C175.874 29.8155 174.443 29.471 173.195 28.7826C171.947 28.0942 170.968 27.1259 170.258 25.878C169.548 24.6297 169.193 23.1883 169.193 21.5531C169.193 19.8963 169.537 18.4224 170.226 17.1314C170.936 15.8404 171.904 14.8399 173.13 14.1298C174.378 13.3983 175.842 13.0325 177.52 13.0325C179.091 13.0325 180.479 13.3767 181.683 14.0653C182.888 14.7538 183.824 15.7005 184.491 16.9054C185.18 18.0889 185.524 19.4121 185.524 20.8753C185.524 21.1119 185.513 21.3594 185.492 21.6176C185.492 21.8758 185.481 22.1447 185.459 22.4246H173.292C173.378 23.6725 173.808 24.6515 174.583 25.3613C175.379 26.0715 176.336 26.4264 177.455 26.4264C178.294 26.4264 178.994 26.2436 179.553 25.878C180.134 25.4906 180.565 24.9957 180.844 24.3933H185.04C184.739 25.4045 184.233 26.3297 183.523 27.1687C182.834 27.9864 181.974 28.6319 180.941 29.1054C179.93 29.5788 178.779 29.8155 177.488 29.8155ZM177.52 16.389C176.509 16.389 175.616 16.6795 174.841 17.2605C174.067 17.8199 173.572 18.6806 173.356 19.8425H181.328C181.264 18.7881 180.876 17.949 180.166 17.325C179.456 16.701 178.574 16.389 177.52 16.389Z" fill="#051226"/>
<path d="M21.5463 6.39645V16.6096C21.5463 17.7753 20.6013 18.7203 19.4356 18.7203H9.22244V14.4989H14.3343L8.96338 9.12803L11.9483 6.14307L17.3249 11.5197V6.39645H21.5463Z" fill="#051226"/>
<path d="M34.0143 18.865H23.8011C22.6354 18.865 21.6904 19.81 21.6904 20.9757V31.189H25.9119V26.0766L31.2831 31.4478L34.2679 28.463L28.8915 23.0862H34.0143V18.865Z" fill="#051226"/>
</svg>
