<svg width="50" height="50" viewBox="0 0 50 50" fill="none" xmlns="http://www.w3.org/2000/svg">
<rect width="50" height="50" rx="25" fill="#DFDDD8"/>
<path fill-rule="evenodd" clip-rule="evenodd" d="M16 17.8571C16 17.0994 16.301 16.3727 16.8368 15.8368C17.3727 15.301 18.0994 15 18.8571 15H20.1638C20.9829 15 21.6971 15.5581 21.8962 16.3524L22.9486 20.5648C23.0339 20.9057 23.0166 21.2642 22.8991 21.5955C22.7815 21.9267 22.5688 22.2158 22.2876 22.4267L21.0562 23.3505C20.9276 23.4467 20.9 23.5876 20.9362 23.6857C21.4737 25.1475 22.3225 26.475 23.4238 27.5762C24.525 28.6775 25.8525 29.5263 27.3143 30.0638C27.4124 30.1 27.5524 30.0724 27.6495 29.9438L28.5733 28.7124C28.7842 28.4312 29.0733 28.2185 29.4045 28.1009C29.7358 27.9834 30.0943 27.9661 30.4352 28.0514L34.6476 29.1038C35.4419 29.3029 36 30.0171 36 30.8371V32.1429C36 32.9006 35.699 33.6273 35.1632 34.1632C34.6273 34.699 33.9006 35 33.1429 35H31C22.7162 35 16 28.2838 16 20V17.8571Z" fill="#0E1418"/>
</svg>
