<svg width="24" height="24" viewBox="0 0 24 24" fill="none" xmlns="http://www.w3.org/2000/svg">
<path d="M17.5804 1.71864L14.9078 1.71436C11.9051 1.71436 9.96467 3.70145 9.96467 6.77701V9.11124H7.27743C7.04522 9.11124 6.85718 9.29914 6.85718 9.53091V12.9129C6.85718 13.1447 7.04543 13.3324 7.27743 13.3324H9.96467V21.8663C9.96467 22.0981 10.1527 22.2858 10.3849 22.2858H13.891C14.1232 22.2858 14.3113 22.0979 14.3113 21.8663V13.3324H17.4533C17.6855 13.3324 17.8735 13.1447 17.8735 12.9129L17.8748 9.53091C17.8748 9.41963 17.8304 9.31305 17.7517 9.23429C17.6731 9.15554 17.5658 9.11124 17.4544 9.11124H14.3113V7.13248C14.3113 6.18142 14.5383 5.69861 15.7796 5.69861L17.58 5.69797C17.812 5.69797 18 5.51006 18 5.2785V2.1381C18 1.90675 17.8122 1.71906 17.5804 1.71864Z" fill="#C8CAD1"/>
</svg>
