<svg width="152" height="18" viewBox="0 0 152 18" fill="none" xmlns="http://www.w3.org/2000/svg">
<path d="M2.87652 7.37615H9.31992V9.76147H2.87652V7.37615ZM3.10664 14.4404H0V1.59633H10.1445V3.98165H3.10664V14.4404Z" fill="#635BFF"/>
<path d="M12.0367 14.4404V0.825688H15.0283V14.4404H12.0367Z" fill="#635BFF"/>
<path d="M22.714 14.5872C21.6145 14.5872 20.6365 14.367 19.78 13.9266C18.9362 13.4862 18.265 12.8868 17.7664 12.1284C17.2806 11.3578 17.0377 10.4832 17.0377 9.50459C17.0377 8.51376 17.2806 7.63914 17.7664 6.88073C18.265 6.11009 18.9362 5.5107 19.78 5.08257C20.6365 4.6422 21.6145 4.42202 22.714 4.42202C23.8007 4.42202 24.7723 4.6422 25.6289 5.08257C26.4854 5.5107 27.1566 6.10398 27.6424 6.86238C28.1283 7.62079 28.3712 8.50153 28.3712 9.50459C28.3712 10.4832 28.1283 11.3578 27.6424 12.1284C27.1566 12.8868 26.4854 13.4862 25.6289 13.9266C24.7723 14.367 23.8007 14.5872 22.714 14.5872ZM22.714 12.2385C23.2126 12.2385 23.6601 12.1284 24.0564 11.9083C24.4527 11.6881 24.7659 11.3761 24.996 10.9725C25.2262 10.5566 25.3412 10.0673 25.3412 9.50459C25.3412 8.92966 25.2262 8.44037 24.996 8.0367C24.7659 7.63303 24.4527 7.3211 24.0564 7.10092C23.6601 6.88073 23.2126 6.77064 22.714 6.77064C22.2154 6.77064 21.7679 6.88073 21.3716 7.10092C20.9753 7.3211 20.6557 7.63303 20.4128 8.0367C20.1827 8.44037 20.0676 8.92966 20.0676 9.50459C20.0676 10.0673 20.1827 10.5566 20.4128 10.9725C20.6557 11.3761 20.9753 11.6881 21.3716 11.9083C21.7679 12.1284 22.2154 12.2385 22.714 12.2385Z" fill="#635BFF"/>
<path d="M32.4486 14.4404L28.7283 4.56881H31.5473L34.6348 13.0642H33.2924L36.5141 4.56881H39.0454L42.1712 13.0642H40.8289L44.0122 4.56881H46.6586L42.9191 14.4404H40.0234L37.2812 7.15596H38.1633L35.3251 14.4404H32.4486Z" fill="#635BFF"/>
<path d="M46.1456 14.4404L51.9179 6.82569V8.99083L46.3949 1.59633H49.9235L53.7397 6.75229L52.263 6.77064L56.0217 1.59633H59.3968L53.9122 8.86238V6.73395L59.7228 14.4404H56.1368L52.1863 8.99083H53.6054L49.7125 14.4404H46.1456Z" fill="#635BFF"/>
<path d="M67.0695 14.5872C66.2001 14.5872 65.4394 14.4037 64.7874 14.0367C64.1354 13.6697 63.624 13.1132 63.2533 12.367C62.8953 11.6086 62.7163 10.6544 62.7163 9.50459C62.7163 8.34251 62.8889 7.38838 63.2341 6.6422C63.5793 5.89602 64.0779 5.33945 64.7299 4.97248C65.3819 4.6055 66.1618 4.42202 67.0695 4.42202C68.0411 4.42202 68.9104 4.63609 69.6775 5.06422C70.4574 5.48012 71.071 6.06728 71.5185 6.82569C71.9787 7.5841 72.2088 8.47706 72.2088 9.50459C72.2088 10.5443 71.9787 11.4434 71.5185 12.2018C71.071 12.9602 70.4574 13.5474 69.6775 13.9633C68.9104 14.3792 68.0411 14.5872 67.0695 14.5872ZM60.9712 18V4.56881H63.8286V6.58716L63.7711 9.52294L63.9628 12.4404V18H60.9712ZM66.5517 12.2385C67.0503 12.2385 67.4914 12.1284 67.8749 11.9083C68.2712 11.6881 68.5844 11.3761 68.8145 10.9725C69.0575 10.5566 69.1789 10.0673 69.1789 9.50459C69.1789 8.92966 69.0575 8.44037 68.8145 8.0367C68.5844 7.63303 68.2712 7.3211 67.8749 7.10092C67.4914 6.88073 67.0503 6.77064 66.5517 6.77064C66.0531 6.77064 65.6056 6.88073 65.2093 7.10092C64.813 7.3211 64.4998 7.63303 64.2697 8.0367C64.0395 8.44037 63.9245 8.92966 63.9245 9.50459C63.9245 10.0673 64.0395 10.5566 64.2697 10.9725C64.4998 11.3761 64.813 11.6881 65.2093 11.9083C65.6056 12.1284 66.0531 12.2385 66.5517 12.2385Z" fill="#635BFF"/>
<path d="M79.3317 14.5872C78.1555 14.5872 77.1199 14.367 76.225 13.9266C75.3429 13.4862 74.6589 12.8868 74.1731 12.1284C73.6873 11.3578 73.4444 10.4832 73.4444 9.50459C73.4444 8.51376 73.6809 7.63914 74.1539 6.88073C74.6397 6.11009 75.2982 5.5107 76.1291 5.08257C76.9601 4.6422 77.8998 4.42202 78.9481 4.42202C79.9581 4.42202 80.8658 4.62997 81.6712 5.04587C82.4894 5.44954 83.1351 6.0367 83.6081 6.80734C84.0811 7.56575 84.3176 8.47706 84.3176 9.54128C84.3176 9.65138 84.3112 9.77982 84.2985 9.92661C84.2857 10.0612 84.2729 10.1896 84.2601 10.3119H75.8798V8.6422H82.6876L81.537 9.13761C81.537 8.62385 81.4283 8.17737 81.211 7.79816C80.9937 7.41896 80.6932 7.12538 80.3097 6.91743C79.9262 6.69725 79.4787 6.58716 78.9673 6.58716C78.4559 6.58716 78.0021 6.69725 77.6058 6.91743C77.2222 7.12538 76.9218 7.42508 76.7044 7.81651C76.4871 8.19572 76.3784 8.64832 76.3784 9.17431V9.61468C76.3784 10.1529 76.4999 10.63 76.7428 11.0459C76.9985 11.4495 77.3501 11.7615 77.7975 11.9817C78.2578 12.1896 78.7947 12.2936 79.4084 12.2936C79.9581 12.2936 80.4375 12.2141 80.8466 12.055C81.2685 11.896 81.6521 11.6575 81.9972 11.3394L83.5889 12.9908C83.1159 13.5046 82.5214 13.9021 81.8055 14.1835C81.0895 14.4526 80.2649 14.5872 79.3317 14.5872Z" fill="#635BFF"/>
<path d="M86.3093 14.4404V4.56881H89.1667V7.3578L88.764 6.55046C89.0708 5.85321 89.563 5.32722 90.2406 4.97248C90.9181 4.6055 91.7427 4.42202 92.7144 4.42202V7.06422C92.5865 7.05199 92.4715 7.04587 92.3692 7.04587C92.2669 7.03364 92.1582 7.02752 92.0432 7.02752C91.225 7.02752 90.5602 7.25382 90.0488 7.70642C89.5502 8.14679 89.3009 8.83792 89.3009 9.77982V14.4404H86.3093Z" fill="#635BFF"/>
<path d="M94.5119 14.4404V4.56881H97.5035V14.4404H94.5119ZM96.0077 3.19266C95.4579 3.19266 95.0105 3.03976 94.6653 2.73395C94.3201 2.42813 94.1475 2.04893 94.1475 1.59633C94.1475 1.14373 94.3201 0.764526 94.6653 0.458716C95.0105 0.152905 95.4579 0 96.0077 0C96.5574 0 97.0049 0.146789 97.3501 0.440368C97.6952 0.721713 97.8678 1.08869 97.8678 1.54129C97.8678 2.01835 97.6952 2.4159 97.3501 2.73395C97.0177 3.03976 96.5702 3.19266 96.0077 3.19266Z" fill="#635BFF"/>
<path d="M105.4 14.5872C104.224 14.5872 103.188 14.367 102.293 13.9266C101.411 13.4862 100.727 12.8868 100.242 12.1284C99.7557 11.3578 99.5128 10.4832 99.5128 9.50459C99.5128 8.51376 99.7494 7.63914 100.222 6.88073C100.708 6.11009 101.367 5.5107 102.198 5.08257C103.029 4.6422 103.968 4.42202 105.017 4.42202C106.027 4.42202 106.934 4.62997 107.74 5.04587C108.558 5.44954 109.204 6.0367 109.677 6.80734C110.15 7.56575 110.386 8.47706 110.386 9.54128C110.386 9.65138 110.38 9.77982 110.367 9.92661C110.354 10.0612 110.341 10.1896 110.329 10.3119H101.948V8.6422H108.756L107.605 9.13761C107.605 8.62385 107.497 8.17737 107.279 7.79816C107.062 7.41896 106.762 7.12538 106.378 6.91743C105.995 6.69725 105.547 6.58716 105.036 6.58716C104.524 6.58716 104.071 6.69725 103.674 6.91743C103.291 7.12538 102.99 7.42508 102.773 7.81651C102.556 8.19572 102.447 8.64832 102.447 9.17431V9.61468C102.447 10.1529 102.568 10.63 102.811 11.0459C103.067 11.4495 103.419 11.7615 103.866 11.9817C104.326 12.1896 104.863 12.2936 105.477 12.2936C106.027 12.2936 106.506 12.2141 106.915 12.055C107.337 11.896 107.72 11.6575 108.066 11.3394L109.657 12.9908C109.184 13.5046 108.59 13.9021 107.874 14.1835C107.158 14.4526 106.333 14.5872 105.4 14.5872Z" fill="#635BFF"/>
<path d="M118.649 4.42202C119.467 4.42202 120.195 4.58104 120.835 4.89908C121.487 5.20489 121.998 5.68196 122.369 6.33027C122.74 6.96636 122.925 7.78593 122.925 8.78899V14.4404H119.933V9.22936C119.933 8.43425 119.748 7.84709 119.377 7.46789C119.019 7.08868 118.508 6.89908 117.843 6.89908C117.37 6.89908 116.942 6.99694 116.558 7.19266C116.188 7.37615 115.894 7.66361 115.676 8.05505C115.472 8.44648 115.369 8.94801 115.369 9.55963V14.4404H112.378V4.56881H115.235V7.30275L114.698 6.47706C115.069 5.81651 115.599 5.30887 116.29 4.95413C116.98 4.59939 117.766 4.42202 118.649 4.42202Z" fill="#635BFF"/>
<path d="M130.698 14.5872C129.585 14.5872 128.595 14.3731 127.725 13.945C126.856 13.5046 126.172 12.8991 125.673 12.1284C125.187 11.3578 124.945 10.4832 124.945 9.50459C124.945 8.51376 125.187 7.63914 125.673 6.88073C126.172 6.11009 126.856 5.5107 127.725 5.08257C128.595 4.6422 129.585 4.42202 130.698 4.42202C131.784 4.42202 132.73 4.6422 133.536 5.08257C134.341 5.5107 134.936 6.12844 135.319 6.93578L132.999 8.12844C132.73 7.66361 132.392 7.3211 131.982 7.10092C131.586 6.88073 131.151 6.77064 130.678 6.77064C130.167 6.77064 129.707 6.88073 129.298 7.10092C128.889 7.3211 128.563 7.63303 128.32 8.0367C128.09 8.44037 127.974 8.92966 127.974 9.50459C127.974 10.0795 128.09 10.5688 128.32 10.9725C128.563 11.3761 128.889 11.6881 129.298 11.9083C129.707 12.1284 130.167 12.2385 130.678 12.2385C131.151 12.2385 131.586 12.1346 131.982 11.9266C132.392 11.7064 132.73 11.3578 132.999 10.8807L135.319 12.0917C134.936 12.8868 134.341 13.5046 133.536 13.945C132.73 14.3731 131.784 14.5872 130.698 14.5872Z" fill="#635BFF"/>
<path d="M142.031 14.5872C140.855 14.5872 139.819 14.367 138.924 13.9266C138.042 13.4862 137.358 12.8868 136.872 12.1284C136.386 11.3578 136.143 10.4832 136.143 9.50459C136.143 8.51376 136.38 7.63914 136.853 6.88073C137.339 6.11009 137.997 5.5107 138.828 5.08257C139.659 4.6422 140.599 4.42202 141.647 4.42202C142.657 4.42202 143.565 4.62997 144.37 5.04587C145.189 5.44954 145.834 6.0367 146.307 6.80734C146.78 7.56575 147.017 8.47706 147.017 9.54128C147.017 9.65138 147.01 9.77982 146.998 9.92661C146.985 10.0612 146.972 10.1896 146.959 10.3119H138.579V8.6422H145.387L144.236 9.13761C144.236 8.62385 144.127 8.17737 143.91 7.79816C143.693 7.41896 143.392 7.12538 143.009 6.91743C142.625 6.69725 142.178 6.58716 141.666 6.58716C141.155 6.58716 140.701 6.69725 140.305 6.91743C139.921 7.12538 139.621 7.42508 139.404 7.81651C139.186 8.19572 139.078 8.64832 139.078 9.17431V9.61468C139.078 10.1529 139.199 10.63 139.442 11.0459C139.698 11.4495 140.049 11.7615 140.497 11.9817C140.957 12.1896 141.494 12.2936 142.107 12.2936C142.657 12.2936 143.137 12.2141 143.546 12.055C143.968 11.896 144.351 11.6575 144.696 11.3394L146.288 12.9908C145.815 13.5046 145.22 13.9021 144.505 14.1835C143.789 14.4526 142.964 14.5872 142.031 14.5872Z" fill="#635BFF"/>
<path d="M150.14 14.5872C149.628 14.5872 149.187 14.422 148.817 14.0917C148.459 13.7492 148.28 13.315 148.28 12.789C148.28 12.263 148.459 11.841 148.817 11.5229C149.187 11.1927 149.628 11.0275 150.14 11.0275C150.664 11.0275 151.105 11.1927 151.463 11.5229C151.821 11.841 152 12.263 152 12.789C152 13.315 151.821 13.7492 151.463 14.0917C151.105 14.422 150.664 14.5872 150.14 14.5872Z" fill="#635BFF"/>
</svg>
