<svg width="59" height="40" viewBox="0 0 59 40" fill="none" xmlns="http://www.w3.org/2000/svg">
<path d="M11.4975 5.99298H11.5067C11.7188 5.99056 11.9214 5.90397 12.0697 5.75227C12.218 5.60057 12.3 5.39617 12.2977 5.18402L12.2797 3.59144C12.2773 3.38087 12.192 3.17973 12.0423 3.03165C11.8926 2.88358 11.6905 2.80049 11.4799 2.80042H11.4708C11.2586 2.80284 11.0561 2.88943 10.9077 3.04113C10.7594 3.19283 10.6774 3.39724 10.6797 3.6094L10.6977 5.20198C10.7001 5.41255 10.7854 5.61368 10.9351 5.76175C11.0849 5.90983 11.2869 5.99291 11.4975 5.99298Z" fill="#0E1418"/>
<path d="M7.72521 7.46999C7.87501 7.31977 7.95901 7.11622 7.95876 6.90408C7.9585 6.69194 7.874 6.48859 7.72384 6.33873L6.57461 5.19225C6.42426 5.04302 6.22086 4.9595 6.00902 4.96002C5.79718 4.96055 5.5942 5.04506 5.44459 5.19503C5.29498 5.34501 5.21095 5.54819 5.21094 5.76003C5.21093 5.97187 5.29493 6.17507 5.44453 6.32505L6.59373 7.47154C6.74509 7.61925 6.94829 7.7018 7.15979 7.70151C7.37128 7.70122 7.57425 7.61811 7.72521 7.46999Z" fill="#0E1418"/>
<path d="M15.3078 7.61838C15.4579 7.76723 15.6602 7.85153 15.8716 7.85328C16.083 7.85503 16.2867 7.7741 16.4392 7.62775L17.5636 6.5215C17.7143 6.37256 17.7998 6.16992 17.8013 5.95803C17.8028 5.74615 17.7202 5.54233 17.5716 5.39129C17.423 5.24025 17.2205 5.15433 17.0086 5.15238C16.7967 5.15043 16.5927 5.2326 16.4414 5.38088L15.317 6.48713C15.1658 6.63594 15.0799 6.83871 15.0782 7.05085C15.0764 7.26299 15.159 7.46713 15.3078 7.61838Z" fill="#0E1418"/>
<path d="M8.40937 5.92899C8.49563 6.12151 8.65316 6.27311 8.84885 6.35192C9.04454 6.43074 9.26316 6.43064 9.45878 6.35165C9.55545 6.31054 9.64308 6.25079 9.71665 6.17581C9.79023 6.10083 9.84831 6.01209 9.88758 5.91465C9.92685 5.81722 9.94653 5.713 9.94551 5.60796C9.94449 5.50291 9.92279 5.3991 9.88163 5.30245L9.25039 3.81965C9.16702 3.62483 9.00977 3.47104 8.81314 3.39203C8.61651 3.31303 8.39657 3.31526 8.20159 3.39824C8.0066 3.48122 7.8525 3.63817 7.77311 3.83465C7.69372 4.03112 7.69552 4.25106 7.77812 4.44621C7.77812 4.44621 8.40864 5.92723 8.40937 5.92899Z" fill="#0E1418"/>
<path d="M14.7818 3.50512C14.6847 3.46494 14.5806 3.44431 14.4756 3.4444C14.3705 3.44449 14.2664 3.4653 14.1694 3.50565C14.0723 3.54599 13.9842 3.60508 13.91 3.67953C13.8359 3.75397 13.7771 3.84231 13.7371 3.9395L13.1348 5.39887C13.0947 5.49596 13.0741 5.6 13.0742 5.70504C13.0743 5.81008 13.0952 5.91407 13.1355 6.01107C13.1758 6.10807 13.2348 6.19617 13.3092 6.27035C13.3836 6.34453 13.4718 6.40333 13.5689 6.4434C13.7653 6.52177 13.9845 6.52019 14.1798 6.43902C14.375 6.35785 14.5307 6.20352 14.6137 6.00903L15.216 4.54964C15.2561 4.45255 15.2767 4.34851 15.2765 4.24347C15.2764 4.13843 15.2556 4.03444 15.2153 3.93745C15.175 3.84045 15.1159 3.75235 15.0416 3.67817C14.9672 3.60399 14.8789 3.54519 14.7818 3.50512Z" fill="#0E1418"/>
<path d="M19.4392 8.13679C19.3601 7.9399 19.2061 7.78248 19.011 7.69912C18.8159 7.61576 18.5957 7.61329 18.3988 7.69225L16.9238 8.28444C16.7269 8.36355 16.5695 8.51761 16.4862 8.71276C16.4028 8.9079 16.4004 9.12815 16.4795 9.32507C16.5623 9.51886 16.7167 9.67323 16.9105 9.75603C17.1043 9.83884 17.3226 9.8437 17.5199 9.7696L18.9949 9.17741C19.1918 9.09831 19.3492 8.94425 19.4325 8.74911C19.5158 8.55396 19.5182 8.33371 19.4392 8.13679Z" fill="#0E1418"/>
<path d="M6.09645 8.23793L4.59156 7.63364C4.49403 7.59427 4.38969 7.57453 4.28452 7.57554C4.17935 7.57654 4.0754 7.59828 3.97864 7.6395C3.88188 7.68072 3.79419 7.74061 3.7206 7.81576C3.64702 7.8909 3.58897 7.97982 3.54978 8.07743C3.5106 8.17503 3.49104 8.27941 3.49224 8.38458C3.49344 8.48975 3.51536 8.59365 3.55676 8.69034C3.59815 8.78702 3.65821 8.8746 3.73349 8.94805C3.80877 9.0215 3.89779 9.07939 3.99547 9.1184L5.50035 9.7227C5.69749 9.79898 5.91664 9.79519 6.11102 9.71214C6.30541 9.62909 6.45963 9.47335 6.54078 9.27816C6.57994 9.18069 6.5995 9.07645 6.59836 8.97141C6.59722 8.86637 6.5754 8.76259 6.53414 8.66599C6.49287 8.56938 6.43298 8.48186 6.35788 8.40841C6.28278 8.33496 6.19394 8.27703 6.09645 8.23793Z" fill="#0E1418"/>
<path d="M7.52621 10.725C7.93871 10.8828 14.9073 10.7894 15.2365 10.7969C15.3629 10.796 15.4873 10.7654 15.5996 10.7074C15.7119 10.6494 15.8089 10.5658 15.8828 10.4632C15.9566 10.3607 16.0052 10.2421 16.0246 10.1172C16.044 9.99235 16.0337 9.86465 15.9944 9.74452C15.7533 9.03002 15.3501 8.38104 14.8163 7.84843C14.3904 7.42207 13.8846 7.08394 13.3279 6.85342C12.7711 6.6229 12.1743 6.50452 11.5717 6.50507H11.5371C10.895 6.51119 10.2608 6.64804 9.67328 6.90727C9.08574 7.1665 8.55716 7.54269 8.11976 8.01288C7.66045 8.49738 7.30177 9.06815 7.06449 9.69218C7.02696 9.79031 7.00913 9.89487 7.01202 9.99989C7.01491 10.1049 7.03847 10.2083 7.08135 10.3043C7.12423 10.4002 7.18559 10.4867 7.26192 10.5589C7.33825 10.6311 7.42806 10.6875 7.52621 10.725Z" fill="#0E1418"/>
<path d="M31.2077 27.2C31.2199 27.2 31.2321 27.1996 31.2444 27.1987C36.5757 26.8228 37.0849 22.7955 37.0914 21.3223C37.0919 21.254 37.0789 21.1863 37.0532 21.1231C37.0275 21.0599 36.9895 21.0024 36.9415 20.9539C36.8936 20.9053 36.8365 20.8668 36.7735 20.8404C36.7106 20.814 36.6431 20.8002 36.5748 20.8C36.566 20.8 36.5571 20.8002 36.5482 20.8007C31.1342 21.076 30.6775 25.188 30.6917 26.6841C30.6925 26.8208 30.7471 26.9515 30.8437 27.0481C30.9403 27.1447 31.0711 27.1993 31.2077 27.2Z" fill="#0E1418"/>
<path d="M20.1222 16.8035C20.1012 16.8011 20.08 16.8 20.0588 16.8C19.9349 16.7958 19.8138 16.8376 19.7187 16.9171C19.6236 16.9967 19.5611 17.1086 19.5433 17.2313C19.3618 18.9256 19.3281 24.6119 26.8457 25.5951C26.8701 25.5983 26.8948 25.6 26.9195 25.6C27.0424 25.6038 27.1625 25.5627 27.2572 25.4842C27.352 25.4058 27.4148 25.2956 27.434 25.1741C27.6424 23.4547 27.7646 17.6558 20.1222 16.8035Z" fill="#0E1418"/>
<path d="M5.67816 28.6231C6.32323 29.0075 7.06186 29.2065 7.81274 29.1981C8.1872 29.2015 8.56045 29.1551 8.9227 29.0602C9.10483 29.0064 9.26187 28.8895 9.36571 28.7305C9.46956 28.5714 9.51343 28.3807 9.4895 28.1922C9.2893 26.6176 8.66821 25.4579 7.6436 24.7442C6.59535 24.0809 5.33105 23.8491 4.11566 24.0973C3.91428 24.1439 3.73876 24.2667 3.62589 24.4399C3.51302 24.613 3.47156 24.8232 3.51019 25.0262C3.83559 26.7341 4.56488 27.9442 5.67816 28.6231Z" fill="#0E1418"/>
<path d="M13.2685 29.0602C13.6308 29.1551 14.004 29.2015 14.3785 29.1981C15.1294 29.2065 15.868 29.0075 16.5131 28.6231C17.6264 27.9442 18.3557 26.734 18.681 25.0262C18.7197 24.8231 18.6782 24.613 18.5653 24.4398C18.4525 24.2667 18.277 24.1439 18.0756 24.0973C16.8603 23.8488 15.596 24.0805 14.5478 24.7438C13.5232 25.4574 12.9021 26.6176 12.7017 28.1918C12.6777 28.3803 12.7215 28.5712 12.8254 28.7303C12.9292 28.8894 13.0863 29.0063 13.2685 29.0602Z" fill="#0E1418"/>
<path d="M40.1118 24.0973C39.9104 24.1439 39.7349 24.2667 39.622 24.4399C39.5091 24.613 39.4677 24.8232 39.5063 25.0262C39.8317 26.734 40.561 27.9442 41.6743 28.6231C42.3193 29.0075 43.058 29.2065 43.8088 29.1981C44.1833 29.2015 44.5565 29.1551 44.9188 29.0602C45.1009 29.0064 45.258 28.8895 45.3618 28.7305C45.4656 28.5714 45.5095 28.3807 45.4856 28.1922C45.2854 26.6176 44.6643 25.4579 43.6397 24.7442C42.5914 24.0809 41.3271 23.8491 40.1118 24.0973Z" fill="#0E1418"/>
<path d="M50.5478 24.7438C49.5232 25.4574 48.9021 26.6176 48.7017 28.1918C48.6777 28.3803 48.7215 28.5712 48.8254 28.7303C48.9292 28.8894 49.0863 29.0063 49.2685 29.0602C49.6308 29.1551 50.004 29.2015 50.3785 29.1981C51.1294 29.2065 51.868 29.0075 52.5131 28.6231C53.6264 27.9442 54.3557 26.734 54.681 25.0262C54.7197 24.8231 54.6782 24.613 54.5653 24.4398C54.4525 24.2667 54.277 24.1439 54.0756 24.0973C52.8603 23.8488 51.596 24.0805 50.5478 24.7438Z" fill="#0E1418"/>
<path d="M53.0961 32.8001H47.8957V24.3695C48.4521 23.7636 49.9803 21.8834 49.892 19.5786C49.832 18.0118 49.0527 16.6001 47.5754 15.3829C47.4368 15.2681 47.2635 15.2036 47.0837 15.1998C46.9038 15.1959 46.7279 15.253 46.5846 15.3618C46.499 15.4262 44.4902 16.97 44.309 19.4755C44.1914 21.0987 44.8663 22.706 46.2957 24.2601V32.8001H39.4812C39.393 32.5844 39.3876 32.3437 39.466 32.1243C39.5087 32.0559 39.5755 32.006 39.6531 31.9844C39.8593 31.9432 40.041 31.8225 40.1589 31.6483C40.2767 31.4742 40.3212 31.2606 40.2828 31.0539C40.2443 30.8471 40.126 30.6638 39.9535 30.5437C39.7809 30.4235 39.568 30.3761 39.3607 30.4118C39.1015 30.4644 38.8559 30.5697 38.639 30.721C38.422 30.8723 38.2384 31.0664 38.0994 31.2915C37.8398 31.7488 37.7511 32.2834 37.849 32.8001H37.1432C37.2411 32.2834 37.1524 31.7488 36.8928 31.2915C36.7538 31.0664 36.5702 30.8723 36.3532 30.721C36.1363 30.5697 35.8906 30.4644 35.6314 30.4118C35.5279 30.394 35.4219 30.3968 35.3195 30.42C35.217 30.4432 35.1202 30.4863 35.0344 30.547C34.9486 30.6076 34.8756 30.6845 34.8196 30.7734C34.7636 30.8622 34.7256 30.9612 34.7078 31.0647C34.69 31.1682 34.6928 31.2742 34.716 31.3767C34.7392 31.4791 34.7824 31.576 34.843 31.6618C34.9036 31.7475 34.9805 31.8205 35.0694 31.8766C35.1582 31.9326 35.2572 31.9706 35.3607 31.9884C35.4258 32.0139 35.4817 32.0584 35.5213 32.1161C35.5971 32.3386 35.5923 32.5807 35.5078 32.8001H29.8961V17.5208C29.6676 17.569 29.435 17.5954 29.2015 17.5997C29.1871 17.5999 29.1667 17.6001 29.1522 17.6001C28.8638 17.5993 28.5765 17.5649 28.2961 17.4974V32.8001H22.6812C22.593 32.5844 22.5876 32.3437 22.666 32.1243C22.7087 32.0559 22.7755 32.006 22.8531 31.9844C23.0593 31.9432 23.241 31.8225 23.3589 31.6483C23.4767 31.4742 23.5212 31.2606 23.4828 31.0539C23.4443 30.8471 23.326 30.6638 23.1535 30.5437C22.9809 30.4235 22.768 30.3761 22.5607 30.4118C22.3015 30.4644 22.0559 30.5697 21.8389 30.721C21.622 30.8723 21.4384 31.0664 21.2994 31.2915C21.0398 31.7488 20.9511 32.2834 21.049 32.8001H20.3432C20.4411 32.2834 20.3524 31.7488 20.0928 31.2915C19.9538 31.0664 19.7702 30.8723 19.5532 30.721C19.3363 30.5697 19.0906 30.4644 18.8314 30.4118C18.7279 30.394 18.6219 30.3968 18.5195 30.42C18.417 30.4432 18.3202 30.4863 18.2344 30.547C18.0612 30.6694 17.9437 30.8557 17.9078 31.0647C17.8719 31.2738 17.9205 31.4885 18.043 31.6618C18.1654 31.835 18.3517 31.9525 18.5607 31.9884C18.6258 32.0139 18.6817 32.0584 18.7213 32.1161C18.7971 32.3386 18.7923 32.5807 18.7078 32.8001H11.8961V24.3693C12.4527 23.7632 13.9807 21.8831 13.8924 19.5786C13.8324 18.0118 13.0531 16.6001 11.5758 15.3829C11.4372 15.2681 11.2639 15.2036 11.084 15.1998C10.9042 15.1959 10.7283 15.253 10.585 15.3618C10.4994 15.4262 8.49062 16.9704 8.30918 19.4754C8.1916 21.0987 8.86655 22.7061 10.2961 24.2602V32.8001H5.09609C4.67189 32.8005 4.26518 32.9692 3.96522 33.2692C3.66526 33.5692 3.49655 33.9759 3.49609 34.4001V36.0001C3.49655 36.4243 3.66526 36.831 3.96522 37.1309C4.26518 37.4309 4.67189 37.5996 5.09609 37.6001H53.0961C53.5203 37.5996 53.927 37.4309 54.227 37.1309C54.527 36.831 54.6957 36.4243 54.6961 36.0001V34.4001C54.6957 33.9759 54.5269 33.5692 54.227 33.2692C53.927 32.9692 53.5203 32.8005 53.0961 32.8001Z" fill="#0E1418"/>
<path d="M44.999 7.84065C45.0712 7.78713 45.7191 7.33284 46.1435 7.7387C46.2194 7.81133 46.3088 7.86832 46.4067 7.90639C46.5046 7.94447 46.609 7.96289 46.714 7.96061C46.8191 7.95832 46.9226 7.93538 47.0187 7.89308C47.1149 7.85078 47.2017 7.78996 47.2744 7.71409C47.347 7.63822 47.404 7.54879 47.4421 7.4509C47.4802 7.35301 47.4986 7.24857 47.4963 7.14356C47.494 7.03855 47.4711 6.93502 47.4288 6.83888C47.3865 6.74273 47.3257 6.65586 47.2498 6.58322C46.9765 6.3177 46.6385 6.12834 46.2694 6.03397C45.9003 5.9396 45.5128 5.94352 45.1457 6.04533C45.0277 5.72442 44.8261 5.44093 44.5616 5.22429C44.2971 5.00764 43.9794 4.86573 43.6416 4.8133C43.5382 4.79406 43.432 4.7954 43.3291 4.81725C43.2263 4.83909 43.1287 4.881 43.042 4.94059C42.9554 5.00018 42.8813 5.07627 42.8241 5.16451C42.7669 5.25275 42.7276 5.35141 42.7085 5.45484C42.6895 5.55827 42.691 5.66444 42.7131 5.76728C42.7351 5.87012 42.7772 5.96761 42.8369 6.05416C42.8966 6.14072 42.9729 6.21465 43.0612 6.27171C43.1495 6.32878 43.2483 6.36787 43.3517 6.38674C43.5009 6.41408 43.7504 6.46017 43.7207 7.16642C43.7149 7.31699 43.7518 7.46612 43.8271 7.5966C43.9025 7.72709 44.0132 7.83362 44.1465 7.9039C44.2806 7.97278 44.4312 8.00332 44.5816 7.99216C44.732 7.981 44.8764 7.92857 44.999 7.84065Z" fill="#0E1418"/>
<path d="M29.1563 16H29.1747C29.4106 15.9926 29.6421 15.9337 29.8529 15.8276C30.0638 15.7215 30.2489 15.5706 30.3954 15.3856C30.6367 15.5066 30.9023 15.5711 31.1722 15.5741C31.3743 15.5747 31.5745 15.5342 31.7605 15.4551C31.9759 15.3584 32.1676 15.2159 32.3222 15.0375C32.4768 14.8591 32.5906 14.6491 32.6557 14.4222C32.6979 14.4244 32.7814 14.4258 32.7816 14.4258C32.9965 14.4318 33.2105 14.3941 33.4104 14.3149C33.6103 14.2356 33.7919 14.1166 33.9444 13.9649C34.1064 13.7932 34.2291 13.5882 34.3038 13.3643C34.3786 13.1403 34.4036 12.9028 34.3771 12.6682C34.605 12.6034 34.8151 12.4875 34.9915 12.3293C35.1678 12.1711 35.3057 11.9748 35.3948 11.7552C35.4838 11.5357 35.5216 11.2987 35.5052 11.0624C35.4889 10.826 35.4188 10.5966 35.3004 10.3914C35.4863 10.2446 35.6364 10.0574 35.739 9.84392C35.8417 9.63045 35.8944 9.39638 35.893 9.1595C35.8916 8.92263 35.8361 8.68919 35.7309 8.47696C35.6257 8.26473 35.4735 8.0793 35.2858 7.93477C35.4016 7.72814 35.4689 7.49782 35.4823 7.26131C35.4958 7.02481 35.4552 6.78834 35.3635 6.5699C35.2719 6.35145 35.1317 6.15677 34.9535 6.00066C34.7753 5.84454 34.5639 5.73111 34.3353 5.66897C34.3588 5.43407 34.3308 5.19688 34.2533 4.97387C34.1759 4.75087 34.0508 4.5474 33.8868 4.37759C33.7355 4.23045 33.5562 4.11508 33.3595 4.03829C33.1628 3.9615 32.9528 3.92484 32.7418 3.93047C32.6926 3.93047 32.6429 3.93224 32.5926 3.93577C32.5249 3.7098 32.4087 3.50131 32.2521 3.32485C32.0956 3.14838 31.9024 3.00819 31.6861 2.91402C31.5046 2.83935 31.3102 2.80114 31.1139 2.80157C30.8378 2.80497 30.5664 2.87272 30.321 2.99945C30.1722 2.81615 29.9852 2.66755 29.773 2.56401C29.5608 2.46048 29.3286 2.40451 29.0925 2.40002C28.8401 2.40543 28.5923 2.46904 28.3684 2.58591C28.1446 2.70279 27.9508 2.86976 27.802 3.07383C27.5422 2.9318 27.2515 2.8555 26.9554 2.85159C26.7465 2.85095 26.5398 2.89408 26.3486 2.9782C26.1347 3.07755 25.9449 3.22239 25.7927 3.40261C25.6405 3.58283 25.5294 3.79409 25.4672 4.02166C25.4331 4.0199 25.3992 4.019 25.3658 4.019C25.1378 4.00974 24.9105 4.05087 24.7001 4.13947C24.4898 4.22807 24.3015 4.36196 24.1488 4.5316C23.9961 4.70123 23.8827 4.90245 23.8166 5.12093C23.7506 5.3394 23.7335 5.56975 23.7666 5.79558C23.5396 5.86324 23.331 5.98175 23.1567 6.1421C22.9823 6.30245 22.8468 6.50042 22.7605 6.72098C22.6741 6.94154 22.6392 7.17888 22.6583 7.41498C22.6774 7.65107 22.75 7.8797 22.8707 8.0835C22.6866 8.23254 22.5389 8.42162 22.4388 8.63634C22.3387 8.85107 22.2889 9.08579 22.2932 9.32266C22.2975 9.55952 22.3558 9.79228 22.4635 10.0032C22.5713 10.2142 22.7258 10.3978 22.9152 10.5401C22.8019 10.7481 22.7374 10.9792 22.7268 11.2159C22.7162 11.4526 22.7596 11.6885 22.8539 11.9059C22.9482 12.1232 23.0907 12.3162 23.2708 12.4701C23.4508 12.6241 23.6636 12.735 23.893 12.7944C23.8721 13.0295 23.9028 13.2663 23.9828 13.4883C24.0629 13.7104 24.1904 13.9123 24.3565 14.08C24.6598 14.3682 25.0651 14.5243 25.4834 14.5138C25.5403 14.5138 25.598 14.5112 25.6565 14.5063C25.7269 14.7314 25.8455 14.9385 26.0041 15.113C26.1627 15.2876 26.3575 15.4255 26.5749 15.517C26.7513 15.5874 26.9395 15.6234 27.1294 15.6228C27.412 15.6195 27.6896 15.5483 27.9389 15.4152C28.0881 15.5942 28.274 15.739 28.484 15.8399C28.6941 15.9408 28.9233 15.9954 29.1563 16ZM29.093 7.60003C29.4094 7.60003 29.7188 7.69386 29.9819 7.86967C30.245 8.04549 30.4501 8.29537 30.5712 8.58773C30.6923 8.88009 30.724 9.2018 30.6622 9.51217C30.6005 9.82254 30.4481 10.1076 30.2243 10.3314C30.0006 10.5552 29.7155 10.7075 29.4051 10.7693C29.0947 10.831 28.773 10.7993 28.4807 10.6782C28.1883 10.5571 27.9384 10.3521 27.7626 10.0889C27.5868 9.82582 27.493 9.51648 27.493 9.20003C27.4934 8.77582 27.6621 8.36911 27.9621 8.06915C28.2621 7.76919 28.6688 7.60048 29.093 7.60003Z" fill="#0E1418"/>
</svg>
