<svg width="44" height="40" viewBox="0 0 44 40" fill="none" xmlns="http://www.w3.org/2000/svg">
<path d="M21.7002 2.60946C21.5244 2.61703 21.3513 2.6795 21.2111 2.78604L2.5168 17.1301C2.22841 17.3488 2.10257 17.7593 2.21882 18.102C2.33508 18.4447 2.68468 18.694 3.04665 18.6922H4.81283L4.85357 36.5136C4.85361 36.9688 5.26781 37.3829 5.72308 37.3829L37.854 37.3907C38.3093 37.3907 38.7235 36.9766 38.7235 36.5214L38.7235 18.7001L40.4353 18.692C40.7973 18.6938 41.1469 18.4445 41.2632 18.1018C41.3794 17.7591 41.2536 17.3486 40.9652 17.1299L22.2708 2.78583C22.0882 2.64689 21.8782 2.60837 21.7002 2.60946ZM21.7698 10.4214C22.9806 10.4214 23.9436 11.3978 23.9436 12.6084C23.9436 13.819 22.9806 14.7681 21.7698 14.7681C20.559 14.7681 19.596 13.819 19.596 12.6084C19.596 11.3978 20.559 10.4214 21.7698 10.4214ZM12.6391 21.7388H30.9V35.6482H12.6391V21.7388ZM13.9445 24.3475V26.0862H29.5956V24.3475H13.9445ZM13.9445 27.8248V29.5635H29.5956V27.8248H13.9445ZM13.9445 31.3022V33.0408H29.5956V31.3022H13.9445Z" fill="black"/>
</svg>
