<svg width="50" height="51" viewBox="0 0 50 51" fill="none" xmlns="http://www.w3.org/2000/svg">
<circle cx="25" cy="25.5" r="25" fill="#D1CFC7"/>
<path d="M24.1284 19.5V22.8766C24.1284 23.9021 23.9408 24.9963 23.5656 26.1594C23.2029 27.3099 22.6652 28.4292 21.9523 29.5172C21.252 30.5927 20.4016 31.5307 19.4011 32.331L17 30.3801C17.7879 29.2546 18.4694 28.0853 19.0447 26.8722C19.6325 25.6466 19.9264 24.3398 19.9264 22.9516V19.5H24.1284ZM33.7329 19.5V22.8766C33.7329 23.9021 33.5453 24.9963 33.1701 26.1594C32.8074 27.3099 32.2697 28.4292 31.5569 29.5172C30.8565 30.5927 30.0061 31.5307 29.0057 32.331L26.6045 30.3801C27.3924 29.2546 28.074 28.0853 28.6492 26.8722C29.237 25.6466 29.5309 24.3398 29.5309 22.9516V19.5H33.7329Z" fill="#0E1418"/>
</svg>
