<svg id="ab3fe525-d453-47d8-91ef-044c7180bc24" xmlns="http://www.w3.org/2000/svg" xmlns:xlink="http://www.w3.org/1999/xlink" viewBox="0 0 700 587.05"><defs><style>.cls-1,.cls-6,.cls-8{fill:#635bff;}.cls-1{opacity:0.05;}.cls-10,.cls-2,.cls-3{fill:none;}.cls-10,.cls-2{stroke:#e6e6e6;}.cls-10,.cls-12,.cls-2,.cls-3{stroke-miterlimit:10;}.cls-12,.cls-2,.cls-3{stroke-width:0.5px;}.cls-3{stroke:#000;}.cls-4{fill:url(#linear-gradient);}.cls-12,.cls-5{fill:#fff;}.cls-6{opacity:0.5;}.cls-7{fill:url(#linear-gradient-2);}.cls-9{fill:url(#radial-gradient);}.cls-11{fill:url(#radial-gradient-2);}.cls-12{stroke:#635bff;}</style><linearGradient id="linear-gradient" x1="477.55" y1="339.25" x2="544.01" y2="454.36" gradientUnits="userSpaceOnUse"><stop offset="0" stop-color="#fff"/><stop offset="1" stop-color="#635bff"/></linearGradient><linearGradient id="linear-gradient-2" x1="108.88" y1="165.75" x2="258.95" y2="425.68" xlink:href="#linear-gradient"/><radialGradient id="radial-gradient" cx="545.3" cy="107.04" r="22.75" gradientUnits="userSpaceOnUse"><stop offset="0" stop-color="#fff"/><stop offset="0.16" stop-color="#fbfbff"/><stop offset="0.32" stop-color="#f0efff"/><stop offset="0.47" stop-color="#dedcff"/><stop offset="0.63" stop-color="#c4c1ff"/><stop offset="0.78" stop-color="#a29dff"/><stop offset="0.93" stop-color="#7973ff"/><stop offset="1" stop-color="#635bff"/></radialGradient><radialGradient id="radial-gradient-2" cx="382.75" cy="543.82" r="22.75" xlink:href="#radial-gradient"/></defs><title>Hero Image</title><rect id="bd7d2a9f-47f9-417c-9ce5-d36b6a614406" class="cls-1" x="154.91" y="89.67" width="46.65" height="44.37" rx="5" ry="5"/><rect id="bd7d2a9f-47f9-417c-9ce5-d36b6a614406-2" data-name="bd7d2a9f-47f9-417c-9ce5-d36b6a614406" class="cls-1" x="268.91" y="511.96" width="46.65" height="44.37" rx="5" ry="5"/><rect class="cls-2" x="360" y="153.31" width="253.28" height="324" rx="5" ry="5"/><rect class="cls-1" x="19.91" y="384.22" width="251" height="93.09" rx="5" ry="5"/><rect class="cls-3" x="18.91" y="157.22" width="252" height="207" rx="5" ry="5"/><rect class="cls-1" x="425.49" y="196.11" width="115.29" height="93" rx="5" ry="5"/><path class="cls-3" d="M533.28,421.31h-101a7,7,0,0,1-7-7v-79a7,7,0,0,1,7-7h101a7,7,0,0,1,7,7v79A7,7,0,0,1,533.28,421.31Z"/><path class="cls-4" d="M561.28,443.31h-101a7,7,0,0,1-7-7v-79a7,7,0,0,1,7-7h101a7,7,0,0,1,7,7v79A7,7,0,0,1,561.28,443.31Z"/><path class="cls-5" d="M522.11,420.18H471.41l-.19,0,24-41.54a1.68,1.68,0,0,1,2.92,0l16.09,27.88.77,1.33Z"/><polygon class="cls-6" points="522.11 420.18 504.8 420.18 513.3 407.83 513.91 406.94 514.22 406.5 514.99 407.83 522.11 420.18"/><path class="cls-5" d="M550.34,420.18H506.49l8.5-12.34.61-.89,11.07-16.09a2.24,2.24,0,0,1,3.15-.36l.18.16.16.2Z"/><circle class="cls-5" cx="548.29" cy="370.95" r="7.51"/><path class="cls-7" d="M302.91,399.22h-238a7,7,0,0,1-7-7v-193a7,7,0,0,1,7-7h238a7,7,0,0,1,7,7v193A7,7,0,0,1,302.91,399.22Z"/><path class="cls-5" d="M211.07,351.72H89.56a2.48,2.48,0,0,1-.45,0l57.47-99.54a4,4,0,0,1,7,0l38.57,66.8,1.85,3.2Z"/><polygon class="cls-6" points="211.07 351.71 169.58 351.71 189.95 322.13 191.41 320 192.15 318.94 193.99 322.13 211.07 351.71"/><path class="cls-5" d="M278.72,351.72H173.63L194,322.13l1.47-2.13L222,281.45a5.37,5.37,0,0,1,8-.48,4.79,4.79,0,0,1,.38.48Z"/><circle class="cls-5" cx="271.51" cy="231.72" r="18"/><rect id="ab26e1cd-ed2d-4718-9a90-5508d704a3b1" class="cls-1" x="263.73" y="31.47" width="182.05" height="86.56" rx="5" ry="5"/><rect id="ea8f1f59-00f0-4c1b-ada9-716e448c4de5" class="cls-3" x="276.78" y="20.48" width="182.05" height="86.56" rx="5" ry="5"/><rect id="bd7d2a9f-47f9-417c-9ce5-d36b6a614406-3" data-name="bd7d2a9f-47f9-417c-9ce5-d36b6a614406" class="cls-8" x="158.91" y="85.67" width="46.65" height="44.37" rx="5" ry="5"/><circle class="cls-9" cx="545.3" cy="107.04" r="22.75"/><circle class="cls-10" cx="551.3" cy="102.04" r="22.75"/><rect id="bd7d2a9f-47f9-417c-9ce5-d36b6a614406-4" data-name="bd7d2a9f-47f9-417c-9ce5-d36b6a614406" class="cls-8" x="273.91" y="506.96" width="46.65" height="44.37" rx="5" ry="5"/><rect id="b1bb1ad4-cb36-48f5-bc5b-cbf5d51e5b88" class="cls-2" x="279.26" y="501.32" width="46.65" height="44.37" rx="5" ry="5"/><circle class="cls-11" cx="382.75" cy="543.82" r="22.75"/><circle class="cls-2" cx="388.75" cy="538.82" r="22.75"/><path class="cls-3" d="M676.09,269H464a5,5,0,0,1-5-5V189a5,5,0,0,1,5-5H676.09a5,5,0,0,1,5,5v75A5,5,0,0,1,676.09,269Z"/><path class="cls-1" d="M574.75,215.06h57a12,12,0,0,1,12,12h0a12,12,0,0,1-12,12h-57a12,12,0,0,1-12-12h0A12,12,0,0,1,574.75,215.06Z"/><circle class="cls-8" cx="519.53" cy="226.55" r="22"/><path class="cls-5" d="M525.25,224.38l-1.72,5.43c0-.42-1.19-9.42-1.19-9.42-2.73,0-4.18,1.94-4.94,4l-2.1,5.44c0-.39-.3-5.39-.3-5.39a4.44,4.44,0,0,0-4.31-4L512.92,234c2.85,0,4.39-1.94,5.19-4l1.78-4.63c0,.19,1.19,8.62,1.19,8.62a5.49,5.49,0,0,0,5.23-3.84l4-9.81c-2.85,0-4.35,1.94-5.11,4Z"/><path class="cls-8" d="M593.7,225.58c0-1-.94-2-2.57-2a4.26,4.26,0,0,0-4.14,4c-.31,2.71,1.37,3.92,3.06,3.92a4.5,4.5,0,0,0,3.49-1.55,1.54,1.54,0,0,0-2-.43,2,2,0,0,1-1,.25c-.65,0-1.32-.29-1.32-1.52,4.19-.42,4.51-1.74,4.51-2.71Zm-2.08.16c0,.3-.15.82-2.27,1.11.45-1.59,1.3-1.71,1.69-1.71a.56.56,0,0,1,.58.61Zm-7.09.26-1,3.07-.69-5.34a3,3,0,0,0-2.79,2.26l-1.19,3.09-.17-3.05a2.51,2.51,0,0,0-2.43-2.28l1.27,7.72a3.12,3.12,0,0,0,2.93-2.26l1-2.63c0,.11.69,4.88.69,4.88a3.09,3.09,0,0,0,2.95-2.14l2.26-5.58a3,3,0,0,0-2.86,2.26Zm15.1-2.44a3.05,3.05,0,0,0-2.4,1.34h0l.57-4.64c-1.32,0-2.4,1.15-2.6,2.87l-1,8.29a2.51,2.51,0,0,0,2-.78,2.21,2.21,0,0,0,1.83.9c2.23,0,3.76-2.6,3.76-5,0-2.22-1.09-2.93-2.16-2.93Zm-.21,4c-.23,1.36-1,2.28-1.71,2.28a1.5,1.5,0,0,1-1-.33,9.6,9.6,0,0,1,.49-2.55c.27-.63.9-1.63,1.56-1.63s.94.86.71,2.23Zm7.93-3.8H605.8v-.08c.11-1,.35-1.55,1.14-1.64a.83.83,0,0,0,.84-.64l.19-1.08c-3.12,0-4.1,1.33-4.35,3.4v0h0a1.42,1.42,0,0,0-1.16,1.31l0,.27h1l-.87,7.25-.27,1.3h.11c1.46-.05,2.4-1.21,2.6-2.89l.68-5.66h.49a1.33,1.33,0,0,0,1.14-1.29Zm8.08-.13a4.27,4.27,0,0,0-4,3.41c-.52,2.08.27,4.55,2.91,4.55s4.15-2.57,4.15-4.7a3,3,0,0,0-3.05-3.26Zm.73,3.87c-.09.94-.51,2.38-1.64,2.38s-1-1.67-.87-2.47.59-2.06,1.61-2.06,1,1.09.9,2.16ZM627.36,226l-1,3.07c0-.24-.69-5.34-.69-5.34a3,3,0,0,0-2.78,2.26l-1.19,3.09c0-.22-.17-3.05-.17-3.05a2.52,2.52,0,0,0-2.44-2.28l1.26,7.72a3.12,3.12,0,0,0,2.93-2.26l1-2.63c0,.11.69,4.88.69,4.88a3.09,3.09,0,0,0,2.95-2.14l2.26-5.58a3,3,0,0,0-2.86,2.26Zm-18.54-5.7-1.31,10.59-.27,1.31h.11a2.88,2.88,0,0,0,2.59-2.82l.75-6.08c.23-1.86-.87-3-1.88-3Z"/><rect class="cls-2" x="164.26" y="80.04" width="46.65" height="44.37" rx="5" ry="5"/><path class="cls-12" d="M178.42,119.33a3.83,3.83,0,0,0,3.82-3.82v-3.82h-3.82a3.82,3.82,0,1,0,0,7.65Z"/><path class="cls-12" d="M174.59,107.86a3.83,3.83,0,0,1,3.82-3.82h3.82v7.65h-3.82A3.83,3.83,0,0,1,174.59,107.86Z"/><path class="cls-12" d="M174.59,100.21a3.83,3.83,0,0,1,3.82-3.82h3.82V104h-3.82A3.83,3.83,0,0,1,174.59,100.21Z"/><path class="cls-12" d="M182.24,96.38h3.82a3.82,3.82,0,0,1,0,7.65h-3.82Z"/><path class="cls-12" d="M189.89,107.86a3.82,3.82,0,1,1-3.82-3.82A3.83,3.83,0,0,1,189.89,107.86Z"/><path class="cls-5" d="M293.85,528.83l4.09,7.86c.07.12,0,.23-.09.23h-2.54a.29.29,0,0,1-.31-.19c-.94-1.93-1.88-3.86-2.86-5.93h0c-.88,2-1.84,4-2.77,5.94a.28.28,0,0,1-.26.16h-2.41c-.15,0-.16-.12-.09-.2l4-7.62-3.87-7.71a.12.12,0,0,1,.09-.2h2.51c.15,0,.2,0,.26.16.92,1.93,1.85,3.91,2.73,5.86h0c.85-1.93,1.78-3.93,2.69-5.84.07-.12.12-.19.26-.19h2.35c.12,0,.16.09.09.2Zm4.81,2.38a5.71,5.71,0,0,1,5.86-6.06,6.44,6.44,0,0,1,.76,0v-3.87a.15.15,0,0,1,.15-.15h2.31c.12,0,.15,0,.15.12v13.41a10.43,10.43,0,0,0,.07,1.43c0,.09,0,.12-.12.16a8.69,8.69,0,0,1-3.74.85c-3.17,0-5.43-1.94-5.43-5.92Zm6.61-3.74a2.2,2.2,0,0,0-.85-.15c-1.84,0-3.13,1.42-3.13,3.77,0,2.69,1.32,3.77,3,3.77a2.74,2.74,0,0,0,1-.16v-7.23Z"/><rect id="bd7d2a9f-47f9-417c-9ce5-d36b6a614406-5" data-name="bd7d2a9f-47f9-417c-9ce5-d36b6a614406" class="cls-1" x="584.78" y="456.96" width="46.65" height="44.37" rx="5" ry="5"/><rect id="bd7d2a9f-47f9-417c-9ce5-d36b6a614406-6" data-name="bd7d2a9f-47f9-417c-9ce5-d36b6a614406" class="cls-8" x="589.78" y="451.96" width="46.65" height="44.37" rx="5" ry="5"/><rect id="b1bb1ad4-cb36-48f5-bc5b-cbf5d51e5b88-2" data-name="b1bb1ad4-cb36-48f5-bc5b-cbf5d51e5b88" class="cls-2" x="595.13" y="446.32" width="46.65" height="44.37" rx="5" ry="5"/><path id="a" class="cls-5" d="M605.94,471l7.17,14-12.05-14Z"/><path class="cls-8" d="M613.12,485.06v0L601,471h4.89Zm-12.06-14,12,14-7.16-14Z"/><path id="b" class="cls-5" d="M620.28,471l-7.17,14,12.05-14Z"/><path class="cls-8" d="M613.1,485.06v0l7.17-14h4.89Zm7.18-14-7.16,14,12-14Z"/><path id="c" class="cls-5" d="M605.94,471h14.34l-7.17,14Z"/><path class="cls-8" d="M613.11,485h0l-7.17-14h14.35Zm-7.17-14,7.17,14,7.17-14Z"/><path id="d" class="cls-5" d="M613.11,463.23l-6.79.72-.38,7.06Z"/><path class="cls-8" d="M605.93,471h0l.38-7.06h0l6.8-.72h0Zm.38-7.06-.38,7.05,7.16-7.77Z"/><path id="e" class="cls-5" d="M613.11,463.23l6.79.72.38,7.06Z"/><path class="cls-8" d="M620.28,471h0l-7.17-7.78h0l6.8.72h0Zm-7.17-7.78,7.16,7.77-.38-7.05Z"/><path id="f" class="cls-5" d="M625.16,471l-5.26-7.06.38,7.06Z"/><path class="cls-8" d="M625.17,471h-4.89l-.38-7.07h0Zm-4.88,0h4.87l-5.25-7Z"/><path id="g" class="cls-5" d="M601.05,471l5.26-7.06-.38,7.06Z"/><path class="cls-8" d="M605.94,471h-4.89l5.26-7.07h0Zm-4.88,0h4.87l.38-7Z"/><path id="h" class="cls-5" d="M613.11,463.23,605.94,471h14.34Z"/><path class="cls-8" d="M620.28,471H605.93l7.17-7.78h0Zm-14.34,0h14.33l-7.17-7.77Z"/></svg>