<svg width="31" height="31" viewBox="0 0 31 31" fill="none" xmlns="http://www.w3.org/2000/svg">
<path d="M27.7191 0.272705H3.37179C1.66634 0.272705 0.272705 1.66634 0.272705 3.37179V5.714H30.8182V3.37179C30.8182 1.66634 29.4245 0.272705 27.7191 0.272705ZM4.97354 3.62966H3.70081V2.35693H4.97354V3.62966ZM7.61936 3.62966H6.34663V2.35693H7.61936V3.62966ZM10.2652 3.62966H8.99245V2.35693H10.2652V3.62966ZM27.3901 3.62966H12.1743V2.35693H27.3901V3.62966Z" fill="#7DED01"/>
<path d="M0.272705 27.719C0.272705 29.4245 1.66634 30.8181 3.37179 30.8181H27.7191C29.4245 30.8181 30.8182 29.4245 30.8182 27.719V6.98669H0.272705V27.719ZM6.10182 11.5681C6.93545 11.5681 7.63544 12.1027 7.9027 12.8409H13.2736V11.199H17.83V12.8409H23.1882C23.4554 12.1027 24.1555 11.5681 24.9891 11.5681C26.0391 11.5681 26.8982 12.4272 26.8982 13.4772C26.8982 14.5336 26.0391 15.3863 24.9891 15.3863C24.1555 15.3863 23.4491 14.8581 23.1882 14.1136H20.1145C22.4436 15.5327 24.0409 17.9954 24.3209 20.7763H26.0073V25.3327H21.4509V20.7763H23.0418C22.6982 17.8427 20.6491 15.3545 17.83 14.4636V15.7554H13.2736V14.4636C10.4609 15.3545 8.41182 17.849 8.06179 20.7763H9.6527V25.3327H5.09635V20.7763H6.78273C7.06269 17.9954 8.65997 15.5327 10.9891 14.1136H7.9027C7.64181 14.8581 6.93545 15.3863 6.10182 15.3863C5.0518 15.3863 4.19273 14.5336 4.19273 13.4772C4.19273 12.4272 5.0518 11.5681 6.10182 11.5681Z" fill="#7DED01"/>
</svg>
