<svg width="50" height="50" viewBox="0 0 50 50" fill="none" xmlns="http://www.w3.org/2000/svg">
<path d="M6.16417 33.2192C7.299 33.2192 8.21896 32.2992 8.21896 31.1644C8.21896 30.0296 7.299 29.1096 6.16417 29.1096C5.02934 29.1096 4.10938 30.0296 4.10938 31.1644C4.10938 32.2992 5.02934 33.2192 6.16417 33.2192Z" fill="#010205"/>
<path d="M8.90415 3.76715H6.16442C5.78615 3.76715 5.47949 4.07381 5.47949 4.45208V7.19181C5.47949 7.57009 5.78615 7.87674 6.16442 7.87674H8.90415C9.28243 7.87674 9.58908 7.57009 9.58908 7.19181V4.45208C9.58908 4.07381 9.28243 3.76715 8.90415 3.76715Z" fill="#010205"/>
<path d="M42.4653 41.4384C43.9784 41.4384 45.205 40.2118 45.205 38.6986C45.205 37.1855 43.9784 35.9589 42.4653 35.9589C40.9522 35.9589 39.7256 37.1855 39.7256 38.6986C39.7256 40.2118 40.9522 41.4384 42.4653 41.4384Z" fill="#010205"/>
<path d="M38.3352 16.3288C38.3766 16.4516 38.3811 16.5838 38.3482 16.7092C38.3154 16.8345 38.2466 16.9475 38.1503 17.0343L31.575 23.1233L33.3763 31.7055C33.4037 31.833 33.3944 31.9656 33.3495 32.088C33.3047 32.2104 33.2261 32.3177 33.1229 32.3973C33.0037 32.485 32.8599 32.5329 32.7119 32.5343C32.6004 32.533 32.4905 32.5072 32.39 32.4589L24.6571 28.3904L16.9243 32.4589C16.8082 32.5168 16.6784 32.5417 16.5492 32.5308C16.4199 32.5199 16.2962 32.4737 16.1914 32.3973C16.0882 32.3177 16.0096 32.2104 15.9647 32.088C15.9199 31.9656 15.9106 31.833 15.938 31.7055L17.7393 23.1233L11.164 17.0343C11.0677 16.9475 10.9989 16.8345 10.966 16.7092C10.9332 16.5838 10.9377 16.4516 10.9791 16.3288C11.0167 16.204 11.0898 16.0929 11.1896 16.0089C11.2893 15.925 11.4113 15.8719 11.5407 15.8562L20.0955 14.7192L24.0407 6.76715C24.1035 6.65932 24.1934 6.56984 24.3016 6.50764C24.4098 6.44545 24.5324 6.41272 24.6571 6.41272C24.7819 6.41272 24.9045 6.44545 25.0127 6.50764C25.1208 6.56984 25.2108 6.65932 25.2736 6.76715L29.2188 14.7192L37.7736 15.8562C37.903 15.8719 38.025 15.925 38.1247 16.0089C38.2245 16.0929 38.2976 16.204 38.3352 16.3288Z" fill="#010205"/>
<path d="M43.1502 9.24658H40.4105C40.0322 9.24658 39.7256 9.55324 39.7256 9.93151V12.6712C39.7256 13.0495 40.0322 13.3562 40.4105 13.3562H43.1502C43.5285 13.3562 43.8352 13.0495 43.8352 12.6712V9.93151C43.8352 9.55324 43.5285 9.24658 43.1502 9.24658Z" fill="#010205"/>
<path d="M28.7666 42.8086C28.6538 42.8084 28.5429 42.7804 28.4436 42.7271C28.3442 42.6738 28.2596 42.5968 28.1971 42.503C28.1346 42.4092 28.0962 42.3014 28.0853 42.1892C28.0743 42.077 28.0912 41.9639 28.1345 41.8598L31.5591 33.6406C31.5937 33.5576 31.6444 33.4822 31.7081 33.4188C31.7718 33.3553 31.8475 33.305 31.9306 33.2708C32.0138 33.2366 32.1029 33.2191 32.1928 33.2193C32.2827 33.2195 32.3718 33.2374 32.4548 33.272C32.5378 33.3066 32.6132 33.3573 32.6766 33.421C32.74 33.4847 32.7903 33.5604 32.8245 33.6435C32.8588 33.7267 32.8763 33.8158 32.8761 33.9057C32.8758 33.9957 32.8579 34.0847 32.8233 34.1677L29.3987 42.3868C29.3467 42.5117 29.2589 42.6183 29.1464 42.6934C29.034 42.7684 28.9018 42.8085 28.7666 42.8086Z" fill="#010205"/>
<path d="M20.548 40.7538C20.4085 40.7537 20.2724 40.711 20.1578 40.6315C20.0432 40.5521 19.9555 40.4395 19.9065 40.309L17.8517 34.8295C17.8195 34.7451 17.8043 34.6552 17.8069 34.565C17.8096 34.4747 17.8301 34.3858 17.8672 34.3035C17.9043 34.2212 17.9574 34.147 18.0233 34.0852C18.0892 34.0235 18.1667 33.9754 18.2512 33.9437C18.3358 33.912 18.4258 33.8973 18.516 33.9005C18.6063 33.9037 18.695 33.9248 18.7771 33.9624C18.8592 34 18.9331 34.0535 18.9944 34.1198C19.0558 34.1861 19.1034 34.2638 19.1346 34.3486L21.1894 39.8281C21.2282 39.9317 21.2414 40.0432 21.2277 40.1531C21.214 40.2629 21.174 40.3678 21.1109 40.4588C21.0479 40.5498 20.9638 40.6241 20.8657 40.6755C20.7677 40.7269 20.6586 40.7537 20.548 40.7538Z" fill="#010205"/>
<path d="M23.9717 44.1781C23.8032 44.178 23.6407 44.1157 23.5152 44.0033C23.3897 43.8909 23.31 43.7362 23.2914 43.5688L22.6065 37.4044C22.587 37.2241 22.6398 37.0434 22.7533 36.902C22.8669 36.7605 23.0318 36.6699 23.2121 36.6499C23.3923 36.6299 23.5731 36.6821 23.7149 36.7952C23.8567 36.9083 23.9478 37.073 23.9683 37.2532L24.6533 43.4176C24.6732 43.5981 24.6207 43.7792 24.5072 43.921C24.3937 44.0628 24.2285 44.1537 24.0479 44.1738C24.0226 44.1767 23.9972 44.1781 23.9717 44.1781Z" fill="#010205"/>
<path d="M26.7128 37.3288C26.6133 37.3288 26.515 37.3071 26.4247 37.2653C26.3344 37.2235 26.2543 37.1625 26.1899 37.0866C26.1256 37.0107 26.0785 36.9217 26.0521 36.8258C26.0256 36.7298 26.0203 36.6293 26.0366 36.5311L26.7215 32.4215C26.7528 32.2437 26.8531 32.0853 27.0005 31.981C27.148 31.8767 27.3307 31.8348 27.5088 31.8646C27.687 31.8943 27.8462 31.9932 27.9518 32.1397C28.0574 32.2862 28.1008 32.4686 28.0727 32.647L27.3877 36.7565C27.3611 36.9163 27.2787 37.0615 27.1551 37.1663C27.0316 37.2711 26.8748 37.3286 26.7128 37.3288Z" fill="#010205"/>
<path d="M8.90368 43.4931C8.81373 43.4932 8.72465 43.4755 8.64154 43.4411C8.55843 43.4066 8.48292 43.3562 8.41931 43.2926C8.3557 43.229 8.30525 43.1535 8.27084 43.0704C8.23643 42.9872 8.21873 42.8982 8.21875 42.8082V42.1233C8.21875 41.9416 8.29091 41.7674 8.41936 41.639C8.54781 41.5105 8.72203 41.4384 8.90368 41.4384C9.08534 41.4384 9.25955 41.5105 9.388 41.639C9.51645 41.7674 9.58861 41.9416 9.58861 42.1233V42.8082C9.58864 42.8982 9.57094 42.9872 9.53652 43.0704C9.50211 43.1535 9.45166 43.229 9.38805 43.2926C9.32445 43.3562 9.24893 43.4066 9.16582 43.4411C9.08271 43.4755 8.99363 43.4932 8.90368 43.4931Z" fill="#010205"/>
<path d="M10.9587 44.863H10.2738C10.0921 44.863 9.91793 44.7909 9.78948 44.6624C9.66103 44.534 9.58887 44.3598 9.58887 44.1781C9.58887 43.9964 9.66103 43.8222 9.78948 43.6938C9.91793 43.5653 10.0921 43.4932 10.2738 43.4932H10.9587C11.1404 43.4932 11.3146 43.5653 11.4431 43.6938C11.5715 43.8222 11.6437 43.9964 11.6437 44.1781C11.6437 44.3598 11.5715 44.534 11.4431 44.6624C11.3146 44.7909 11.1404 44.863 10.9587 44.863Z" fill="#010205"/>
<path d="M7.53393 44.863H6.84899C6.66734 44.863 6.49312 44.7909 6.36467 44.6624C6.23622 44.534 6.16406 44.3598 6.16406 44.1781C6.16406 43.9964 6.23622 43.8222 6.36467 43.6938C6.49312 43.5653 6.66734 43.4932 6.84899 43.4932H7.53393C7.71558 43.4932 7.8898 43.5653 8.01825 43.6938C8.14669 43.8222 8.21886 43.9964 8.21886 44.1781C8.21886 44.3598 8.14669 44.534 8.01825 44.6624C7.8898 44.7909 7.71558 44.863 7.53393 44.863Z" fill="#010205"/>
<path d="M8.90368 46.9178C8.81373 46.9179 8.72465 46.9002 8.64154 46.8657C8.55843 46.8313 8.48292 46.7809 8.41931 46.7173C8.3557 46.6537 8.30525 46.5781 8.27084 46.495C8.23643 46.4119 8.21873 46.3229 8.21875 46.2329V45.548C8.21875 45.3663 8.29091 45.1921 8.41936 45.0636C8.54781 44.9352 8.72203 44.863 8.90368 44.863C9.08534 44.863 9.25955 44.9352 9.388 45.0636C9.51645 45.1921 9.58861 45.3663 9.58861 45.548V46.2329C9.58864 46.3229 9.57094 46.4119 9.53652 46.495C9.50211 46.5781 9.45166 46.6537 9.38805 46.7173C9.32445 46.7809 9.24893 46.8313 9.16582 46.8657C9.08271 46.9002 8.99363 46.9179 8.90368 46.9178Z" fill="#010205"/>
<path d="M44.5209 20.2055C44.4309 20.2055 44.3418 20.1878 44.2587 20.1534C44.1756 20.119 44.1001 20.0685 44.0365 20.0049C43.9729 19.9413 43.9224 19.8658 43.888 19.7827C43.8536 19.6996 43.8359 19.6105 43.8359 19.5206V18.8356C43.8359 18.654 43.9081 18.4798 44.0365 18.3513C44.165 18.2229 44.3392 18.1507 44.5209 18.1507C44.7025 18.1507 44.8767 18.2229 45.0052 18.3513C45.1336 18.4798 45.2058 18.654 45.2058 18.8356V19.5206C45.2058 19.6105 45.1881 19.6996 45.1537 19.7827C45.1193 19.8658 45.0688 19.9413 45.0052 20.0049C44.9416 20.0685 44.8661 20.119 44.783 20.1534C44.6999 20.1878 44.6108 20.2055 44.5209 20.2055Z" fill="#010205"/>
<path d="M46.5749 21.5754H45.89C45.7084 21.5754 45.5341 21.5032 45.4057 21.3748C45.2772 21.2463 45.2051 21.0721 45.2051 20.8904C45.2051 20.7088 45.2772 20.5346 45.4057 20.4061C45.5341 20.2777 45.7084 20.2055 45.89 20.2055H46.5749C46.7566 20.2055 46.9308 20.2777 47.0593 20.4061C47.1877 20.5346 47.2599 20.7088 47.2599 20.8904C47.2599 21.0721 47.1877 21.2463 47.0593 21.3748C46.9308 21.5032 46.7566 21.5754 46.5749 21.5754Z" fill="#010205"/>
<path d="M43.1501 21.5754H42.4652C42.2835 21.5754 42.1093 21.5032 41.9809 21.3748C41.8524 21.2463 41.7803 21.0721 41.7803 20.8904C41.7803 20.7088 41.8524 20.5346 41.9809 20.4061C42.1093 20.2777 42.2835 20.2055 42.4652 20.2055H43.1501C43.3318 20.2055 43.506 20.2777 43.6345 20.4061C43.7629 20.5346 43.8351 20.7088 43.8351 20.8904C43.8351 21.0721 43.7629 21.2463 43.6345 21.3748C43.506 21.5032 43.3318 21.5754 43.1501 21.5754Z" fill="#010205"/>
<path d="M44.5209 23.6302C44.4309 23.6302 44.3418 23.6125 44.2587 23.5781C44.1756 23.5437 44.1001 23.4932 44.0365 23.4296C43.9729 23.366 43.9224 23.2905 43.888 23.2074C43.8536 23.1243 43.8359 23.0352 43.8359 22.9452V22.2603C43.8359 22.0787 43.9081 21.9044 44.0365 21.776C44.165 21.6475 44.3392 21.5754 44.5209 21.5754C44.7025 21.5754 44.8767 21.6475 45.0052 21.776C45.1336 21.9044 45.2058 22.0787 45.2058 22.2603V22.9452C45.2058 23.0352 45.1881 23.1243 45.1537 23.2074C45.1193 23.2905 45.0688 23.366 45.0052 23.4296C44.9416 23.4932 44.8661 23.5437 44.783 23.5781C44.6999 23.6125 44.6108 23.6302 44.5209 23.6302Z" fill="#010205"/>
<path d="M4.79431 14.7261C4.70435 14.7261 4.61528 14.7084 4.53217 14.674C4.44906 14.6396 4.37354 14.5891 4.30993 14.5255C4.24633 14.4619 4.19588 14.3864 4.16146 14.3033C4.12705 14.2202 4.10935 14.1311 4.10938 14.0411V13.3562C4.10938 13.1745 4.18154 13.0003 4.30999 12.8719C4.43844 12.7434 4.61265 12.6713 4.79431 12.6713C4.97596 12.6713 5.15018 12.7434 5.27863 12.8719C5.40708 13.0003 5.47924 13.1745 5.47924 13.3562V14.0411C5.47926 14.1311 5.46156 14.2202 5.42715 14.3033C5.39274 14.3864 5.34228 14.4619 5.27868 14.5255C5.21507 14.5891 5.13956 14.6396 5.05645 14.674C4.97334 14.7084 4.88426 14.7261 4.79431 14.7261Z" fill="#010205"/>
<path d="M6.84936 16.0959H6.16442C5.98277 16.0959 5.80855 16.0237 5.6801 15.8953C5.55165 15.7668 5.47949 15.5926 5.47949 15.4109C5.47949 15.2293 5.55165 15.0551 5.6801 14.9266C5.80855 14.7982 5.98277 14.726 6.16442 14.726H6.84936C7.03101 14.726 7.20523 14.7982 7.33367 14.9266C7.46212 15.0551 7.53429 15.2293 7.53429 15.4109C7.53429 15.5926 7.46212 15.7668 7.33367 15.8953C7.20523 16.0237 7.03101 16.0959 6.84936 16.0959Z" fill="#010205"/>
<path d="M3.42455 16.0959H2.73962C2.55796 16.0959 2.38375 16.0237 2.2553 15.8953C2.12685 15.7668 2.05469 15.5926 2.05469 15.4109C2.05469 15.2293 2.12685 15.0551 2.2553 14.9266C2.38375 14.7982 2.55796 14.726 2.73962 14.726H3.42455C3.60621 14.726 3.78042 14.7982 3.90887 14.9266C4.03732 15.0551 4.10948 15.2293 4.10948 15.4109C4.10948 15.5926 4.03732 15.7668 3.90887 15.8953C3.78042 16.0237 3.60621 16.0959 3.42455 16.0959Z" fill="#010205"/>
<path d="M4.79431 18.1507C4.70435 18.1507 4.61528 18.133 4.53217 18.0986C4.44906 18.0642 4.37354 18.0137 4.30993 17.9501C4.24633 17.8865 4.19588 17.811 4.16146 17.7279C4.12705 17.6448 4.10935 17.5557 4.10938 17.4657V16.7808C4.10938 16.5992 4.18154 16.4249 4.30999 16.2965C4.43844 16.168 4.61265 16.0959 4.79431 16.0959C4.97596 16.0959 5.15018 16.168 5.27863 16.2965C5.40708 16.4249 5.47924 16.5992 5.47924 16.7808V17.4657C5.47926 17.5557 5.46156 17.6448 5.42715 17.7279C5.39274 17.811 5.34228 17.8865 5.27868 17.9501C5.21507 18.0137 5.13956 18.0642 5.05645 18.0986C4.97334 18.133 4.88426 18.1507 4.79431 18.1507Z" fill="#010205"/>
<path d="M33.5619 3.76714C33.4719 3.76716 33.3829 3.74946 33.2997 3.71505C33.2166 3.68063 33.1411 3.63018 33.0775 3.56658C33.0139 3.50297 32.9635 3.42745 32.929 3.34434C32.8946 3.26123 32.8769 3.17216 32.877 3.0822V2.39727C32.877 2.21562 32.9491 2.0414 33.0776 1.91295C33.206 1.7845 33.3802 1.71234 33.5619 1.71234C33.7435 1.71234 33.9178 1.7845 34.0462 1.91295C34.1747 2.0414 34.2468 2.21562 34.2468 2.39727V3.0822C34.2468 3.17216 34.2291 3.26123 34.1947 3.34434C34.1603 3.42745 34.1099 3.50297 34.0463 3.56658C33.9827 3.63018 33.9071 3.68063 33.824 3.71505C33.7409 3.74946 33.6518 3.76716 33.5619 3.76714Z" fill="#010205"/>
<path d="M35.616 5.13701H34.931C34.7494 5.13701 34.5752 5.06485 34.4467 4.9364C34.3183 4.80795 34.2461 4.63374 34.2461 4.45208C34.2461 4.27043 34.3183 4.09621 34.4467 3.96776C34.5752 3.83931 34.7494 3.76715 34.931 3.76715H35.616C35.7976 3.76715 35.9718 3.83931 36.1003 3.96776C36.2287 4.09621 36.3009 4.27043 36.3009 4.45208C36.3009 4.63374 36.2287 4.80795 36.1003 4.9364C35.9718 5.06485 35.7976 5.13701 35.616 5.13701Z" fill="#010205"/>
<path d="M32.1921 5.13701H31.5072C31.3255 5.13701 31.1513 5.06485 31.0229 4.9364C30.8944 4.80795 30.8223 4.63374 30.8223 4.45208C30.8223 4.27043 30.8944 4.09621 31.0229 3.96776C31.1513 3.83931 31.3255 3.76715 31.5072 3.76715H32.1921C32.3738 3.76715 32.548 3.83931 32.6764 3.96776C32.8049 4.09621 32.8771 4.27043 32.8771 4.45208C32.8771 4.63374 32.8049 4.80795 32.6764 4.9364C32.548 5.06485 32.3738 5.13701 32.1921 5.13701Z" fill="#010205"/>
<path d="M33.5619 7.19182C33.4719 7.19184 33.3829 7.17414 33.2997 7.13973C33.2166 7.10532 33.1411 7.05487 33.0775 6.99126C33.0139 6.92765 32.9635 6.85214 32.929 6.76903C32.8946 6.68592 32.8769 6.59684 32.877 6.50689V5.82196C32.877 5.6403 32.9491 5.46609 33.0776 5.33764C33.206 5.20919 33.3802 5.13702 33.5619 5.13702C33.7435 5.13702 33.9178 5.20919 34.0462 5.33764C34.1747 5.46609 34.2468 5.6403 34.2468 5.82196V6.50689C34.2468 6.59684 34.2291 6.68592 34.1947 6.76903C34.1603 6.85214 34.1099 6.92765 34.0463 6.99126C33.9827 7.05487 33.9071 7.10532 33.824 7.13973C33.7409 7.17414 33.6518 7.19184 33.5619 7.19182Z" fill="#010205"/>
</svg>
