<svg width="42" height="35" viewBox="0 0 42 35" fill="none" xmlns="http://www.w3.org/2000/svg">
<path d="M37.7672 30.6047C37.7672 30.9501 37.63 31.2813 37.3858 31.5255C37.1415 31.7698 36.8103 31.907 36.4649 31.907H5.20906C4.86367 31.907 4.53241 31.7698 4.28818 31.5255C4.04395 31.2813 3.90674 30.9501 3.90674 30.6047C3.90674 30.2593 4.04395 29.928 4.28818 29.6838C4.53241 29.4395 4.86367 29.3023 5.20906 29.3023H36.4649C36.8103 29.3023 37.1415 29.4395 37.3858 29.6838C37.63 29.928 37.7672 30.2593 37.7672 30.6047ZM37.7672 5.86046V24.093C37.7672 24.7838 37.4928 25.4463 37.0043 25.9348C36.5159 26.4233 35.8533 26.6977 35.1626 26.6977H6.51139C5.82059 26.6977 5.15809 26.4233 4.66962 25.9348C4.18116 25.4463 3.90674 24.7838 3.90674 24.093V5.86046C3.90674 5.16967 4.18116 4.50716 4.66962 4.0187C5.15809 3.53023 5.82059 3.25581 6.51139 3.25581H35.1626C35.8533 3.25581 36.5159 3.53023 37.0043 4.0187C37.4928 4.50716 37.7672 5.16967 37.7672 5.86046ZM26.6974 14.9767C26.6974 14.7576 26.642 14.5419 26.5364 14.3499C26.4308 14.1578 26.2785 13.9954 26.0935 13.8779L18.9307 9.31977C18.7338 9.19468 18.507 9.12478 18.2738 9.11734C18.0407 9.10991 17.8098 9.16523 17.6054 9.27752C17.4009 9.3898 17.2304 9.55494 17.1116 9.75567C16.9928 9.9564 16.9301 10.1854 16.93 10.4186V19.5349C16.9301 19.7681 16.9928 19.9971 17.1116 20.1978C17.2304 20.3985 17.4009 20.5637 17.6054 20.676C17.8098 20.7883 18.0407 20.8436 18.2738 20.8361C18.507 20.8287 18.7338 20.7588 18.9307 20.6337L26.0935 16.0756C26.2785 15.958 26.4308 15.7957 26.5364 15.6036C26.642 15.4115 26.6974 15.1959 26.6974 14.9767Z" fill="#7DED01"/>
</svg>
