<svg width="35" height="35" viewBox="0 0 35 35" fill="none" xmlns="http://www.w3.org/2000/svg">
<path fill-rule="evenodd" clip-rule="evenodd" d="M34.8179 17.409C34.8179 27.0237 27.0237 34.8179 17.409 34.8179C7.79424 34.8179 0 27.0237 0 17.409C0 7.79424 7.79424 0 17.409 0C27.0237 0 34.8179 7.79424 34.8179 17.409ZM17.409 33.3342C26.2042 33.3342 33.3342 26.2042 33.3342 17.409C33.3342 8.6137 26.2042 1.48372 17.409 1.48372C8.6137 1.48372 1.48372 8.6137 1.48372 17.409C1.48372 26.2042 8.6137 33.3342 17.409 33.3342Z" fill="black"/>
<g filter="url(#filter0_d_71_731)">
<path d="M17.9411 6.44422C17.7321 5.94242 17.0521 5.94242 16.8431 6.44422C14.2954 12.5606 9.55552 16.2889 8.76469 16.8801C8.4287 17.1313 8.4287 17.6529 8.76469 17.9041C9.55552 18.4953 14.2954 22.2236 16.8431 28.34C17.0521 28.8418 17.7321 28.8418 17.9411 28.34C20.4888 22.2236 25.2287 18.4953 26.0196 17.9041C26.3555 17.6529 26.3555 17.1313 26.0196 16.8801C25.2287 16.2889 20.4888 12.5606 17.9411 6.44422Z" fill="black"/>
</g>
<defs>
<filter id="filter0_d_71_731" x="3.93012" y="2.48773" width="26.9239" height="31.8136" filterUnits="userSpaceOnUse" color-interpolation-filters="sRGB">
<feFlood flood-opacity="0" result="BackgroundImageFix"/>
<feColorMatrix in="SourceAlpha" type="matrix" values="0 0 0 0 0 0 0 0 0 0 0 0 0 0 0 0 0 0 127 0" result="hardAlpha"/>
<feOffset dy="1.00244"/>
<feGaussianBlur stdDeviation="2.29129"/>
<feComposite in2="hardAlpha" operator="out"/>
<feColorMatrix type="matrix" values="0 0 0 0 0 0 0 0 0 0 0 0 0 0 0 0 0 0 0.21 0"/>
<feBlend mode="normal" in2="BackgroundImageFix" result="effect1_dropShadow_71_731"/>
<feBlend mode="normal" in="SourceGraphic" in2="effect1_dropShadow_71_731" result="shape"/>
</filter>
</defs>
</svg>
