<svg width="36" height="35" viewBox="0 0 36 35" fill="none" xmlns="http://www.w3.org/2000/svg">
<g clip-path="url(#clip0_121_2730)">
<path fill-rule="evenodd" clip-rule="evenodd" d="M16.8215 25.8276L16.2786 23.1167C15.4564 23.7864 14.4284 24.1521 13.368 24.1521C12.3075 24.1521 11.2795 23.7864 10.4574 23.1167L9.91406 25.8276C11.009 26.2768 12.1843 26.4969 13.3676 26.4744C14.551 26.4969 15.7265 26.2768 16.8215 25.8276ZM16.2107 21.9872L16.1702 22.0312C15.8164 22.4235 15.3841 22.7372 14.9014 22.9519C14.4187 23.1665 13.8963 23.2775 13.368 23.2775C12.8397 23.2775 12.3173 23.1665 11.8345 22.9519C11.3518 22.7372 10.9195 22.4235 10.5657 22.0312L10.5253 21.9872C10.5143 21.9729 10.5024 21.9594 10.4897 21.9468C9.77435 21.1322 9.3823 20.0838 9.38773 18.9998V16.8896C9.38776 16.8704 9.38654 16.8512 9.38409 16.8322C9.57288 16.7133 9.76853 16.5896 9.98844 16.4445C10.2573 16.2678 10.5035 16.0968 10.704 15.938C10.9035 15.7847 11.0854 15.6098 11.2465 15.4165C11.3969 15.2347 11.5111 15.0257 11.5828 14.8008C11.6179 14.6859 11.6432 14.5683 11.6584 14.4491C12.0297 14.7818 12.4277 15.0833 12.8485 15.3506C13.1542 15.5346 13.4748 15.6926 13.807 15.8228C14.1365 15.9537 14.4574 16.0576 14.7663 16.1462C15.0626 16.2311 15.3625 16.3079 15.6471 16.3786C15.9317 16.4494 16.1993 16.5177 16.4366 16.5892C16.7467 16.684 17.0511 16.7965 17.3482 16.9264V19.0002C17.3536 20.0842 16.9614 21.1325 16.2458 21.9468C16.2332 21.9594 16.2215 21.9729 16.2107 21.9872ZM18.2679 24.4001C17.9798 24.3271 17.6871 24.2666 17.3899 24.2186L17.6195 25.3651C17.7889 25.2585 17.934 25.1176 18.0454 24.9513C18.1568 24.7851 18.2321 24.5973 18.2663 24.4001H18.2679ZM7.62196 24.6552C7.76588 25.4148 8.41955 26.075 9.40066 26.5495C10.6483 27.1014 12.0015 27.374 13.3656 27.3483C14.7296 27.3741 16.0828 27.1014 17.3304 26.5495C18.314 26.075 18.9673 25.4148 19.1116 24.6552C19.7889 24.8923 20.4394 25.2003 21.052 25.5741C21.0722 25.5894 21.0937 25.6029 21.1162 25.6145C21.9371 26.1235 22.6823 26.7454 23.3299 27.4619C25.026 29.3289 25.9655 31.7609 25.9652 34.2833V35H0.76709V34.2808C0.767052 31.7586 1.70641 29.3268 3.40199 27.4595C4.05421 26.7382 4.8052 26.1128 5.63265 25.602C5.65521 25.5904 5.67671 25.5769 5.69692 25.5616C6.3051 25.1929 6.95031 24.8891 7.62196 24.6552ZM9.34569 24.2199C9.04924 24.2676 8.75642 24.3281 8.46725 24.4014C8.5021 24.5986 8.578 24.7863 8.69006 24.9523C8.80211 25.1184 8.9478 25.259 9.11769 25.3651L9.3473 24.2186L9.34569 24.2199ZM5.9132 24.4458C5.97586 23.7529 6.10845 22.9622 6.2556 22.0858C6.64101 20.0722 6.85254 18.0291 6.88784 15.9792C6.88366 14.2808 7.55141 12.6498 8.74537 11.4419C9.3302 10.8482 10.0272 10.3768 10.796 10.0549C11.5647 9.73314 12.3897 9.56742 13.2231 9.56742C14.0564 9.56742 14.8814 9.73314 15.6502 10.0549C16.4189 10.3768 17.1159 10.8482 17.7007 11.4419C18.8947 12.6498 19.5624 14.2808 19.5583 15.9792C19.5924 18.1857 19.8848 20.3807 20.4294 22.5192C20.5911 23.242 20.7371 23.8835 20.8155 24.4422C20.1806 24.1148 19.5153 23.8501 18.829 23.6519C18.8078 23.644 18.786 23.6378 18.7639 23.6333C18.2539 23.4892 17.734 23.3826 17.2084 23.3143L17.0216 22.3817C17.801 21.4281 18.225 20.2334 18.221 19.0018V16.9421C18.2211 16.89 18.2118 16.8382 18.1935 16.7893C18.2306 16.6867 18.2278 16.5738 18.1855 16.4732C18.1433 16.3725 18.0648 16.2915 17.9655 16.246L17.9578 16.2424C17.5447 16.0524 17.1198 15.8893 16.6857 15.754C16.4326 15.678 16.1541 15.6077 15.8586 15.5329C15.5885 15.465 15.3035 15.393 15.0052 15.3073C14.7069 15.2216 14.4081 15.1258 14.1276 15.0143C13.8414 14.9019 13.5651 14.7658 13.3017 14.6072C12.8778 14.3332 12.4775 14.0245 12.1047 13.6843C11.9729 13.5695 12.0837 13.6633 11.9685 13.563C11.8374 13.4337 11.6836 13.3296 11.5149 13.2558C11.0916 13.1127 10.9126 13.2647 10.843 13.7004C10.8306 13.7932 10.8236 13.8866 10.822 13.9802C10.8217 14.1693 10.7981 14.3576 10.7517 14.5409C10.7123 14.6612 10.6502 14.7729 10.5689 14.8699C10.4486 15.0126 10.3131 15.1416 10.1647 15.2548C9.97389 15.4064 9.75196 15.5608 9.51426 15.7173C9.30688 15.8535 9.01582 16.0358 8.72435 16.2181C8.63948 16.271 8.57534 16.3514 8.54266 16.4459C8.50999 16.5403 8.51076 16.6432 8.54487 16.7372C8.52696 16.7857 8.51779 16.837 8.51778 16.8888V18.9998C8.51382 20.2314 8.93778 21.4261 9.71719 22.3797L9.53043 23.3123C9.00497 23.3806 8.48521 23.4872 7.97528 23.6313C7.95301 23.6358 7.93112 23.642 7.90979 23.6499C7.22118 23.8489 6.55369 24.1148 5.91684 24.4438L5.9132 24.4458ZM21.8738 8.04539L21.5629 8.16424C21.3899 8.2306 21.2503 8.3628 21.1745 8.5319C21.0987 8.70101 21.093 8.89324 21.1587 9.06653L22.0666 11.4455C22.133 11.6186 22.2652 11.7582 22.4343 11.834C22.6034 11.9098 22.7956 11.9154 22.9689 11.8498L23.2794 11.7313L21.873 8.0462L21.8738 8.04539ZM24.2071 11.7095C24.2046 11.7054 24.2024 11.7011 24.2007 11.6966L22.5792 7.44629C22.5792 7.44184 22.5764 7.43699 22.5752 7.43255V7.42244C22.5742 7.40688 22.5782 7.39142 22.5868 7.37837C22.5953 7.36532 22.6078 7.35539 22.6225 7.35008L25.641 6.19837L27.3146 10.5873L24.2969 11.7386C24.2877 11.7424 24.2779 11.7444 24.268 11.7444C24.2581 11.7444 24.2482 11.7424 24.2391 11.7386C24.2299 11.7344 24.2216 11.7284 24.2148 11.7208L24.2071 11.7103V11.7095ZM31.2185 1.08097C31.2185 1.0939 31.2152 1.10643 31.2128 1.11937C31.2045 1.19842 31.2149 1.27832 31.2431 1.35262C32.3904 4.35863 33.5473 7.36221 34.6849 10.3723C34.733 10.4967 34.8284 10.5971 34.9503 10.6514C35.0722 10.7057 35.2106 10.7095 35.3353 10.6621H35.3386C35.4626 10.6137 35.5625 10.5182 35.6164 10.3964C35.6704 10.2746 35.6739 10.1365 35.6264 10.0121L32.1846 0.991626C32.1369 0.868283 32.0428 0.76857 31.9223 0.713918C31.8019 0.659265 31.6649 0.654035 31.5406 0.699353L31.478 0.730884H31.4727C31.3765 0.783507 31.3002 0.866319 31.2557 0.966563C31.239 1.00308 31.2269 1.0415 31.2197 1.08097H31.2185ZM28.1462 10.3233C29.2028 10.0887 30.2845 9.98622 31.3664 10.0181C32.1578 10.0341 32.9458 10.126 33.7196 10.2926L30.6129 2.15102C30.1472 2.79043 29.6211 3.38363 29.042 3.92244C28.2562 4.66769 27.3809 5.31242 26.4362 5.84182L28.1462 10.3233ZM26.0008 12.0212L27.0866 14.8663C27.1043 14.9268 27.1405 14.9802 27.1901 15.0191C27.2397 15.0579 27.3002 15.0803 27.3631 15.083C27.4689 15.0818 27.5708 15.0433 27.651 14.9742C27.6956 14.9303 27.7256 14.8736 27.7367 14.8119C27.7479 14.7502 27.7396 14.6866 27.7132 14.6298L26.6278 11.7851L26.0012 12.024L26.0008 12.0212ZM35.0641 6.09246L34.3769 4.28708C34.5322 4.33746 34.6761 4.41801 34.8002 4.52412C34.9244 4.63024 35.0264 4.75981 35.1003 4.90543C35.1743 5.05104 35.2187 5.20982 35.2312 5.37266C35.2436 5.5355 35.2238 5.69919 35.1728 5.85435C35.1455 5.93717 35.1098 6.01696 35.0661 6.09246H35.0641ZM30.0259 20.6022C29.7256 20.3021 29.4744 19.9567 29.2813 19.5787C28.8925 20.3393 28.2738 20.9581 27.5131 21.3468C28.2738 21.7356 28.8925 22.3543 29.2813 23.115C29.6701 22.3543 30.2888 21.7356 31.0495 21.3468C30.6714 21.1538 30.326 20.9025 30.0259 20.6022ZM16.2159 1.02316C15.9155 0.72331 15.6643 0.378028 15.4713 0C15.0823 0.760454 14.4636 1.37901 13.7031 1.76779C14.4636 2.15688 15.0822 2.77552 15.4713 3.53598C15.8604 2.77552 16.479 2.15688 17.2395 1.76779C16.8614 1.5747 16.516 1.32343 16.2159 1.02316Z" fill="#7DED01"/>
</g>
<defs>
<clipPath id="clip0_121_2730">
<rect width="35.7143" height="35" fill="white"/>
</clipPath>
</defs>
</svg>
