<svg width="56" height="50" viewBox="0 0 56 50" fill="none" xmlns="http://www.w3.org/2000/svg">
<path fill-rule="evenodd" clip-rule="evenodd" d="M16.2984 16.1339C15.1908 15.0263 13.7795 14.2719 12.2432 13.9664C10.7069 13.6608 9.11444 13.8176 7.66725 14.417C6.22005 15.0165 4.98312 16.0316 4.11286 17.3341C3.24259 18.6365 2.77809 20.1677 2.77809 21.7342C2.77809 23.3006 3.24259 24.8319 4.11286 26.1343C4.98312 27.4367 6.22005 28.4519 7.66725 29.0513C9.11444 29.6507 10.7069 29.8076 12.2432 29.502C13.7795 29.1964 15.1908 28.4421 16.2984 27.3344C17.7837 25.8492 18.6181 23.8347 18.6181 21.7342C18.6181 19.6337 17.7837 17.6192 16.2984 16.1339ZM12.6317 37.565H6.01505V45.3089H12.6306V37.565H12.6317ZM24.9339 31.3739H18.3184V45.3089H24.9339V31.3739ZM37.2373 23.1667H30.6217V45.3089H37.2373V23.1667ZM49.5406 12.8939H42.925V45.3089H49.5406V12.8939ZM52.7778 46.9217H2.77783V48.6878H52.7778V46.9217ZM45.3012 1.31223L44.3567 5.89L43.3478 5.09611C38.1062 11.7311 31.0462 16.4333 23.2728 19.6322C23.076 19.7096 22.8567 19.7066 22.6621 19.6239C22.4675 19.5411 22.3131 19.3853 22.2323 19.1899C22.1514 18.9945 22.1505 18.7751 22.2298 18.5791C22.3091 18.383 22.4622 18.226 22.6562 18.1417C30.2673 14.9794 36.9412 10.5772 42.0817 4.09834L41.0728 3.30445L45.3012 1.31223ZM13.6073 19.6422C13.613 19.7516 13.5964 19.8609 13.5586 19.9637C13.5207 20.0664 13.4623 20.1604 13.3869 20.2398C13.3115 20.3192 13.2208 20.3825 13.1202 20.4257C13.0196 20.4689 12.9112 20.4912 12.8017 20.4912C12.6922 20.4912 12.5839 20.4689 12.4833 20.4257C12.3827 20.3825 12.2919 20.3192 12.2165 20.2398C12.1412 20.1604 12.0828 20.0664 12.0449 19.9637C12.007 19.8609 11.9904 19.7516 11.9962 19.6422C11.9962 19.2983 11.8596 18.9685 11.6164 18.7253C11.3732 18.4822 11.0434 18.3456 10.6995 18.3456C10.3556 18.3456 10.0258 18.4822 9.78262 18.7253C9.53944 18.9685 9.40283 19.2983 9.40283 19.6422C9.40283 20.5917 10.1389 20.765 10.8756 20.9383C12.2412 21.2594 13.6089 21.5811 13.6089 23.8272C13.6088 24.4582 13.4037 25.0721 13.0244 25.5764C12.6452 26.0807 12.1123 26.4481 11.5062 26.6233V27.4822C11.4953 27.6886 11.4057 27.8829 11.2558 28.0251C11.106 28.1673 10.9072 28.2466 10.7006 28.2466C10.494 28.2466 10.2953 28.1673 10.1454 28.0251C9.99549 27.8829 9.90589 27.6886 9.89505 27.4822V26.6222C9.28877 26.4471 8.7558 26.0797 8.37644 25.5754C7.99708 25.0711 7.79187 24.4572 7.79172 23.8261C7.78597 23.7168 7.80255 23.6074 7.84044 23.5047C7.87833 23.4019 7.93674 23.308 8.0121 23.2286C8.08747 23.1491 8.17822 23.0859 8.27882 23.0426C8.37943 22.9994 8.48778 22.9771 8.59728 22.9771C8.70677 22.9771 8.81512 22.9994 8.91573 23.0426C9.01633 23.0859 9.10708 23.1491 9.18245 23.2286C9.25781 23.308 9.31622 23.4019 9.35411 23.5047C9.392 23.6074 9.40858 23.7168 9.40283 23.8261C9.40283 24.17 9.53944 24.4998 9.78262 24.743C10.0258 24.9862 10.3556 25.1228 10.6995 25.1228C11.0434 25.1228 11.3732 24.9862 11.6164 24.743C11.8596 24.4998 11.9962 24.17 11.9962 23.8261C11.9962 22.8567 11.2528 22.6817 10.5106 22.5072C9.14894 22.1867 7.78839 21.8672 7.78839 19.6422C7.78854 19.0112 7.99375 18.3972 8.37311 17.8929C8.75247 17.3886 9.28543 17.0212 9.89172 16.8461V15.9872C9.90256 15.7809 9.99216 15.5866 10.142 15.4444C10.2919 15.3022 10.4907 15.2229 10.6973 15.2229C10.9039 15.2229 11.1026 15.3022 11.2525 15.4444C11.4024 15.5866 11.492 15.7809 11.5028 15.9872V16.8461C12.1094 17.0209 12.6427 17.3881 13.0223 17.8925C13.4019 18.3968 13.6072 19.011 13.6073 19.6422Z" fill="black"/>
</svg>
