<svg width="50" height="50" viewBox="0 0 50 50" fill="none" xmlns="http://www.w3.org/2000/svg">
<rect width="50" height="50" rx="25" fill="#DFDDD8"/>
<path d="M14 21.4976V30.5493C14 31.3887 14.3402 32.1937 14.9457 32.7873C15.5512 33.3808 16.3724 33.7143 17.2287 33.7143H33.3722C34.2285 33.7143 35.0498 33.3808 35.6553 32.7873C36.2608 32.1937 36.6009 31.3887 36.6009 30.5493V21.4976L26.9923 27.2926C26.4835 27.5994 25.8978 27.7619 25.3005 27.7619C24.7031 27.7619 24.1174 27.5994 23.6086 27.2926L14 21.4976Z" fill="#0E1418"/>
<path d="M36.6009 19.298V19.133C36.6009 18.3021 36.2608 17.5052 35.6553 16.9176C35.0498 16.3301 34.2285 16 33.3722 16H17.2287C16.3724 16 15.5512 16.3301 14.9457 16.9176C14.3402 17.5052 14 18.3021 14 19.133V19.298L24.4545 25.5411C24.7089 25.693 25.0018 25.7734 25.3005 25.7734C25.5991 25.7734 25.892 25.693 26.1464 25.5411L36.6009 19.298Z" fill="#0E1418"/>
</svg>
