<svg width="21" height="21" viewBox="0 0 21 21" fill="none" xmlns="http://www.w3.org/2000/svg">
<path d="M4.8514 20.4426H0.704876V7.08965H4.8514V20.4426ZM2.7759 5.26818C1.44998 5.26818 0.374512 4.16994 0.374512 2.84402C0.374512 2.20713 0.627515 1.59633 1.07786 1.14598C1.52821 0.69563 2.13902 0.442627 2.7759 0.442627C3.41279 0.442627 4.0236 0.69563 4.47395 1.14598C4.92429 1.59633 5.1773 2.20713 5.1773 2.84402C5.1773 4.16994 4.10138 5.26818 2.7759 5.26818ZM20.3705 20.4426H16.2329V13.9425C16.2329 12.3933 16.2016 10.4067 14.077 10.4067C11.9212 10.4067 11.5908 12.0898 11.5908 13.8309V20.4426H7.44878V7.08965H11.4257V8.91112H11.4837C12.0373 7.86199 13.3895 6.75482 15.407 6.75482C19.6035 6.75482 20.375 9.51828 20.375 13.1076V20.4426H20.3705Z" fill="#0E1418"/>
</svg>
