<svg width="24" height="24" viewBox="0 0 24 24" fill="none" xmlns="http://www.w3.org/2000/svg">
<rect width="24" height="24" rx="6" fill="#E9E8E4"/>
<path d="M12.8226 4.00098C13.4063 3.99874 13.9901 4.00461 14.5737 4.01858L14.7289 4.02418C14.9081 4.03058 15.0849 4.03858 15.2985 4.04818C16.1496 4.08818 16.7304 4.22258 17.24 4.42017C17.768 4.62336 18.2128 4.89855 18.6576 5.34334C19.0642 5.74301 19.379 6.22647 19.5799 6.76009C19.7775 7.26967 19.9119 7.85125 19.9519 8.70242C19.9615 8.91522 19.9695 9.09281 19.9759 9.27201L19.9807 9.4272C19.9949 10.0105 20.0011 10.594 19.9991 11.1775L19.9999 11.7743V12.8223C20.0019 13.4061 19.9958 13.9898 19.9815 14.5734L19.9767 14.7286C19.9703 14.9078 19.9623 15.0846 19.9527 15.2982C19.9127 16.1494 19.7767 16.7302 19.5799 17.2397C19.3797 17.7739 19.0648 18.2578 18.6576 18.6573C18.2575 19.0639 17.7738 19.3787 17.24 19.5797C16.7304 19.7772 16.1496 19.9116 15.2985 19.9516C15.0849 19.9612 14.9081 19.9692 14.7289 19.9756L14.5737 19.9804C13.9901 19.9947 13.4063 20.0008 12.8226 19.9988L12.2258 19.9996H11.1786C10.5948 20.0016 10.0111 19.9955 9.42748 19.9812L9.27228 19.9764C9.08238 19.9696 8.89251 19.9616 8.7027 19.9524C7.85153 19.9124 7.27075 19.7764 6.76037 19.5797C6.22653 19.3791 5.74299 19.0643 5.34362 18.6573C4.93647 18.2575 4.62142 17.7738 4.42045 17.2397C4.22285 16.7302 4.08846 16.1494 4.04846 15.2982C4.03955 15.1084 4.03155 14.9185 4.02446 14.7286L4.02046 14.5734C4.00571 13.9898 3.99905 13.4061 4.00046 12.8223V11.1775C3.99823 10.594 4.0041 10.0105 4.01806 9.4272L4.02366 9.27201C4.03006 9.09281 4.03806 8.91522 4.04766 8.70242C4.08766 7.85045 4.22205 7.27047 4.41965 6.76009C4.62074 6.2262 4.9364 5.74288 5.34442 5.34414C5.74352 4.93675 6.22675 4.62142 6.76037 4.42017C7.27075 4.22258 7.85073 4.08818 8.7027 4.04818L9.27228 4.02418L9.42748 4.02018C10.0108 4.00544 10.5943 3.99878 11.1778 4.00018L12.8226 4.00098ZM12.0002 8.00085C11.4702 7.99335 10.944 8.09126 10.4522 8.28889C9.96042 8.48652 9.51279 8.77992 9.13536 9.15205C8.75793 9.52418 8.45823 9.96761 8.25367 10.4566C8.0491 10.9455 7.94376 11.4703 7.94376 12.0003C7.94376 12.5303 8.0491 13.0551 8.25367 13.5441C8.45823 14.033 8.75793 14.4764 9.13536 14.8486C9.51279 15.2207 9.96042 15.5141 10.4522 15.7117C10.944 15.9094 11.4702 16.0073 12.0002 15.9998C13.061 15.9998 14.0784 15.5784 14.8285 14.8282C15.5786 14.0781 16.0001 13.0607 16.0001 11.9999C16.0001 10.9391 15.5786 9.9217 14.8285 9.17158C14.0784 8.42146 13.061 8.00085 12.0002 8.00085ZM12.0002 9.60079C12.319 9.59492 12.6358 9.65263 12.932 9.77055C13.2282 9.88848 13.498 10.0643 13.7256 10.2876C13.9531 10.511 14.1339 10.7774 14.2573 11.0714C14.3807 11.3654 14.4443 11.6811 14.4443 11.9999C14.4444 12.3188 14.3809 12.6344 14.2576 12.9285C14.1343 13.2225 13.9536 13.489 13.7261 13.7124C13.4987 13.9359 13.2289 14.1117 12.9327 14.2298C12.6365 14.3478 12.3198 14.4056 12.001 14.3998C11.3645 14.3998 10.7541 14.147 10.304 13.6969C9.85392 13.2468 9.60107 12.6364 9.60107 11.9999C9.60107 11.3634 9.85392 10.753 10.304 10.3029C10.7541 9.85284 11.3645 9.59999 12.001 9.59999L12.0002 9.60079ZM16.2 6.80089C15.942 6.81122 15.6979 6.92101 15.519 7.10726C15.34 7.29351 15.2401 7.54177 15.2401 7.80006C15.2401 8.05834 15.34 8.3066 15.519 8.49285C15.6979 8.6791 15.942 8.78889 16.2 8.79922C16.4653 8.79922 16.7196 8.69387 16.9071 8.50634C17.0947 8.31881 17.2 8.06446 17.2 7.79925C17.2 7.53405 17.0947 7.2797 16.9071 7.09217C16.7196 6.90464 16.4653 6.79929 16.2 6.79929V6.80089Z" fill="#0E1418"/>
</svg>
