<svg width="24" height="24" viewBox="0 0 24 24" fill="none" xmlns="http://www.w3.org/2000/svg">
<path fill-rule="evenodd" clip-rule="evenodd" d="M2.57178 12C2.57178 8.32447 2.57178 6.48671 3.41485 5.14502C3.85443 4.44547 4.44596 3.85394 5.14551 3.41436C6.4872 2.57129 8.32496 2.57129 12.0005 2.57129C15.676 2.57129 17.5138 2.57129 18.8555 3.41436C19.555 3.85394 20.1465 4.44547 20.5861 5.14502C21.4292 6.48671 21.4292 8.32447 21.4292 12C21.4292 15.6755 21.4292 17.5133 20.5861 18.855C20.1465 19.5545 19.555 20.1461 18.8555 20.5856C17.5138 21.4287 15.676 21.4287 12.0005 21.4287C8.32496 21.4287 6.4872 21.4287 5.14551 20.5856C4.44596 20.1461 3.85443 19.5545 3.41485 18.855C2.57178 17.5133 2.57178 15.6755 2.57178 12ZM12.0005 7.00836C9.24387 7.00836 7.00885 9.24338 7.00885 12C7.00885 14.7567 9.24387 16.9917 12.0005 16.9917C14.7572 16.9917 16.9922 14.7567 16.9922 12C16.9922 9.24338 14.7572 7.00836 12.0005 7.00836ZM12.0005 15.1198C10.2809 15.1198 8.88072 13.7197 8.88072 12C8.88072 10.2792 10.2809 8.88024 12.0005 8.88024C13.7201 8.88024 15.1203 10.2792 15.1203 12C15.1203 13.7197 13.7201 15.1198 12.0005 15.1198ZM18.0309 6.63408C18.0309 7.00143 17.7331 7.29922 17.3658 7.29922C16.9984 7.29922 16.7006 7.00143 16.7006 6.63408C16.7006 6.26673 16.9984 5.96894 17.3658 5.96894C17.7331 5.96894 18.0309 6.26673 18.0309 6.63408Z" fill="#C8CAD1"/>
</svg>
