<svg id="ab3fe525-d453-47d8-91ef-044c7180bc24" xmlns="http://www.w3.org/2000/svg" xmlns:xlink="http://www.w3.org/1999/xlink" viewBox="0 0 60 60"><defs><style>.cls-1{fill:none;stroke:#635bff;stroke-miterlimit:10;stroke-width:2px;}.cls-2{fill:#635bff;}.cls-3{fill:url(#linear-gradient);}</style><linearGradient id="linear-gradient" x1="22.82" y1="28.49" x2="38.72" y2="12.58" gradientUnits="userSpaceOnUse"><stop offset="0" stop-color="#fff"/><stop offset="1" stop-color="#635bff"/></linearGradient></defs><title>Integration-Icon</title><circle id="b1bf23b1-fd72-4a0f-8358-88f260cf5936" class="cls-1" cx="21.67" cy="29.72" r="19.01"/><path class="cls-2" d="M4.55,30.76H11c-.19-.54-.37-1-.54-1.55a2.27,2.27,0,1,1,4.3,0c-.16.51-.35,1-.54,1.56H20.5v3.4a4.59,4.59,0,0,0-3.66,1.92,4.36,4.36,0,0,0-.84,3,4.6,4.6,0,0,0,4.53,4.21v3.47h-.45a.78.78,0,0,0-.17-.06A16.08,16.08,0,0,1,14,44.93,17.12,17.12,0,0,1,5,33.62c-.2-.79-.31-1.6-.45-2.41Z"/><path class="cls-2" d="M22.81,46.74V40.33c-.54.19-1,.37-1.55.53a2.27,2.27,0,1,1,0-4.3c.51.16,1,.35,1.56.54V30.79h3.4a4.58,4.58,0,0,0,1.9,3.64,4.39,4.39,0,0,0,3,.87,4.6,4.6,0,0,0,4.25-4.51h3.36c-.12.81-.19,1.61-.37,2.39A17.06,17.06,0,0,1,27.51,45.73a14.65,14.65,0,0,1-4,.95,1.1,1.1,0,0,0-.21.06Z"/><path class="cls-2" d="M4.55,28c.15-.79.25-1.59.45-2.37a16.93,16.93,0,0,1,9.65-11.55A16.4,16.4,0,0,1,20,12.68l.49,0v6.29l1.42-.51a2.21,2.21,0,0,1,2.06.21,2.17,2.17,0,0,1,.89,2.76,2.33,2.33,0,0,1-2.77,1.28c-.52-.16-1-.35-1.58-.55v6.33H17.14a4.6,4.6,0,0,0-2-3.71,4.35,4.35,0,0,0-3-.8A4.6,4.6,0,0,0,8,28.49H4.55Z"/><path class="cls-3" d="M38.72,26.23v2.25H32.37c.19.56.38,1.06.55,1.57a2.27,2.27,0,1,1-4.3,0c.16-.5.35-1,.54-1.54H22.83V25.09a4.58,4.58,0,0,0,3.47-1.67,4.43,4.43,0,0,0,1-2.93c0-2.43-1.64-4.07-4.53-4.55V12.59h2.24a4.73,4.73,0,0,1,1.81-3.67,4.32,4.32,0,0,1,3-1,4.66,4.66,0,0,1,4.28,4.59H38.7v4.55a4.73,4.73,0,0,1,3.67,1.81,4.31,4.31,0,0,1,1,3A4.66,4.66,0,0,1,38.72,26.23Z"/></svg>