<svg width="45" height="45" viewBox="0 0 45 45" fill="none" xmlns="http://www.w3.org/2000/svg">
<path d="M9.43579 40.5C8.186 40.4337 6.9668 39.9061 6.08867 39.0498L6.08211 39.044C5.16462 38.1731 4.58891 36.927 4.5 35.624V9.34106C4.60057 8.06357 5.16316 6.84365 6.0464 5.99028L6.05296 5.98373C6.93474 5.10705 8.16486 4.56704 9.43142 4.5H35.6131C36.7929 4.57943 37.905 5.04 38.7481 5.79717L38.7547 5.803C39.772 6.69207 40.4075 7.99361 40.5 9.37822V36.1596C40.492 36.223 40.4876 36.2857 40.4833 36.3469C40.4789 36.4089 40.4709 36.5094 40.4607 36.5531L40.4337 36.6034L40.414 36.6799C40.2486 37.3293 39.893 37.9458 39.2626 38.6774L39.2575 38.6833C38.3604 39.7487 36.9824 40.4272 35.5679 40.5008H9.43579V40.5ZM35.1022 38.8975C35.1379 38.8983 35.1736 38.899 35.2093 38.899C35.7785 38.899 36.2901 38.8006 36.7295 38.6075C38.0063 38.0704 38.8757 36.7856 38.8924 35.4097V35.3901C38.8924 35.3587 38.8924 35.3259 38.8961 35.2924L38.8983 35.2655V35.2385C38.8968 31.2304 38.8968 24.5529 38.8975 18.7353C38.8975 15.3379 38.8975 12.2334 38.8975 10.1245C38.9092 9.55968 38.8873 8.95847 38.6541 8.3864C38.1476 7.04259 36.7958 6.10543 35.3624 6.10543H35.3281C31.6225 6.1047 27.9175 6.10397 24.2118 6.10397H9.75426C9.73167 6.10397 9.70907 6.10397 9.68721 6.10397C8.73328 6.10397 7.80851 6.48729 7.14972 7.15482C6.46543 7.83255 6.08429 8.77919 6.10397 9.75498V35.2451C6.08356 36.2208 6.4647 37.1689 7.15045 37.8474C7.81069 38.5157 8.7362 38.899 9.6894 38.899C9.71053 38.899 9.73239 38.899 9.75353 38.899H25.74C28.8605 38.899 31.981 38.899 35.1015 38.899L35.1022 38.8975Z" fill="#0E1418"/>
<path d="M32.3389 20.9705C31.8572 20.9705 31.3748 20.9698 30.8931 20.9698H28.9918C28.3096 20.9698 27.6275 20.9698 26.9447 20.9683C26.1496 20.9683 25.3539 20.6302 24.8088 20.0632L24.8037 20.0581C24.2651 19.5108 23.9576 18.7544 23.959 17.9834C23.9561 16.1112 23.9568 14.2478 23.9583 12.5127C23.9568 12.2766 24.0705 12.0412 24.2534 11.8947L24.2622 11.8882C24.3948 11.7788 24.5777 11.7162 24.7636 11.7162C24.878 11.7162 24.9895 11.7402 25.0857 11.7854L25.0981 11.7912C25.3684 11.9115 25.5623 12.2117 25.5594 12.5061V12.5141C25.5615 13.2793 25.5608 14.0452 25.5608 14.8104C25.5608 15.424 25.5608 16.0369 25.5608 16.6505L25.563 18.229L26.6802 17.1133C27.6254 16.1695 28.5691 15.2251 29.5135 14.2806C30.5819 13.2116 31.6509 12.1425 32.7207 11.0749C32.8665 10.9277 33.0764 10.8417 33.287 10.8417C33.3402 10.8417 33.3919 10.8475 33.4415 10.8577L33.4546 10.8606C33.7541 10.9197 34.0121 11.1784 34.0682 11.4764L34.0711 11.491C34.125 11.7475 34.0281 12.0463 33.8299 12.2329L33.8153 12.2467C32.8191 13.2443 31.8215 14.2413 30.8245 15.2375C29.8211 16.2402 28.8183 17.243 27.8156 18.2472L26.6991 19.3651L28.279 19.3665C28.682 19.3665 29.0843 19.3665 29.4873 19.3665H30.8129C31.3449 19.3665 31.8761 19.3665 32.4081 19.3673H32.4307C32.7514 19.3673 33.0764 19.6078 33.1704 19.9138L33.1755 19.9299C33.2746 20.2243 33.1653 20.5916 32.9219 20.7832L32.9095 20.7934C32.7732 20.9064 32.5808 20.9712 32.3826 20.9712C32.3739 20.9712 32.3382 20.9712 32.3382 20.9712L32.3389 20.9705Z" fill="#0E1418"/>
<path d="M11.7933 33.9406C11.5667 33.9406 11.3488 33.8488 11.2089 33.695L11.1943 33.6797C10.9829 33.4611 10.9225 33.0894 11.0529 32.814L11.0631 32.7914C11.1148 32.6704 11.2504 32.5378 11.394 32.3971C11.4209 32.3709 11.4472 32.3446 11.4741 32.3184C12.3012 31.4906 13.1276 30.6642 13.9548 29.8378C15.0559 28.7374 16.1563 27.6362 17.2567 26.5351L18.3732 25.4179L16.794 25.4157C16.3691 25.4157 15.945 25.415 15.5201 25.415H13.938C13.5139 25.415 13.0905 25.415 12.6663 25.415H12.6445C12.3304 25.415 12.0156 25.1927 11.9121 24.8976L11.9055 24.8794C11.7911 24.582 11.899 24.1936 12.1511 23.9954L12.1628 23.9859C12.2983 23.8744 12.4878 23.811 12.6817 23.811C12.6911 23.811 12.729 23.8118 12.729 23.8118C13.2107 23.8118 13.6932 23.8125 14.1756 23.8125H16.0776C16.7604 23.8125 17.4425 23.8125 18.1247 23.814H18.1385C18.9401 23.814 19.7454 24.163 20.2919 24.7482C20.8166 25.2977 21.114 26.0439 21.1125 26.8004C21.1154 28.3999 21.1154 30.1365 21.1125 32.2674C21.1147 32.5421 20.9587 32.8147 20.7255 32.951L20.7153 32.9568C20.6009 33.0268 20.4574 33.0654 20.3116 33.0654C20.1564 33.0654 20.0055 33.0224 19.8868 32.9437L19.8751 32.9364C19.655 32.7979 19.5093 32.5312 19.5115 32.2718C19.51 31.4388 19.5107 30.6124 19.5107 29.786C19.5107 29.2351 19.5107 28.6834 19.5107 28.1325V26.5482L18.3906 27.669C16.9295 29.1323 15.4669 30.5942 14.0036 32.0561L12.7611 33.2978C12.6904 33.3649 12.6255 33.4319 12.5621 33.4975C12.3938 33.6702 12.2488 33.8196 12.103 33.875L12.0819 33.8838C11.9952 33.9209 11.8953 33.9399 11.794 33.9399L11.7933 33.9406Z" fill="#0E1418"/>
</svg>
