<svg width="60" height="60" viewBox="0 0 60 60" fill="none" xmlns="http://www.w3.org/2000/svg">
<path d="M49.78 30.2016C50.05 30.1127 50.25 29.9348 50.37 29.7075C51.48 28.2351 60 16.6335 60 11.4059C60 5.67424 55.28 1 49.47 1C43.66 1 38.95 5.67424 38.95 11.4059C38.95 15.9902 45.518 25.4859 47.859 28.7381L35.473 32.7087C35.093 32.8303 34.824 33.1633 34.785 33.5566C34.748 33.9489 34.951 34.3264 35.301 34.5162L56.269 45.8539L17.195 55.4059C20.887 50.2534 29.601 37.4047 29.601 31.1513C29.601 23.0875 22.961 16.5258 14.801 16.5258C6.641 16.5258 0 23.0865 0 31.1503C0 38.6706 12.59 55.737 13.91 57.4763C13.92 57.4861 13.93 57.496 13.94 57.5059C13.943 57.5108 13.946 57.5148 13.949 57.5197C13.963 57.5415 13.977 57.5622 13.992 57.583C13.995 57.5869 13.997 57.5909 14 57.5948C14.009 57.6087 14.025 57.6166 14.035 57.6294C14.091 57.6966 14.149 57.7589 14.22 57.8083C14.262 57.8379 14.307 57.8567 14.353 57.8794C14.409 57.9071 14.464 57.9348 14.525 57.9516C14.541 57.9555 14.554 57.9674 14.57 57.9704C14.64 57.9901 14.72 58 14.8 58C14.88 58 14.96 57.9901 15.04 57.9704C15.045 57.9694 15.05 57.9654 15.055 57.9634L59.24 47.1623C59.64 47.0645 59.938 46.7344 59.991 46.3302C60.045 45.926 59.842 45.5317 59.48 45.3361L38.294 33.8817L49.753 30.2085L49.779 30.2026L49.78 30.2016ZM14.8 23.3929C19.12 23.3929 22.64 26.8714 22.64 31.1503C22.64 35.4293 19.12 38.8979 14.8 38.8979C10.48 38.8979 6.96 35.4194 6.96 31.1503C6.96 26.8812 10.47 23.3929 14.8 23.3929ZM49.47 5.75329C52.63 5.75329 55.2 8.28311 55.2 11.4059C55.2 14.5286 52.63 17.0584 49.47 17.0584C46.31 17.0584 43.75 14.5286 43.75 11.4059C43.75 8.28311 46.32 5.75329 49.47 5.75329Z" fill="#0E1418"/>
</svg>
