<svg width="85" height="60" viewBox="0 0 85 60" fill="none" xmlns="http://www.w3.org/2000/svg">
<g clip-path="url(#clip0_118_1003)">
<path d="M48.428 0.67882C48.8274 0.458588 49.2037 0.185764 49.6393 0.0394907C50.1997 -0.123218 50.7026 0.246574 51.1677 0.504607C60.5325 5.88221 69.9006 11.2516 79.267 16.6243C79.9277 17.0121 80.9056 17.3721 80.8546 18.3039C80.8694 20.4126 80.8563 22.5245 80.8612 24.6348C70.821 18.8759 60.7807 13.1153 50.7404 7.35973C50.3131 7.08033 49.7461 6.99158 49.2974 7.27755C46.4722 8.89314 43.647 10.5136 40.8251 12.1391C40.4684 12.3955 40.0165 12.3084 39.6072 12.3199C35.7844 12.3149 31.9599 12.3199 28.1371 12.3199C34.9002 8.43788 41.6649 4.56082 48.428 0.680464V0.67882Z" fill="#0E1418"/>
<path d="M45.4022 12.3577C46.9241 11.4998 48.4312 10.6172 49.9515 9.75598C58.603 14.7096 67.243 19.6845 75.8994 24.6298C75.9273 34.772 75.9076 44.9174 75.9109 55.0613C70.4478 55.0596 64.9864 55.0596 59.5234 55.0613C59.5168 48.0747 59.5266 41.0881 59.5184 34.1031C59.5825 33.3717 58.9136 32.7176 58.1872 32.7866C55.7745 32.7817 53.3618 32.7883 50.9491 32.785C50.9425 27.958 50.9623 23.131 50.9392 18.3056C50.9129 15.2996 48.3918 12.6141 45.4022 12.3577Z" fill="#0E1418"/>
<path d="M0 18.1494C0.165996 16.3365 1.78158 14.7801 3.62068 14.7966C17.3704 14.7933 31.1184 14.7916 44.8681 14.7966C46.8124 14.7801 48.5233 16.5403 48.4789 18.4797C48.4904 25.5501 48.4789 32.6222 48.4839 39.6943C48.4921 40.3763 48.3491 41.0682 48.0039 41.6648C47.3597 42.8367 46.0449 43.5763 44.7103 43.5516C31.1201 43.5615 17.5298 43.5532 3.93952 43.5565C2.00509 43.6913 0.192292 42.148 0 40.2218L0 18.1494ZM8.9539 23.545C7.5076 23.9411 6.46232 25.3808 6.48698 26.8732C6.42452 28.3211 7.34982 29.7608 8.72381 30.2506C9.562 30.5809 10.4742 30.3919 11.3469 30.4659C11.9057 30.4988 12.3346 31.0839 12.2229 31.6279C12.1473 32.1127 11.6789 32.4874 11.1891 32.4529C10.0288 32.471 8.86844 32.4381 7.70811 32.4628C7.02112 32.4381 6.41795 33.0824 6.48204 33.7661C6.50505 34.3923 7.07536 34.928 7.70154 34.9149C8.97198 34.9248 10.2457 34.933 11.5178 34.9083C13.0989 34.8508 14.4728 33.513 14.6651 31.9582C14.9199 30.3952 13.9699 28.727 12.471 28.1962C11.5523 27.8297 10.5448 28.0894 9.59487 27.9365C8.68108 27.6522 8.74024 26.0793 9.70006 25.9084C11.0231 25.8262 12.3511 25.9347 13.6741 25.8591C14.5599 25.7621 15.0284 24.5854 14.4548 23.9017C14.0044 23.2738 13.1613 23.43 12.4957 23.4168C11.3173 23.4711 10.1142 23.2919 8.9539 23.545ZM18.5455 24.2107C17.441 27.215 16.3514 30.2259 15.2617 33.2352C15.0349 33.7792 15.2634 34.4596 15.7794 34.7473C16.3349 35.0973 17.1551 34.887 17.4624 34.3035C17.7106 33.799 17.8601 33.2533 18.0672 32.7307C19.1536 32.7307 20.2416 32.729 21.328 32.7323C21.535 33.2665 21.6764 33.8285 21.9394 34.3413C22.2878 34.9494 23.1884 35.1055 23.7275 34.6618C24.1975 34.3167 24.3241 33.651 24.0858 33.13C22.9879 30.1339 21.9196 27.1246 20.802 24.1351C20.429 23.1572 18.8545 23.2114 18.5455 24.2107ZM24.6873 24.7136C24.6824 27.6801 24.6824 30.6483 24.6873 33.6149C24.6314 34.3134 25.251 34.9576 25.9545 34.9165C27.8232 34.9264 29.6918 34.9215 31.5622 34.9198C32.0667 34.9527 32.5779 34.6717 32.7849 34.2033C33.1679 33.462 32.5729 32.4677 31.738 32.4677C30.2095 32.4381 28.6794 32.4677 27.1493 32.4546C27.1493 29.8792 27.1542 27.3021 27.146 24.7267C27.197 24.0644 26.6431 23.4366 25.9775 23.4218C25.2724 23.3626 24.6331 24.0101 24.6873 24.7136ZM33.7859 24.7382C33.7826 27.6916 33.7826 30.645 33.7859 33.5984C33.7283 34.2739 34.3003 34.9215 34.984 34.9133C36.9118 34.928 38.843 34.9248 40.7708 34.9149C41.397 34.9313 41.9673 34.3972 41.9969 33.7727C42.061 33.0922 41.466 32.4447 40.7823 32.4628C39.2719 32.443 37.7599 32.4644 36.2495 32.4562C36.2478 31.7725 36.2478 31.0904 36.2495 30.4084C37.7517 30.3985 39.2538 30.4215 40.756 30.3985C41.42 30.4182 42.0199 29.8298 41.9985 29.1609C42.01 28.5052 41.4184 27.9102 40.7577 27.9447C39.2555 27.9332 37.7517 27.9497 36.2495 27.9398C36.2478 27.2545 36.2478 26.5691 36.2495 25.8821C37.7599 25.8739 39.2703 25.8953 40.7807 25.8755C41.3477 25.8838 41.8769 25.4449 41.9755 24.8878C42.1448 24.1663 41.5268 23.4037 40.7872 23.4234C39.0238 23.4037 37.2603 23.4283 35.4984 23.4135C34.6701 23.2492 33.6987 23.8096 33.7859 24.7382Z" fill="#0E1418"/>
<path d="M19.6877 28.28C19.9458 28.9358 20.1792 29.6014 20.4191 30.2638C19.9343 30.2654 19.4478 30.2654 18.9613 30.2621C19.2029 29.6014 19.4379 28.9391 19.6877 28.28Z" fill="#0E1418"/>
<path d="M50.9491 35.2502C52.9854 35.2502 55.0201 35.2485 57.0564 35.2518C57.0482 41.8555 57.0745 48.4591 57.0433 55.0628C52.3017 55.0546 47.5618 55.0661 42.8219 55.0579C42.8219 52.0453 42.8203 49.0344 42.8219 46.0234C44.1712 45.9988 45.5715 46.1401 46.8617 45.6487C49.1445 44.8598 50.8308 42.6148 50.931 40.1972C50.9738 38.5487 50.936 36.8986 50.9491 35.2502ZM54.1408 43.075C53.6494 43.2525 53.3224 43.7603 53.3486 44.2813C53.3437 44.9387 53.3207 45.5978 53.3667 46.2535C53.4275 46.9044 54.0981 47.4007 54.7391 47.3005C55.3225 47.2314 55.8074 46.6973 55.8024 46.1073C55.8106 45.4137 55.8353 44.7185 55.7876 44.0282C55.7005 43.2821 54.8311 42.7841 54.1408 43.075Z" fill="#0E1418"/>
<path d="M31.2302 46.0137C34.2723 46.017 37.3145 46.0137 40.3566 46.0153C40.3583 49.0279 40.3583 52.0405 40.3566 55.0547C37.3128 55.0563 34.2707 55.053 31.2285 55.0563C31.2252 52.0421 31.2236 49.0279 31.2302 46.0137Z" fill="#0E1418"/>
<path d="M19.7239 46.0219C22.7365 46.0202 25.749 46.0202 28.7616 46.0219C28.7485 49.8513 28.7501 53.679 28.7255 57.5084C46.7598 57.5479 64.7958 57.5117 82.8301 57.5265C83.458 57.469 83.9806 57.9374 84.1482 58.5159V58.9514C84.0069 59.6253 83.3577 60.0625 82.6839 59.9918C55.9438 59.9901 29.2037 59.9901 2.46364 59.9918C1.91963 59.977 1.36248 60.0477 0.829978 59.9129C0.397732 59.7913 0.14956 59.387 0 58.9942V58.5488C0.139699 57.9505 0.678774 57.4706 1.31482 57.5265C7.44022 57.5232 13.5656 57.5265 19.691 57.5265C19.7058 53.6905 19.7091 49.8562 19.7239 46.0219Z" fill="#0E1418"/>
</g>
<defs>
<clipPath id="clip0_118_1003">
<rect width="84.1482" height="60" fill="white"/>
</clipPath>
</defs>
</svg>
