<svg width="160" height="31" viewBox="0 0 160 31" fill="none" xmlns="http://www.w3.org/2000/svg">
<path d="M3.9616 3.452C6.1426 1.36967 9.10412 0.154264 12.1057 0.00308284C13.133 0.00308284 14.1633 0.00924641 15.1906 0C15.1382 1.10132 15.1906 2.20571 15.1597 3.30698C15.0148 5.76872 14.1047 8.17492 12.5715 10.1061C10.5787 12.7036 7.53082 14.4465 4.29478 14.8969C2.88191 15.1252 1.44741 14.9802 0.0252909 15.0203C0.049948 13.8079 -0.0271583 12.5925 0.0684925 11.3832C0.346146 8.38472 1.7621 5.51269 3.9616 3.452Z" fill="#19D079"/>
<path d="M16.1421 0C17.2434 0.0123285 18.3447 -0.00616487 19.4491 0.00616368C22.1978 0.200495 24.9094 1.25553 26.9791 3.08491C29.262 5.04379 30.8261 7.84487 31.2273 10.8372C31.4028 12.2254 31.292 13.629 31.36 15.0234C30.3972 15.0203 29.4381 15.0172 28.4753 15.0234C26.1094 14.9586 23.7834 14.1936 21.8029 12.9041C20.8897 12.2501 19.9519 11.5868 19.2671 10.6799C17.7648 9.00172 16.7437 6.89474 16.358 4.67362C16.0681 3.13114 16.1853 1.55789 16.1421 0Z" fill="#19D079"/>
<path d="M0.0272666 15.9053C1.00519 15.9608 1.9862 15.859 2.96099 15.967C7.13483 16.0564 11.1853 18.4009 13.3478 21.9701C14.588 23.9691 15.2543 26.3384 15.1679 28.6923C15.1648 29.4634 15.1772 30.2313 15.1555 30.9998C13.607 30.9533 12.0429 31.0797 10.5097 30.7803C7.10401 30.2068 3.97287 28.1799 2.08796 25.2864C0.659678 23.1825 -0.0529226 20.6128 0.0211009 18.0739C0.0211009 17.349 0.0211023 16.6271 0.0272666 15.9053Z" fill="#19D079"/>
<path d="M26.1474 16.2324C27.8259 15.8591 29.5561 15.9208 31.2622 15.9208L31.3364 15.9949C31.2993 17.6082 31.4257 19.2402 31.1018 20.835C30.4201 24.4135 28.051 27.6097 24.8642 29.3649C22.8806 30.4693 20.604 31.012 18.3366 30.9875C17.6116 30.9906 16.8836 30.9749 16.1586 30.9969C16.1586 29.6611 16.1031 28.3191 16.2543 26.9896C16.606 23.7718 18.3458 20.7764 20.8477 18.7528C22.3963 17.5311 24.2163 16.6458 26.1474 16.2324Z" fill="#19D079"/>
<path d="M43.7997 25.0251C43.7997 25.5682 43.6117 26.0277 43.2361 26.4036C42.8808 26.7588 42.4316 26.9364 41.8888 26.9364C41.3664 26.9364 40.9276 26.7588 40.5729 26.4036C40.2177 26.0277 40.04 25.5682 40.04 25.0251V5.66173C40.04 5.11864 40.2177 4.66954 40.5729 4.31447C40.9485 3.9385 41.4082 3.75049 41.9515 3.75049C42.4943 3.75049 42.9331 3.9385 43.2674 4.31447C43.6221 4.66954 43.7997 5.11864 43.7997 5.66173V25.0251Z" fill="#010205"/>
<path d="M58.8912 10.1738C59.434 10.1738 59.8832 10.3618 60.2385 10.7378C60.5932 11.0929 60.7708 11.542 60.7708 12.0851V20.0435C60.7708 22.2576 60.1549 24.0122 58.9225 25.3073C57.6897 26.6023 55.9146 27.2501 53.5957 27.2501C51.2773 27.2501 49.5017 26.6023 48.2693 25.3073C47.0579 24.0122 46.4519 22.2576 46.4519 20.0435V12.0851C46.4519 11.542 46.6295 11.0929 46.9848 10.7378C47.34 10.3618 47.7887 10.1738 48.332 10.1738C48.8753 10.1738 49.324 10.3618 49.6793 10.7378C50.0345 11.0929 50.2121 11.542 50.2121 12.0851V20.0435C50.2121 21.3176 50.4942 22.268 51.0579 22.8947C51.6221 23.5005 52.4678 23.8033 53.5957 23.8033C54.7449 23.8033 55.6011 23.5005 56.1653 22.8947C56.729 22.268 57.0111 21.3176 57.0111 20.0435V12.0851C57.0111 11.542 57.1887 11.0929 57.5439 10.7378C57.8987 10.3618 58.3479 10.1738 58.8912 10.1738Z" fill="#010205"/>
<path d="M72.0791 9.86035C73.7503 9.86035 74.9826 10.2677 75.7766 11.0823C76.5702 11.8761 77.0926 12.91 77.3428 14.1842L76.8105 13.9022L77.0612 13.4009C77.3114 12.9204 77.698 12.4087 78.2204 11.8656C78.7423 11.3016 79.3692 10.8316 80.1 10.4557C80.8522 10.0588 81.6875 9.86035 82.607 9.86035C84.1109 9.86035 85.2492 10.1841 86.0219 10.8316C86.8159 11.4792 87.3587 12.346 87.6512 13.4322C87.9438 14.4975 88.09 15.6881 88.09 17.0041V25.0251C88.09 25.5682 87.9124 26.0278 87.5572 26.4036C87.202 26.7589 86.7532 26.9365 86.2099 26.9365C85.6672 26.9365 85.2179 26.7589 84.8627 26.4036C84.5074 26.0278 84.3298 25.5682 84.3298 25.0251V17.0041C84.3298 16.3148 84.2468 15.6986 84.0796 15.1555C83.9124 14.5915 83.6094 14.1424 83.1706 13.8082C82.7323 13.474 82.1055 13.3069 81.2911 13.3069C80.497 13.3069 79.8184 13.474 79.2542 13.8082C78.69 14.1424 78.2622 14.5915 77.9697 15.1555C77.698 15.6986 77.5622 16.3148 77.5622 17.0041V25.0251C77.5622 25.5682 77.3846 26.0278 77.0299 26.4036C76.6746 26.7589 76.2254 26.9365 75.6826 26.9365C75.1393 26.9365 74.6901 26.7589 74.3353 26.4036C73.9801 26.0278 73.8025 25.5682 73.8025 25.0251V17.0041C73.8025 16.3148 73.7189 15.6986 73.5518 15.1555C73.3846 14.5915 73.0816 14.1424 72.6433 13.8082C72.2045 13.474 71.5776 13.3069 70.7632 13.3069C69.9697 13.3069 69.2906 13.474 68.7264 13.8082C68.1627 14.1424 67.7343 14.5915 67.4418 15.1555C67.1707 15.6986 67.0349 16.3148 67.0349 17.0041V25.0251C67.0349 25.5682 66.8572 26.0278 66.502 26.4036C66.1468 26.7589 65.6981 26.9365 65.1548 26.9365C64.6115 26.9365 64.1627 26.7589 63.8075 26.4036C63.4523 26.0278 63.2747 25.5682 63.2747 25.0251V12.0849C63.2747 11.5418 63.4523 11.0927 63.8075 10.7377C64.1627 10.3616 64.6115 10.1737 65.1548 10.1737C65.6981 10.1737 66.1468 10.3616 66.502 10.7377C66.8572 11.0927 67.0349 11.5418 67.0349 12.0849V13.4322L66.5647 13.3382C66.7528 12.9831 67.014 12.6071 67.3478 12.2102C67.6821 11.7925 68.0896 11.4061 68.5702 11.0509C69.0503 10.6959 69.5831 10.4139 70.1677 10.205C70.7528 9.97523 71.3901 9.86035 72.0791 9.86035Z" fill="#010205"/>
<path d="M94.133 25.0253C94.133 25.5684 93.9554 26.028 93.6002 26.4038C93.2455 26.759 92.7962 26.9367 92.2529 26.9367C91.7101 26.9367 91.2609 26.759 90.9056 26.4038C90.5509 26.028 90.3733 25.5684 90.3733 25.0253V12.0851C90.3733 11.542 90.5509 11.0929 90.9056 10.7378C91.2609 10.3618 91.7101 10.1739 92.2529 10.1739C92.7962 10.1739 93.2455 10.3618 93.6002 10.7378C93.9554 11.0929 94.133 11.542 94.133 12.0851V25.0253ZM92.2216 8.13724C91.5116 8.13724 91.0101 8.02237 90.7176 7.79256C90.4256 7.56281 90.2793 7.1555 90.2793 6.57063V5.9753C90.2793 5.36959 90.436 4.96222 90.7489 4.75337C91.0833 4.52362 91.5848 4.40869 92.2529 4.40869C92.9843 4.40869 93.4962 4.52362 93.7882 4.75337C94.0808 4.98312 94.227 5.39043 94.227 5.9753V6.57063C94.227 7.1764 94.0703 7.59416 93.7569 7.82391C93.444 8.03282 92.932 8.13724 92.2216 8.13724Z" fill="#010205"/>
<path d="M105.391 9.86035C106.937 9.86035 108.107 10.1841 108.9 10.8316C109.715 11.4792 110.268 12.346 110.561 13.4322C110.874 14.4975 111.031 15.6881 111.031 17.0041V25.0251C111.031 25.5682 110.854 26.0278 110.498 26.4036C110.143 26.7589 109.694 26.9365 109.151 26.9365C108.608 26.9365 108.159 26.7589 107.804 26.4036C107.449 26.0278 107.271 25.5682 107.271 25.0251V17.0041C107.271 16.3148 107.177 15.6986 106.989 15.1555C106.822 14.5915 106.509 14.1424 106.049 13.8082C105.59 13.474 104.932 13.3069 104.075 13.3069C103.24 13.3069 102.53 13.474 101.945 13.8082C101.381 14.1424 100.942 14.5915 100.629 15.1555C100.336 15.6986 100.19 16.3148 100.19 17.0041V25.0251C100.19 25.5682 100.013 26.0278 99.6575 26.4036C99.3023 26.7589 98.853 26.9365 98.3103 26.9365C97.767 26.9365 97.3177 26.7589 96.963 26.4036C96.6078 26.0278 96.4302 25.5682 96.4302 25.0251V12.0849C96.4302 11.5418 96.6078 11.0927 96.963 10.7377C97.3177 10.3616 97.767 10.1737 98.3103 10.1737C98.853 10.1737 99.3023 10.3616 99.6575 10.7377C100.013 11.0927 100.19 11.5418 100.19 12.0849V13.4322L99.7202 13.3382C99.9083 12.9831 100.179 12.6071 100.535 12.2102C100.89 11.7925 101.308 11.4061 101.788 11.0509C102.268 10.6959 102.812 10.4139 103.417 10.205C104.023 9.97523 104.681 9.86035 105.391 9.86035Z" fill="#010205"/>
<path d="M129.633 18.5707C129.633 20.2835 129.247 21.7979 128.474 23.1139C127.722 24.4089 126.699 25.422 125.404 26.1529C124.129 26.8842 122.699 27.2499 121.111 27.2499C119.523 27.2499 118.082 26.8842 116.787 26.1529C115.513 25.422 114.49 24.4089 113.716 23.1139C112.965 21.7979 112.589 20.2835 112.589 18.5707C112.589 16.8578 112.965 15.3539 113.716 14.0589C114.49 12.7429 115.513 11.7194 116.787 10.9883C118.082 10.2363 119.523 9.86035 121.111 9.86035C122.699 9.86035 124.129 10.2363 125.404 10.9883C126.699 11.7194 127.722 12.7429 128.474 14.0589C129.247 15.3539 129.633 16.8578 129.633 18.5707ZM125.874 18.5707C125.874 17.5054 125.654 16.5863 125.215 15.8135C124.798 15.0197 124.223 14.4035 123.492 13.9649C122.782 13.5262 121.988 13.3069 121.111 13.3069C120.234 13.3069 119.429 13.5262 118.699 13.9649C117.988 14.4035 117.413 15.0197 116.975 15.8135C116.557 16.5863 116.348 17.5054 116.348 18.5707C116.348 19.6151 116.557 20.5342 116.975 21.3279C117.413 22.1008 117.988 22.7065 118.699 23.1452C119.429 23.5839 120.234 23.8032 121.111 23.8032C121.988 23.8032 122.782 23.5839 123.492 23.1452C124.223 22.7065 124.798 22.1008 125.215 21.3279C125.654 20.5342 125.874 19.6151 125.874 18.5707Z" fill="#010205"/>
<path d="M143.647 10.1738C144.19 10.1738 144.64 10.3618 144.995 10.7378C145.35 11.0929 145.527 11.542 145.527 12.0851V20.0435C145.527 22.2576 144.911 24.0122 143.678 25.3073C142.446 26.6023 140.671 27.2501 138.352 27.2501C136.034 27.2501 134.258 26.6023 133.026 25.3073C131.814 24.0122 131.208 22.2576 131.208 20.0435V12.0851C131.208 11.542 131.386 11.0929 131.741 10.7378C132.096 10.3618 132.545 10.1738 133.088 10.1738C133.632 10.1738 134.08 10.3618 134.436 10.7378C134.791 11.0929 134.968 11.542 134.968 12.0851V20.0435C134.968 21.3176 135.25 22.268 135.814 22.8947C136.378 23.5005 137.224 23.8033 138.352 23.8033C139.501 23.8033 140.357 23.5005 140.921 22.8947C141.485 22.268 141.767 21.3176 141.767 20.0435V12.0851C141.767 11.542 141.945 11.0929 142.3 10.7378C142.655 10.3618 143.104 10.1738 143.647 10.1738Z" fill="#010205"/>
<path d="M147.06 24.3358C146.851 24.0434 146.757 23.6674 146.778 23.2079C146.799 22.7483 147.07 22.3515 147.593 22.0172C147.926 21.8083 148.282 21.7248 148.658 21.7666C149.033 21.7875 149.399 21.9754 149.754 22.3306C150.36 22.9363 150.997 23.4063 151.666 23.7405C152.334 24.0747 153.17 24.2418 154.172 24.2418C154.486 24.2209 154.83 24.1792 155.206 24.1165C155.582 24.033 155.906 23.8658 156.177 23.6152C156.47 23.3437 156.616 22.9363 156.616 22.3932C156.616 21.9337 156.459 21.5681 156.146 21.2966C155.833 21.0251 155.415 20.7953 154.893 20.6073C154.392 20.4193 153.827 20.2418 153.201 20.0747C152.553 19.8866 151.885 19.6778 151.196 19.448C150.527 19.2182 149.911 18.9258 149.347 18.5707C148.783 18.1947 148.324 17.7038 147.968 17.0981C147.614 16.4923 147.436 15.7299 147.436 14.8108C147.436 13.7664 147.728 12.8787 148.313 12.1476C148.898 11.4165 149.65 10.8525 150.569 10.4557C151.509 10.0588 152.491 9.86035 153.514 9.86035C154.162 9.86035 154.84 9.94388 155.551 10.111C156.261 10.2572 156.94 10.5079 157.587 10.863C158.235 11.1972 158.778 11.6463 159.217 12.2102C159.446 12.5236 159.582 12.8995 159.624 13.3382C159.666 13.7769 159.467 14.1737 159.028 14.5288C158.716 14.7795 158.35 14.8944 157.932 14.8735C157.515 14.8317 157.17 14.6855 156.898 14.4349C156.543 13.9753 156.063 13.6097 155.457 13.3382C154.872 13.0667 154.193 12.9309 153.42 12.9309C153.107 12.9309 152.762 12.9727 152.386 13.0562C152.031 13.1189 151.718 13.2756 151.446 13.5262C151.175 13.756 151.039 14.132 151.039 14.6542C151.039 15.1346 151.196 15.521 151.509 15.8135C151.823 16.085 152.24 16.3148 152.762 16.5028C153.305 16.6699 153.88 16.837 154.486 17.0041C155.112 17.1712 155.749 17.3696 156.397 17.5994C157.044 17.8292 157.639 18.132 158.183 18.508C158.726 18.884 159.164 19.3749 159.499 19.9806C159.833 20.5655 160 21.3175 160 22.2365C160 23.3019 159.687 24.2105 159.06 24.9625C158.433 25.7144 157.65 26.2887 156.71 26.6857C155.77 27.0619 154.809 27.2499 153.827 27.2499C152.595 27.2499 151.363 27.041 150.13 26.623C148.898 26.1842 147.874 25.422 147.06 24.3358Z" fill="#010205"/>
</svg>
