<svg width="26" height="21" viewBox="0 0 26 21" fill="none" xmlns="http://www.w3.org/2000/svg">
<path d="M14.4312 8.65017L9.12793 3.79419L8.9491 3.98949L14.2523 8.84547L14.4312 8.65017Z" fill="#0E1418"/>
<path d="M11.4532 8.73455L8.44946 4.26147L8.23001 4.40884L11.2338 8.88192L11.4532 8.73455Z" fill="#0E1418"/>
<path d="M7.51136 4.6956L8.91748 8.91309L9.16826 8.82948L7.76213 4.61199L7.51136 4.6956Z" fill="#0E1418"/>
<path d="M22.5079 9.70911H5.6185V3.69489L5.61826 3.67345C5.61826 3.67031 5.62091 3.35296 5.79946 3.16863C5.83946 3.1279 5.95995 3.00284 6.3144 3.00284C6.44862 3.00284 6.73031 3.04043 6.8173 3.3332L6.79223 3.35055C6.51657 3.54092 6.44717 3.91923 6.63802 4.19513C6.8291 4.47079 7.20693 4.53971 7.48284 4.34887L8.48091 3.65826C8.7573 3.46766 8.82597 3.08959 8.63537 2.81369C8.44766 2.5426 8.07995 2.47296 7.80549 2.65152C7.46742 2.06357 6.80597 1.82959 6.3144 1.82959C5.60645 1.82959 5.18163 2.11537 4.9491 2.35441C4.44597 2.87345 4.4344 3.57007 4.43754 3.70236V9.70911H3.22163C2.88211 9.70911 2.60693 9.98236 2.60693 10.32C2.60693 10.6571 2.88211 10.9303 3.22163 10.9303H3.56163C3.52573 11.0122 3.50067 11.0973 3.50067 11.1898L4.46862 15.6002C4.7491 16.4585 5.44573 17.1 6.55103 17.365C6.37657 17.4954 6.26308 17.7021 6.26308 17.9361C6.26308 18.3313 6.58501 18.651 6.98236 18.651C7.37995 18.651 7.7026 18.3313 7.7026 17.9361C7.7026 17.7681 7.64356 17.6144 7.54645 17.4922C7.61946 17.4951 7.69248 17.4978 7.76862 17.4978H17.3624C17.2677 17.6192 17.2108 17.7708 17.2108 17.9361C17.2108 18.3313 17.5332 18.651 17.9308 18.651C18.3286 18.651 18.6505 18.3313 18.6505 17.9361C18.6505 17.7397 18.5708 17.5619 18.4416 17.433C20.2301 17.0337 20.6472 16.0886 20.9631 15.2224L22.0804 11.1518C22.0804 11.0734 22.0643 11.0007 22.0416 10.9303H22.5081C22.8477 10.9303 23.1219 10.6571 23.1219 10.32C23.1216 9.98236 22.8472 9.70911 22.5079 9.70911Z" fill="#0E1418"/>
</svg>
