<svg width="38" height="40" viewBox="0 0 38 40" fill="none" xmlns="http://www.w3.org/2000/svg">
<path d="M19.2305 29.9341C22.6822 29.9341 25.4805 27.142 25.4805 23.6978C25.4805 20.2536 22.6822 17.4615 19.2305 17.4615C15.7787 17.4615 12.9805 20.2536 12.9805 23.6978C12.9805 27.142 15.7787 29.9341 19.2305 29.9341Z" fill="black"/>
<path d="M31.7305 2.49451H6.73047C6.06743 2.49451 5.43154 2.75732 4.9627 3.22513C4.49386 3.69294 4.23047 4.32743 4.23047 4.98902V9.97804H34.2305V4.98902C34.2305 4.32743 33.9671 3.69294 33.4982 3.22513C33.0294 2.75732 32.3935 2.49451 31.7305 2.49451ZM11.7305 8.73078H9.23047C8.89895 8.73078 8.58101 8.59938 8.34659 8.36547C8.11216 8.13156 7.98047 7.81432 7.98047 7.48353C7.98047 7.15274 8.11216 6.83549 8.34659 6.60159C8.58101 6.36768 8.89895 6.23627 9.23047 6.23627H11.7305C12.062 6.23627 12.3799 6.36768 12.6144 6.60159C12.8488 6.83549 12.9805 7.15274 12.9805 7.48353C12.9805 7.81432 12.8488 8.13156 12.6144 8.36547C12.3799 8.59938 12.062 8.73078 11.7305 8.73078ZM29.2305 8.73078H21.7305C21.3989 8.73078 21.081 8.59938 20.8466 8.36547C20.6122 8.13156 20.4805 7.81432 20.4805 7.48353C20.4805 7.15274 20.6122 6.83549 20.8466 6.60159C21.081 6.36768 21.3989 6.23627 21.7305 6.23627H29.2305C29.562 6.23627 29.8799 6.36768 30.1144 6.60159C30.3488 6.83549 30.4805 7.15274 30.4805 7.48353C30.4805 7.81432 30.3488 8.13156 30.1144 8.36547C29.8799 8.59938 29.562 8.73078 29.2305 8.73078Z" fill="black"/>
<path d="M4.23047 34.9231C4.23047 35.5847 4.49386 36.2192 4.9627 36.687C5.43154 37.1548 6.06743 37.4176 6.73047 37.4176H31.7305C32.3935 37.4176 33.0294 37.1548 33.4982 36.687C33.9671 36.2192 34.2305 35.5847 34.2305 34.9231V12.4725H4.23047V34.9231ZM19.2305 14.967C20.9611 14.967 22.6528 15.4791 24.0917 16.4384C25.5306 17.3978 26.6521 18.7614 27.3144 20.3567C27.9767 21.952 28.15 23.7075 27.8123 25.4011C27.4747 27.0947 26.6414 28.6504 25.4177 29.8714C24.1939 31.0924 22.6348 31.924 20.9375 32.2609C19.2402 32.5977 17.4808 32.4248 15.882 31.764C14.2831 31.1032 12.9166 29.9842 11.9551 28.5484C10.9936 27.1126 10.4805 25.4246 10.4805 23.6978C10.4805 21.3823 11.4023 19.1616 13.0433 17.5242C14.6842 15.8869 16.9098 14.967 19.2305 14.967Z" fill="black"/>
</svg>
