<svg width="170" height="170" viewBox="0 0 170 170" fill="none" xmlns="http://www.w3.org/2000/svg">
<path d="M9.80771 39.8565C8.9042 39.8565 8.1731 39.1254 8.1731 38.2219V9.80771C8.1731 8.9042 8.9042 8.1731 9.80771 8.1731H38.4294C39.333 8.1731 40.0641 8.9042 40.0641 9.80771C40.0641 10.7112 39.333 11.4423 38.4294 11.4423H11.4423V38.2219C11.4423 39.1254 10.7112 39.8565 9.80771 39.8565Z" fill="#0E1418"/>
<path d="M160.192 39.8565C159.289 39.8565 158.558 39.1254 158.558 38.2219V11.4423H131.567C130.664 11.4423 129.933 10.7112 129.933 9.80771C129.933 8.9042 130.664 8.1731 131.567 8.1731H160.192C161.096 8.1731 161.827 8.9042 161.827 9.80771V38.2219C161.827 39.1254 161.096 39.8565 160.192 39.8565Z" fill="#0E1418"/>
<path d="M38.4294 161.827H9.80771C8.9042 161.827 8.1731 161.096 8.1731 160.192V131.775C8.1731 130.871 8.9042 130.14 9.80771 130.14C10.7112 130.14 11.4423 130.871 11.4423 131.775V158.558H38.4294C39.333 158.558 40.0641 159.289 40.0641 160.192C40.0641 161.096 39.333 161.827 38.4294 161.827Z" fill="#0E1418"/>
<path d="M160.192 161.827H131.567C130.664 161.827 129.933 161.096 129.933 160.192C129.933 159.289 130.664 158.558 131.567 158.558H158.558V131.775C158.558 130.871 159.289 130.14 160.192 130.14C161.096 130.14 161.827 130.871 161.827 131.775V160.192C161.827 161.096 161.096 161.827 160.192 161.827Z" fill="#0E1418"/>
<path d="M85 135.673C57.0583 135.673 34.3269 112.942 34.3269 85C34.3269 57.0583 57.0583 34.3269 85 34.3269C112.942 34.3269 135.673 57.0583 135.673 85C135.673 112.942 112.942 135.673 85 135.673ZM85 37.5961C58.8621 37.5961 37.5961 58.8621 37.5961 85C37.5961 111.138 58.8621 132.404 85 132.404C111.138 132.404 132.404 111.138 132.404 85C132.404 58.8621 111.138 37.5961 85 37.5961Z" fill="#0E1418"/>
<path d="M84.9968 109.519C71.4761 109.519 60.4775 98.5208 60.4775 85.0001C60.4775 71.4794 71.4761 60.4808 84.9968 60.4808C98.5175 60.4808 109.516 71.4794 109.516 85.0001C109.516 98.5208 98.5175 109.519 84.9968 109.519ZM84.9968 63.7501C73.2799 63.7501 63.7468 73.2832 63.7468 85.0001C63.7468 96.7169 73.2799 106.25 84.9968 106.25C96.7136 106.25 106.247 96.7169 106.247 85.0001C106.247 73.2832 96.7136 63.7501 84.9968 63.7501Z" fill="#0E1418"/>
<path d="M85.0001 72.5105C84.0966 72.5105 83.3655 71.7794 83.3655 70.8759V20.8349C83.3655 19.9314 84.0966 19.2003 85.0001 19.2003C85.9036 19.2003 86.6347 19.9314 86.6347 20.8349V70.8759C86.6347 71.7794 85.9036 72.5105 85.0001 72.5105Z" fill="#0E1418"/>
<path d="M85.0001 150.803C84.0966 150.803 83.3655 150.072 83.3655 149.168V99.1241C83.3655 98.2206 84.0966 97.4895 85.0001 97.4895C85.9036 97.4895 86.6347 98.2206 86.6347 99.1241V149.168C86.6347 150.072 85.9036 150.803 85.0001 150.803Z" fill="#0E1418"/>
<path d="M149.165 86.6346H99.1241C98.2206 86.6346 97.4895 85.9035 97.4895 85C97.4895 84.0965 98.2206 83.3654 99.1241 83.3654H149.165C150.069 83.3654 150.8 84.0965 150.8 85C150.8 85.9035 150.069 86.6346 149.165 86.6346Z" fill="#0E1418"/>
<path d="M70.876 86.6346H20.8319C19.9284 86.6346 19.1973 85.9035 19.1973 85C19.1973 84.0965 19.9284 83.3654 20.8319 83.3654H70.876C71.7795 83.3654 72.5106 84.0965 72.5106 85C72.5106 85.9035 71.7795 86.6346 70.876 86.6346Z" fill="#0E1418"/>
</svg>
