<svg width="20" height="20" viewBox="0 0 20 20" fill="none" xmlns="http://www.w3.org/2000/svg">
<path d="M6.72193 7.36616H8.3956C8.6347 7.36616 8.75425 7.18684 8.81402 7.00751V3.54061C8.81402 3.30151 8.6347 3.12219 8.3956 3.12219H6.72193C6.48283 3.12219 6.36328 3.30151 6.36328 3.54061V6.94774C6.36328 7.18684 6.5426 7.36616 6.72193 7.36616ZM7.14035 3.95903H8.03696V6.5891H7.14035V3.95903Z" fill="#0E1418"/>
<path d="M11.6255 7.36616H13.2991C13.5382 7.36616 13.6578 7.18684 13.6578 7.00751V3.54061C13.6578 3.30151 13.4785 3.12219 13.2991 3.12219H11.6255C11.3864 3.12219 11.207 3.30151 11.207 3.54061V6.94774C11.2668 7.18684 11.3864 7.36616 11.6255 7.36616ZM12.0439 3.95903H12.9405V6.5891H12.0439V3.95903Z" fill="#0E1418"/>
<path d="M6.72193 13.1302H8.3956C8.6347 13.1302 8.75425 12.9509 8.81402 12.7118V9.30469C8.81402 9.06559 8.6347 8.94604 8.3956 8.94604H6.72193C6.48283 8.94604 6.36328 9.12537 6.36328 9.30469V12.7118C6.36328 12.9509 6.5426 13.1302 6.72193 13.1302ZM7.14035 9.66334H8.03696V12.2934H7.14035V9.66334Z" fill="#0E1418"/>
<path d="M11.6255 13.1302H13.2991C13.5382 13.1302 13.6578 12.9509 13.6578 12.7118V9.30469C13.6578 9.06559 13.4785 8.94604 13.2991 8.94604H11.6255C11.3864 8.94604 11.207 9.12537 11.207 9.30469V12.7118C11.2668 12.9509 11.3864 13.1302 11.6255 13.1302ZM12.0439 9.66334H12.9405V12.2934H12.0439V9.66334Z" fill="#0E1418"/>
<path d="M16.4476 0.0799561H3.77874C3.44535 0.0799561 3.19531 0.329998 3.19531 0.663388V19.4166C3.19531 19.75 3.44535 20 3.77874 20H16.3642C16.6976 20 16.9476 19.75 16.9476 19.4166V0.663388C16.9476 0.329998 16.6976 0.0799561 16.4476 0.0799561ZM11.4467 18.8331H8.6129V16.0827C8.6129 15.916 8.94629 15.7493 9.44637 15.7493H10.6966C11.1967 15.7493 11.5301 15.9993 11.5301 16.0827V18.8331H11.4467ZM15.8641 18.8331H12.5302V16.0827C12.5302 15.2492 11.6968 14.6658 10.6132 14.6658H9.36303C8.27951 14.6658 7.44603 15.3325 7.44603 16.0827V18.8331H4.36218V1.16347H15.8641V18.8331Z" fill="#0E1418"/>
</svg>
