<svg width="40" height="40" viewBox="0 0 40 40" fill="none" xmlns="http://www.w3.org/2000/svg">
<path d="M36.9787 22.7156L32.2617 24.225L32.1712 24.2552C31.7821 24.4365 31.3629 24.527 30.9437 24.5268V5.28439C30.9437 4.03586 31.9594 3.02024 33.2079 3.02024H34.7173C35.9658 3.02024 36.9815 4.03586 36.9815 5.28439H38.4909C38.4909 3.20376 36.7979 1.5108 34.7173 1.5108H33.2079C31.1272 1.5108 29.4343 3.20376 29.4343 5.28439V7.54854H21.1324V5.28439C21.1324 4.03586 22.148 3.02024 23.3966 3.02024H24.906C26.1545 3.02024 27.1701 4.03586 27.1701 5.28439H28.6796C28.6796 3.20376 26.9866 1.5108 24.906 1.5108H23.3966C21.3159 1.5108 19.623 3.20376 19.623 5.28439V23.5711L17.8089 24.3382C17.0542 24.6552 16.1938 24.6401 15.4542 24.2929L11.6806 22.5194C10.4957 21.9609 9.12962 21.9609 7.94476 22.5194L3.77115 24.4741V20.376H2.26172V37.7345H38.4881V20.376H36.9787V22.7156ZM29.4343 18.1146H21.1324V14.341H29.4343V18.1146ZM29.4343 9.05797V12.8316H21.1324V9.05797H29.4343ZM22.3598 22.4137L21.1324 22.9328V19.624H29.4343V24.122L25.9372 22.4817C24.8127 21.9533 23.507 21.9307 22.3598 22.4137Z" fill="black"/>
</svg>
