<svg width="23" height="20" viewBox="0 0 23 20" fill="none" xmlns="http://www.w3.org/2000/svg">
<g clip-path="url(#clip0_206_5673)">
<path d="M6.55341 6.9475C7.19129 6.9475 7.70839 6.3584 7.70839 5.63171C7.70839 4.90502 7.19129 4.31592 6.55341 4.31592C5.91554 4.31592 5.39844 4.90502 5.39844 5.63171C5.39844 6.3584 5.91554 6.9475 6.55341 6.9475Z" fill="#0E1418"/>
<path d="M10.6198 6.9475C11.2577 6.9475 11.7748 6.3584 11.7748 5.63171C11.7748 4.90502 11.2577 4.31592 10.6198 4.31592C9.98194 4.31592 9.46484 4.90502 9.46484 5.63171C9.46484 6.3584 9.98194 6.9475 10.6198 6.9475Z" fill="#0E1418"/>
<path d="M6.55341 11.3685C7.19129 11.3685 7.70839 10.7794 7.70839 10.0527C7.70839 9.32604 7.19129 8.73694 6.55341 8.73694C5.91554 8.73694 5.39844 9.32604 5.39844 10.0527C5.39844 10.7794 5.91554 11.3685 6.55341 11.3685Z" fill="#0E1418"/>
<path d="M10.6198 11.3685C11.2577 11.3685 11.7748 10.7794 11.7748 10.0527C11.7748 9.32604 11.2577 8.73694 10.6198 8.73694C9.98194 8.73694 9.46484 9.32604 9.46484 10.0527C9.46484 10.7794 9.98194 11.3685 10.6198 11.3685Z" fill="#0E1418"/>
<path d="M6.55341 15.7893C7.19129 15.7893 7.70839 15.2002 7.70839 14.4735C7.70839 13.7468 7.19129 13.1577 6.55341 13.1577C5.91554 13.1577 5.39844 13.7468 5.39844 14.4735C5.39844 15.2002 5.91554 15.7893 6.55341 15.7893Z" fill="#0E1418"/>
<path d="M10.6198 15.7893C11.2577 15.7893 11.7748 15.2002 11.7748 14.4735C11.7748 13.7468 11.2577 13.1577 10.6198 13.1577C9.98194 13.1577 9.46484 13.7468 9.46484 14.4735C9.46484 15.2002 9.98194 15.7893 10.6198 15.7893Z" fill="#0E1418"/>
<path d="M16.2106 11.6317H18.5205C18.8901 11.6317 19.2135 11.2633 19.2135 10.8422C19.2135 10.4212 18.8901 10.0527 18.5205 10.0527H16.2106C15.841 10.0527 15.5176 10.4212 15.5176 10.8422C15.5176 11.2633 15.841 11.6317 16.2106 11.6317Z" fill="#0E1418"/>
<path d="M16.2106 14.263H18.5205C18.8901 14.263 19.2135 13.8946 19.2135 13.4736C19.2135 13.0525 18.8901 12.6841 18.5205 12.6841H16.2106C15.841 12.6841 15.5176 13.0525 15.5176 13.4736C15.5176 13.8946 15.841 14.263 16.2106 14.263Z" fill="#0E1418"/>
<path d="M16.2106 16.8947H18.5205C18.8901 16.8947 19.2135 16.5263 19.2135 16.1053C19.2135 15.6842 18.8901 15.3158 18.5205 15.3158H16.2106C15.841 15.3158 15.5176 15.6842 15.5176 16.1053C15.5176 16.5263 15.841 16.8947 16.2106 16.8947Z" fill="#0E1418"/>
<path d="M21.9854 18.4211H21.2924V9.21053C21.2924 7.89474 20.3684 6.84211 19.2135 6.84211H15.5175C15.2865 6.84211 15.0556 6.89474 14.8246 7V2.36842C14.8246 1.05263 13.9006 0 12.7456 0H4.42977C3.2748 0 2.35082 1.05263 2.35082 2.36842V18.4211H1.65783C1.28824 18.4211 0.964844 18.7895 0.964844 19.2105C0.964844 19.6316 1.28824 20 1.65783 20H21.9854C22.355 20 22.6784 19.6316 22.6784 19.2105C22.6784 18.7895 22.355 18.4211 21.9854 18.4211ZM15.5175 8.42105H19.2135C19.5831 8.42105 19.9065 8.78947 19.9065 9.21053V18.4211H14.8246V9.21053C14.8246 8.78947 15.148 8.42105 15.5175 8.42105ZM3.73679 2.36842C3.73679 1.94737 4.06018 1.57895 4.42977 1.57895H12.7456C13.1152 1.57895 13.4386 1.94737 13.4386 2.36842V9.21053V18.4211H3.73679V2.36842Z" fill="#0E1418"/>
</g>
<defs>
<clipPath id="clip0_206_5673">
<rect width="21.7778" height="20" fill="white" transform="translate(0.710938)"/>
</clipPath>
</defs>
</svg>
