<svg width="374" height="283" viewBox="0 0 374 283" fill="none" xmlns="http://www.w3.org/2000/svg">
<g clip-path="url(#clip0_181_2191)">
<path d="M311.059 132.933H310.081C310.081 132.124 309.416 131.459 308.608 131.459C307.799 131.459 307.134 132.124 307.134 132.933H306.156C306.156 131.576 307.252 130.481 308.608 130.481C309.964 130.481 311.059 131.576 311.059 132.933Z" fill="white"/>
<path d="M192.132 273.846H145.187L145.987 272.01C149.069 264.908 149.384 258.839 148.912 251.891L148.82 250.488L188.393 250.373V251.687C188.433 256.174 189.692 266.362 191.567 272.125L192.132 273.846ZM149.24 271.207H188.459C186.95 265.66 185.927 257.641 185.717 253.025L151.706 253.127C152.033 259.285 151.64 264.883 149.24 271.207Z" fill="#0E1418"/>
<path d="M132.42 252.929C96.9892 252.929 68.2875 252.734 67.0357 252.29C63.9973 251.208 60.0461 247.009 59.9809 244.023C59.8635 237.568 59.5897 228.779 59.2637 218.594C58.2987 187.897 56.9686 145.869 58.6899 122.605C59.0029 118.367 62.5107 115.094 66.6836 115.094H66.814L271.064 115.393C275.38 115.472 278.849 118.953 278.953 123.335C279.11 130.129 279.331 137.079 279.553 144.108C280.492 173.579 281.457 204.054 278.197 232.86C278.066 233.995 278.014 235.247 277.949 236.551C277.675 242.601 277.336 250.126 269.538 251.664C265.73 252.421 190.136 252.929 132.407 252.929H132.42ZM66.7097 117.271C63.6452 117.271 61.0893 119.671 60.8546 122.774C59.1463 145.921 60.4634 187.897 61.4284 218.542C61.7544 228.726 62.0282 237.529 62.1456 243.997C62.1847 245.874 65.3274 249.382 67.7529 250.256C72.0953 251.143 264.126 250.491 269.121 249.552C275.237 248.339 275.51 242.314 275.784 236.472C275.85 235.116 275.902 233.812 276.045 232.639C279.292 203.976 278.327 173.592 277.388 144.199C277.167 137.158 276.945 130.207 276.788 123.4C276.71 120.192 274.193 117.649 271.051 117.584L66.814 117.284H66.7227L66.7097 117.271Z" fill="#0E1418"/>
<path fill-rule="evenodd" clip-rule="evenodd" d="M265.365 122.435L72.9166 122.161C69.4609 122.109 66.5529 124.678 66.2921 128.029C64.1405 155.91 67.0745 214.069 67.5049 237.489C67.544 239.772 70.9866 243.188 73.4643 244.036C76.3853 245.027 259.262 244.283 263.735 243.436C271.768 241.923 270.398 233.017 271.064 227.331C274.871 195.135 272.537 160.135 271.781 128.642C271.702 125.226 268.86 122.5 265.352 122.435H265.365Z" fill="#D1CFC7"/>
<path d="M209.187 281.644H129.12C125.938 281.644 124.282 279.14 124.282 276.675C124.282 274.211 125.938 271.694 129.12 271.694H209.187C212.369 271.694 214.025 274.198 214.025 276.662C214.025 279.127 212.369 281.644 209.187 281.644ZM129.12 273.872C127.021 273.872 126.46 275.632 126.46 276.675C126.46 277.719 127.021 279.466 129.12 279.466H209.187C211.287 279.466 211.848 277.706 211.848 276.662C211.848 275.619 211.287 273.872 209.187 273.872H129.12Z" fill="#0E1418"/>
<path d="M169.155 120.753C170.837 120.753 170.85 118.132 169.155 118.132C167.46 118.132 167.46 120.753 169.155 120.753Z" fill="#0E1418"/>
<path d="M251.661 279.297H238.308L243.445 262.422H246.536L251.661 279.297Z" fill="#D1CFC7"/>
<path d="M252.769 279.297H237.212V281.226H252.769V279.297Z" fill="#D1CFC7"/>
<path d="M239.599 275.071L238.308 279.296H251.661L250.383 275.071H239.599Z" fill="#0E1418"/>
<path d="M240.876 270.859H249.104L247.813 266.634H242.167L240.876 270.859Z" fill="#0E1418"/>
<path d="M257.124 281.109H260.084V269.634H275.289V281.109H278.249V269.634H281.392V260.479H278.888V259.632H274.572V260.479H261.101V259.632H256.785V260.479H254.033V269.634H257.124V281.109ZM280.44 261.431V261.47L278.614 268.682H275.354L277.193 261.431H280.44ZM271.937 268.682H268.677L270.516 261.431H273.776L271.937 268.682ZM265.261 268.682H262.001L263.839 261.431H267.1L265.261 268.682ZM257.163 261.431H260.423L258.584 268.682H255.324L257.163 261.431Z" fill="#D1CFC7"/>
<path d="M140.635 89.3391L142.03 87.9438C142.317 87.6569 142.317 87.2005 142.03 86.9136L140.817 85.7008C140.543 85.414 140.465 84.9054 140.661 84.5533L141.652 82.1408C141.769 81.7496 142.187 81.4367 142.578 81.4367H144.299C144.703 81.4367 145.016 81.1107 145.016 80.7195V78.7373C145.016 78.3331 144.69 78.0201 144.299 78.0201H142.578C142.187 78.0201 141.756 77.7071 141.652 77.329L140.661 74.9165C140.465 74.5644 140.543 74.0428 140.817 73.769L142.03 72.5562C142.317 72.2694 142.317 71.8129 142.03 71.5391L140.635 70.1307C140.348 69.8439 139.891 69.8439 139.618 70.1307L138.405 71.3435C138.118 71.6304 137.609 71.6956 137.257 71.513L134.858 70.522C134.48 70.4046 134.167 69.9873 134.167 69.5961V67.8748C134.167 67.4836 133.841 67.1445 133.45 67.1445H131.48C131.076 67.1445 130.763 67.4705 130.763 67.8748V69.5961C130.763 70.0003 130.45 70.4176 130.072 70.522L127.673 71.513C127.321 71.7086 126.812 71.6304 126.525 71.3435L125.312 70.1307C125.039 69.8439 124.569 69.8439 124.295 70.1307L122.9 71.5261C122.613 71.7999 122.613 72.2694 122.9 72.5432L124.113 73.7559C124.4 74.0428 124.465 74.5514 124.282 74.9035L123.291 77.3159C123.174 77.6941 122.757 78.0071 122.365 78.0071H120.644C120.253 78.0071 119.927 78.3331 119.927 78.7243V80.7064C119.927 81.0976 120.253 81.4236 120.644 81.4236H122.365C122.757 81.4236 123.187 81.7366 123.291 82.1278L124.282 84.5403C124.478 84.8923 124.4 85.4009 124.113 85.6878L122.9 86.9005C122.613 87.1874 122.613 87.6438 122.9 87.9307L124.295 89.326C124.569 89.6129 125.039 89.6129 125.312 89.326L126.525 88.1133C126.799 87.8264 127.321 87.7612 127.673 87.9438L130.072 88.9348C130.45 89.0391 130.763 89.4695 130.763 89.8607V91.582C130.763 91.9732 131.089 92.2992 131.48 92.2992H133.45C133.854 92.2992 134.167 91.9732 134.167 91.582V89.8607C134.167 89.4564 134.48 89.0391 134.858 88.9348L137.257 87.9438C137.609 87.7482 138.118 87.8264 138.405 88.1133L139.618 89.326C139.891 89.6129 140.361 89.6129 140.635 89.326V89.3391ZM132.458 85.5183C129.277 85.5183 126.695 82.9233 126.695 79.7414C126.695 76.5596 129.277 73.9646 132.458 73.9646C135.64 73.9646 138.222 76.5466 138.222 79.7414C138.222 82.9363 135.64 85.5183 132.458 85.5183Z" fill="#D1CFC7"/>
<path d="M153.962 94.803L153.61 93.6294C153.532 93.3947 153.284 93.2512 153.049 93.3295L152.032 93.6424C151.798 93.7207 151.485 93.6033 151.354 93.3947L150.337 92.1558C150.167 91.9863 150.115 91.6603 150.233 91.4386L150.728 90.4997C150.846 90.278 150.767 90.0042 150.546 89.8868L149.463 89.3131C149.242 89.1957 148.981 89.2739 148.863 89.4956L148.355 90.4345C148.238 90.6562 147.951 90.7866 147.703 90.7345L146.099 90.578C145.851 90.578 145.59 90.3954 145.525 90.1476L145.212 89.1305C145.147 88.8958 144.886 88.7523 144.651 88.8306L143.478 89.1827C143.243 89.2609 143.113 89.5087 143.178 89.7434L143.491 90.7605C143.569 90.9953 143.452 91.2952 143.243 91.4386L142.004 92.4688C141.835 92.6383 141.509 92.6905 141.3 92.5731L140.361 92.0646C140.153 91.9472 139.879 92.0254 139.761 92.2471L139.188 93.3295C139.07 93.5511 139.148 93.825 139.37 93.9424L140.309 94.4509C140.531 94.5683 140.661 94.8552 140.609 95.1029L140.452 96.7069C140.452 96.9547 140.257 97.2155 140.022 97.2807L139.005 97.5936C138.77 97.6588 138.627 97.9196 138.705 98.1544L139.057 99.328C139.122 99.5627 139.383 99.7062 139.618 99.6279L140.635 99.315C140.87 99.2498 141.17 99.3541 141.3 99.5627L142.317 100.815C142.487 100.984 142.539 101.31 142.422 101.532L141.913 102.471C141.796 102.692 141.874 102.953 142.096 103.084L143.165 103.657C143.387 103.775 143.66 103.696 143.778 103.475L144.286 102.536C144.404 102.314 144.691 102.184 144.938 102.223L146.542 102.392C146.79 102.392 147.051 102.588 147.116 102.823L147.429 103.84C147.507 104.075 147.755 104.218 147.99 104.14L149.163 103.788C149.398 103.723 149.529 103.462 149.463 103.227L149.15 102.21C149.072 101.975 149.189 101.662 149.398 101.532L150.637 100.502C150.806 100.332 151.132 100.28 151.341 100.397L152.28 100.906C152.502 101.023 152.776 100.945 152.893 100.723L153.467 99.641C153.584 99.4193 153.493 99.1454 153.284 99.0281L152.345 98.5195C152.124 98.4021 151.993 98.1152 152.045 97.8675L152.202 96.2505C152.202 96.0027 152.397 95.7419 152.632 95.6767L153.649 95.3637C153.884 95.2855 154.014 95.0377 153.949 94.803H153.962ZM149.489 98.1674C148.564 99.9148 146.386 100.567 144.651 99.6279C142.917 98.689 142.265 96.5243 143.191 94.7769C144.117 93.0295 146.295 92.3775 148.029 93.3034C149.763 94.2423 150.415 96.407 149.489 98.1544V98.1674Z" fill="#D1CFC7"/>
<path d="M351.797 283H1.79564C1.05235 283 0.439453 282.4 0.439453 281.644C0.439453 280.887 1.03931 280.288 1.79564 280.288H351.797C352.54 280.288 353.153 280.887 353.153 281.644C353.153 282.4 352.553 283 351.797 283Z" fill="#0E1418"/>
<path d="M76.0476 280.496C75.3043 280.496 74.6914 279.896 74.6914 279.14V174.987C74.6914 174.244 75.2913 173.631 76.0476 173.631C76.8039 173.631 77.4038 174.231 77.4038 174.987V279.14C77.4038 279.883 76.8039 280.496 76.0476 280.496Z" fill="#0E1418"/>
<path d="M100.263 280.496C99.5201 280.496 98.9072 279.896 98.9072 279.14V174.987C98.9072 174.244 99.5071 173.631 100.263 173.631C101.02 173.631 101.62 174.231 101.62 174.987V279.14C101.62 279.883 101.02 280.496 100.263 280.496Z" fill="#0E1418"/>
<path d="M100.263 183.451H76.0603C75.317 183.451 74.7041 182.851 74.7041 182.094C74.7041 181.338 75.304 180.738 76.0603 180.738H100.263C101.006 180.738 101.619 181.338 101.619 182.094C101.619 182.851 101.019 183.451 100.263 183.451Z" fill="#0E1418"/>
<path d="M100.263 195.356H76.0603C75.317 195.356 74.7041 194.756 74.7041 194C74.7041 193.244 75.304 192.644 76.0603 192.644H100.263C101.006 192.644 101.619 193.244 101.619 194C101.619 194.756 101.019 195.356 100.263 195.356Z" fill="#0E1418"/>
<path d="M100.263 207.249H76.0603C75.317 207.249 74.7041 206.649 74.7041 205.893C74.7041 205.137 75.304 204.537 76.0603 204.537H100.263C101.006 204.537 101.619 205.137 101.619 205.893C101.619 206.649 101.019 207.249 100.263 207.249Z" fill="#0E1418"/>
<path d="M100.263 219.155H76.0603C75.317 219.155 74.7041 218.555 74.7041 217.799C74.7041 217.042 75.304 216.442 76.0603 216.442H100.263C101.006 216.442 101.619 217.042 101.619 217.799C101.619 218.555 101.019 219.155 100.263 219.155Z" fill="#0E1418"/>
<path d="M100.263 231.048H76.0603C75.317 231.048 74.7041 230.448 74.7041 229.692C74.7041 228.935 75.304 228.335 76.0603 228.335H100.263C101.006 228.335 101.619 228.935 101.619 229.692C101.619 230.448 101.019 231.048 100.263 231.048Z" fill="#0E1418"/>
<path d="M100.263 242.953H76.0603C75.317 242.953 74.7041 242.354 74.7041 241.597C74.7041 240.841 75.304 240.241 76.0603 240.241H100.263C101.006 240.241 101.619 240.841 101.619 241.597C101.619 242.354 101.019 242.953 100.263 242.953Z" fill="#0E1418"/>
<path d="M100.263 254.859H76.0603C75.317 254.859 74.7041 254.259 74.7041 253.503C74.7041 252.747 75.304 252.147 76.0603 252.147H100.263C101.006 252.147 101.619 252.747 101.619 253.503C101.619 254.259 101.019 254.859 100.263 254.859Z" fill="#0E1418"/>
<path d="M100.263 266.752H76.0603C75.317 266.752 74.7041 266.152 74.7041 265.396C74.7041 264.639 75.304 264.039 76.0603 264.039H100.263C101.006 264.039 101.619 264.639 101.619 265.396C101.619 266.152 101.019 266.752 100.263 266.752Z" fill="#0E1418"/>
<path d="M52.7314 207.249C52.3272 204.771 50.5798 198.395 46.7329 200.416C40.4997 203.689 48.0239 216.09 40.5127 218.281C40.1085 213.339 39.0522 209.935 36.8093 210.131C32.2061 210.548 33.4318 221.254 33.3536 223.667C33.2754 226.066 33.158 228.531 33.0537 231.008C27.6289 231.986 28.7113 217.851 25.4121 215.895C20.2872 212.856 19.2049 219.624 19.3353 222.754C19.57 228.074 21.0045 234.451 26.0119 237.268C27.655 238.207 30.563 239.25 32.832 239.067C32.8059 243.318 32.9885 247.556 33.6926 251.599C33.6926 251.638 33.7709 251.638 33.7839 251.599L36.8223 251.768C36.8223 251.768 36.8223 251.808 36.8223 251.821C36.7962 253.151 38.8827 253.164 38.8957 251.821C38.9348 249.252 40.5127 236.642 40.6953 225.949C43.1208 226.314 46.1722 225.179 47.9065 223.901C53.0835 220.107 53.6834 213.13 52.7314 207.249Z" fill="#0E1418"/>
<path d="M37.827 253.386C37.5141 253.386 37.2141 253.307 36.9533 253.151C36.6273 252.955 36.4057 252.655 36.3013 252.303L34.0584 252.186L33.2499 252.212L33.1195 251.703C32.5197 248.274 32.2458 244.44 32.2458 239.68C29.7551 239.68 27.0167 238.52 25.7257 237.789C20.3922 234.777 18.9969 227.97 18.7622 222.793C18.6709 220.707 19.1012 216.403 21.4354 215.008C22.6221 214.304 24.0565 214.434 25.6996 215.412C27.2905 216.351 27.9034 219.259 28.6076 222.624C29.5595 227.175 30.4202 230.448 32.5066 230.5L32.5588 229.378C32.6501 227.448 32.7283 225.532 32.7935 223.654C32.7935 223.289 32.7935 222.715 32.7674 222.024C32.624 217.812 32.3501 209.961 36.7838 209.557C37.4619 209.492 38.0878 209.688 38.6355 210.144C39.8744 211.187 40.6568 213.587 41.048 217.473C43.8516 216.221 43.6952 212.987 43.5387 209.27C43.3692 205.515 43.1996 201.629 46.4988 199.894C47.5681 199.334 48.5983 199.281 49.5372 199.764C52.2887 201.146 53.2406 206.532 53.3319 207.145C54.0622 211.657 54.3751 219.885 48.2723 224.358C46.5771 225.61 43.7082 226.705 41.2827 226.575C41.1262 233.551 40.409 241.245 39.9265 246.383C39.6918 248.952 39.4962 250.986 39.4832 251.821C39.4832 252.408 39.1832 252.903 38.6877 253.177C38.4269 253.32 38.14 253.386 37.8531 253.386H37.827ZM34.1758 251.038L37.3967 251.208V251.769C37.3706 252.042 37.475 252.121 37.5402 252.16C37.6966 252.251 37.9314 252.251 38.1009 252.16C38.2313 252.082 38.2965 251.964 38.2965 251.795C38.2965 250.908 38.4921 248.965 38.7399 246.266C39.2354 240.997 39.9787 233.03 40.0961 225.923V225.271L40.7611 225.362C43.004 225.701 45.9251 224.606 47.5551 223.419C53.1624 219.311 52.8494 211.565 52.1583 207.327C51.8584 205.463 50.8021 201.707 48.9895 200.794C48.3897 200.494 47.7376 200.533 46.9944 200.911C44.3341 202.307 44.4906 205.658 44.6471 209.218C44.8166 213.13 45.0122 217.551 40.6698 218.829L39.9917 219.024L39.9396 218.32C39.5353 213.391 38.5964 211.631 37.8662 211.031C37.5662 210.77 37.2402 210.666 36.8621 210.705C33.5238 211.005 33.7715 218.425 33.9019 221.985C33.928 222.715 33.941 223.302 33.941 223.693C33.8758 225.571 33.7976 227.488 33.7063 229.431L33.615 231.504L33.1586 231.582C29.4552 232.247 28.412 227.253 27.4861 222.845C26.8863 220.015 26.2734 217.081 25.1258 216.39C23.874 215.647 22.8307 215.504 22.0353 215.986C20.314 217.016 19.8315 220.667 19.9227 222.728C20.1444 227.618 21.4224 234.021 26.2994 236.772C27.9816 237.724 30.7331 238.663 32.7805 238.494L33.4064 238.441V239.067C33.3803 243.814 33.6281 247.635 34.1758 251.025V251.038Z" fill="#0E1418"/>
<path d="M46.7713 280.34H24.7593C23.5857 280.34 22.6468 279.57 22.4251 278.436L17.4307 252.773L19.5041 252.368L24.4985 278.032C24.5376 278.227 24.7071 278.227 24.7593 278.227H46.7713C46.7713 278.227 46.993 278.227 47.0321 278.032L51.9874 252.368L54.0608 252.773L49.1055 278.436C48.8838 279.583 47.9449 280.353 46.7713 280.353V280.34Z" fill="#0E1418"/>
<path d="M17.6531 244.518H54.1919C54.8178 244.518 55.3264 245.209 55.3264 246.044V251.599C55.3264 252.447 54.8178 253.125 54.1919 253.125H17.6531C17.0271 253.125 16.5186 252.434 16.5186 251.599V246.044C16.5186 245.196 17.0271 244.518 17.6531 244.518Z" fill="#D1CFC7"/>
<path d="M54.1915 253.712H17.6526C16.7137 253.712 15.9443 252.773 15.9443 251.599V246.044C15.9443 244.883 16.7137 243.931 17.6526 243.931H54.1915C55.1304 243.931 55.8997 244.883 55.8997 246.044V251.599C55.8997 252.76 55.1304 253.712 54.1915 253.712ZM17.6526 245.092C17.3918 245.092 17.0919 245.496 17.0919 246.044V251.599C17.0919 252.147 17.3918 252.551 17.6526 252.551H54.1915C54.4523 252.551 54.7522 252.147 54.7522 251.599V246.044C54.7522 245.496 54.4523 245.092 54.1915 245.092H17.6526Z" fill="#0E1418"/>
<path d="M54.1929 253.62H17.6541C16.7674 253.62 16.0371 252.721 16.0371 251.612V246.057C16.0371 244.949 16.7543 244.049 17.6541 244.049H54.1929C55.0797 244.049 55.8099 244.949 55.8099 246.057V251.612C55.8099 252.721 55.0797 253.62 54.1929 253.62ZM17.6541 245.001C17.3411 245.001 17.0021 245.431 17.0021 246.057V251.612C17.0021 252.225 17.3411 252.668 17.6541 252.668H54.1929C54.5059 252.668 54.845 252.238 54.845 251.612V246.057C54.845 245.431 54.5059 245.001 54.1929 245.001H17.6541Z" fill="#D1CFC7"/>
<path d="M54.1925 254.194H17.6537C16.4409 254.194 15.4629 253.034 15.4629 251.612V246.057C15.4629 244.636 16.4409 243.462 17.6537 243.462H54.1925C55.4052 243.462 56.3833 244.623 56.3833 246.057V251.612C56.3833 253.034 55.4052 254.194 54.1925 254.194ZM17.7189 245.575C17.7189 245.575 17.5754 245.796 17.5754 246.044V251.599C17.5754 251.899 17.6928 252.069 17.7319 252.095H54.1925C54.1925 252.095 54.2707 251.899 54.2707 251.599V246.044C54.2707 245.744 54.1534 245.575 54.1143 245.548H17.7189V245.575Z" fill="#0E1418"/>
<path d="M21.6296 222.702C22.2295 222.78 22.8293 222.858 23.4292 222.937C24.0812 223.015 24.0682 221.998 23.4292 221.919C22.8293 221.841 22.2295 221.763 21.6296 221.685C20.9776 221.606 20.9907 222.624 21.6296 222.702Z" fill="#0E1418"/>
<path d="M24.29 214.721V215.621C24.29 216.273 25.3072 216.273 25.3072 215.621V214.721C25.3072 214.069 24.29 214.069 24.29 214.721Z" fill="#0E1418"/>
<path d="M27.7985 224.032C28.2419 223.784 28.6722 223.536 29.1156 223.302C29.6894 222.989 29.1808 222.102 28.607 222.428C28.1637 222.676 27.7333 222.923 27.29 223.158C26.7162 223.471 27.2248 224.358 27.7985 224.032Z" fill="#0E1418"/>
<path d="M22.5813 235.69C23.1159 235.325 23.6375 234.947 24.1722 234.581C24.7068 234.216 24.1982 233.33 23.6636 233.708C23.1289 234.073 22.6073 234.451 22.0727 234.816C21.538 235.181 22.0466 236.068 22.5813 235.69Z" fill="#0E1418"/>
<path d="M18.7876 226.979C19.1657 227.122 19.5439 227.279 19.9221 227.422C20.535 227.657 20.7958 226.679 20.1959 226.444C19.8177 226.301 19.4396 226.144 19.0614 226.001C18.4485 225.766 18.1877 226.744 18.7876 226.979Z" fill="#0E1418"/>
<path d="M26.1423 231.686C26.3901 231.699 26.5335 231.817 26.677 231.999C27.0943 232.508 27.8115 231.778 27.3942 231.282C27.0682 230.891 26.6509 230.708 26.1423 230.669C25.4903 230.617 25.4903 231.634 26.1423 231.686Z" fill="#0E1418"/>
<path d="M28.3725 236.459C28.2682 237.163 28.3465 237.776 28.6203 238.441C28.8681 239.041 29.7418 238.52 29.494 237.933C29.3245 237.541 29.2854 237.15 29.3506 236.733C29.4549 236.094 28.4769 235.82 28.3725 236.459Z" fill="#0E1418"/>
<path d="M33.6668 236.642L34.5666 236.876C35.1925 237.046 35.4664 236.068 34.8404 235.898C34.5405 235.82 34.2406 235.742 33.9407 235.664C33.3147 235.494 33.0409 236.472 33.6668 236.642Z" fill="#0E1418"/>
<path d="M36.9137 226.666C36.8616 227.24 37.0833 227.761 37.5266 228.14C38.0222 228.557 38.7394 227.84 38.2439 227.422C37.9831 227.201 37.9048 226.992 37.9309 226.666C37.9961 226.014 36.9789 226.014 36.9137 226.666Z" fill="#0E1418"/>
<path d="M35.6218 219.429C35.3219 219.833 35.2697 220.237 35.361 220.72C35.4784 221.359 36.4564 221.085 36.339 220.446C36.3129 220.237 36.3651 220.068 36.4955 219.937C36.8867 219.416 36 218.907 35.6218 219.429Z" fill="#0E1418"/>
<path d="M41.1914 222.389V223.288C41.1914 223.94 42.2085 223.94 42.2085 223.288V222.389C42.2085 221.737 41.1914 221.737 41.1914 222.389Z" fill="#0E1418"/>
<path d="M31.7489 220.798C31.9706 220.954 32.2053 221.098 32.427 221.254C32.9747 221.619 33.4833 220.746 32.9356 220.381C32.7139 220.224 32.4792 220.081 32.2575 219.924C31.7098 219.559 31.2012 220.446 31.7489 220.798Z" fill="#0E1418"/>
<path d="M33.4449 212.387C33.6405 212.622 33.7318 212.856 33.7578 213.156C33.81 213.808 34.8272 213.808 34.775 213.156C34.7359 212.57 34.5403 212.113 34.1621 211.67C33.7318 211.174 33.0276 211.891 33.4449 212.387Z" fill="#0E1418"/>
<path d="M36 209.309V210.666C36 211.318 37.0171 211.318 37.0171 210.666V209.309C37.0171 208.657 36 208.657 36 209.309Z" fill="#0E1418"/>
<path d="M42.2731 215.269C42.4166 215.425 42.56 215.582 42.7165 215.725C43.1729 216.195 43.8901 215.477 43.4337 215.008C43.2903 214.852 43.1468 214.695 42.9903 214.552C42.5339 214.082 41.8167 214.799 42.2731 215.269Z" fill="#0E1418"/>
<path d="M43.2771 209.231C43.7205 209.257 44.1769 209.283 44.6202 209.309C45.2723 209.349 45.2723 208.331 44.6202 208.292C44.1769 208.266 43.7205 208.24 43.2771 208.214C42.6251 208.175 42.6251 209.192 43.2771 209.231Z" fill="#0E1418"/>
<path d="M44.7243 201.107C45.0242 201.407 45.3242 201.707 45.6241 202.007C46.0805 202.463 46.7977 201.746 46.3413 201.29C46.0414 200.99 45.7414 200.69 45.4415 200.39C44.9851 199.933 44.2679 200.651 44.7243 201.107Z" fill="#0E1418"/>
<path d="M48.623 198.499V200.077C48.623 200.729 49.6402 200.729 49.6402 200.077V198.499C49.6402 197.847 48.623 197.847 48.623 198.499Z" fill="#0E1418"/>
<path d="M50.4622 207.992C50.6056 207.771 50.7621 207.536 50.9055 207.314C51.2707 206.767 50.3839 206.258 50.0318 206.806C49.8884 207.027 49.7319 207.262 49.5885 207.484C49.2233 208.031 50.1101 208.54 50.4622 207.992Z" fill="#0E1418"/>
<path d="M47.0331 217.955C47.4113 217.812 47.7894 217.668 48.1676 217.512C48.7674 217.277 48.5066 216.299 47.8937 216.534C47.5156 216.677 47.1374 216.821 46.7592 216.977C46.1594 217.212 46.4202 218.19 47.0331 217.955Z" fill="#0E1418"/>
<path d="M51.5184 216.534C51.8966 216.456 52.2747 216.377 52.6399 216.299C53.2788 216.169 53.005 215.191 52.366 215.321C51.9878 215.399 51.6097 215.478 51.2445 215.556C50.6056 215.686 50.8794 216.664 51.5184 216.534Z" fill="#0E1418"/>
<path d="M48.623 221.267V221.489C48.623 222.141 49.6402 222.141 49.6402 221.489V221.267C49.6402 220.615 48.623 220.615 48.623 221.267Z" fill="#0E1418"/>
<path d="M39.9119 236.785C40.1335 236.629 40.3683 236.485 40.59 236.329C41.1246 235.964 40.6291 235.09 40.0814 235.455C39.8597 235.612 39.625 235.755 39.4033 235.912C38.8686 236.277 39.3642 237.15 39.9119 236.785Z" fill="#0E1418"/>
<path d="M39.3263 240.528C39.7306 240.137 40.1609 239.915 40.7086 239.785C41.3476 239.641 41.0737 238.663 40.4347 238.807C39.7306 238.976 39.1307 239.302 38.6091 239.811C38.1397 240.267 38.8569 240.984 39.3263 240.528Z" fill="#0E1418"/>
<path d="M35.1526 241.141C35.2308 241.284 35.3091 241.441 35.3873 241.584C35.6872 242.171 36.5609 241.649 36.261 241.076C36.1828 240.932 36.1045 240.776 36.0263 240.632C35.7264 240.045 34.8527 240.567 35.1526 241.141Z" fill="#0E1418"/>
<path d="M31.2801 242.236C31.8539 242.536 32.4016 242.601 33.0275 242.484C33.6665 242.354 33.3926 241.375 32.7537 241.506C32.4016 241.584 32.1016 241.532 31.7887 241.362C31.2149 241.063 30.6933 241.936 31.2801 242.236Z" fill="#0E1418"/>
<path d="M39.6648 232.612C40.3429 232.534 41.021 232.443 41.686 232.365C42.325 232.286 42.3381 231.269 41.686 231.348C41.0079 231.426 40.3299 231.517 39.6648 231.595C39.0258 231.674 39.0128 232.691 39.6648 232.612Z" fill="#0E1418"/>
<path d="M130.516 188.158C141.431 178.287 152.346 168.415 163.26 158.557C164.877 157.096 162.478 154.71 160.874 156.17C149.959 166.042 139.044 175.913 128.13 185.772C126.513 187.232 128.912 189.619 130.516 188.158Z" fill="#E9E8E4"/>
<path d="M167.524 203.259C178.439 193.387 189.353 183.516 200.268 173.657C201.885 172.197 199.486 169.81 197.882 171.271C186.967 181.142 176.052 191.014 165.138 200.872C163.521 202.333 165.92 204.719 167.524 203.259Z" fill="#E9E8E4"/>
<path d="M127.309 214.447C150.194 192.135 173.067 169.823 195.953 147.512C197.517 145.986 195.118 143.6 193.566 145.125C170.681 167.437 147.808 189.749 124.922 212.061C123.357 213.587 125.757 215.973 127.309 214.447Z" fill="#E9E8E4"/>
<path d="M207.142 54.7432H205.668V123.126H207.142V54.7432Z" fill="#0E1418"/>
<path d="M212.409 123.113C212.409 126.426 209.723 129.112 206.411 129.112C203.098 129.112 200.412 126.426 200.412 123.113C200.412 119.801 203.098 117.115 206.411 117.115C209.723 117.115 212.409 119.801 212.409 123.113Z" fill="#0E1418"/>
<path d="M206.488 143.234C206.384 143.234 204.428 143.221 203.007 141.787C202.055 140.835 201.572 139.518 201.572 137.862C201.572 137.418 201.924 137.066 202.368 137.066C202.811 137.066 203.163 137.418 203.163 137.862C203.163 139.075 203.489 140.027 204.128 140.665C205.093 141.617 206.475 141.644 206.488 141.644C208.731 141.644 210.544 139.818 210.544 137.588C210.544 135.358 208.718 133.532 206.488 133.532C206.045 133.532 205.693 133.18 205.693 132.737V128.329C205.693 127.886 206.045 127.534 206.488 127.534C206.932 127.534 207.284 127.886 207.284 128.329V131.994C210.022 132.385 212.135 134.745 212.135 137.588C212.135 140.705 209.605 143.234 206.488 143.234Z" fill="#0E1418"/>
<path d="M175.009 144.708C174.71 144.656 174.449 144.408 174.41 144.095C174.344 143.691 174.631 143.313 175.036 143.26L207.493 138.475C207.897 138.409 208.275 138.696 208.327 139.101C208.393 139.505 208.106 139.87 207.701 139.935L175.244 144.721C175.166 144.721 175.088 144.721 175.009 144.721V144.708Z" fill="#0E1418"/>
<path d="M237.302 155.518C237.224 155.518 237.159 155.479 237.094 155.44L207.244 139.857C206.879 139.674 206.749 139.218 206.932 138.866C207.114 138.501 207.557 138.37 207.923 138.553L237.772 154.136C238.137 154.319 238.267 154.775 238.085 155.127C237.928 155.414 237.615 155.57 237.302 155.505V155.518Z" fill="#0E1418"/>
<path d="M165.954 143.167L245.442 156.983C249.605 157.707 252.396 161.673 251.673 165.835L243.719 211.599C242.995 215.761 239.029 218.553 234.866 217.83L155.378 204.014C151.215 203.29 148.424 199.324 149.147 195.161L157.101 149.398C157.825 145.235 161.791 142.444 165.954 143.167Z" fill="white"/>
<path d="M235.959 218.907C235.45 218.907 234.941 218.868 234.42 218.776L155.487 205.058C153.127 204.654 151.079 203.35 149.697 201.394C148.315 199.438 147.793 197.064 148.198 194.704L156.048 149.493C156.895 144.629 161.538 141.356 166.402 142.204L245.335 155.922C247.695 156.327 249.742 157.631 251.124 159.587C252.507 161.543 253.028 163.916 252.624 166.276L244.774 211.487C244.017 215.829 240.223 218.907 235.959 218.907ZM164.876 144.108C161.577 144.108 158.643 146.481 158.056 149.846L150.206 195.056C149.893 196.882 150.297 198.721 151.366 200.233C152.436 201.746 154.027 202.75 155.839 203.076L234.772 216.794C238.527 217.459 242.127 214.917 242.779 211.161L250.629 165.95C250.942 164.125 250.538 162.286 249.468 160.773C248.399 159.261 246.808 158.257 244.995 157.944L166.063 144.225C165.658 144.16 165.267 144.121 164.876 144.121V144.108Z" fill="#0E1418"/>
<path d="M243.211 161.44L166.549 148.115C163.888 147.653 161.357 149.435 160.894 152.096L153.63 193.889C153.168 196.55 154.95 199.082 157.61 199.545L234.272 212.869C236.933 213.331 239.465 211.549 239.928 208.889L247.192 167.095C247.654 164.434 245.872 161.902 243.211 161.44Z" fill="#D1CFC7"/>
<path d="M234.982 213.926C234.63 213.926 234.278 213.9 233.926 213.834L157.627 200.572C156.023 200.299 154.628 199.412 153.689 198.082C152.75 196.752 152.385 195.135 152.672 193.531L159.87 152.089C160.444 148.789 163.599 146.56 166.912 147.133L243.21 160.395C246.523 160.969 248.739 164.125 248.166 167.437L240.967 208.879C240.694 210.483 239.807 211.878 238.477 212.817C237.446 213.547 236.234 213.926 234.982 213.926ZM234.278 211.839C235.347 212.022 236.416 211.787 237.303 211.161C238.19 210.535 238.777 209.609 238.959 208.54L246.157 167.098C246.536 164.894 245.062 162.795 242.858 162.404L166.56 149.142C164.356 148.763 162.256 150.237 161.865 152.441L154.667 193.883C154.484 194.952 154.719 196.021 155.345 196.908C155.971 197.795 156.897 198.382 157.966 198.564L234.265 211.826L234.278 211.839Z" fill="#0E1418"/>
<path d="M197.907 206.545L217.741 188.367L228.721 211.904L197.907 206.545Z" fill="white"/>
<path d="M229.882 212.791L196.434 206.975L217.963 187.245L229.882 212.791ZM199.381 206.115L227.561 211.018L217.52 189.488L199.381 206.115Z" fill="#0E1418"/>
<path d="M158.684 199.725L193.853 167.502L213.322 209.218L158.684 199.725Z" fill="white"/>
<path d="M214.482 210.105L157.223 200.155L194.088 166.368L214.482 210.105ZM160.157 199.294L212.148 208.331L193.618 168.624L160.144 199.307L160.157 199.294Z" fill="#0E1418"/>
<path d="M235.672 173.605C235.202 176.278 232.659 178.078 229.986 177.608C227.313 177.139 225.513 174.596 225.983 171.923C226.452 169.25 228.995 167.45 231.668 167.92C234.341 168.389 236.141 170.932 235.672 173.605Z" fill="white"/>
<path d="M230.834 178.365C230.508 178.365 230.182 178.339 229.869 178.287C226.831 177.752 224.784 174.857 225.318 171.819C225.579 170.345 226.388 169.067 227.613 168.206C228.839 167.346 230.313 167.007 231.786 167.268C233.26 167.528 234.538 168.337 235.398 169.563C236.259 170.788 236.585 172.262 236.337 173.735C236.077 175.209 235.268 176.487 234.042 177.348C233.09 178.013 231.982 178.365 230.834 178.365ZM230.808 168.532C229.948 168.532 229.1 168.793 228.37 169.302C227.444 169.954 226.831 170.932 226.635 172.04C226.44 173.162 226.701 174.283 227.34 175.209C227.992 176.135 228.97 176.748 230.078 176.943C231.186 177.139 232.321 176.891 233.247 176.239C234.173 175.587 234.786 174.609 234.981 173.501C235.385 171.193 233.834 169.002 231.525 168.598C231.278 168.558 231.03 168.532 230.795 168.532H230.808Z" fill="#0E1418"/>
<path d="M267.217 48.7705H193.5V56.8816H267.217V48.7705Z" fill="#D1CFC7"/>
<path d="M331.272 216.469H306.795V0.104492H331.272V216.469ZM309.22 214.043H328.846V2.52998H309.22V214.056V214.043Z" fill="#0E1418"/>
<path d="M330.972 23.8507H307.108V0H330.972V23.8507ZM309.573 21.3991H328.521V2.45157H309.573V21.3991Z" fill="#0E1418"/>
<path d="M309.202 0.359505L307.469 2.09302L328.87 23.4946L330.604 21.7611L309.202 0.359505Z" fill="#0E1418"/>
<path d="M328.87 0.368643L307.469 21.7703L309.202 23.5038L330.604 2.10217L328.87 0.368643Z" fill="#0E1418"/>
<path d="M330.972 45.2625H307.108V21.4119H330.972V45.2625ZM309.573 42.811H328.521V23.8634H309.573V42.811Z" fill="#0E1418"/>
<path d="M309.193 21.7626L307.46 23.4961L328.862 44.8977L330.595 43.1642L309.193 21.7626Z" fill="#0E1418"/>
<path d="M328.862 21.7722L307.46 43.1738L309.193 44.9073L330.595 23.5057L328.862 21.7722Z" fill="#0E1418"/>
<path d="M330.972 66.6618H307.108V42.7981H330.972V66.6618ZM309.573 64.2102H328.521V45.2627H309.573V64.2102Z" fill="#0E1418"/>
<path d="M309.207 43.163L307.474 44.8965L328.875 66.2981L330.609 64.5646L309.207 43.163Z" fill="#0E1418"/>
<path d="M328.875 43.185L307.474 64.5867L309.207 66.3202L330.609 44.9186L328.875 43.185Z" fill="#0E1418"/>
<path d="M330.972 88.074H307.108V64.2234H330.972V88.074ZM309.573 85.6225H328.521V66.675H309.573V85.6225Z" fill="#0E1418"/>
<path d="M309.199 64.5668L307.466 66.3003L328.867 87.7019L330.601 85.9684L309.199 64.5668Z" fill="#0E1418"/>
<path d="M328.867 64.576L307.466 85.9777L309.199 87.7112L330.601 66.3096L328.867 64.576Z" fill="#0E1418"/>
<path d="M330.972 109.473H307.108V85.6223H330.972V109.473ZM309.573 107.021H328.521V88.0739H309.573V107.021Z" fill="#0E1418"/>
<path d="M309.199 85.9799L307.466 87.7134L328.867 109.115L330.601 107.381L309.199 85.9799Z" fill="#0E1418"/>
<path d="M328.871 85.9928L307.47 107.394L309.203 109.128L330.605 87.7263L328.871 85.9928Z" fill="#0E1418"/>
<path d="M330.972 130.885H307.108V107.021H330.972V130.885ZM309.573 128.433H328.521V109.486H309.573V128.433Z" fill="#0E1418"/>
<path d="M309.205 107.384L307.472 109.117L328.873 130.519L330.607 128.785L309.205 107.384Z" fill="#0E1418"/>
<path d="M328.873 107.406L307.472 128.807L309.205 130.541L330.607 109.139L328.873 107.406Z" fill="#0E1418"/>
<path d="M330.972 152.284H307.108V128.434H330.972V152.284ZM309.573 149.833H328.521V130.885H309.573V149.833Z" fill="#0E1418"/>
<path d="M309.206 128.797L307.473 130.53L328.874 151.932L330.608 150.198L309.206 128.797Z" fill="#0E1418"/>
<path d="M328.878 128.797L307.477 150.198L309.21 151.932L330.612 130.53L328.878 128.797Z" fill="#0E1418"/>
<path d="M330.972 173.683H307.108V149.833H330.972V173.683ZM309.573 171.232H328.521V152.284H309.573V171.232Z" fill="#0E1418"/>
<path d="M309.197 150.188L307.464 151.921L328.865 173.323L330.599 171.589L309.197 150.188Z" fill="#0E1418"/>
<path d="M328.879 150.21L307.478 171.611L309.211 173.345L330.613 151.943L328.879 150.21Z" fill="#0E1418"/>
<path d="M330.972 195.096H307.108V171.245H330.972V195.096ZM309.573 192.644H328.521V173.696H309.573V192.644Z" fill="#0E1418"/>
<path d="M309.202 171.591L307.469 173.325L328.87 194.727L330.604 192.993L309.202 171.591Z" fill="#0E1418"/>
<path d="M328.87 171.614L307.469 193.015L309.202 194.749L330.604 173.347L328.87 171.614Z" fill="#0E1418"/>
<path d="M330.972 216.495H307.108V192.644H330.972V216.495ZM309.573 214.043H328.521V195.095H309.573V214.043Z" fill="#0E1418"/>
<path d="M309.203 193.004L307.47 194.738L328.871 216.139L330.605 214.406L309.203 193.004Z" fill="#0E1418"/>
<path d="M328.874 193.015L307.469 214.412L309.202 216.146L330.607 194.748L328.874 193.015Z" fill="#0E1418"/>
<path d="M373.561 44.9367H349.71V21.073H373.561V44.9367ZM352.162 42.4851H371.109V23.5376H352.162V42.4851Z" fill="#0E1418"/>
<path d="M371.456 21.4467L350.059 42.8521L351.792 44.5853L373.19 23.1799L371.456 21.4467Z" fill="#0E1418"/>
<path d="M351.801 21.4452L350.067 23.1787L371.469 44.5803L373.203 42.8468L351.801 21.4452Z" fill="#0E1418"/>
<path d="M352.149 44.9367H328.298V21.073H352.149V44.9367ZM330.749 42.4851H349.697V23.5376H330.749V42.4851Z" fill="#0E1418"/>
<path d="M350.055 21.4413L328.657 42.8467L330.391 44.5799L351.789 23.1745L350.055 21.4413Z" fill="#0E1418"/>
<path d="M330.397 21.4369L328.663 23.1704L350.065 44.572L351.798 42.8385L330.397 21.4369Z" fill="#0E1418"/>
<path d="M330.75 44.9367H306.899V21.073H330.75V44.9367ZM309.351 42.4851H328.299V23.5376H309.351V42.4851Z" fill="#0E1418"/>
<path d="M309.351 44.9367H285.5V21.073H309.351V44.9367ZM287.952 42.4851H306.899V23.5376H287.952V42.4851Z" fill="#0E1418"/>
<path d="M307.24 21.4426L285.838 42.8442L287.571 44.5778L308.973 23.1761L307.24 21.4426Z" fill="#0E1418"/>
<path d="M287.581 21.4423L285.848 23.1758L307.249 44.5774L308.983 42.8439L287.581 21.4423Z" fill="#0E1418"/>
<path d="M287.939 44.9367H264.088V21.073H287.939V44.9367ZM266.539 42.4851H285.487V23.5376H266.539V42.4851Z" fill="#0E1418"/>
<path d="M285.849 21.4338L264.447 42.8354L266.181 44.569L287.582 23.1674L285.849 21.4338Z" fill="#0E1418"/>
<path d="M266.181 21.4432L264.447 23.1768L285.849 44.5784L287.582 42.8449L266.181 21.4432Z" fill="#0E1418"/>
<path d="M266.54 44.9367H242.689V21.073H266.54V44.9367ZM245.141 42.4851H264.089V23.5376H245.141V42.4851Z" fill="#0E1418"/>
<path d="M243.902 44.9367H222.503C222.007 44.9367 221.564 44.6368 221.368 44.1804C221.173 43.724 221.29 43.1893 221.629 42.8503L243.028 21.4512L244.762 23.1855L225.45 42.4982H243.38L264.427 21.4512L266.161 23.1855L244.762 44.5846C244.528 44.8193 244.215 44.9497 243.902 44.9497V44.9367Z" fill="#0E1418"/>
<path d="M244.776 21.4479L243.043 23.1814L264.445 44.583L266.178 42.8495L244.776 21.4479Z" fill="#0E1418"/>
<path d="M331.324 240.332H306.795V216.482H331.324V240.332ZM309.325 237.881H328.807V218.933H309.325V237.881Z" fill="#0E1418"/>
<path d="M329.172 239.967L307.173 218.568L308.959 216.834L330.958 238.233L329.172 239.967Z" fill="#0E1418"/>
<path d="M308.959 239.967L307.173 238.233L329.172 216.834L330.958 218.568L308.959 239.967Z" fill="#0E1418"/>
<path d="M331.324 259.71H306.795V235.859H331.324V259.71ZM309.325 257.258H328.807V238.311H309.325V257.258Z" fill="#0E1418"/>
<path d="M329.172 259.345L307.173 237.946L308.959 236.212L330.958 257.611L329.172 259.345Z" fill="#0E1418"/>
<path d="M308.959 259.345L307.173 257.611L329.172 236.212L330.958 237.946L308.959 259.345Z" fill="#0E1418"/>
<path d="M331.324 281.109H306.795V257.259H331.324V281.109ZM309.325 278.658H328.807V259.71H309.325V278.658Z" fill="#0E1418"/>
<path d="M329.172 280.757L307.173 259.345L308.959 257.611L330.958 279.023L329.172 280.757Z" fill="#0E1418"/>
<path d="M308.959 280.757L307.173 279.023L329.172 257.611L330.958 259.345L308.959 280.757Z" fill="#0E1418"/>
</g>
<defs>
<clipPath id="clip0_181_2191">
<rect width="373.121" height="283" fill="white" transform="translate(0.439453)"/>
</clipPath>
</defs>
</svg>
