<svg width="60" height="60" viewBox="0 0 60 60" fill="none" xmlns="http://www.w3.org/2000/svg">
<path fill-rule="evenodd" clip-rule="evenodd" d="M40.0043 42.4548L42.4517 40.0068C42.5975 39.8591 42.6793 39.66 42.6793 39.4524C42.6793 39.2449 42.5975 39.0457 42.4517 38.898L40.0055 36.4524L40.3439 35.9586C42.7036 32.5064 43.6896 28.2976 43.1087 24.1565C42.5279 20.0154 40.4221 16.2403 37.2036 13.5705C33.9852 10.9007 29.886 9.52849 25.7089 9.72267C21.5318 9.91684 17.5776 11.6634 14.6207 14.6202C11.6639 17.5771 9.91732 21.5313 9.72314 25.7084C9.52897 29.8856 10.9011 33.9847 13.571 37.2032C16.2408 40.4216 20.0159 42.5274 24.157 43.1083C28.2981 43.6891 32.5069 42.7031 35.9591 40.3434L36.4529 40.005L38.8985 42.4512C39.0457 42.5967 39.244 42.6785 39.451 42.6792C39.6579 42.6799 39.8562 42.5993 40.0043 42.4548ZM36.0059 36.006C33.8033 38.2087 30.9052 39.5796 27.8052 39.885C24.7052 40.1904 21.5952 39.4115 19.0052 37.6809C16.4151 35.9504 14.5052 33.3753 13.6009 30.3945C12.6966 27.4137 12.8539 24.2115 14.0459 21.3336C15.2379 18.4557 17.3909 16.0802 20.138 14.6117C22.8852 13.1433 26.0565 12.6728 29.1117 13.2805C32.1668 13.8882 34.9167 15.5364 36.8928 17.9443C38.869 20.3522 39.9491 23.3708 39.9491 26.4858C39.9515 28.2542 39.6044 30.0057 38.9277 31.6395C38.251 33.2733 37.258 34.7572 36.0059 36.006ZM42.9131 41.586L47.4191 46.0914L46.0931 47.4174L41.5877 42.9114L42.2477 42.2514L42.9131 41.586ZM56.4053 53.6634C56.4061 53.9339 56.3535 54.2018 56.2506 54.4519C56.1476 54.702 55.9963 54.9293 55.8053 55.1208L55.1207 55.8C54.9292 55.991 54.7019 56.1423 54.4518 56.2453C54.2017 56.3482 53.9338 56.4008 53.6633 56.4C53.3927 56.4008 53.1247 56.3482 52.8745 56.2453C52.6243 56.1423 52.3969 55.991 52.2053 55.8L46.1261 49.7232C46.0882 49.6838 46.0671 49.6312 46.0671 49.5765C46.0671 49.5218 46.0882 49.4693 46.1261 49.4298L49.4261 46.1298C49.4655 46.0919 49.5181 46.0708 49.5728 46.0708C49.6275 46.0708 49.68 46.0919 49.7195 46.1298L55.7999 52.2054C55.9919 52.3966 56.1442 52.6238 56.248 52.874C56.3519 53.1242 56.4054 53.3925 56.4053 53.6634ZM13.6673 5.04001H10.1477V3.59461H13.6673V5.04001ZM19.4981 5.04001H15.9791V3.59461H19.4999L19.4981 5.04001ZM25.3295 5.04001H21.8105V3.59461H25.3295V5.04001ZM31.1609 5.04001H27.6419V3.59461H31.1609V5.04001ZM36.9923 5.04001H33.4733V3.59461H36.9923V5.04001ZM42.8237 5.04001H39.3047V3.59461H42.8237V5.04001ZM47.9333 5.04001H45.1361V3.59461H48.6551C48.846 3.59461 49.0292 3.67046 49.1642 3.80549C49.2992 3.94052 49.3751 4.12365 49.3751 4.31461V7.83601H47.9333V5.04001ZM10.1477 47.9334H13.6673V49.38H10.1477V47.9334ZM49.3799 13.6674H47.9333V10.1478H49.3799V13.6674ZM15.9791 47.9334H19.4999V49.38H15.9791V47.9334ZM49.3799 19.5H47.9333V15.9792H49.3799V19.5ZM21.8105 47.9334H25.3295V49.38H21.8105V47.9334ZM49.3799 25.3296H47.9333V21.8106H49.3799V25.3296ZM27.6419 47.9334H31.1609V49.38H27.6419V47.9334ZM49.3799 31.161H47.9333V27.642H49.3799V31.161ZM33.4733 47.9334H36.9923V49.38H33.4733V47.9334ZM49.3799 36.9924H47.9333V33.4734H49.3799V36.9924ZM39.3047 47.9334H42.8237V49.38H39.3047V47.9334ZM47.9333 39.3048H49.3799V42.8238H47.9333V39.3048ZM5.03988 13.6674H3.59448V10.1478H5.03988V13.6674ZM3.59448 15.9792H5.03988V19.5H3.59448V15.9792ZM3.59448 21.8106H5.03988V25.3296H3.59448V21.8106ZM3.59448 27.642H5.03988V31.161H3.59448V27.642ZM3.59448 33.4734H5.03988V36.9924H3.59448V33.4734ZM3.59448 39.3048H5.03988V42.8238H3.59448V39.3048ZM4.31448 3.59461H7.83589V5.04001H5.03988V7.83721H3.59448V4.31641C3.59425 4.22155 3.61276 4.12758 3.64894 4.03991C3.68513 3.95222 3.73829 3.87256 3.80537 3.80549C3.87244 3.73841 3.9521 3.68526 4.03978 3.64907C4.12746 3.61288 4.22143 3.59437 4.31628 3.59461H4.31448ZM5.03448 47.9346H7.83589V49.38H4.31628C4.12533 49.38 3.94219 49.3042 3.80717 49.1691C3.67214 49.0341 3.59628 48.851 3.59628 48.66V45.1362H5.03988L5.03448 47.9346ZM33.5465 19.4226C31.9121 17.7882 29.7616 16.7711 27.4613 16.5446C25.1611 16.318 22.8534 16.896 20.9316 18.1802C19.0097 19.4643 17.5926 21.3751 16.9217 23.587C16.2507 25.7988 16.3675 28.1749 17.252 30.3103C18.1365 32.4458 19.7341 34.2084 21.7726 35.298C23.811 36.3876 26.1642 36.7366 28.4312 36.2857C30.6982 35.8347 32.7386 34.6117 34.205 32.825C35.6713 31.0383 36.4727 28.7984 36.4727 26.487C36.475 25.1748 36.218 23.8751 35.7164 22.6626C35.2149 21.45 34.4787 20.3485 33.5501 19.4214L33.5465 19.4226ZM24.3941 24.978C23.9357 25.4363 23.3326 25.7214 22.6876 25.7848C22.0425 25.8482 21.3955 25.686 20.8566 25.3258C20.3178 24.9656 19.9205 24.4297 19.7325 23.8094C19.5445 23.1891 19.5774 22.5228 19.8256 21.924C20.0738 21.3253 20.522 20.8312 21.0937 20.5258C21.6654 20.2204 22.3253 20.1228 22.961 20.2495C23.5966 20.3761 24.1687 20.7193 24.5797 21.2205C24.9907 21.7217 25.2152 22.3499 25.2149 22.998C25.2153 23.3658 25.143 23.7301 25.0021 24.0699C24.8613 24.4097 24.6546 24.7183 24.3941 24.978Z" fill="#0E1418"/>
</svg>
