<svg width="34" height="35" viewBox="0 0 34 35" fill="none" xmlns="http://www.w3.org/2000/svg">
<path d="M32.8448 5.8679L29.0954 7.97247C29.0073 8.02195 28.9126 8.04541 28.8192 8.04541C28.6128 8.04541 28.413 7.93105 28.3077 7.72946C28.1549 7.43698 28.2596 7.07119 28.5421 6.91285L32.2915 4.80829C32.5739 4.64995 32.9264 4.75844 33.0795 5.05129C33.2319 5.34341 33.1269 5.7092 32.8448 5.8679ZM25.9962 4.38826C26.1065 4.48795 26.2426 4.5367 26.378 4.5367C26.5403 4.5367 26.7015 4.46669 26.8164 4.32998L29.6176 0.998664C29.8286 0.747963 29.8032 0.367148 29.5613 0.148334C29.3195 -0.0701125 28.9522 -0.044456 28.7411 0.206611L25.9399 3.53792C25.7292 3.78899 25.7543 4.16944 25.9962 4.38826ZM1.9965 29.9861C2.18564 30.0169 2.34757 30.143 2.43065 30.3215C2.51268 30.5007 2.50561 30.7104 2.40944 30.8823L0 35.2116L1.32051 36L3.7303 31.6732C3.82541 31.5013 3.99723 31.3899 4.1885 31.3741C4.37907 31.3584 4.56503 31.4419 4.68595 31.5966L5.911 33.1697V26.1743L0.067528 29.672L1.9965 29.9861ZM25.4994 10.7544L24.7761 7.95341L22.3585 7.82293L23.4697 12.1204L25.4994 10.7544ZM26.3306 11.6318L23.7858 13.3446L25.2721 19.0968C25.3258 19.3049 25.2685 19.5263 25.1215 19.6788C25.0108 19.7935 24.8627 19.8551 24.7106 19.8551C24.6604 19.8551 24.6102 19.8481 24.56 19.8346L17.2656 17.8077L18.6618 23.208C18.8297 23.8564 18.7431 24.5356 18.4168 25.1205C18.0911 25.7048 17.5668 26.1222 16.94 26.2963L16.1678 26.5119C15.9592 26.5698 15.7475 26.5987 15.5367 26.5987C15.1135 26.5987 14.6964 26.4833 14.3195 26.2571C13.7566 25.9196 13.3546 25.376 13.1881 24.7284L11.6816 18.9021L10.3555 19.2701C7.47227 20.0713 4.49715 18.2926 3.72394 15.3036C3.3962 14.0336 3.51959 12.7468 3.98875 11.6245H3.58888C2.52576 11.6245 1.66133 12.5206 1.66133 13.622V26.6456C1.66133 26.8604 1.69492 27.0701 1.75891 27.2691L6.20232 24.6089C6.38192 24.5019 6.6036 24.5019 6.7832 24.6089C6.96351 24.7166 7.07417 24.9157 7.07417 25.1312V28.6461H11.1757C11.4964 28.6461 11.7566 28.9159 11.7566 29.2483V32.5408L15.5339 28.8118C15.6421 28.7055 15.7856 28.6461 15.9345 28.6461H26.1701C27.2325 28.6461 28.0969 27.7492 28.0969 26.6456V13.6217C28.0969 12.5771 27.3188 11.7169 26.3306 11.6318ZM14.3113 24.4172C14.398 24.7548 14.6073 25.0377 14.9018 25.214C15.197 25.391 15.5396 25.4387 15.8666 25.3482L16.6388 25.1326C16.9658 25.0414 17.2394 24.8229 17.4102 24.5169C17.5803 24.2116 17.6262 23.8571 17.5389 23.5203L16.0324 17.6934L12.8042 18.5902L14.3113 24.4172ZM8.95364 18.2571C9.31709 18.2571 9.68655 18.2087 10.0539 18.1064L15.7319 16.5293L13.5318 8.01572L7.85234 9.59286C5.58962 10.2222 4.24154 12.6442 4.84646 14.9925C5.35522 16.9574 7.077 18.2571 8.95364 18.2571ZM23.889 18.4004L19.6941 2.1686L14.5913 7.45861L16.9188 16.4637L23.889 18.4004ZM34.5188 10.7808L30.3183 10.0202C30.0019 9.96341 29.701 10.1822 29.6458 10.5103C29.5907 10.8379 29.8021 11.1502 30.1182 11.2074L34.3187 11.9679C34.3527 11.9742 34.3862 11.9771 34.4195 11.9771C34.6967 11.9771 34.942 11.7707 34.9912 11.4782C35.0467 11.1502 34.8349 10.8379 34.5188 10.7808Z" fill="#7DED01"/>
</svg>
