<svg width="20" height="21" viewBox="0 0 20 21" fill="none" xmlns="http://www.w3.org/2000/svg">
<path d="M9.10337 3.98329C9.47021 3.24012 10.53 3.24012 10.8968 3.98329L12.3426 6.91241C12.4882 7.20726 12.7694 7.41172 13.0947 7.45928L16.3296 7.93211C17.1495 8.05195 17.4763 9.05979 16.8827 9.63795L14.5435 11.9163C14.3077 12.1461 14.2 12.4772 14.2557 12.8017L14.8075 16.0193C14.9476 16.8362 14.0901 17.4592 13.3564 17.0734L10.4655 15.5531C10.1741 15.3999 9.82601 15.3999 9.53463 15.5531L6.64371 17.0734C5.91008 17.4592 5.05254 16.8362 5.19265 16.0193L5.7445 12.8017C5.80016 12.4772 5.6925 12.1461 5.45663 11.9163L3.11743 9.63795C2.52383 9.05979 2.85062 8.05195 3.67053 7.93211L6.90545 7.45928C7.2308 7.41172 7.51199 7.20726 7.65753 6.91241L9.10337 3.98329Z" fill="#0E1418"/>
</svg>
