<svg width="61" height="60" viewBox="0 0 61 60" fill="none" xmlns="http://www.w3.org/2000/svg">
<path d="M33.697 16.9091C33.697 14.7879 34.1212 12.7879 34.9697 10.9697C31.8182 10.1212 28.2424 8.48485 24.8485 5.27273C24.303 4.72727 23.6363 4.48485 22.9091 4.48485C22.2424 4.48485 21.5151 4.72727 20.9697 5.27273C15.0909 10.8485 8.48483 11.7576 4.66665 11.7576H4.30302C2.78786 11.7576 1.51514 12.9697 1.51514 14.5455V27.0303C1.51514 35.7576 5.57574 43.9394 12.5454 49.1515L21.2121 55.5758C21.697 55.9394 22.303 56.1212 22.9091 56.1212C23.5151 56.1212 24.1212 55.9394 24.606 55.5758L33.2727 49.0303C39.1515 44.6061 43.0303 38.0606 44 30.8485C38.0606 29.0303 33.697 23.4545 33.697 16.9091ZM22.9091 15.9394C26.2424 15.9394 28.9091 18.6061 28.9091 21.9394C28.9091 25.2727 26.2424 27.9394 22.9091 27.9394C19.5757 27.9394 16.9091 25.2727 16.9091 21.9394C16.9091 18.6667 19.5757 15.9394 22.9091 15.9394ZM32.9091 39.2121C32.9091 39.8788 32.3636 40.4848 31.6364 40.4848H14.2424C13.5757 40.4848 12.9697 39.9394 12.9697 39.2121V35.3939C12.9697 32.0606 14.7273 30 17.0909 28.8485C18.6667 30.2424 20.7273 31.0303 22.9697 31.0303C25.2121 31.0303 27.2727 30.2424 28.8485 28.8485C31.1515 30 32.9697 32.0606 32.9697 35.3939V39.2121H32.9091Z" fill="#0E1418"/>
<path d="M48.2425 6.06061C42.2425 6.06061 37.394 10.9091 37.394 16.9091C37.394 22.9091 42.2425 27.7576 48.2425 27.7576C54.2425 27.7576 59.091 22.9091 59.091 16.9091C59.091 10.9091 54.2425 6.06061 48.2425 6.06061ZM53.7577 15.1515L48.1213 21.2121C47.8183 21.5152 47.394 21.697 46.9698 21.697C46.5456 21.697 46.1213 21.5152 45.8183 21.2121L42.6062 17.7576C42.0001 17.1515 42.0607 16.1818 42.6668 15.5758C43.2728 14.9697 44.2425 15.0303 44.8486 15.6364L46.9092 17.8788L51.4546 13.0303C52.0607 12.4242 53.0304 12.3636 53.6365 12.9697C54.3031 13.5758 54.3637 14.5455 53.7577 15.1515Z" fill="#0E1418"/>
</svg>
