<svg id="ab3fe525-d453-47d8-91ef-044c7180bc24" xmlns="http://www.w3.org/2000/svg" xmlns:xlink="http://www.w3.org/1999/xlink" viewBox="0 0 52.45 60"><defs><style>.cls-1,.cls-5{fill:#635bff;}.cls-2{fill:url(#linear-gradient);}.cls-3{fill:url(#linear-gradient-2);}.cls-4{fill:#fff;}.cls-5{opacity:0.5;}.cls-6{fill:url(#linear-gradient-3);}.cls-7{fill:url(#linear-gradient-4);}.cls-8{fill:url(#linear-gradient-5);}.cls-9{fill:url(#linear-gradient-6);}</style><linearGradient id="linear-gradient" x1="31.64" y1="42.37" x2="42" y2="42.37" gradientUnits="userSpaceOnUse"><stop offset="0" stop-color="#fff"/><stop offset="1" stop-color="#635bff"/></linearGradient><linearGradient id="linear-gradient-2" x1="8.57" y1="11.61" x2="17.33" y2="26.77" xlink:href="#linear-gradient"/><linearGradient id="linear-gradient-3" x1="13.05" y1="33.8" x2="14.21" y2="29.49" gradientUnits="userSpaceOnUse"><stop offset="0" stop-color="#635bff"/><stop offset="1" stop-color="#fff"/></linearGradient><linearGradient id="linear-gradient-4" x1="16.05" y1="31.78" x2="17.64" y2="25.86" xlink:href="#linear-gradient-3"/><linearGradient id="linear-gradient-5" x1="16.06" y1="40.22" x2="17.63" y2="34.38" xlink:href="#linear-gradient-3"/><linearGradient id="linear-gradient-6" x1="16.05" y1="37.43" x2="17.64" y2="31.51" xlink:href="#linear-gradient-3"/></defs><title>Webflow Platform Ilustrations</title><path class="cls-1" d="M31.72,45.14H5.09a2,2,0,0,1-2-2V11.56a2,2,0,0,1,2-2H34.16a2,2,0,0,1,2,2V36.49a5.48,5.48,0,0,1,1.49,0V10a2,2,0,0,0-2-2H3.6a2,2,0,0,0-2,2V44.74a2,2,0,0,0,2,2H32.95A6,6,0,0,1,31.72,45.14Z"/><path class="cls-1" d="M37,49.21a6.85,6.85,0,1,1,6.85-6.85A6.85,6.85,0,0,1,37,49.21Zm0-12.77a5.92,5.92,0,1,0,5.92,5.92A5.93,5.93,0,0,0,37,36.44Zm-6-1.63-1.53,1.53.23.23L31.2,35Zm.17.55L30,36.51l.62.62L31.75,36Zm.56,1-.75.75.62.62.75-.75Zm12.84,0L43,34.81l-.23.23,1.53,1.53Zm-.55.17-1.15-1.15-.62.62,1.15,1.15Zm-1,.56-.75-.75-.62.62.75.75Z"/><path class="cls-2" d="M37,42.37l2.66-4.61A5.33,5.33,0,1,0,42,44.11"/><rect class="cls-3" x="6.27" y="12.51" width="13.36" height="13.36" rx="1" ry="1"/><path class="cls-4" d="M13.91,22.37H8.21l2.69-4.66a.19.19,0,0,1,.33,0L13,20.84l.09.15Z"/><polygon class="cls-5" points="13.91 22.37 11.97 22.37 12.92 20.99 12.99 20.89 13.03 20.84 13.11 20.99 13.91 22.37"/><path class="cls-4" d="M17.08,22.37H12.16l1-1.38.07-.1,1.24-1.8a.25.25,0,0,1,.35,0l0,0,0,0Z"/><circle class="cls-4" cx="16.85" cy="16.85" r="0.84"/><rect class="cls-6" x="6.46" y="31.14" width="14.34" height="1.01" rx="0.51" ry="0.51"/><rect class="cls-7" x="6.46" y="28.31" width="20.78" height="1.01" rx="0.51" ry="0.51"/><path class="cls-8" d="M7.19,36.8H26.5c.41,0,.73.23.73.51h0c0,.28-.33.51-.73.51H7.19c-.41,0-.73-.23-.73-.51h0C6.46,37,6.79,36.8,7.19,36.8Z"/><rect class="cls-9" x="6.46" y="33.97" width="20.78" height="1.01" rx="0.51" ry="0.51"/></svg>