<svg id="ab3fe525-d453-47d8-91ef-044c7180bc24" xmlns="http://www.w3.org/2000/svg" xmlns:xlink="http://www.w3.org/1999/xlink" viewBox="0 0 56.52 60"><defs><style>.cls-1{fill:#635bff;opacity:0.05;}.cls-2{fill:none;stroke:#635bff;stroke-miterlimit:10;stroke-width:2px;}.cls-3{fill:url(#linear-gradient);}.cls-4{fill:url(#linear-gradient-2);}.cls-5{fill:url(#linear-gradient-3);}.cls-6{fill:url(#linear-gradient-4);}.cls-7{fill:url(#linear-gradient-5);}.cls-8{fill:url(#linear-gradient-6);}.cls-9{fill:url(#linear-gradient-7);}.cls-10{fill:url(#linear-gradient-8);}</style><linearGradient id="linear-gradient" x1="13.18" y1="20.53" x2="14.58" y2="15.3" gradientUnits="userSpaceOnUse"><stop offset="0" stop-color="#635bff"/><stop offset="1" stop-color="#fff"/></linearGradient><linearGradient id="linear-gradient-2" x1="11.02" y1="22.87" x2="12.11" y2="18.8" xlink:href="#linear-gradient"/><linearGradient id="linear-gradient-3" x1="13.18" y1="32.7" x2="14.58" y2="27.47" xlink:href="#linear-gradient"/><linearGradient id="linear-gradient-4" x1="13.18" y1="35.61" x2="14.58" y2="30.39" xlink:href="#linear-gradient"/><linearGradient id="linear-gradient-5" x1="13.18" y1="41.45" x2="14.58" y2="36.22" xlink:href="#linear-gradient"/><linearGradient id="linear-gradient-6" x1="22.82" y1="38.95" x2="24.44" y2="32.89" xlink:href="#linear-gradient"/><linearGradient id="linear-gradient-7" x1="22.82" y1="27.28" x2="24.44" y2="21.22" xlink:href="#linear-gradient"/><linearGradient id="linear-gradient-8" x1="20.21" y1="29.5" x2="21.46" y2="24.84" xlink:href="#linear-gradient"/></defs><title>Webflow Platform Ilustrations</title><rect class="cls-1" x="5.8" y="14.31" width="46.13" height="34.63" rx="2" ry="2"/><rect class="cls-2" x="3.13" y="11.06" width="46.13" height="34.63" rx="2" ry="2"/><rect class="cls-3" x="5.8" y="17.17" width="16.17" height="1.5" rx="0.5" ry="0.5"/><rect class="cls-4" x="5.8" y="20.08" width="11.54" height="1.5" rx="0.5" ry="0.5"/><rect class="cls-5" x="5.8" y="29.33" width="16.17" height="1.5" rx="0.5" ry="0.5"/><rect class="cls-6" x="5.8" y="32.25" width="16.17" height="1.5" rx="0.5" ry="0.5"/><rect class="cls-7" x="5.8" y="38.08" width="16.17" height="1.5" rx="0.5" ry="0.5"/><rect class="cls-8" x="13.88" y="35.17" width="19.5" height="1.5" rx="0.5" ry="0.5"/><rect class="cls-9" x="13.88" y="23.5" width="19.5" height="1.5" rx="0.5" ry="0.5"/><rect class="cls-10" x="13.88" y="26.42" width="13.92" height="1.5" rx="0.5" ry="0.5"/></svg>