<svg width="24" height="24" viewBox="0 0 24 24" fill="none" xmlns="http://www.w3.org/2000/svg">
<rect width="24" height="24" rx="6" fill="#E9E8E4"/>
<path fill-rule="evenodd" clip-rule="evenodd" d="M14.4647 8.31421C14.5355 8.29591 14.5678 8.32235 14.6097 8.37115C14.8504 8.65316 15.626 9.63613 15.8371 9.90526C15.8448 9.91479 15.8504 9.92576 15.8537 9.93752C15.8569 9.94927 15.8577 9.96155 15.856 9.97361C15.8542 9.98567 15.85 9.99725 15.8436 10.0076C15.8371 10.018 15.8286 10.027 15.8185 10.0341C14.2549 11.3038 12.5153 13.0996 11.5458 14.3862C11.5252 14.4134 11.5424 14.4154 11.5562 14.4093C13.2449 13.6527 17.2109 12.4454 19 12.1071V9.75205L12.0072 4L5 9.75205V12.3261C7.17209 10.9831 12.1908 8.90399 14.4647 8.31421ZM8.62428 18.1832C8.6621 18.2293 8.72742 18.2388 8.77555 18.2063C11.3733 16.8138 17.0878 15.0465 19 14.7082V20H5.00069V14.5022C6.43981 13.6548 10.3274 11.9166 11.6957 11.4516C11.7232 11.4421 11.7294 11.4584 11.7061 11.4767C10.3928 12.4915 8.33412 14.8865 7.32543 16.4261C7.27936 16.4979 7.28211 16.521 7.31855 16.565L8.62428 18.1832Z" fill="#0E1418"/>
</svg>
